<svg width="24" height="19" viewBox="0 0 24 19" fill="none" xmlns="http://www.w3.org/2000/svg">
<g filter="url(#filter0_d_1019_8630)">
<path d="M20 2H4C3.4 2 3 1.6 3 1C3 0.4 3.4 0 4 0H20C20.6 0 21 0.4 21 1C21 1.6 20.6 2 20 2Z" fill="#313131"/>
<path d="M14 8H4C3.4 8 3 7.6 3 7C3 6.4 3.4 6 4 6H14C14.6 6 15 6.4 15 7C15 7.6 14.6 8 14 8Z" fill="#313131"/>
<path d="M18 14H4C3.4 14 3 13.6 3 13C3 12.4 3.4 12 4 12H18C18.6 12 19 12.4 19 13C19 13.6 18.6 14 18 14Z" fill="#313131"/>
</g>
<defs>
<filter id="filter0_d_1019_8630" x="-1" y="0" width="26" height="22" filterUnits="userSpaceOnUse" color-interpolation-filters="sRGB">
<feFlood flood-opacity="0" result="BackgroundImageFix"/>
<feColorMatrix in="SourceAlpha" type="matrix" values="0 0 0 0 0 0 0 0 0 0 0 0 0 0 0 0 0 0 127 0" result="hardAlpha"/>
<feOffset dy="4"/>
<feGaussianBlur stdDeviation="2"/>
<feComposite in2="hardAlpha" operator="out"/>
<feColorMatrix type="matrix" values="0 0 0 0 0 0 0 0 0 0 0 0 0 0 0 0 0 0 0.25 0"/>
<feBlend mode="normal" in2="BackgroundImageFix" result="effect1_dropShadow_1019_8630"/>
<feBlend mode="normal" in="SourceGraphic" in2="effect1_dropShadow_1019_8630" result="shape"/>
</filter>
</defs>
</svg>
