<svg width="512" height="512" viewBox="0 0 512 512" fill="none" xmlns="http://www.w3.org/2000/svg">
<path d="M505.911 4.6586C502.021 1.22039 496.867 -0.430679 491.703 0.105035L162.56 36.6761C153.296 37.7014 146.285 45.5314 146.286 54.8518V380.722C129.713 370.805 110.743 365.613 91.4292 365.709C41.0153 365.711 0 398.514 0 438.853C0 479.191 41.0153 511.996 91.4282 511.996C141.841 511.996 182.856 479.209 182.856 438.853V162.739L475.428 130.154V344.097C458.85 334.199 439.879 329.026 420.571 329.138C370.157 329.138 329.143 361.943 329.143 402.282C329.143 442.62 370.158 475.425 420.571 475.425C470.984 475.425 511.999 442.638 511.999 402.282V18.2818C511.999 13.0811 509.785 8.12681 505.911 4.6586Z" fill="#313131"/>
</svg>
