<svg width="396" height="512" viewBox="0 0 396 512" fill="none" xmlns="http://www.w3.org/2000/svg">
<path d="M0.195801 512V0H176.022C239.547 0 289.134 11.7814 324.769 35.3414C360.398 58.8986 378.217 94.0085 378.217 140.66C378.217 165.044 372.479 186.719 360.988 205.717C349.5 224.71 331.803 239.01 307.887 248.618C337.894 255.414 360.045 269.07 374.35 289.584C388.643 310.099 395.802 333.721 395.802 360.442C395.802 410.376 379.038 448.122 345.52 473.669C311.991 499.228 263.937 512 201.338 512H0.195801ZM119.407 213.451H178.483C205.442 212.983 225.606 207.767 238.971 197.8C252.333 187.839 259.017 173.246 259.017 154.022C259.017 132.218 252.215 116.341 238.624 106.374C225.019 96.4133 204.158 91.4287 176.025 91.4287H119.407V213.451ZM119.407 292.223V420.574H201.338C226.659 420.574 245.649 415.589 258.309 405.623C270.965 395.662 277.302 380.369 277.302 359.739C277.302 337.466 271.848 320.647 260.945 309.275C250.047 297.908 232.406 292.223 208.027 292.223H119.407Z" fill="#313131"/>
</svg>
