<svg width="26" height="26" viewBox="0 0 26 26" fill="none" xmlns="http://www.w3.org/2000/svg">
<path d="M13 25.5C19.9035 25.5 25.5 19.9035 25.5 13C25.5 6.0965 19.9035 0.5 13 0.5C6.0965 0.5 0.5 6.09637 0.5 13C0.5 19.9036 6.0965 25.5 13 25.5ZM8.36625 10.1337C7.878 9.6455 7.878 8.8545 8.36625 8.36613C8.8545 7.87775 9.6455 7.87788 10.1339 8.36613L13.0001 11.2324L15.8664 8.36613C16.3546 7.87788 17.1456 7.87788 17.634 8.36613C18.1224 8.85437 18.1222 9.64537 17.634 10.1337L14.7677 13L17.634 15.8663C18.1222 16.3545 18.1222 17.1455 17.634 17.6339C17.3899 17.878 17.07 18.0001 16.7502 18.0001C16.4305 18.0001 16.1106 17.878 15.8665 17.6339L13.0002 14.7676L10.134 17.6339C9.88988 17.878 9.57 18.0001 9.25025 18.0001C8.9305 18.0001 8.61062 17.878 8.3665 17.6339C7.87825 17.1456 7.87825 16.3546 8.3665 15.8663L11.2327 13L8.36625 10.1337Z" fill="white"/>
<path d="M8.36631 10.1337C7.87806 9.64549 7.87806 8.85449 8.36631 8.36611C8.85456 7.87774 9.64556 7.87786 10.1339 8.36611L13.0002 11.2324L15.8664 8.36611C16.3547 7.87786 17.1457 7.87786 17.6341 8.36611C18.1224 8.85436 18.1223 9.64536 17.6341 10.1337L14.7678 13L17.6341 15.8662C18.1223 16.3545 18.1223 17.1455 17.6341 17.6339C17.3899 17.878 17.0701 18.0001 16.7503 18.0001C16.4306 18.0001 16.1107 17.878 15.8666 17.6339L13.0003 14.7676L10.1341 17.6339C9.88993 17.878 9.57006 18.0001 9.25031 18.0001C8.93056 18.0001 8.61068 17.878 8.36656 17.6339C7.87831 17.1456 7.87831 16.3546 8.36656 15.8662L11.2328 13L8.36631 10.1337Z" fill="#0250A4"/>
</svg>
