<svg width="30" height="30" viewBox="0 0 30 30" fill="none" xmlns="http://www.w3.org/2000/svg">
<circle cx="15" cy="15" r="15" fill="white"/>
<path fill-rule="evenodd" clip-rule="evenodd" d="M9.16728 19.6553C8.84186 19.9808 8.84191 20.5084 9.16738 20.8338C9.49284 21.1593 10.0205 21.1593 10.3459 20.8338L15.0003 16.1786L19.655 20.8333C19.9804 21.1588 20.5081 21.1588 20.8335 20.8333C21.1589 20.5079 21.1589 19.9803 20.8335 19.6548L16.1787 15L20.8332 10.3447C21.1585 10.0192 21.1585 9.49159 20.833 9.16618C20.5076 8.84076 19.9799 8.84081 19.6545 9.16628L15.0001 13.8215L10.3453 9.16668C10.0199 8.84125 9.49224 8.84125 9.16681 9.16668C8.84137 9.49212 8.84137 10.0198 9.16681 10.3452L13.8218 15.0001L9.16728 19.6553Z" fill="#202020"/>
</svg>
