<svg width="500" height="500" viewBox="0 0 500 500" fill="none" xmlns="http://www.w3.org/2000/svg">
<circle cx="250" cy="250" r="250" fill="#0250A4"/>
<path fill-rule="evenodd" clip-rule="evenodd" d="M162.509 319.83C157.628 324.712 157.629 332.626 162.511 337.507C167.393 342.389 175.307 342.389 180.188 337.506L250.004 267.679L319.825 337.5C324.706 342.381 332.621 342.381 337.502 337.5C342.384 332.619 342.384 324.704 337.502 319.822L267.68 250L337.497 180.17C342.377 175.288 342.377 167.374 337.495 162.493C332.614 157.611 324.699 157.612 319.817 162.494L250.001 232.322L180.18 162.5C175.298 157.619 167.384 157.619 162.502 162.5C157.62 167.382 157.62 175.296 162.502 180.178L232.326 250.001L162.509 319.83Z" fill="white"/>
</svg>
