<svg width="30" height="30" viewBox="0 0 30 30" fill="none" xmlns="http://www.w3.org/2000/svg">
<path d="M15 27.5C21.9035 27.5 27.5 21.9035 27.5 15C27.5 8.0965 21.9035 2.5 15 2.5C8.0965 2.5 2.5 8.09637 2.5 15C2.5 21.9036 8.0965 27.5 15 27.5ZM10.3663 12.1337C9.878 11.6455 9.878 10.8545 10.3663 10.3661C10.8545 9.87775 11.6455 9.87788 12.1339 10.3661L15.0001 13.2324L17.8664 10.3661C18.3546 9.87788 19.1456 9.87788 19.634 10.3661C20.1224 10.8544 20.1222 11.6454 19.634 12.1337L16.7677 15L19.634 17.8663C20.1222 18.3545 20.1222 19.1455 19.634 19.6339C19.3899 19.878 19.07 20.0001 18.7502 20.0001C18.4305 20.0001 18.1106 19.878 17.8665 19.6339L15.0002 16.7676L12.134 19.6339C11.8899 19.878 11.57 20.0001 11.2502 20.0001C10.9305 20.0001 10.6106 19.878 10.3665 19.6339C9.87825 19.1456 9.87825 18.3546 10.3665 17.8663L13.2327 15L10.3663 12.1337Z" fill="#2E2E2E"/>
<path d="M10.3663 12.1337C9.87806 11.6455 9.87806 10.8545 10.3663 10.3661C10.8546 9.87774 11.6456 9.87786 12.1339 10.3661L15.0002 13.2324L17.8664 10.3661C18.3547 9.87786 19.1457 9.87786 19.6341 10.3661C20.1224 10.8544 20.1223 11.6454 19.6341 12.1337L16.7678 15L19.6341 17.8662C20.1223 18.3545 20.1223 19.1455 19.6341 19.6339C19.3899 19.878 19.0701 20.0001 18.7503 20.0001C18.4306 20.0001 18.1107 19.878 17.8666 19.6339L15.0003 16.7676L12.1341 19.6339C11.8899 19.878 11.5701 20.0001 11.2503 20.0001C10.9306 20.0001 10.6107 19.878 10.3666 19.6339C9.87831 19.1456 9.87831 18.3546 10.3666 17.8662L13.2328 15L10.3663 12.1337Z" fill="white"/>
</svg>
