<svg width="500" height="500" viewBox="0 0 512 512" fill="none" xmlns="http://www.w3.org/2000/svg">
<path d="M512 256C512 300.937 500.171 345.083 477.702 384L256 256H512Z" fill="#F45542"/>
<path d="M477.688 384.025C455.215 422.94 422.894 455.253 383.974 477.717L256 256L477.688 384.025Z" fill="#DD3242"/>
<path d="M383.976 477.715C345.057 500.18 300.91 512.004 255.973 512L256 256L383.976 477.715Z" fill="#AF2F79"/>
<path d="M0 256C0 300.937 11.8285 345.083 34.2976 384L256 256H0Z" fill="#2656AB"/>
<path d="M34.3125 384.025C56.7854 422.94 89.1061 455.253 128.026 477.717L256 256L34.3125 384.025Z" fill="#7943A3"/>
<path d="M128.024 477.715C166.943 500.18 211.09 512.004 256.027 512L256 256L128.024 477.715Z" fill="#A23CA2"/>
<path d="M0 256C0 211.062 11.8285 166.917 34.2976 128L256 256H0Z" fill="#019A85"/>
<path d="M34.3125 127.974C56.7854 89.0596 89.1061 56.7467 128.026 34.2827L256 256L34.3125 127.974Z" fill="#01AE5C"/>
<path d="M128.024 34.2841C166.943 11.8195 211.09 -0.00447873 256.027 1.2726e-06L256 256L128.024 34.2841Z" fill="#A1CF49"/>
<path d="M512 256C512 211.062 500.171 166.917 477.702 128L256 256H512Z" fill="#F97827"/>
<path d="M477.688 127.974C455.215 89.0596 422.894 56.7467 383.974 34.2827L256 256L477.688 127.974Z" fill="#FCA313"/>
<path d="M383.976 34.2841C345.057 11.8195 300.91 -0.00447873 255.973 1.2726e-06L256 256L383.976 34.2841Z" fill="#FFE503"/>
</svg>
