<svg width="20" height="20" viewBox="0 0 20 20" fill="none" xmlns="http://www.w3.org/2000/svg">
<path d="M19.6783 10.7281C19.7092 11.4665 19.4459 12.187 18.9463 12.7316C18.4466 13.2761 17.7514 13.6002 17.0131 13.6328C16.9699 13.6348 16.9268 13.6358 16.8838 13.6358C16.6876 13.6357 16.492 13.6145 16.3004 13.5725C15.7318 14.4504 14.9862 15.2 14.1113 15.7733C13.2364 16.3466 12.2515 16.7309 11.2196 16.9018C11.0976 17.2604 10.8541 17.565 10.5312 17.7631C10.2084 17.9612 9.82645 18.0403 9.45149 17.9866C9.07654 17.933 8.7321 17.75 8.47773 17.4694C8.22336 17.1887 8.07503 16.828 8.0584 16.4496C8.04176 16.0712 8.15786 15.6989 8.38663 15.397C8.61539 15.0951 8.94244 14.8826 9.31124 14.7963C9.68005 14.71 10.0674 14.7552 10.4064 14.9242C10.7454 15.0932 11.0147 15.3753 11.1677 15.7218C12.6205 15.4531 13.933 14.6831 14.8764 13.5461C15.8197 12.409 16.3342 10.977 16.33 9.49954C16.33 6.00911 13.4904 3.16946 9.99997 3.16946C6.50954 3.16946 3.66989 6.00911 3.66989 9.49954C3.6697 10.5788 3.94554 11.6403 4.47118 12.5829C4.489 12.614 4.50237 12.6475 4.51091 12.6823C4.56168 12.8234 4.55625 12.9786 4.49575 13.1159C4.43525 13.2531 4.3243 13.3618 4.18587 13.4195C3.8469 13.5622 3.48285 13.6356 3.11509 13.6356C3.07181 13.6356 3.02843 13.6346 2.98497 13.6326C2.24696 13.5996 1.55214 13.2753 1.05288 12.7307C0.553616 12.1862 0.290653 11.466 0.32165 10.7279C0.334111 10.4335 0.327157 10.1709 0.320361 9.91696C0.314032 9.67786 0.307431 9.4306 0.31829 9.17259C0.3507 8.45191 0.66071 7.77172 1.18339 7.27449C1.70607 6.77726 2.40087 6.50155 3.12227 6.50513C4.28071 3.85466 6.92731 1.99759 9.99997 1.99759C13.0726 1.99759 15.7193 3.85466 16.8777 6.50517C17.5992 6.50105 18.2942 6.77652 18.817 7.27376C19.3397 7.771 19.6496 8.45138 19.6816 9.17216C19.6925 9.43056 19.6859 9.67778 19.6795 9.91689C19.6728 10.1709 19.6658 10.4336 19.6783 10.7281ZM14.9142 9.49954C14.9139 10.2524 14.7407 10.9952 14.408 11.6705C14.0752 12.3458 13.5918 12.9357 12.995 13.3947C12.3982 13.8537 11.704 14.1694 10.9659 14.3176C10.2277 14.4659 9.46541 14.4426 8.73771 14.2495L6.7486 15.3983C6.64824 15.4562 6.53294 15.4831 6.41729 15.4755C6.30164 15.468 6.19084 15.4263 6.09889 15.3557C6.00694 15.2852 5.93798 15.1889 5.90073 15.0792C5.86348 14.9694 5.85961 14.8511 5.88962 14.7392L6.39798 12.8427C5.55611 11.9328 5.08768 10.7392 5.08591 9.49954C5.08591 6.78907 7.29024 4.58415 9.99997 4.58415C12.7097 4.58415 14.9142 6.78907 14.9142 9.49954ZM8.63376 9.49954C8.63376 9.34414 8.57203 9.19511 8.46214 9.08522C8.35226 8.97534 8.20322 8.9136 8.04782 8.9136H8.04685C7.931 8.91382 7.81783 8.94837 7.72161 9.01288C7.6254 9.0774 7.55047 9.16899 7.50629 9.27607C7.46211 9.38316 7.45066 9.50093 7.47339 9.61452C7.49613 9.72811 7.55202 9.83241 7.63401 9.91425C7.71599 9.99608 7.8204 10.0518 7.93403 10.0743C8.04766 10.0968 8.16542 10.0852 8.27242 10.0408C8.37942 9.99639 8.47087 9.92129 8.5352 9.82496C8.59954 9.72862 8.63388 9.61538 8.63388 9.49954H8.63376ZM10.586 9.49954C10.586 9.48036 10.5849 9.46119 10.5829 9.44212C10.5811 9.42297 10.5782 9.40394 10.5743 9.38509C10.5708 9.36631 10.5661 9.34779 10.5602 9.32962C10.5548 9.31126 10.5482 9.29329 10.5411 9.27532C10.5341 9.25735 10.5255 9.24056 10.5165 9.22376C10.5076 9.20687 10.4978 9.19044 10.4872 9.17454C10.4766 9.15848 10.4651 9.14296 10.4528 9.12806C10.4408 9.11313 10.4279 9.09891 10.4142 9.08548C10.4009 9.07181 10.3865 9.05892 10.3716 9.04642C10.3567 9.0347 10.3411 9.02298 10.3251 9.01243C10.3092 9.00184 10.2928 8.99206 10.2759 8.98314C10.2591 8.97415 10.2415 8.96595 10.2239 8.95853C10.2063 8.95116 10.1883 8.94477 10.17 8.93939C10.1335 8.92765 10.0958 8.92005 10.0575 8.91673C10.0002 8.9112 9.94228 8.91397 9.88567 8.92493C9.86683 8.92878 9.8482 8.9336 9.82985 8.93939C9.81154 8.94476 9.79355 8.95115 9.77595 8.95853C9.75837 8.96595 9.74079 8.97415 9.72399 8.98314C9.7072 8.99212 9.69079 9.00189 9.67474 9.01243C9.65868 9.02298 9.6431 9.0347 9.62868 9.04642C9.61345 9.05892 9.59938 9.07181 9.58571 9.08548C9.572 9.09892 9.55908 9.11313 9.547 9.12806C9.53491 9.14297 9.52358 9.15848 9.51306 9.17454C9.50232 9.19043 9.49241 9.20686 9.48337 9.22376C9.47435 9.2405 9.46626 9.25771 9.45911 9.27532C9.4517 9.29308 9.44518 9.31121 9.43958 9.32962C9.43415 9.34759 9.42946 9.36634 9.42556 9.38509C9.4217 9.40394 9.41882 9.42297 9.41692 9.44212C9.41501 9.46126 9.41419 9.4804 9.41419 9.49954C9.41419 9.51868 9.41501 9.53821 9.41692 9.55735C9.41885 9.57637 9.42173 9.59527 9.42556 9.614C9.42946 9.63275 9.43415 9.6515 9.43958 9.66986C9.44518 9.68814 9.4517 9.70613 9.45911 9.72376C9.46626 9.7415 9.47435 9.75885 9.48337 9.77571C9.49231 9.79251 9.50251 9.80892 9.51306 9.82493C9.52358 9.84087 9.53491 9.85625 9.547 9.87103C9.55917 9.88599 9.57209 9.90033 9.58571 9.914C9.59938 9.92728 9.61345 9.94056 9.62868 9.95267C9.64337 9.96487 9.65875 9.97621 9.67474 9.98665C9.69079 9.9972 9.70716 10.0074 9.72399 10.0163C9.75792 10.034 9.79334 10.0487 9.82985 10.0601C9.84817 10.0656 9.86692 10.0702 9.88567 10.0742C9.92333 10.0819 9.96169 10.0857 10.0001 10.0855C10.1553 10.0851 10.3041 10.0234 10.4142 9.914C10.4412 9.88659 10.4656 9.85678 10.4872 9.82493C10.4978 9.80892 10.5075 9.79251 10.5165 9.77571C10.5255 9.75892 10.5337 9.74134 10.5411 9.72376C10.5486 9.70618 10.5548 9.68782 10.5602 9.66986C10.5661 9.65154 10.5708 9.63289 10.5743 9.614C10.5782 9.59527 10.581 9.57637 10.5829 9.55735C10.5849 9.53812 10.5859 9.5188 10.5859 9.49946L10.586 9.49954ZM12.5391 9.49954C12.5391 9.34414 12.4774 9.19511 12.3675 9.08522C12.2576 8.97534 12.1086 8.9136 11.9532 8.9136H11.9521C11.8362 8.91383 11.7231 8.94838 11.6269 9.0129C11.5307 9.07742 11.4557 9.16901 11.4116 9.2761C11.3674 9.38318 11.3559 9.50096 11.3787 9.61455C11.4014 9.72813 11.4573 9.83243 11.5393 9.91426C11.6213 9.99609 11.7257 10.0518 11.8393 10.0743C11.9529 10.0968 12.0707 10.0851 12.1777 10.0408C12.2847 9.99639 12.3761 9.92129 12.4405 9.82495C12.5048 9.72862 12.5391 9.61538 12.5391 9.49954Z" fill="#313131"/>
</svg>
