<svg width="512" height="348" viewBox="0 0 512 348" fill="none" xmlns="http://www.w3.org/2000/svg">
<path d="M474.426 0.820312H37.5751C16.856 0.820312 0 17.6763 0 38.3954V309.605C0 330.324 16.856 347.18 37.5751 347.18H474.425C495.145 347.18 512 330.324 512 309.605V38.3954C512.001 17.6763 495.145 0.820312 474.426 0.820312ZM157.496 226.34H208.251C214.341 226.34 219.276 231.276 219.276 237.365C219.276 243.454 214.34 248.39 208.251 248.39H157.496C151.406 248.39 146.471 243.454 146.471 237.365C146.471 231.276 151.407 226.34 157.496 226.34ZM47.6801 115.753C47.6801 109.663 52.6161 104.728 58.7051 104.728H124.753C130.843 104.728 135.778 109.664 135.778 115.753V163.506C135.778 169.596 130.842 174.531 124.753 174.531H58.7051C52.6151 174.531 47.6801 169.595 47.6801 163.506V115.753ZM58.7051 226.34H109.46C115.55 226.34 120.485 231.276 120.485 237.365C120.485 243.454 115.549 248.39 109.46 248.39H58.7051C52.6151 248.39 47.6801 243.454 47.6801 237.365C47.6801 231.276 52.6171 226.34 58.7051 226.34ZM239.9 297.417H58.7051C52.6151 297.417 47.6801 292.481 47.6801 286.392C47.6801 280.303 52.6161 275.367 58.7051 275.367H239.9C245.99 275.367 250.926 280.303 250.926 286.392C250.926 292.481 245.99 297.417 239.9 297.417ZM307.043 248.39H256.288C250.197 248.39 245.262 243.454 245.262 237.365C245.262 231.276 250.199 226.34 256.288 226.34H307.043C313.133 226.34 318.068 231.276 318.068 237.365C318.068 243.454 313.133 248.39 307.043 248.39ZM405.834 248.39H355.079C348.989 248.39 344.054 243.454 344.054 237.365C344.054 231.276 348.99 226.34 355.079 226.34H405.834C411.924 226.34 416.859 231.276 416.859 237.365C416.859 243.454 411.922 248.39 405.834 248.39ZM453.296 87.3335H333.587C327.497 87.3335 322.562 82.3975 322.562 76.3085C322.562 70.2194 327.498 65.2834 333.587 65.2834H453.296C459.386 65.2834 464.321 70.2194 464.321 76.3085C464.321 82.3975 459.384 87.3335 453.296 87.3335Z" fill="#5C5C5C"/>
</svg>
