<svg width="20" height="20" viewBox="0 0 20 20" fill="none" xmlns="http://www.w3.org/2000/svg">
<path d="M15.8582 7.11194C15.862 6.93877 15.8118 6.76871 15.7145 6.62542C15.6172 6.48212 15.4776 6.3727 15.3152 6.31237C15.1529 6.25205 14.9758 6.24381 14.8085 6.2888C14.6412 6.3338 14.4922 6.42979 14.382 6.56343L10.0135 11.6627L5.64658 6.56343C5.57864 6.47098 5.49237 6.39356 5.39312 6.33601C5.29386 6.27846 5.18376 6.24203 5.06978 6.22898C4.95579 6.21594 4.84036 6.22658 4.73067 6.26022C4.62098 6.29387 4.51939 6.3498 4.43232 6.42451C4.34525 6.49923 4.27462 6.59111 4.2247 6.69442C4.17479 6.79772 4.14675 6.91022 4.14233 7.02487C4.13791 7.13951 4.15714 7.25384 4.19894 7.36068C4.24075 7.46753 4.30417 7.56459 4.38522 7.64579L9.3804 13.484C9.45864 13.5757 9.55575 13.6493 9.66519 13.6998C9.77464 13.7503 9.89377 13.7764 10.0143 13.7764C10.1348 13.7764 10.254 13.7503 10.3634 13.6998C10.4728 13.6493 10.5701 13.5757 10.6483 13.484L15.6483 7.64579C15.7793 7.49831 15.8536 7.30914 15.8582 7.11194Z" fill="#787878"/>
</svg>
