<svg width="512" height="512" viewBox="0 0 512 512" fill="none" xmlns="http://www.w3.org/2000/svg">
<g clip-path="url(#clip0_3551_2460)">
<path d="M256 512C397.385 512 512 397.385 512 256C512 114.615 397.385 0 256 0C114.615 0 0 114.615 0 256C0 397.385 114.615 512 256 512Z" fill="#3B5998"/>
<path d="M320.358 266.021H274.678V433.372H205.469V266.021H172.553V207.208H205.469V169.149C205.469 141.932 218.397 99.3142 275.294 99.3142L326.56 99.5287V156.617H289.363C283.262 156.617 274.683 159.666 274.683 172.649V207.262H326.405L320.358 266.021Z" fill="white"/>
</g>
<defs>
<clipPath id="clip0_3551_2460">
<rect width="512" height="512" fill="white"/>
</clipPath>
</defs>
</svg>
