<svg width="20" height="20" viewBox="0 0 20 20" fill="none" xmlns="http://www.w3.org/2000/svg">
<path d="M0.84875 12.9297H5.89844C9.1291 12.9297 11.7578 10.301 11.7578 7.07031C11.7578 3.83965 9.1291 1.21094 5.89844 1.21094C2.66777 1.21094 0 3.83965 0 7.07031C0 8.61469 0.647891 10.0887 1.72305 11.181L0.84875 12.9297ZM6.48438 10.5859H5.3125V9.41406H6.48438V10.5859ZM5.89844 3.55469C7.19105 3.55469 8.24219 4.60582 8.24219 5.89844C8.24219 6.77391 7.7598 7.57043 6.98332 7.97609C6.67551 8.13746 6.48438 8.48137 6.48438 8.82812H5.3125C5.3125 8.01445 5.74453 7.30148 6.43973 6.93812C6.82883 6.73441 7.07031 6.33617 7.07031 5.89844C7.07031 5.25242 6.54445 4.72656 5.89844 4.72656C5.25242 4.72656 4.72656 5.25242 4.72656 5.89844H3.55469C3.55469 4.60582 4.60582 3.55469 5.89844 3.55469Z" fill="#313131"/>
<path d="M12.9234 7.19312C12.8716 10.1662 10.9672 12.6888 8.31641 13.6642C8.68246 16.5456 11.1223 18.7891 14.1015 18.7891H19.1512L18.2769 17.0404C19.3521 15.9481 20 14.4741 20 12.9297C20 9.69367 17.3375 7.07031 14.1015 7.07031C13.6983 7.07031 13.3044 7.11285 12.9234 7.19312ZM17.0312 14.6875H12.3437V13.5156H17.0312V14.6875ZM17.0312 12.3438H12.3437V11.1719H17.0312V12.3438Z" fill="#313131"/>
</svg>
