<svg width="60" height="60" viewBox="0 0 60 60" fill="none" xmlns="http://www.w3.org/2000/svg">
<path d="M15 21.807C14.67 21.9315 14.3206 21.9968 13.968 22H7.99997C7.75545 22.0018 7.52024 22.094 7.33967 22.2589C7.15909 22.4238 7.04592 22.6497 7.02197 22.893C7.25097 23.202 8.60297 24.493 15 24.884V21.807Z" fill="#FFA500"/>
<path d="M55 25.1V37C55 37.7956 54.6839 38.5587 54.1213 39.1213C53.5587 39.6839 52.7957 40 52 40H46.032C45.7613 39.9955 45.4998 40.0979 45.3041 40.285C45.1084 40.4721 44.9943 40.7287 44.9865 40.9993C44.9787 41.27 45.0779 41.5327 45.2626 41.7307C45.4473 41.9287 45.7025 42.0459 45.973 42.057C49.7721 42.1878 53.5362 42.8313 57.163 43.97C57.2382 43.996 57.3188 44.0025 57.3972 43.9888C57.4756 43.9751 57.5492 43.9416 57.6112 43.8916C57.6731 43.8416 57.7212 43.7767 57.7511 43.7029C57.781 43.6291 57.7916 43.549 57.782 43.47L57.653 42.485C57.2754 40.0065 57.0573 37.5064 57 35C57.032 32.282 57.345 29.5746 57.934 26.921C57.984 26.672 58.078 26.366 57.827 26.186C56.9774 25.6177 56.0115 25.2467 55 25.1Z" fill="#FFA500"/>
<path d="M45 35.731V38.193C45.33 38.0685 45.6793 38.0031 46.032 38H52C52.2652 38 52.5196 37.8946 52.7071 37.7071C52.8946 37.5195 53 37.2652 53 37C53.0008 36.684 52.8838 36.379 52.672 36.1446C52.4601 35.9101 52.1685 35.763 51.854 35.732C49.5755 35.4953 47.2786 35.4949 45 35.731Z" fill="#FFA500"/>
<path d="M53 21.593C52.9958 21.095 52.8078 20.6161 52.4721 20.2483C52.1364 19.8804 51.6766 19.6496 51.181 19.6C42.381 18.625 36.706 21.14 31.224 23.572C27.249 25.334 23.493 27 19 27C12.384 27 8.85702 26.233 7.00002 25.33V37.83C6.99828 38.2202 7.11105 38.6023 7.32435 38.929C7.53765 39.2557 7.84211 39.5127 8.20002 39.668C9.62602 40.272 12.653 41 19 41C23.06 41 26.785 39.456 30.729 37.82C36.405 35.468 42.842 32.803 52.058 33.741C52.3821 33.7741 52.6996 33.855 53 33.981V21.593Z" fill="#FFA500"/>
<path d="M2.1729 33.816C3.02197 34.3848 3.98818 34.7553 4.9999 34.9V23C4.9999 22.2043 5.31598 21.4412 5.87858 20.8786C6.44119 20.316 7.20426 20 7.9999 20H13.9679C14.2386 20.0044 14.5001 19.902 14.6958 19.7149C14.8915 19.5279 15.0056 19.2712 15.0134 19.0006C15.0212 18.73 14.922 18.4672 14.7373 18.2692C14.5526 18.0713 14.2974 17.954 14.0269 17.943C10.2278 17.8121 6.46374 17.1686 2.8369 16.03C2.76169 16.0036 2.68099 15.9969 2.60246 16.0105C2.52394 16.0241 2.45018 16.0575 2.38819 16.1076C2.32619 16.1577 2.27801 16.2228 2.24821 16.2967C2.21841 16.3706 2.20798 16.4509 2.2179 16.53L2.3469 17.5149C2.72451 19.9934 2.94263 22.4935 2.9999 25C2.96787 27.7179 2.65487 30.4253 2.0659 33.079C2.0159 33.327 1.9269 33.641 2.1729 33.816Z" fill="#FFA500"/>
<path d="M23.8481 32.326L24.2764 34.8459L23.3359 35.0057L22.9075 32.4859L19.9195 29.0317L20.7491 28.8907C20.8319 28.8766 20.902 28.886 20.9593 28.9189C21.0161 28.9488 21.0663 28.9935 21.1099 29.053L22.899 31.2001C22.9738 31.3 23.0416 31.395 23.1026 31.485C23.1665 31.5746 23.2243 31.6637 23.2758 31.7523C23.2923 31.6521 23.3129 31.5497 23.3377 31.4451C23.3655 31.3399 23.3982 31.2278 23.4358 31.1089L24.4106 28.492C24.4311 28.4338 24.4627 28.3782 24.5055 28.3253C24.5507 28.2689 24.6132 28.2339 24.693 28.2203L25.5271 28.0786L23.8481 32.326ZM28.7461 31.2516C28.7169 31.08 28.6649 30.9261 28.5899 30.7897C28.518 30.6528 28.4256 30.5392 28.3129 30.4488C28.2002 30.3584 28.0707 30.2952 27.9246 30.2592C27.7785 30.2231 27.6168 30.2202 27.4393 30.2504C27.0755 30.3122 26.8065 30.466 26.6322 30.7116C26.4609 30.9568 26.3788 31.2705 26.3859 31.6527L28.7461 31.2516ZM29.8192 33.2419C29.7339 33.3842 29.6295 33.513 29.5061 33.6283C29.3821 33.7407 29.2466 33.8383 29.0994 33.9211C28.9522 34.0039 28.7965 34.073 28.6325 34.1283C28.4714 34.183 28.3095 34.2242 28.1468 34.2519C27.8363 34.3047 27.5391 34.3019 27.2554 34.2437C26.974 34.1819 26.7187 34.0671 26.4893 33.8991C26.2624 33.7278 26.0688 33.502 25.9086 33.2219C25.7508 32.9383 25.6388 32.6013 25.5724 32.2109C25.5192 31.8974 25.5184 31.5978 25.5703 31.3121C25.6216 31.0234 25.7204 30.7631 25.8667 30.5314C26.0158 30.2991 26.2122 30.1029 26.4559 29.9428C26.6995 29.7827 26.9854 29.6748 27.3137 29.619C27.5888 29.5722 27.8495 29.5751 28.0957 29.6276C28.3445 29.6766 28.5677 29.7725 28.7654 29.9154C28.9632 30.0583 29.1307 30.2474 29.2681 30.4827C29.4084 30.7175 29.506 30.9961 29.5608 31.3185C29.5834 31.4516 29.584 31.5443 29.5624 31.5966C29.5404 31.646 29.4894 31.6775 29.4096 31.6911L26.455 32.1933C26.5096 32.4609 26.588 32.6895 26.6902 32.8791C26.7919 33.0657 26.9132 33.2154 27.0541 33.3284C27.198 33.4409 27.3583 33.5156 27.535 33.5525C27.7117 33.5894 27.9021 33.5905 28.1061 33.5559C28.2984 33.5232 28.4602 33.4729 28.5917 33.4049C28.7261 33.3364 28.8393 33.2684 28.9313 33.2011C29.0258 33.1302 29.1033 33.0669 29.1638 33.0109C29.2272 32.9545 29.2856 32.9218 29.3388 32.9127C29.4098 32.9006 29.469 32.918 29.5165 32.9647L29.8192 33.2419ZM33.0071 31.3033C32.6572 31.3749 32.3633 31.4538 32.1253 31.5399C31.8869 31.623 31.6968 31.7131 31.5551 31.8102C31.4133 31.9074 31.3168 32.0105 31.2653 32.1197C31.2134 32.2259 31.1975 32.3381 31.2176 32.4564C31.2367 32.5688 31.271 32.6634 31.3206 32.7402C31.3726 32.8135 31.4342 32.8715 31.5053 32.9142C31.579 32.9534 31.6607 32.9776 31.7505 32.9866C31.8402 32.9957 31.9354 32.9917 32.036 32.9746C32.1691 32.952 32.2881 32.9181 32.393 32.8729C32.5008 32.8271 32.5995 32.7723 32.6891 32.7084C32.7782 32.6416 32.861 32.5651 32.9377 32.479C33.0143 32.393 33.0878 32.2968 33.1579 32.1905L33.0071 31.3033ZM30.1506 29.858C30.3612 29.5757 30.6029 29.3505 30.8756 29.1824C31.1513 29.0139 31.4651 28.8997 31.817 28.8399C32.0743 28.7961 32.3094 28.8003 32.5221 28.8524C32.7343 28.9015 32.9213 28.9899 33.083 29.1176C33.2447 29.2454 33.3774 29.4084 33.4811 29.6069C33.5877 29.8048 33.6627 30.0309 33.7059 30.2853L34.1946 33.16L33.8086 33.2256C33.7228 33.2402 33.6555 33.238 33.6066 33.2189C33.5572 33.1969 33.5127 33.1497 33.473 33.0773L33.3127 32.6983C33.2155 32.8244 33.1177 32.9384 33.0194 33.0403C32.9206 33.1392 32.8141 33.2288 32.6999 33.3091C32.5882 33.3859 32.4654 33.4509 32.3314 33.5041C32.1974 33.5573 32.0461 33.5982 31.8775 33.6269C31.7001 33.6571 31.529 33.6618 31.3642 33.6411C31.2018 33.617 31.0544 33.5644 30.922 33.4835C30.7896 33.4025 30.6765 33.2924 30.5828 33.1532C30.4921 33.0134 30.4297 32.8429 30.3955 32.6418C30.3653 32.4644 30.3838 32.2863 30.4508 32.1075C30.5202 31.9253 30.6518 31.7508 30.8456 31.5839C31.0423 31.4166 31.3082 31.2619 31.6431 31.1197C31.981 30.9771 32.4047 30.8564 32.9144 30.7576L32.8586 30.4293C32.8008 30.0892 32.6851 29.8471 32.5115 29.7032C32.3379 29.5592 32.1107 29.5111 31.8297 29.5589C31.6404 29.5911 31.4847 29.6419 31.3626 29.7113C31.2435 29.7803 31.1416 29.8523 31.057 29.9276C30.9749 29.9994 30.9024 30.0649 30.8394 30.1243C30.7795 30.1832 30.7125 30.2189 30.6386 30.2315C30.5794 30.2416 30.5249 30.2341 30.475 30.2091C30.4281 30.1836 30.3875 30.1509 30.3533 30.1111L30.1506 29.858ZM35.5499 29.1822C35.6445 28.8618 35.7796 28.6 35.955 28.3967C36.1304 28.1934 36.3616 28.0674 36.6484 28.0186C36.746 28.0021 36.8397 27.9983 36.9295 28.0074C37.0218 28.013 37.1042 28.0325 37.1768 28.0658L37.23 28.7277C37.2229 28.8111 37.1808 28.8593 37.1039 28.8724C37.0625 28.8794 36.9992 28.8826 36.9138 28.8819C36.828 28.8782 36.7378 28.8844 36.6431 28.9005C36.5041 28.9241 36.3849 28.9657 36.2855 29.0252C36.1855 29.0817 36.0995 29.1572 36.0273 29.2517C35.9575 29.3426 35.8999 29.4513 35.8545 29.5777C35.8085 29.7012 35.7697 29.8401 35.7382 29.9946L36.2178 32.8162L35.3527 32.9632L34.5865 28.4558L35.0834 28.3714C35.1781 28.3553 35.2447 28.3622 35.2832 28.3922C35.3243 28.4187 35.3594 28.4736 35.3888 28.5568L35.5499 29.1822Z" fill="#202020"/>
</svg>
