<svg width="20" height="20" viewBox="0 0 20 20" fill="none" xmlns="http://www.w3.org/2000/svg">
<path d="M17.2324 13.92C16.0242 12.8866 14.798 12.2607 13.6047 13.2925L12.8921 13.9161C12.3707 14.3688 11.4014 16.4839 7.65346 12.1725C3.90634 7.86654 6.13619 7.1961 6.65834 6.74732L7.37483 6.12293C8.56195 5.08878 8.11395 3.78693 7.25775 2.44683L6.74107 1.63512C5.88097 0.298145 4.94439 -0.579903 3.75415 0.452682L3.11102 1.01463C2.58497 1.39785 1.11454 2.64351 0.757853 5.00995C0.328585 7.84936 1.68273 11.1009 4.78517 14.6685C7.88371 18.2377 10.9175 20.0304 13.7912 19.9992C16.1795 19.9735 17.6219 18.6919 18.073 18.2259L18.7184 17.6632C19.9056 16.6314 19.168 15.5809 17.959 14.5452L17.2324 13.92Z" fill="#0250A4"/>
</svg>
