<svg width="20" height="20" viewBox="0 0 20 20" fill="none" xmlns="http://www.w3.org/2000/svg">
<path d="M14.359 4.79744H10.2564V9.75641H15.2744C15.2647 8.06231 14.9548 6.38334 14.359 4.79744Z" fill="#0250A4"/>
<path d="M10.2564 0.769234V4.31026H14.1564C13.2359 2.25385 11.8308 0.892311 10.2564 0.769234Z" fill="#0250A4"/>
<path d="M4.23587 10.2564H0.34613C0.39123 12.0128 0.916177 13.7233 1.86408 15.2026H5.12818C4.55229 13.6164 4.25054 11.9438 4.23587 10.2564Z" fill="#0250A4"/>
<path d="M5.84357 4.31026H9.75639V0.769234C8.16921 0.892311 6.76408 2.25385 5.84357 4.31026Z" fill="#0250A4"/>
<path d="M4.72565 9.75641H9.75642V4.79744H5.64103C5.04524 6.38334 4.73531 8.06231 4.72565 9.75641Z" fill="#0250A4"/>
<path d="M5.64103 15.2026H9.75642V10.2564H4.72565C4.73683 11.9462 5.04673 13.6207 5.64103 15.2026Z" fill="#0250A4"/>
<path d="M15.2744 10.2564H10.2564V15.2026H14.359C14.9533 13.6207 15.2632 11.9462 15.2744 10.2564Z" fill="#0250A4"/>
<path d="M5.12818 4.79744H1.86408C0.91394 6.28043 0.388899 7.99568 0.34613 9.75641H4.23587C4.24909 8.0647 4.55085 6.38765 5.12818 4.79744Z" fill="#0250A4"/>
<path d="M5.32565 15.6897H2.19745C3.00306 16.7957 4.03469 17.7177 5.22387 18.3946C6.41304 19.0714 7.73258 19.4875 9.09488 19.6154C7.54873 19.2026 6.20514 17.7462 5.32565 15.6897Z" fill="#0250A4"/>
<path d="M14.6744 4.31025H17.8026C16.997 3.20426 15.9654 2.28226 14.7762 1.60544C13.587 0.928625 12.2675 0.512476 10.9052 0.384613C12.4513 0.797434 13.7949 2.25384 14.6744 4.31025Z" fill="#0250A4"/>
<path d="M9.09488 0.384613C7.73258 0.512476 6.41304 0.928625 5.22387 1.60544C4.03469 2.28226 3.00306 3.20426 2.19745 4.31025H5.32565C6.20514 2.25384 7.54873 0.797434 9.09488 0.384613Z" fill="#0250A4"/>
<path d="M10.9052 19.6154C12.2675 19.4875 13.587 19.0714 14.7762 18.3946C15.9654 17.7177 16.997 16.7957 17.8026 15.6897H14.6744C13.7949 17.7462 12.4513 19.2026 10.9052 19.6154Z" fill="#0250A4"/>
<path d="M15.7641 9.75641H19.6539C19.6111 7.99568 19.0861 6.28043 18.1359 4.79744H14.8718C15.4492 6.38765 15.7509 8.0647 15.7641 9.75641Z" fill="#0250A4"/>
<path d="M14.1564 15.6897H10.2564V19.2308C11.8308 19.1077 13.2359 17.7462 14.1564 15.6897Z" fill="#0250A4"/>
<path d="M9.75639 19.2308V15.6897H5.84357C6.76408 17.7462 8.16921 19.1077 9.75639 19.2308Z" fill="#0250A4"/>
<path d="M14.8718 15.2026H18.1359C19.0838 13.7233 19.6088 12.0128 19.6539 10.2564H15.7641C15.7495 11.9438 15.4477 13.6164 14.8718 15.2026Z" fill="#0250A4"/>
</svg>
