<svg width="20" height="20" viewBox="0 0 20 20" fill="none" xmlns="http://www.w3.org/2000/svg">
<path d="M15.6104 8.23238C15.2846 8.23238 15.0195 8.49742 15.0195 8.8232V11.1768C15.0195 11.5026 15.2846 11.7677 15.6104 11.7677C15.9361 11.7677 16.2012 11.5026 16.2012 11.1768V8.8232C16.2012 8.49742 15.9361 8.23238 15.6104 8.23238Z" fill="#0250A4"/>
<path d="M10 0C4.47715 0 0 4.47715 0 10C0 15.5229 4.47715 20 10 20C15.5229 20 20 15.5229 20 10C20 4.47715 15.5229 0 10 0ZM8.2373 2.35352H11.7627V3.52539H8.2373V2.35352ZM5.88379 4.70703H14.1162V5.87891H5.88379V4.70703ZM11.2939 11.7676C11.6197 11.7676 11.8848 11.5026 11.8848 11.1768V10.5859H11.2939V9.41406H13.0566V11.1768C13.0566 12.1488 12.2659 12.9395 11.2939 12.9395C10.322 12.9395 9.53125 12.1488 9.53125 11.1768V8.82316C9.53125 7.85121 10.322 7.06047 11.2939 7.06047C12.2659 7.06047 13.0566 7.85121 13.0566 8.82316H11.8848C11.8848 8.49738 11.6197 8.23234 11.2939 8.23234C10.9682 8.23234 10.7031 8.49742 10.7031 8.8232V11.1768C10.7031 11.5026 10.9682 11.7676 11.2939 11.7676ZM4.97559 12.9395H2.62695V7.06059H3.79883V11.7676H4.97559V12.9395ZM5.21484 11.1768V8.82316C5.21484 7.85121 6.00559 7.06047 6.97754 7.06047C7.94949 7.06047 8.74023 7.85121 8.74023 8.82316V11.1768C8.74023 12.1488 7.94949 12.9395 6.97754 12.9395C6.00559 12.9395 5.21484 12.1488 5.21484 11.1768ZM11.7627 17.6465H8.2373V16.4746H11.7627V17.6465ZM14.1162 15.2929H5.88379V14.121H14.1162V15.2929ZM15.6104 12.9395C14.6384 12.9395 13.8477 12.1488 13.8477 11.1768V8.82316C13.8477 7.85121 14.6384 7.06047 15.6104 7.06047C16.5823 7.06047 17.373 7.85121 17.373 8.82316V11.1768C17.373 12.1488 16.5823 12.9395 15.6104 12.9395Z" fill="#0250A4"/>
<path d="M7.56836 11.1768V8.82317C7.56836 8.49738 7.30332 8.23235 6.97754 8.23235C6.65176 8.23235 6.38672 8.49738 6.38672 8.82317V11.1768C6.38672 11.5026 6.65176 11.7676 6.97754 11.7676C7.30332 11.7676 7.56836 11.5026 7.56836 11.1768Z" fill="#0250A4"/>
</svg>
