<svg width="25" height="25" viewBox="0 0 25 25" fill="none" xmlns="http://www.w3.org/2000/svg">
<g clip-path="url(#clip0_417_1288)">
<path d="M22.9166 12.7605V23.1772C22.9166 24.1772 22.0937 25.0001 21.0937 25.0001H13.2812V13.5417H11.7187V25.0001H3.90623C2.90623 25.0001 2.08331 24.1772 2.08331 23.1772V12.7605C2.08331 12.3334 2.43748 11.9792 2.86456 11.9792H22.1354C22.5625 11.9792 22.9166 12.3334 22.9166 12.7605Z" fill="#D32F2F"/>
<path d="M25 9.11466V11.7188C25 12.7188 24.1771 13.5417 23.1771 13.5417H1.82292C0.822917 13.5417 0 12.7188 0 11.7188V9.11466C0 8.11466 0.822917 7.29175 1.82292 7.29175H23.1771C24.1771 7.29175 25 8.11466 25 9.11466Z" fill="#F44336"/>
<path d="M12.5 8.3791C12.2729 8.3791 12.0563 8.28014 11.9094 8.10827C11.7604 7.93639 11.6948 7.70827 11.7271 7.48327C12.1125 4.8791 14.1469 -0.0458984 19.0927 -0.0458984C21.9157 -0.0458984 22.9167 1.4791 22.9167 2.78535C22.9167 5.10723 19.6844 8.3791 12.5 8.3791ZM19.0927 1.5166C15.3615 1.5166 13.9448 5.06348 13.475 6.79368C16.4188 6.65618 18.275 5.91139 19.3438 5.27702C20.8261 4.39681 21.3542 3.41243 21.3542 2.78431C21.3542 1.84889 20.1865 1.5166 19.0927 1.5166Z" fill="#FFC107"/>
<path d="M12.501 8.3791C5.3156 8.3791 2.08435 5.10723 2.08435 2.78535C2.08435 1.4791 3.08643 -0.0458984 5.90935 -0.0458984C10.8541 -0.0458984 12.8885 4.8791 13.2739 7.48327C13.3062 7.70827 13.2406 7.93639 13.0916 8.10827C12.9448 8.28014 12.7281 8.3791 12.501 8.3791ZM5.90935 1.5166C4.8156 1.5166 3.64685 1.84993 3.64685 2.78535C3.64685 4.11556 5.97289 6.53848 11.526 6.79473C11.0562 5.06348 9.63956 1.5166 5.90935 1.5166Z" fill="#FFC107"/>
<path d="M13.2812 13.5416V25H11.7188V13.5416H13.2812Z" fill="#FFA500"/>
<path d="M13.2812 7.90625V13.5417H11.7188V7.90625C11.7188 7.66771 11.8021 7.44896 11.9375 7.29167C12.0833 7.13542 12.2812 7.03125 12.5 7.03125C12.7187 7.03125 12.9167 7.13542 13.0625 7.29167C13.1979 7.44792 13.2812 7.66667 13.2812 7.90625Z" fill="#FFC107"/>
<path d="M11.7187 13.5416H2.08331V23.177C2.08331 24.177 2.90623 25 3.90623 25H11.7187V13.5416Z" fill="#B82929"/>
<path d="M6.21458 7.29175H1.82292C0.822917 7.29175 0 8.11466 0 9.11466V11.7188C0 12.7188 0.822917 13.5417 1.82292 13.5417H2.08333H11.7188V8.36571C9.47708 8.28862 7.65 7.88237 6.21458 7.29175Z" fill="#D43A2F"/>
<path d="M5.90935 1.5166C4.8156 1.5166 3.64685 1.84993 3.64685 2.78535C3.64685 4.11556 5.97289 6.53848 11.526 6.79473C11.0562 5.06348 9.63956 1.5166 5.90935 1.5166Z" fill="#DEDEDE"/>
<path d="M11.525 6.79368C5.97289 6.53848 3.64581 4.11556 3.64581 2.78431C3.64581 1.84889 4.81456 1.51556 5.90831 1.51556C9.63956 1.5166 11.0562 5.06348 11.525 6.79368ZM5.90935 -0.0458984C3.08643 -0.0458984 2.08435 1.4791 2.08435 2.78535C2.08435 4.2666 3.39893 6.13327 6.21456 7.2916C7.65102 7.88223 9.47706 8.28848 11.7187 8.36556V7.90618C11.7187 7.66764 11.8021 7.44889 11.9375 7.2916C12.0833 7.13535 12.2812 7.03118 12.5 7.03118V4.82806C11.475 2.44994 9.42914 -0.0458984 5.90935 -0.0458984Z" fill="#FFA500"/>
<path d="M12.5 13.5416H11.7188V25H12.5V13.5416Z" fill="#FFA500"/>
<path d="M12.5 7.03125C12.2812 7.03125 12.0833 7.13542 11.9375 7.29167C11.8021 7.44792 11.7188 7.66667 11.7188 7.90625V8.36563V13.5417H12.5V7.03125Z" fill="#FFA500"/>
</g>
<defs>
<clipPath id="clip0_417_1288">
<rect width="25" height="25" fill="white"/>
</clipPath>
</defs>
</svg>
