<svg width="500" height="500" viewBox="0 0 500 500" fill="none" xmlns="http://www.w3.org/2000/svg">
<path d="M229.635 242.304V296.898H212.287V162.048H258.274C269.376 161.803 280.082 166.015 288.06 173.723C296.133 180.979 300.667 191.356 300.498 202.185C300.742 213.089 296.189 223.542 288.06 230.818C280.007 238.487 270.072 242.322 258.274 242.304H229.635ZM229.635 178.647V225.742H258.707C265.16 225.93 271.37 223.411 275.868 218.767C284.974 209.931 285.2 195.361 276.318 186.262C276.169 186.111 276.018 185.942 275.868 185.81C271.446 181.073 265.18 178.479 258.707 178.647H229.635ZM340.463 201.621C353.297 201.621 363.401 205.043 370.815 211.887C378.229 218.729 381.935 228.13 381.935 240.03V296.918H365.358V284.096H364.605C357.417 294.643 347.859 299.925 335.947 299.925C325.768 299.925 317.263 296.918 310.414 290.882C303.772 285.281 299.99 276.99 300.14 268.285C300.14 258.735 303.754 251.14 310.979 245.5C318.204 239.86 327.838 237.021 339.918 237.021C350.211 237.021 358.697 238.901 365.358 242.661V238.694C365.395 232.754 362.761 227.132 358.189 223.373C353.598 219.237 347.633 216.98 341.443 217.056C331.771 217.056 324.094 221.136 318.449 229.295L303.189 219.688C311.563 207.637 324 201.621 340.463 201.621ZM318.015 268.662C317.998 273.136 320.143 277.348 323.755 279.96C327.593 282.968 332.354 284.584 337.227 284.472C344.547 284.453 351.566 281.539 356.741 276.37C362.479 270.955 365.358 264.639 365.358 257.345C359.939 253.039 352.412 250.877 342.741 250.877C335.704 250.877 329.814 252.569 325.11 255.971C320.386 259.45 318.015 263.641 318.015 268.662ZM477.146 204.628L419.247 337.601H401.354L422.842 291.07L384.738 204.628H403.592L431.12 270.917H431.496L458.273 204.628H477.146Z" fill="#5F6368"/>
<path d="M176.236 246.139C176.236 240.857 175.804 235.593 174.9 230.384H101.761V260.22H143.647C141.915 269.846 136.326 278.362 128.161 283.758V303.141H153.167C167.807 289.68 176.236 269.733 176.236 246.139Z" fill="#4285F4"/>
<path d="M101.761 321.865C122.685 321.865 140.316 315.003 153.166 303.159L128.161 283.776C121.198 288.495 112.242 291.184 101.761 291.184C81.5336 291.184 64.3727 277.555 58.2201 259.205H32.48V279.17C45.6508 305.359 72.4455 321.865 101.761 321.865Z" fill="#34A853"/>
<path d="M58.2388 259.204C54.9843 249.598 54.9843 239.164 58.2388 229.539V209.592H32.4805C21.472 231.493 21.472 257.287 32.4805 279.189L58.2388 259.204Z" fill="#FBBC04"/>
<path d="M101.761 197.579C112.825 197.41 123.494 201.565 131.509 209.198L153.656 187.089C139.62 173.93 121.029 166.692 101.761 166.898C72.4455 166.898 45.6326 183.423 32.48 209.592L58.2384 229.558C64.3727 211.19 81.5337 197.579 101.761 197.579Z" fill="#EA4335"/>
</svg>
