<svg width="20" height="20" viewBox="0 0 20 20" fill="none" xmlns="http://www.w3.org/2000/svg">
<path d="M15.625 1.25H4.375C2.65198 1.25 1.25 2.65198 1.25 4.375V15.625C1.25 17.348 2.65198 18.75 4.375 18.75H15.625C17.348 18.75 18.75 17.348 18.75 15.625V4.375C18.75 2.65198 17.348 1.25 15.625 1.25ZM15.625 17.5H4.375C3.34106 17.5 2.5 16.6589 2.5 15.625V10.9375H6.74927C7.8302 10.9375 8.83728 11.4215 9.51172 12.2656C10.4254 13.4076 11.7883 14.0625 13.2507 14.0625H17.5V15.625C17.5 16.6589 16.6589 17.5 15.625 17.5ZM4.375 2.5H15.625C16.6589 2.5 17.5 3.34106 17.5 4.375V12.8125H13.2507C12.1698 12.8125 11.1627 12.3285 10.4883 11.4844C9.57458 10.3424 8.21167 9.6875 6.74927 9.6875H2.5V4.375C2.5 3.34106 3.34106 2.5 4.375 2.5Z" fill="#E29200"/>
<path d="M13.75 8.75C15.1288 8.75 16.25 7.62878 16.25 6.25C16.25 4.87122 15.1288 3.75 13.75 3.75C12.3712 3.75 11.25 4.87122 11.25 6.25C11.25 7.62878 12.3712 8.75 13.75 8.75ZM13.75 5C14.4391 5 15 5.56091 15 6.25C15 6.93909 14.4391 7.5 13.75 7.5C13.0609 7.5 12.5 6.93909 12.5 6.25C12.5 5.56091 13.0609 5 13.75 5Z" fill="#E29200"/>
</svg>
