<svg width="512" height="512" viewBox="0 0 512 512" fill="none" xmlns="http://www.w3.org/2000/svg">
<g clip-path="url(#clip0_3551_2447)">
<path d="M256 512C397.385 512 512 397.385 512 256C512 114.615 397.385 0 256 0C114.615 0 0 114.615 0 256C0 397.385 114.615 512 256 512Z" fill="url(#paint0_linear_3551_2447)"/>
<path d="M307.739 128H204.261C184.044 128.027 164.662 136.07 150.366 150.366C136.07 164.662 128.027 184.044 128 204.261V307.739C128.027 327.956 136.07 347.338 150.366 361.634C164.662 375.93 184.044 383.973 204.261 384H307.739C327.959 383.982 347.346 375.942 361.644 361.644C375.942 347.346 383.982 327.959 384 307.739V204.261C383.973 184.044 375.93 164.662 361.634 150.366C347.338 136.07 327.956 128.027 307.739 128ZM358.265 307.739C358.265 321.139 352.942 333.991 343.466 343.466C333.991 352.942 321.139 358.265 307.739 358.265H204.261C190.861 358.265 178.009 352.942 168.534 343.466C159.058 333.991 153.735 321.139 153.735 307.739V204.261C153.735 190.861 159.058 178.009 168.534 168.534C178.009 159.058 190.861 153.735 204.261 153.735H307.739C321.139 153.735 333.991 159.058 343.466 168.534C352.942 178.009 358.265 190.861 358.265 204.261V307.739Z" fill="white"/>
<path d="M256 189.811C242.899 189.804 230.091 193.683 219.196 200.957C208.3 208.231 199.807 218.574 194.791 230.676C189.774 242.778 188.46 256.096 191.014 268.945C193.568 281.794 199.876 293.597 209.14 302.861C218.403 312.124 230.206 318.432 243.055 320.986C255.904 323.54 269.222 322.226 281.324 317.209C293.426 312.193 303.769 303.7 311.043 292.804C318.317 281.909 322.196 269.101 322.189 256C322.172 238.451 315.192 221.626 302.783 209.217C290.374 196.808 273.549 189.828 256 189.811ZM256 296.421C248.006 296.421 240.191 294.05 233.543 289.609C226.896 285.167 221.715 278.854 218.656 271.468C215.596 264.083 214.796 255.955 216.356 248.114C217.915 240.273 221.765 233.071 227.418 227.418C233.071 221.765 240.273 217.915 248.114 216.356C255.955 214.796 264.083 215.596 271.468 218.656C278.854 221.715 285.167 226.896 289.609 233.543C294.05 240.191 296.421 248.006 296.421 256C296.421 266.72 292.162 277.002 284.582 284.582C277.002 292.162 266.72 296.421 256 296.421Z" fill="white"/>
<path d="M322.594 206.181C331.635 206.181 338.965 198.852 338.965 189.81C338.965 180.769 331.635 173.44 322.594 173.44C313.553 173.44 306.224 180.769 306.224 189.81C306.224 198.852 313.553 206.181 322.594 206.181Z" fill="white"/>
</g>
<defs>
<linearGradient id="paint0_linear_3551_2447" x1="256" y1="509.642" x2="256" y2="34.6947" gradientUnits="userSpaceOnUse">
<stop stop-color="#E09B3D"/>
<stop offset="0.24" stop-color="#C74C4D"/>
<stop offset="0.65" stop-color="#C21975"/>
<stop offset="1" stop-color="#7024C4"/>
</linearGradient>
<clipPath id="clip0_3551_2447">
<rect width="512" height="512" fill="white"/>
</clipPath>
</defs>
</svg>
