<svg width="292" height="488" viewBox="0 0 292 488" fill="none" xmlns="http://www.w3.org/2000/svg">
<path d="M251.368 0.960938H112.632C90.5441 0.960938 72.6321 18.8729 72.6321 40.9609C72.6321 63.0489 90.5441 80.9609 112.632 80.9609H138.368L70.7601 406.361C70.7121 406.593 70.7361 406.809 70.6961 407.041H40.6321C18.5441 407.041 0.63208 424.945 0.63208 447.041C0.63208 469.137 18.5441 487.041 40.6321 487.041H179.368C201.464 487.041 219.368 469.137 219.368 447.041C219.368 424.945 201.464 407.041 179.368 407.041H152.176L219.912 80.9609H251.368C273.464 80.9609 291.368 63.0489 291.368 40.9609C291.368 18.8729 273.464 0.960938 251.368 0.960938Z" fill="#313131"/>
</svg>
