<svg width="18" height="18" viewBox="0 0 18 18" fill="none" xmlns="http://www.w3.org/2000/svg">
<path d="M9 -3.05176e-05C13.9781 -3.05176e-05 18 4.01724 18 8.99997C18 13.9827 13.9827 18 9 18C4.01727 18 0 13.9827 0 8.99997C0 4.01724 4.02185 -3.05176e-05 9 -3.05176e-05ZM9 16.7966C13.3193 16.7966 16.7966 13.3192 16.7966 8.99992C16.7966 4.68063 13.3192 1.20328 9 1.20328C4.68077 1.20328 1.20336 4.68063 1.20336 8.99992C1.20336 13.3192 4.68072 16.7966 9 16.7966Z" fill="#0566CF"/>
<path d="M5.7011 8.63853L9.6589 4.68073C9.8968 4.44283 10.2583 4.44283 10.5008 4.68073C10.7387 4.91864 10.7387 5.28013 10.5008 5.52266L7.02342 9.00002L10.5008 12.4774C10.7387 12.7153 10.7387 13.0768 10.5008 13.3192C10.3818 13.4382 10.2629 13.4977 10.0798 13.4977C9.96085 13.4977 9.7778 13.4382 9.59942 13.3787L5.7011 9.4804C5.58215 9.36145 5.52262 9.2425 5.52262 9.05944C5.52262 8.88101 5.58209 8.75748 5.7011 8.63853Z" fill="#0566CF"/>
</svg>
