<svg width="535" height="456" viewBox="0 0 535 456" fill="none" xmlns="http://www.w3.org/2000/svg">
<path d="M503.834 393.924C495.687 394.003 487.903 397.304 482.183 403.106C476.464 408.909 473.275 416.74 473.314 424.887C473.354 433.035 476.617 440.835 482.392 446.582C488.167 452.329 495.983 455.555 504.13 455.555C512.278 455.555 520.093 452.329 525.868 446.582C531.643 440.835 534.907 433.035 534.946 424.887C534.985 416.74 531.797 408.909 526.077 403.106C520.358 397.304 512.574 394.003 504.427 393.924H503.834ZM503.834 452.027C498.49 452.116 493.24 450.619 488.748 447.724C484.255 444.829 480.722 440.667 478.595 435.764C476.468 430.861 475.842 425.438 476.798 420.18C477.753 414.921 480.246 410.064 483.961 406.223C487.677 402.381 492.448 399.728 497.672 398.598C502.896 397.468 508.337 397.913 513.308 399.876C518.279 401.838 522.556 405.231 525.599 409.625C528.642 414.018 530.313 419.216 530.402 424.559V425.013C530.552 432.023 527.911 438.805 523.061 443.868C518.211 448.932 511.548 451.862 504.538 452.013H503.841M385.542 385.505H318.58V280.64C318.58 255.634 318.134 223.444 283.753 223.444C248.877 223.444 243.541 250.689 243.541 278.82V385.498H176.58V169.853H240.863V199.324H241.763C248.196 188.324 257.492 179.275 268.661 173.141C279.83 167.007 292.454 164.017 305.188 164.49C373.056 164.49 385.57 209.131 385.57 267.206L385.542 385.505ZM101.025 140.376C93.3391 140.378 85.8257 138.1 79.4347 133.831C73.0436 129.563 68.062 123.495 65.1196 116.395C62.1772 109.295 61.4063 101.482 62.9043 93.9435C64.4024 86.4053 68.102 79.4807 73.5355 74.0453C78.969 68.6098 85.8923 64.9076 93.4298 63.4069C100.967 61.9062 108.781 62.6743 115.882 65.6141C122.983 68.554 129.053 73.5335 133.324 79.923C137.595 86.3126 139.875 93.8251 139.876 101.511C139.877 106.614 138.873 111.667 136.921 116.382C134.969 121.097 132.108 125.381 128.5 128.99C124.892 132.599 120.609 135.462 115.895 137.416C111.18 139.369 106.128 140.375 101.025 140.376ZM134.505 385.505H67.474V169.853H134.505V385.505ZM418.925 0.475114H33.8258C25.0851 0.376476 16.6629 3.75202 10.4097 9.85999C4.1566 15.968 0.584214 24.3086 0.477539 33.0492V419.746C0.580563 428.491 4.15073 436.838 10.4037 442.952C16.6566 449.066 25.0808 452.448 33.8258 452.355H418.925C427.687 452.465 436.135 449.093 442.413 442.979C448.691 436.864 452.285 428.509 452.406 419.746V33.0213C452.281 24.2634 448.684 15.9133 442.407 9.80543C436.129 3.69761 427.683 0.331707 418.925 0.447214M508.723 426.694C509.87 426.705 511.007 426.481 512.064 426.035C513.12 425.588 514.074 424.93 514.865 424.1C515.656 423.27 516.269 422.286 516.664 421.21C517.06 420.133 517.23 418.987 517.164 417.842C517.164 411.564 513.376 408.565 505.606 408.565H493.05V441.432H497.773V427.105H503.576L503.708 427.279L512.713 441.432H517.763L508.075 426.784L508.723 426.694ZM503.262 423.401H497.786V412.29H504.727C508.312 412.29 512.399 412.876 512.399 417.57C512.399 422.969 508.263 423.401 503.234 423.401" fill="#2867B2"/>
</svg>
