<svg width="250" height="187" viewBox="0 0 250 187" fill="none" xmlns="http://www.w3.org/2000/svg">
<path d="M250 163.7H0V163.825H250V163.7Z" fill="#EDEDED"/>
<path d="M62.4099 171.265H45.8499V171.39H62.4099V171.265Z" fill="#EDEDED"/>
<path d="M40.6101 171.265H31.0151V171.39H40.6101V171.265Z" fill="#EDEDED"/>
<path d="M105.275 173.105H95.6799V173.23H105.275V173.105Z" fill="#EDEDED"/>
<path d="M155.305 175.895H133.71V176.02H155.305V175.895Z" fill="#EDEDED"/>
<path d="M129.26 175.895H126.095V176.02H129.26V175.895Z" fill="#EDEDED"/>
<path d="M226.675 173.105H179.835V173.23H226.675V173.105Z" fill="#EDEDED"/>
<path d="M118.5 141.4H21.955C21.1987 141.399 20.4738 141.097 19.9394 140.562C19.4051 140.027 19.105 139.301 19.105 138.545V2.83C19.1116 2.07801 19.4146 1.35899 19.9482 0.829109C20.4818 0.299229 21.203 0.00128819 21.955 0H118.5C119.257 0 119.983 0.300794 120.519 0.83621C121.054 1.37163 121.355 2.09781 121.355 2.855V138.545C121.355 139.302 121.054 140.028 120.519 140.564C119.983 141.099 119.257 141.4 118.5 141.4ZM21.955 0.1C21.2318 0.101325 20.5387 0.389533 20.0278 0.901363C19.5169 1.41319 19.23 2.10682 19.23 2.83V138.545C19.23 139.268 19.5169 139.962 20.0278 140.474C20.5387 140.985 21.2318 141.274 21.955 141.275H118.5C119.224 141.274 119.917 140.986 120.429 140.474C120.941 139.962 121.229 139.269 121.23 138.545V2.83C121.229 2.10636 120.941 1.41275 120.429 0.901058C119.917 0.38937 119.224 0.101322 118.5 0.1H21.955Z" fill="#EDEDED"/>
<path d="M226.655 141.4H130.105C129.348 141.399 128.623 141.097 128.088 140.562C127.553 140.027 127.251 139.302 127.25 138.545V2.83C127.258 2.07756 127.562 1.35854 128.096 0.828796C128.631 0.299054 129.353 0.00127414 130.105 0H226.655C227.406 0.00260225 228.126 0.301125 228.659 0.830864C229.191 1.3606 229.493 2.07888 229.5 2.83V138.545C229.5 139.3 229.201 140.025 228.667 140.56C228.134 141.095 227.41 141.397 226.655 141.4ZM130.105 0.1C129.381 0.101322 128.688 0.38937 128.176 0.901058C127.664 1.41275 127.376 2.10636 127.375 2.83V138.545C127.376 139.269 127.664 139.962 128.176 140.474C128.688 140.986 129.381 141.274 130.105 141.275H226.655C227.379 141.274 228.072 140.986 228.584 140.474C229.096 139.962 229.384 139.269 229.385 138.545V2.83C229.384 2.10636 229.096 1.41275 228.584 0.901058C228.072 0.38937 227.379 0.101322 226.655 0.1H130.105Z" fill="#EDEDED"/>
<path d="M133.7 120.99H122.705V164.605H133.7V120.99Z" fill="#E0E0E0"/>
<path d="M131.61 164.605H133.7V158.665H129.42L131.61 164.605Z" fill="#FAFAFA"/>
<path d="M85.52 120.99H74.525V164.605H85.52V120.99Z" fill="#E0E0E0"/>
<path d="M133.7 120.99H83.7001V160.96H133.7V120.99Z" fill="#FAFAFA"/>
<path d="M131.885 122.955V133.53H85.4999V122.955H131.87M132.065 122.76H85.3199V133.72H132.08V122.76H132.065Z" fill="#E0E0E0"/>
<path d="M85.7851 164.605H83.7001V158.665H87.9751L85.7851 164.605Z" fill="#FAFAFA"/>
<path d="M107.595 128.24C107.595 128.459 107.66 128.672 107.781 128.854C107.903 129.036 108.075 129.177 108.277 129.261C108.479 129.345 108.701 129.366 108.916 129.324C109.13 129.281 109.327 129.176 109.481 129.021C109.636 128.867 109.741 128.67 109.784 128.456C109.826 128.241 109.804 128.019 109.721 127.817C109.637 127.615 109.496 127.443 109.314 127.321C109.132 127.2 108.919 127.135 108.7 127.135C108.407 127.135 108.126 127.251 107.919 127.459C107.711 127.666 107.595 127.947 107.595 128.24Z" fill="#EDEDED"/>
<path d="M131.885 135.685V146.26H85.4999V135.685H131.87M132.065 135.495H85.3199V146.455H132.08V135.5L132.065 135.495Z" fill="#E0E0E0"/>
<path d="M107.595 141C107.595 141.219 107.66 141.432 107.781 141.614C107.903 141.796 108.075 141.937 108.277 142.021C108.479 142.105 108.701 142.126 108.916 142.084C109.13 142.041 109.327 141.936 109.481 141.781C109.636 141.627 109.741 141.43 109.784 141.216C109.826 141.001 109.804 140.779 109.721 140.577C109.637 140.375 109.496 140.203 109.314 140.081C109.132 139.96 108.919 139.895 108.7 139.895C108.407 139.895 108.126 140.011 107.919 140.219C107.711 140.426 107.595 140.707 107.595 141Z" fill="#EDEDED"/>
<path d="M131.885 148.42V159H85.4999V148.42H131.87M132.065 148.225H85.3199V159.19H132.08V148.225H132.065Z" fill="#E0E0E0"/>
<path d="M107.595 153.71C107.596 153.928 107.662 154.141 107.784 154.323C107.906 154.504 108.079 154.644 108.281 154.727C108.483 154.81 108.705 154.831 108.919 154.788C109.133 154.745 109.329 154.639 109.483 154.485C109.637 154.33 109.742 154.133 109.784 153.919C109.826 153.705 109.804 153.483 109.72 153.281C109.637 153.079 109.495 152.907 109.313 152.786C109.132 152.665 108.918 152.6 108.7 152.6C108.554 152.6 108.41 152.629 108.276 152.685C108.142 152.74 108.02 152.822 107.917 152.925C107.814 153.029 107.733 153.151 107.678 153.286C107.622 153.42 107.594 153.564 107.595 153.71Z" fill="#EDEDED"/>
<path d="M78.8051 95.66H67.8101V164.61H78.8051V95.66Z" fill="#E0E0E0"/>
<path d="M76.715 164.605H78.805V158.665H74.53L76.715 164.605Z" fill="#FAFAFA"/>
<path d="M37.715 95.66H26.72V164.61H37.715V95.66Z" fill="#E0E0E0"/>
<path d="M78.8049 95.66H35.8899V160.965H78.8049V95.66Z" fill="#FAFAFA"/>
<path d="M76.955 97.5V112.285H37.74V97.5H76.955ZM77.185 97.275H37.5V112.5H77.175V97.28L77.185 97.275Z" fill="#E0E0E0"/>
<path d="M76.9551 114.09V153.305H58.2751V114.09H76.9551ZM77.185 113.86H58.05V153.535H77.185V113.86Z" fill="#E0E0E0"/>
<path d="M56.42 114.09V153.305H37.74V114.09H56.42ZM56.645 113.86H37.5V153.535H56.635V113.86H56.645Z" fill="#E0E0E0"/>
<path d="M37.9799 164.605H35.8899V158.665H40.1699L37.9799 164.605Z" fill="#FAFAFA"/>
<path d="M56.24 104.9C56.239 105.12 56.3033 105.335 56.4246 105.518C56.546 105.701 56.719 105.844 56.9217 105.929C57.1245 106.014 57.3478 106.037 57.5635 105.994C57.7791 105.952 57.9774 105.847 58.1331 105.692C58.2888 105.537 58.3951 105.339 58.4383 105.123C58.4815 104.908 58.4598 104.685 58.376 104.481C58.2921 104.278 58.1498 104.105 57.9672 103.982C57.7846 103.86 57.5697 103.795 57.35 103.795C57.0565 103.795 56.7749 103.911 56.5669 104.118C56.3589 104.325 56.2413 104.607 56.24 104.9Z" fill="#EDEDED"/>
<path d="M60.2 132.765C60.2 132.985 60.2652 133.2 60.3874 133.382C60.5096 133.565 60.6832 133.707 60.8863 133.791C61.0895 133.875 61.3129 133.897 61.5284 133.853C61.7438 133.81 61.9416 133.704 62.0966 133.548C62.2517 133.392 62.357 133.194 62.3992 132.979C62.4415 132.763 62.4188 132.54 62.334 132.337C62.2492 132.134 62.1062 131.961 61.923 131.84C61.7398 131.718 61.5247 131.654 61.305 131.655C61.1594 131.655 61.0153 131.684 60.8809 131.74C60.7465 131.795 60.6245 131.877 60.5218 131.98C60.4192 132.084 60.3379 132.206 60.2826 132.341C60.2274 132.475 60.1993 132.62 60.2 132.765Z" fill="#EDEDED"/>
<path d="M52.2849 132.765C52.2859 132.983 52.3516 133.197 52.4736 133.378C52.5956 133.559 52.7685 133.699 52.9705 133.782C53.1725 133.865 53.3945 133.886 53.6085 133.843C53.8226 133.8 54.019 133.694 54.173 133.54C54.3271 133.385 54.4318 133.188 54.474 132.974C54.5163 132.76 54.4941 132.538 54.4103 132.336C54.3265 132.134 54.1849 131.962 54.0033 131.841C53.8217 131.72 53.6083 131.655 53.3899 131.655C53.2444 131.655 53.1003 131.684 52.9659 131.74C52.8315 131.795 52.7095 131.877 52.6068 131.98C52.5041 132.084 52.4228 132.206 52.3676 132.341C52.3124 132.475 52.2843 132.619 52.2849 132.765Z" fill="#EDEDED"/>
<path d="M51.035 76.4351H46.4C46.8271 78.6835 47.0961 80.959 47.205 83.2451C47.205 85.7451 43.675 95.6601 48.705 95.6601C53.735 95.6601 50.205 85.7701 50.205 83.2451C50.3221 80.9585 50.5994 78.6829 51.035 76.4351Z" fill="#E0E0E0"/>
<path d="M33.3999 86.575V89.575C33.4052 91.1832 34.0464 92.7241 35.1836 93.8613C36.3208 94.9985 37.8617 95.6397 39.4699 95.645H42.4699C44.0781 95.6397 45.619 94.9985 46.7562 93.8613C47.8934 92.7241 48.5346 91.1832 48.5399 89.575V86.575H33.3999Z" fill="#F5F5F5"/>
<path d="M97.835 114.63C97.835 118.13 101.75 120.99 106.535 120.99H110.855C115.64 120.99 119.555 118.13 119.555 114.63H97.835Z" fill="#E0E0E0"/>
<path d="M212.305 109.5C209.685 111.64 206.065 115.555 202.755 121.065C200.545 124.735 199.215 128.565 198.63 133.655C198.63 127.905 198.665 121.73 198.685 115.9C199.35 114.4 200.87 110.94 201.96 108.21C205.595 99.095 206.96 96.85 210.225 88.99C214.59 78.49 219.06 66.06 217.78 67.055C215.17 69.08 205.17 87.805 204.09 90.485C201.146 97.6371 199.326 105.202 198.695 112.91C198.695 107.41 198.735 102.41 198.755 98.53C198.825 85.875 199.04 81.79 199.145 80.53C199.55 79.89 200.025 79.145 200.305 78.745C202.655 75.345 203.56 72.455 205.77 67.385C208.91 60.21 211.61 47.465 210.82 48.105C207.53 50.785 204.94 56.535 201.53 63.87C198.12 71.205 199.095 75.42 198.42 81.68C198.28 82.91 198.17 87.55 198.09 93.975C197.21 87.125 195.55 82.615 192.525 78.515C188.805 73.47 185.205 70.065 182.565 68.285C179.925 66.505 187.125 78.895 190.565 84.285C193.63 89.105 196.455 93.35 198.065 97.535C197.98 106.25 197.94 117.28 197.94 127.535C197.15 122.865 195.86 117.83 194.14 113.935C192.07 109.255 188.89 102.075 186.355 99.64C185.75 99.055 189.005 113.02 191.095 116.73C193.185 120.44 194.72 123.945 196.035 126.05C196.34 126.55 197.36 128.435 197.94 129.525C197.94 142.06 198.01 153.12 198.12 156.885H198.66C198.625 155.915 198.615 149.535 198.63 141.095C199.935 136.515 202.915 131.285 205.375 126.515C208.055 121.35 214.925 107.375 212.305 109.5Z" fill="#E0E0E0"/>
<path d="M206.22 164.605H190.55L189.365 149.245H207.405L206.22 164.605Z" fill="#F0F0F0"/>
<path d="M208.57 151.035H188.195L187.615 145.85H209.155L208.57 151.035Z" fill="#F5F5F5"/>
<path d="M62.13 10.25H34.105V41.025H62.13V10.25Z" fill="#E0E0E0"/>
<path d="M65.1651 10.25H36.2151V41.025H65.1651V10.25Z" fill="#F5F5F5"/>
<path d="M62.74 38.6V12.675L38.64 12.675V38.6H62.74Z" fill="white"/>
<path d="M56.895 32.31V18.955H44.48V32.31H56.895Z" fill="#F5F5F5"/>
<path d="M205.025 13.835H178.99V42.425H205.025V13.835Z" fill="#E0E0E0"/>
<path d="M207.845 13.835H180.955V42.425H207.845V13.835Z" fill="#F5F5F5"/>
<path d="M205.595 40.17V16.09H183.21V40.17H205.595Z" fill="white"/>
<path d="M194.4 35.115C198.258 35.115 201.385 31.9877 201.385 28.13C201.385 24.2723 198.258 21.145 194.4 21.145C190.542 21.145 187.415 24.2723 187.415 28.13C187.415 31.9877 190.542 35.115 194.4 35.115Z" fill="#F5F5F5"/>
<path d="M91.245 28.6H70.455V51.43H91.245V28.6Z" fill="#E0E0E0"/>
<path d="M93.495 28.6H72.02V51.43H93.495V28.6Z" fill="#F5F5F5"/>
<path d="M91.6949 49.63V30.4H73.82V49.63H91.6949Z" fill="white"/>
<path d="M82.76 35.15L77.87 43.62H87.65L82.76 35.15Z" fill="#F5F5F5"/>
<path d="M125 186.28C178.541 186.28 221.945 183.746 221.945 180.62C221.945 177.494 178.541 174.96 125 174.96C71.4587 174.96 28.0549 177.494 28.0549 180.62C28.0549 183.746 71.4587 186.28 125 186.28Z" fill="#F5F5F5"/>
<path d="M174.625 54.215L169.665 52.215C169.665 52.215 163.12 64.15 161.245 64.755C158.695 65.575 153.415 67.855 150.285 68.255C149.86 68.755 149.165 70.31 149.23 70.875C153.435 72.28 162.675 70.415 164.655 68.945C169.16 65.61 174.625 54.215 174.625 54.215Z" fill="#E58A7B"/>
<path d="M176.15 51.5C177.075 54.915 172.065 61.785 172.065 61.785L165.5 58.105C165.5 58.105 166.73 55.28 168.23 52.405C170.635 47.76 175.095 47.605 176.15 51.5Z" fill="#FFA500"/>
<path opacity="0.2" d="M168.105 59.575L170.69 61.025L171.145 53.09C169.64 54.245 168.58 57.725 168.105 59.575Z" fill="black"/>
<path d="M171.83 48.9299C171.83 48.9299 166.72 60.2999 169.7 81.4699H189.835C190.155 78.3799 189.095 63.2999 192.93 48.7399C190.721 48.3083 188.486 48.0227 186.24 47.8849C183.391 47.7198 180.534 47.7198 177.685 47.8849C175.71 48.0855 173.753 48.4348 171.83 48.9299Z" fill="#FFA500"/>
<g style="mix-blend-mode:multiply">
<path d="M167.16 181.07C167.13 181.61 174.765 182.045 184.21 182.045C193.655 182.045 201.345 181.61 201.375 181.07C201.405 180.53 193.775 180.1 184.325 180.1C174.875 180.1 167.195 180.535 167.16 181.07Z" fill="#E8ECF1"/>
</g>
<path d="M180.6 166.881L177.029 168.264L180.105 176.211L183.676 174.828L180.6 166.881Z" fill="#E58A7B"/>
<path d="M196.525 177.225H192.76L191.38 168.51H195.145L196.525 177.225Z" fill="#E58A7B"/>
<path d="M192.5 176.79H196.73C196.803 176.79 196.874 176.817 196.93 176.864C196.986 176.912 197.023 176.978 197.035 177.05L197.58 180.395C197.591 180.479 197.585 180.564 197.56 180.645C197.536 180.727 197.494 180.801 197.438 180.865C197.382 180.929 197.313 180.979 197.236 181.014C197.159 181.048 197.075 181.066 196.99 181.065C195.515 181.04 194.805 180.95 192.945 180.95C191.8 180.95 189.445 181.07 187.855 181.07C186.265 181.07 186.16 179.51 186.815 179.365C189.755 178.73 190.895 177.865 191.875 177.025C192.048 176.873 192.27 176.79 192.5 176.79Z" fill="#263238"/>
<path d="M180 175.5L184 174.33C184.071 174.31 184.147 174.315 184.216 174.344C184.284 174.373 184.34 174.424 184.375 174.49L185.875 177.49C185.91 177.566 185.928 177.649 185.927 177.733C185.927 177.816 185.908 177.899 185.872 177.975C185.836 178.05 185.785 178.117 185.72 178.171C185.656 178.224 185.581 178.263 185.5 178.285C184.045 178.685 183.07 178.93 181.25 179.46C179.995 179.825 178.715 180.42 177.475 180.815C176.615 181.09 174.595 181.1 173.55 181.1C172.005 181.1 171.66 179.47 172.325 179.395C174 179.21 174.225 179.295 175.15 178.83C176.663 178.168 178.035 177.221 179.19 176.04C179.408 175.792 179.687 175.605 180 175.5Z" fill="#263238"/>
<path d="M150.915 68.235L146.775 66.5L145.07 71.09C146.767 71.3485 148.493 71.3485 150.19 71.09L150.915 68.235Z" fill="#E58A7B"/>
<path d="M143.695 66.38L143.585 69.43L145.07 71.08L146.775 66.49L143.695 66.38Z" fill="#E58A7B"/>
<path d="M181.09 167.556L177.508 168.939L179.094 173.049L182.677 171.666L181.09 167.556Z" fill="#CF6F64"/>
<path d="M195.145 168.51H191.38L192.095 173.005H195.86L195.145 168.51Z" fill="#CF6F64"/>
<path opacity="0.2" d="M169.06 75.745C169.135 76.65 169.22 77.575 169.33 78.525L184.3 73.665C186.638 72.9722 188.67 71.503 190.06 69.5C190.12 68.165 190.195 66.76 190.31 65.295C190.36 64.585 190.42 63.855 190.485 63.115C190.55 62.375 190.64 61.555 190.735 60.765L169.06 75.745Z" fill="black"/>
<path d="M173.95 59.3449L173.45 59.285C173.745 56.785 175.61 54.8149 177.575 54.8649V55.3649C175.855 55.3299 174.215 57.1049 173.95 59.3449Z" fill="white"/>
<path d="M176.615 63.96H176.53V63.46C178.25 63.525 179.865 61.73 180.13 59.495L180.63 59.555C180.365 62 178.56 63.96 176.615 63.96Z" fill="white"/>
<path d="M185.96 38.25C185.255 41.005 184.425 46.05 186.24 47.885C186.24 47.885 184.97 50.68 179.855 50.68C175.18 50.68 177.685 47.885 177.685 47.885C180.795 47.155 180.85 44.885 180.44 42.735L185.96 38.25Z" fill="#E58A7B"/>
<path d="M183.71 40.08L180.445 42.735C180.546 43.229 180.605 43.7309 180.62 44.235C181.575 45.185 183.49 42.78 183.685 41.55C183.784 41.0657 183.793 40.5673 183.71 40.08Z" fill="#CF6F64"/>
<path d="M174.83 38.215C175.057 38.6087 175.363 38.9514 175.729 39.2215C176.094 39.4917 176.512 39.6835 176.955 39.785C178.155 40.05 178.755 38.945 178.425 37.835C178.13 36.835 177.145 35.49 175.925 35.72C175.664 35.7738 175.419 35.8895 175.212 36.0573C175.004 36.2251 174.84 36.4402 174.733 36.6845C174.625 36.9288 174.578 37.1953 174.595 37.4615C174.612 37.7278 174.693 37.9862 174.83 38.215Z" fill="#CF6F64"/>
<path d="M176.815 29.4C174.945 30.255 174.285 37.685 176.635 38.785C178.985 39.885 180.355 27.775 176.815 29.4Z" fill="#263238"/>
<path d="M186.53 34.105C186.08 37.835 186.03 40.03 184.03 41.94C183.41 42.5738 182.627 43.0241 181.768 43.241C180.908 43.4579 180.006 43.4331 179.159 43.1693C178.313 42.9054 177.556 42.4129 176.972 41.746C176.388 41.079 176 40.2637 175.85 39.39C175.245 36.04 176.08 30.505 179.82 29.02C180.606 28.6734 181.47 28.5433 182.323 28.6431C183.176 28.743 183.987 29.0692 184.671 29.5879C185.356 30.1067 185.889 30.799 186.216 31.5933C186.543 32.3875 186.651 33.2547 186.53 34.105Z" fill="#E58A7B"/>
<path d="M180.385 31.33C183.155 30.625 185.19 30.145 184.46 32.45C183.495 35.53 182.335 38.51 183.89 38.645C184.84 38.73 189.04 36.95 188.505 35.145C188.04 33.575 190.005 33.145 190.355 32.35C191.65 29.47 187.945 29.85 188.605 28.1C189.265 26.35 185.605 23.53 183.605 24.935C180.35 27.205 174.765 27.17 177.7 23.435C179.805 20.77 176.05 21.315 176.05 21.315C176.05 21.315 178.32 22.66 174.5 24.74C170.46 26.96 174.165 32.925 180.385 31.33Z" fill="#263238"/>
<path d="M188 38.215C187.453 39.0062 186.632 39.5658 185.695 39.785C184.46 40.05 183.985 38.945 184.45 37.835C184.865 36.835 186.005 35.49 187.185 35.72C188.365 35.95 188.635 37.235 188 38.215Z" fill="#E58A7B"/>
<path d="M169.7 81.47C169.7 81.47 166.32 111.72 166.055 123.2C165.785 135.14 177.51 172.395 177.51 172.395L183.51 169.895C183.51 169.895 176.51 135.855 177.51 124.13C178.57 111.345 182.95 81.49 182.95 81.49L169.7 81.47Z" fill="#3B454A"/>
<path opacity="0.2" d="M178.1 89.775C175.405 95.365 177.22 106.42 178.68 112.97C179.235 108.345 179.895 103.325 180.52 98.68C180.46 91.54 179.905 86.025 178.1 89.775Z" fill="black"/>
<path d="M183.245 167.915C183.275 167.915 183.955 169.825 183.955 169.825L177.035 172.735L175.945 170.705L183.245 167.915Z" fill="#7C7C7C"/>
<path d="M176.845 81.47C176.845 81.47 179.43 110.24 181.14 121.015C183.02 132.82 190.39 172.135 190.39 172.135H197.285C197.285 172.135 193.155 133.775 192.375 122.085C191.525 109.405 189.835 81.47 189.835 81.47H176.845Z" fill="#3B454A"/>
<path d="M197.39 170.34C197.42 170.34 197.62 172.265 197.62 172.265H190.04L189.5 170.055L197.39 170.34Z" fill="#7C7C7C"/>
<path opacity="0.2" d="M194.75 168.06C194.734 168.06 194.719 168.055 194.707 168.045C194.695 168.034 194.687 168.02 194.685 168.005C194.645 167.655 190.92 133.005 190.22 122.505C189.46 111.115 187.93 85.8499 187.915 85.5949C187.914 85.5866 187.915 85.5783 187.918 85.5704C187.921 85.5625 187.925 85.5553 187.931 85.5492C187.936 85.5431 187.943 85.5382 187.951 85.5349C187.958 85.5316 187.967 85.5299 187.975 85.5299C187.991 85.5299 188.007 85.536 188.019 85.5472C188.031 85.5583 188.039 85.5735 188.04 85.5899C188.04 85.8449 189.585 111.09 190.345 122.5C191.045 133 194.77 167.625 194.805 168C194.806 168.008 194.806 168.017 194.804 168.025C194.802 168.033 194.798 168.041 194.793 168.047C194.788 168.054 194.781 168.059 194.774 168.063C194.767 168.067 194.758 168.069 194.75 168.07V168.06Z" fill="black"/>
<path d="M180.81 35.145C180.81 35.45 180.62 35.695 180.42 35.695C180.22 35.695 180.075 35.45 180.095 35.145C180.115 34.84 180.285 34.595 180.485 34.595C180.685 34.595 180.83 34.845 180.81 35.145Z" fill="#263238"/>
<path d="M177.38 35.145C177.38 35.45 177.185 35.695 176.99 35.695C176.795 35.695 176.645 35.45 176.66 35.145C176.675 34.84 176.855 34.595 177.055 34.595C177.255 34.595 177.4 34.845 177.38 35.145Z" fill="#263238"/>
<path d="M178.46 35.2999C178.043 36.2313 177.505 37.1037 176.86 37.8949C177.36 38.3949 178.295 38.1649 178.295 38.1649L178.46 35.2999Z" fill="#DF5753"/>
<path d="M178.55 39.44C178.538 39.44 178.527 39.4376 178.516 39.4331C178.506 39.4285 178.496 39.4218 178.488 39.4133C178.48 39.4049 178.474 39.3949 178.47 39.384C178.466 39.3731 178.464 39.3615 178.465 39.35C178.466 39.3256 178.477 39.3027 178.495 39.286C178.512 39.2692 178.536 39.2599 178.56 39.26C178.942 39.2626 179.321 39.1796 179.667 39.0169C180.013 38.8542 180.318 38.6161 180.56 38.32C180.577 38.3048 180.6 38.2965 180.622 38.2965C180.645 38.2965 180.668 38.3048 180.685 38.32C180.701 38.3367 180.71 38.3591 180.71 38.3825C180.71 38.4058 180.701 38.4282 180.685 38.445C180.426 38.7597 180.1 39.0124 179.73 39.1846C179.361 39.3567 178.958 39.444 178.55 39.44Z" fill="#263238"/>
<path d="M181.42 34.2249C181.396 34.2372 181.369 34.2436 181.342 34.2436C181.316 34.2436 181.289 34.2372 181.265 34.2249C181.078 34.104 180.865 34.0288 180.644 34.0053C180.422 33.9819 180.198 34.0109 179.99 34.0899C179.97 34.1001 179.948 34.1061 179.925 34.1075C179.902 34.109 179.88 34.1059 179.858 34.0984C179.837 34.091 179.817 34.0793 179.8 34.0641C179.783 34.0489 179.77 34.0305 179.76 34.0099C179.741 33.9654 179.741 33.9155 179.759 33.8706C179.776 33.8258 179.811 33.7897 179.855 33.7699C180.116 33.6632 180.4 33.6211 180.681 33.6472C180.962 33.6733 181.233 33.7668 181.47 33.9199C181.489 33.933 181.506 33.9497 181.518 33.9691C181.531 33.9885 181.54 34.0102 181.544 34.033C181.548 34.0558 181.548 34.0792 181.543 34.1019C181.538 34.1245 181.528 34.1459 181.515 34.1649C181.49 34.1936 181.457 34.2144 181.42 34.2249Z" fill="#263238"/>
<path d="M176.055 33.225C176.028 33.2186 176.004 33.2047 175.985 33.185C175.968 33.1687 175.955 33.1493 175.946 33.1278C175.937 33.1063 175.932 33.0833 175.932 33.06C175.932 33.0367 175.937 33.0137 175.946 32.9922C175.955 32.9708 175.968 32.9513 175.985 32.935C176.177 32.7201 176.415 32.5523 176.682 32.4448C176.95 32.3372 177.238 32.2928 177.525 32.315C177.548 32.3186 177.57 32.3268 177.59 32.3392C177.609 32.3516 177.626 32.3679 177.639 32.3872C177.653 32.4064 177.662 32.4281 177.666 32.4509C177.67 32.4738 177.67 32.4973 177.665 32.52C177.654 32.5663 177.627 32.6071 177.588 32.6347C177.55 32.6623 177.502 32.6749 177.455 32.67C177.228 32.6557 177 32.6933 176.79 32.7799C176.579 32.8665 176.391 32.9999 176.24 33.17C176.217 33.1953 176.188 33.2138 176.155 33.2236C176.123 33.2333 176.088 33.2338 176.055 33.225Z" fill="#263238"/>
<path d="M194.865 53.66L189.665 52.275C189.665 52.275 184.565 64.83 182.76 65.645C180.31 66.765 174.105 70.645 171.465 72.48C171.32 73.105 171.435 74.76 171.765 75.215C176.265 74.395 184.88 71.08 186.68 69.395C190.785 65.55 194.865 53.66 194.865 53.66Z" fill="#E58A7B"/>
<path d="M191.235 177.45C190.981 177.47 190.728 177.401 190.52 177.255C190.456 177.197 190.407 177.123 190.38 177.041C190.353 176.958 190.348 176.87 190.365 176.785C190.368 176.732 190.386 176.681 190.416 176.637C190.445 176.593 190.487 176.557 190.535 176.535C190.955 176.32 192.13 177.065 192.265 177.15C192.28 177.159 192.291 177.173 192.298 177.189C192.304 177.205 192.305 177.223 192.3 177.24C192.296 177.257 192.287 177.274 192.275 177.287C192.263 177.3 192.247 177.31 192.23 177.315C191.904 177.395 191.57 177.44 191.235 177.45ZM190.735 176.67C190.697 176.662 190.658 176.662 190.62 176.67C190.601 176.68 190.585 176.695 190.574 176.714C190.564 176.732 190.559 176.754 190.56 176.775C190.547 176.833 190.549 176.894 190.566 176.951C190.584 177.008 190.616 177.059 190.66 177.1C190.855 177.275 191.345 177.295 191.99 177.17C191.606 176.917 191.173 176.747 190.72 176.67H190.735Z" fill="#7C7C7C"/>
<path d="M192.205 177.315C192.192 177.319 192.178 177.319 192.165 177.315C191.79 177.105 191.085 176.28 191.19 175.86C191.206 175.793 191.243 175.734 191.297 175.691C191.35 175.649 191.417 175.625 191.485 175.625C191.552 175.616 191.62 175.622 191.685 175.642C191.75 175.661 191.809 175.695 191.86 175.74C192.275 176.095 192.3 177.185 192.3 177.24C192.302 177.256 192.299 177.273 192.291 177.288C192.283 177.302 192.27 177.314 192.255 177.32C192.238 177.323 192.221 177.322 192.205 177.315ZM191.535 175.79H191.5C191.385 175.79 191.37 175.855 191.365 175.88C191.305 176.125 191.75 176.75 192.12 177.045C192.118 176.623 191.987 176.211 191.745 175.865C191.687 175.814 191.612 175.788 191.535 175.79Z" fill="#7C7C7C"/>
<path d="M177.96 176.825C177.654 176.932 177.321 176.932 177.015 176.825C176.945 176.787 176.887 176.733 176.844 176.666C176.801 176.6 176.776 176.524 176.77 176.445C176.764 176.396 176.77 176.345 176.788 176.299C176.807 176.253 176.836 176.212 176.875 176.18C177.275 175.82 178.91 176.18 179.095 176.25C179.113 176.255 179.128 176.265 179.139 176.279C179.15 176.294 179.156 176.312 179.155 176.33C179.156 176.349 179.151 176.367 179.141 176.383C179.131 176.399 179.117 176.412 179.1 176.42C178.732 176.586 178.35 176.722 177.96 176.825ZM177.145 176.23C177.088 176.241 177.034 176.267 176.99 176.305C176.974 176.317 176.962 176.333 176.955 176.352C176.948 176.37 176.946 176.391 176.95 176.41C176.953 176.462 176.97 176.513 176.998 176.558C177.025 176.602 177.064 176.639 177.11 176.665C177.375 176.805 177.99 176.695 178.785 176.36C178.249 176.225 177.695 176.181 177.145 176.23Z" fill="#7C7C7C"/>
<path d="M179.085 176.42H179.045C178.545 176.33 177.545 175.755 177.515 175.325C177.515 175.225 177.56 175.085 177.8 175.005C177.881 174.976 177.967 174.964 178.053 174.969C178.139 174.974 178.223 174.997 178.3 175.035C178.84 175.3 179.125 176.26 179.14 176.305C179.144 176.32 179.143 176.336 179.139 176.351C179.134 176.366 179.126 176.379 179.115 176.39C179.108 176.402 179.097 176.413 179.085 176.42ZM177.9 175.155H177.85C177.695 175.21 177.695 175.275 177.695 175.295C177.695 175.555 178.42 176.03 178.925 176.19C178.809 175.788 178.563 175.437 178.225 175.19C178.125 175.139 178.009 175.126 177.9 175.155Z" fill="#7C7C7C"/>
<path d="M171.89 72.1849L166.675 74.5849L166.07 76.0849L167.995 77.3799C167.995 77.3799 171.595 76.9899 172.62 74.6749L171.89 72.1849Z" fill="#E58A7B"/>
<path d="M172.11 75.3C171.993 74.298 171.663 73.3328 171.14 72.47L171.965 71.85C172.586 72.8441 172.982 73.9619 173.125 75.125L172.11 75.3Z" fill="#263238"/>
<path d="M173 72.895C173.11 73.0684 173.164 73.2715 173.155 73.4768C173.146 73.6821 173.073 73.8795 172.948 74.0422C172.823 74.2049 172.65 74.325 172.454 74.3862C172.258 74.4474 172.047 74.4466 171.852 74.384C171.656 74.3215 171.484 74.2001 171.36 74.0365C171.236 73.8729 171.165 73.675 171.157 73.4696C171.149 73.2643 171.205 73.0615 171.316 72.8889C171.428 72.7163 171.59 72.5822 171.78 72.505C171.994 72.3961 172.242 72.3759 172.47 72.449C172.699 72.522 172.889 72.6823 173 72.895Z" fill="#263238"/>
<path d="M163.15 76.525L163.845 77.225L168.525 75.225L166.675 74.585L163.15 76.525Z" fill="#E58A7B"/>
<path opacity="0.2" d="M183.245 167.915C183.275 167.915 183.955 169.825 183.955 169.825L177.035 172.735L175.945 170.705L183.245 167.915Z" fill="black"/>
<path opacity="0.2" d="M197.39 170.34C197.42 170.34 197.62 172.265 197.62 172.265H190.04L189.5 170.055L197.39 170.34Z" fill="black"/>
<path d="M196.22 52.22C197.595 56.655 192.22 62.72 192.22 62.72L184.795 59.69C185.675 57.1266 186.69 54.6114 187.835 52.155C190.115 47.24 194.83 47.745 196.22 52.22Z" fill="#FFA500"/>
<path d="M122.44 7.78503H119.245V8.30003H122.44V7.78503Z" fill="#0566CF"/>
<path d="M163.799 28.1682L163.412 36.7495L163.927 36.7727L164.314 28.1914L163.799 28.1682Z" fill="#0566CF"/>
<path d="M162.805 10.095H103.805L98.3149 132.955H157.315L162.805 10.095Z" fill="white"/>
<path opacity="0.56" d="M161.045 11.785H102.045L96.5551 134.645H155.555L161.045 11.785Z" fill="#DBDBDB"/>
<path opacity="0.07" d="M159.285 13.4701H100.285L94.79 136.33H153.79L159.285 13.4701Z" fill="#B0B0B0"/>
<path d="M152.57 67.0551H102.21L101.79 76.4551H152.15L152.57 67.0551Z" fill="white"/>
<path d="M129.905 60.1951H102.515L102.33 64.4001H129.72L129.905 60.1951Z" fill="#0566CF"/>
<path d="M151.435 92.425H101.075L100.655 101.825H151.015L151.435 92.425Z" fill="white"/>
<path opacity="0.47" d="M142.2 114.52H108.335L107.83 125.785H141.695L142.2 114.52Z" fill="#FFA500"/>
<path d="M139.935 127.535H106.07C106.055 127.539 106.04 127.539 106.025 127.535C106.02 127.521 106.02 127.505 106.025 127.49L106.525 116.22C106.525 116.212 106.526 116.205 106.53 116.198C106.533 116.191 106.537 116.184 106.543 116.179C106.548 116.174 106.555 116.17 106.562 116.168C106.57 116.165 106.577 116.164 106.585 116.165H140.45C140.456 116.162 140.463 116.16 140.47 116.16C140.477 116.16 140.484 116.162 140.49 116.165C140.493 116.171 140.495 116.178 140.495 116.185C140.495 116.192 140.493 116.199 140.49 116.205L140 127.5C139.994 127.512 139.985 127.521 139.973 127.528C139.961 127.534 139.948 127.537 139.935 127.535ZM106.13 127.415H139.875L140.375 116.265H106.63L106.13 127.415Z" fill="#FFA500"/>
<path d="M123.99 85.5651H101.38L101.195 89.7751H123.8L123.99 85.5651Z" fill="#0566CF"/>
<path d="M141.555 36.69C141.426 39.4257 140.453 42.0544 138.77 44.215C137.524 45.8471 135.921 47.1721 134.084 48.0882C132.246 49.0043 130.223 49.4873 128.17 49.5C126.511 49.5127 124.867 49.1855 123.339 48.5387C121.811 47.8918 120.431 46.939 119.286 45.7389C118.14 44.5389 117.252 43.1169 116.677 41.5607C116.101 40.0044 115.85 38.3468 115.94 36.69C116.116 33.2521 117.598 30.0111 120.085 27.63C122.571 25.2488 125.873 23.9074 129.315 23.88C130.975 23.8646 132.621 24.1897 134.151 24.8355C135.681 25.4812 137.062 26.4337 138.209 27.6343C139.356 28.8348 140.245 30.2579 140.82 31.8154C141.396 33.373 141.646 35.0321 141.555 36.69Z" fill="white"/>
<path d="M142.76 26.56C142.727 27.2875 142.469 27.9866 142.02 28.56C141.688 28.9935 141.261 29.3454 140.773 29.5889C140.284 29.8324 139.746 29.9611 139.2 29.965C138.671 29.9683 138.149 29.8419 137.68 29.597C137.211 29.3521 136.81 28.9961 136.51 28.56C136.113 27.9709 135.917 27.2696 135.95 26.56C135.998 25.6472 136.393 24.7873 137.054 24.1555C137.714 23.5237 138.591 23.1677 139.505 23.16C139.946 23.156 140.383 23.2423 140.789 23.4137C141.196 23.585 141.563 23.8377 141.868 24.1563C142.173 24.4748 142.409 24.8524 142.563 25.2658C142.716 25.6792 142.783 26.1197 142.76 26.56Z" fill="#0566CF"/>
<path d="M107.635 71.7551C107.611 72.158 107.435 72.5368 107.143 72.8151C106.851 73.0935 106.464 73.2507 106.06 73.2551C105.865 73.2574 105.672 73.2197 105.492 73.1444C105.312 73.069 105.15 72.9576 105.015 72.817C104.88 72.6764 104.775 72.5096 104.707 72.327C104.64 72.1443 104.61 71.9497 104.62 71.7551C104.642 71.3513 104.817 70.9711 105.11 70.6923C105.402 70.4134 105.791 70.257 106.195 70.2551C106.39 70.2535 106.583 70.2916 106.762 70.3672C106.941 70.4428 107.104 70.5543 107.238 70.6947C107.373 70.8351 107.478 71.0016 107.546 71.1839C107.614 71.3663 107.645 71.5606 107.635 71.7551Z" fill="#263238"/>
<path d="M114.375 71.755C114.352 72.1583 114.177 72.5378 113.884 72.8164C113.592 73.095 113.204 73.2518 112.8 73.255C112.606 73.2566 112.413 73.2184 112.234 73.1428C112.055 73.0671 111.893 72.9556 111.758 72.8151C111.624 72.6746 111.52 72.508 111.452 72.3257C111.384 72.1434 111.355 71.9492 111.365 71.755C111.387 71.3521 111.561 70.9726 111.853 70.6939C112.145 70.4152 112.532 70.2582 112.935 70.255C113.13 70.2527 113.323 70.2903 113.503 70.3657C113.683 70.441 113.845 70.5524 113.98 70.693C114.115 70.8336 114.22 71.0004 114.288 71.1831C114.356 71.3657 114.385 71.5604 114.375 71.755Z" fill="#263238"/>
<path d="M121.12 71.755C121.097 72.1583 120.922 72.5378 120.629 72.8164C120.337 73.095 119.949 73.2518 119.545 73.255C119.35 73.2566 119.157 73.2184 118.978 73.1428C118.799 73.0672 118.637 72.9558 118.502 72.8154C118.367 72.6749 118.262 72.5084 118.194 72.3261C118.126 72.1438 118.095 71.9494 118.105 71.755C118.128 71.3517 118.303 70.9722 118.596 70.6936C118.888 70.415 119.276 70.2581 119.68 70.255C119.875 70.2527 120.068 70.2903 120.248 70.3657C120.428 70.441 120.59 70.5524 120.725 70.693C120.86 70.8336 120.965 71.0004 121.033 71.1831C121.1 71.3657 121.13 71.5604 121.12 71.755Z" fill="#263238"/>
<path d="M106.5 97.125C106.476 97.528 106.3 97.9068 106.008 98.1851C105.716 98.4635 105.329 98.6207 104.925 98.625C104.73 98.6266 104.537 98.5885 104.358 98.5129C104.179 98.4373 104.017 98.3259 103.882 98.1854C103.747 98.045 103.642 97.8785 103.574 97.6962C103.506 97.5138 103.475 97.3195 103.485 97.125C103.508 96.7217 103.683 96.3422 103.976 96.0636C104.268 95.785 104.656 95.6282 105.06 95.625C105.255 95.6235 105.448 95.6616 105.627 95.7372C105.806 95.8128 105.968 95.9242 106.103 96.0647C106.238 96.2051 106.343 96.3716 106.411 96.5539C106.479 96.7363 106.51 96.9306 106.5 97.125Z" fill="#263238"/>
<path d="M113.24 97.1251C113.217 97.5275 113.042 97.9063 112.751 98.1848C112.459 98.4633 112.073 98.6206 111.67 98.6251C111.475 98.6274 111.282 98.5897 111.102 98.5144C110.922 98.439 110.76 98.3276 110.625 98.187C110.49 98.0464 110.385 97.8796 110.317 97.697C110.249 97.5143 110.22 97.3197 110.23 97.1251C110.253 96.7217 110.428 96.3422 110.721 96.0636C111.013 95.785 111.401 95.6282 111.805 95.6251C111.999 95.6234 112.192 95.6616 112.371 95.7372C112.55 95.8129 112.712 95.9244 112.847 96.0649C112.981 96.2054 113.085 96.372 113.153 96.5543C113.221 96.7366 113.25 96.9309 113.24 97.1251Z" fill="#263238"/>
<path d="M120 97.125C119.977 97.5283 119.802 97.9078 119.509 98.1864C119.217 98.465 118.829 98.6218 118.425 98.625C118.231 98.6259 118.038 98.5872 117.859 98.5114C117.68 98.4355 117.518 98.3241 117.383 98.1838C117.249 98.0435 117.144 97.8773 117.075 97.6953C117.007 97.5133 116.976 97.3192 116.985 97.125C117.009 96.7221 117.185 96.3433 117.477 96.0649C117.769 95.7865 118.156 95.6293 118.56 95.625C118.755 95.6227 118.948 95.6603 119.128 95.7357C119.308 95.811 119.47 95.9224 119.605 96.063C119.74 96.2036 119.845 96.3704 119.913 96.553C119.981 96.7357 120.01 96.9304 120 97.125Z" fill="#263238"/>
<path d="M126.73 97.125C126.706 97.528 126.53 97.9068 126.238 98.1851C125.946 98.4635 125.559 98.6207 125.155 98.625C124.961 98.6259 124.768 98.5873 124.589 98.5114C124.41 98.4356 124.248 98.3241 124.113 98.1838C123.979 98.0436 123.874 97.8774 123.805 97.6954C123.737 97.5133 123.706 97.3193 123.715 97.125C123.739 96.7221 123.915 96.3433 124.207 96.065C124.499 95.7866 124.886 95.6294 125.29 95.625C125.485 95.6235 125.678 95.6616 125.857 95.7372C126.036 95.8128 126.198 95.9242 126.333 96.0647C126.468 96.2051 126.573 96.3716 126.641 96.5539C126.709 96.7363 126.74 96.9306 126.73 97.125Z" fill="#263238"/>
<path d="M133.5 97.125C133.476 97.528 133.3 97.9068 133.008 98.1851C132.716 98.4635 132.329 98.6207 131.925 98.625C131.73 98.6274 131.537 98.5897 131.357 98.5144C131.177 98.439 131.015 98.3276 130.88 98.187C130.745 98.0464 130.64 97.8796 130.572 97.697C130.504 97.5143 130.475 97.3197 130.485 97.125C130.508 96.7217 130.683 96.3422 130.976 96.0636C131.268 95.785 131.656 95.6282 132.06 95.625C132.255 95.6235 132.448 95.6616 132.627 95.7372C132.806 95.8128 132.968 95.9242 133.103 96.0647C133.238 96.2051 133.343 96.3716 133.411 96.5539C133.479 96.7363 133.51 96.9306 133.5 97.125Z" fill="#263238"/>
<path d="M132.477 36.0228C134.569 33.9763 134.68 30.696 132.725 28.696C130.769 26.696 127.487 26.7337 125.394 28.7803C123.301 30.8268 123.19 34.1071 125.146 36.1071C127.102 38.1071 130.384 38.0694 132.477 36.0228Z" fill="#B7BEC5"/>
<path d="M138.77 44.2151C137.524 45.8472 135.921 47.1721 134.084 48.0882C132.246 49.0044 130.223 49.4874 128.17 49.5001C126.179 49.517 124.214 49.0437 122.45 48.1221C120.685 47.2004 119.174 45.8586 118.05 44.2151C120.48 41.7951 124.325 40.2151 128.585 40.2151C132.845 40.2151 136.555 41.7951 138.77 44.2151Z" fill="#B7BEC5"/>
<path opacity="0.1" d="M132.477 36.0228C134.569 33.9763 134.68 30.696 132.725 28.696C130.769 26.696 127.487 26.7337 125.394 28.7803C123.301 30.8268 123.19 34.1071 125.146 36.1071C127.102 38.1071 130.384 38.0694 132.477 36.0228Z" fill="white"/>
<path opacity="0.1" d="M138.77 44.2151C137.524 45.8472 135.921 47.1721 134.084 48.0882C132.246 49.0044 130.223 49.4874 128.17 49.5001C126.179 49.517 124.214 49.0437 122.45 48.1221C120.685 47.2004 119.174 45.8586 118.05 44.2151C120.48 41.7951 124.325 40.2151 128.585 40.2151C132.845 40.2151 136.555 41.7951 138.77 44.2151Z" fill="#B7BEC5"/>
<path d="M65.2052 78.72C64.7302 79.76 64.2302 80.905 63.7952 82.015C63.3602 83.125 62.9152 84.27 62.5302 85.41C61.7441 87.6567 61.1454 89.9646 60.7402 92.31L60.6302 93.045C60.6197 93.1711 60.6315 93.2981 60.6652 93.42C60.7832 93.8344 60.969 94.2264 61.2152 94.58C61.8573 95.4954 62.6021 96.3342 63.4352 97.08C64.3135 97.897 65.2348 98.6664 66.1952 99.385C67.1552 100.125 68.1652 100.845 69.1602 101.525L68.2252 103.28C65.8493 102.245 63.5941 100.952 61.5002 99.425C60.3831 98.6103 59.3749 97.6559 58.5002 96.585C57.9817 95.9476 57.5774 95.2253 57.3052 94.45C57.1469 93.9658 57.0659 93.4595 57.0652 92.95C57.0652 92.83 57.0652 92.655 57.0652 92.57V92.325L57.1152 91.825C57.4018 89.2201 57.9496 86.6505 58.7502 84.155C59.1402 82.925 59.5552 81.7 60.0302 80.505C60.5052 79.31 60.9952 78.14 61.6002 76.925L65.2052 78.72Z" fill="#E58A7B"/>
<path d="M68.4551 101.215L71.9901 99.425L71.0751 103.305C71.0751 103.305 68.6501 103.985 67.5251 102.805L68.4551 101.215Z" fill="#E58A7B"/>
<path d="M75.2252 100.06L74.2852 103.27L71.0752 103.305L71.9902 99.425L75.2252 100.06Z" fill="#E58A7B"/>
<path d="M80.2152 60.0001C80.4043 60.693 80.6675 61.3636 81.0002 62.0001C80.903 62.1104 80.7778 62.1923 80.6378 62.2372C80.4979 62.282 80.3484 62.2882 80.2052 62.2551L80.2152 60.0001Z" fill="#DF5753"/>
<path d="M80.1101 60.03C80.3172 60.03 80.4851 59.7726 80.4851 59.455C80.4851 59.1374 80.3172 58.88 80.1101 58.88C79.903 58.88 79.7351 59.1374 79.7351 59.455C79.7351 59.7726 79.903 60.03 80.1101 60.03Z" fill="#263238"/>
<path d="M80.0001 58.9001L80.7601 58.6851C80.7601 58.6851 80.3901 59.2751 80.0001 58.9001Z" fill="#263238"/>
<path d="M70.4502 63.67C70.9052 65.995 71.3602 70.26 69.7302 71.815C69.7302 71.815 70.3702 74.175 74.6952 74.175C79.4502 74.175 76.9652 71.815 76.9652 71.815C74.3702 71.195 74.4352 69.27 74.8902 67.46L70.4502 63.67Z" fill="#E58A7B"/>
<path d="M69.1852 58.3701C69.4252 62.2551 69.4452 63.9051 71.4052 65.9001C74.3602 68.9001 79.0802 67.7601 80.0052 63.9001C80.8402 60.4001 80.3102 54.6401 76.5052 53.0951C75.67 52.751 74.7608 52.6257 73.8636 52.731C72.9665 52.8363 72.111 53.1687 71.3782 53.6969C70.6453 54.225 70.0593 54.9313 69.6756 55.7491C69.2918 56.5668 69.123 57.4689 69.1852 58.3701Z" fill="#E58A7B"/>
<path d="M69.5702 54C67.6202 54.71 65.0202 54.18 66.0402 60.195C67.1202 66.565 65.4602 68.66 65.4602 68.66C65.4602 68.66 72.8552 70.235 80.4052 68.565C80.4052 68.565 78.1002 64.535 78.7452 61.565C79.5702 57.815 78.9202 56.43 78.9202 56.43C78.9202 56.43 72.3102 53 69.5702 54Z" fill="#263238"/>
<path d="M77.8202 60.395C77.8222 61.1337 78.0337 61.8567 78.4302 62.48C78.9602 63.29 79.5852 62.98 79.7402 62.12C79.8802 61.365 79.7752 60.03 79.1002 59.51C78.4252 58.99 77.8302 59.5 77.8202 60.395Z" fill="#E58A7B"/>
<path d="M67.8752 54.6551C67.3152 53.0801 69.9852 50.6551 75.6352 51.6551C81.2852 52.6551 81.5302 57.3601 81.5302 57.3601L80.3902 56.0001L80.4402 57.4301L74.6352 58.5451L67.8752 54.6551Z" fill="#263238"/>
<path d="M68.3552 72.0801C68.3219 71.8518 68.379 71.6195 68.5144 71.4327C68.6499 71.2459 68.8529 71.1194 69.0802 71.0801C70.8402 70.7901 74.8402 70.2001 76.8502 70.4801C78.3502 70.6901 78.7402 71.5601 78.8052 72.2751C78.8154 72.4003 78.7987 72.5262 78.7561 72.6444C78.7136 72.7626 78.6463 72.8703 78.5586 72.9603C78.471 73.0503 78.3651 73.1205 78.2481 73.1662C78.1311 73.2118 78.0057 73.2319 77.8802 73.2251L69.1902 72.8351C68.9854 72.8248 68.7904 72.744 68.6382 72.6064C68.4861 72.4688 68.3861 72.2829 68.3552 72.0801Z" fill="#0250A4"/>
<path opacity="0.6" d="M68.3552 72.0801C68.3219 71.8518 68.379 71.6195 68.5144 71.4327C68.6499 71.2459 68.8529 71.1194 69.0802 71.0801C70.8402 70.7901 74.8402 70.2001 76.8502 70.4801C78.3502 70.6901 78.7402 71.5601 78.8052 72.2751C78.8154 72.4003 78.7987 72.5262 78.7561 72.6444C78.7136 72.7626 78.6463 72.8703 78.5586 72.9603C78.471 73.0503 78.3651 73.1205 78.2481 73.1662C78.1311 73.2118 78.0057 73.2319 77.8802 73.2251L69.1902 72.8351C68.9854 72.8248 68.7904 72.744 68.6382 72.6064C68.4861 72.4688 68.3861 72.2829 68.3552 72.0801Z" fill="#0250A4"/>
<path d="M73.3801 159.43L76.6051 161.67L82.0001 154.355L78.7751 152.12L73.3801 159.43Z" fill="#E58A7B"/>
<path d="M65.8601 159.285L69.2651 161.225L74.0401 153.49L70.6351 151.55L65.8601 159.285Z" fill="#E58A7B"/>
<path d="M81.9951 154.355L79.2151 158.125L75.9901 155.89L78.7701 152.12L81.9951 154.355Z" fill="#CF6F64"/>
<path d="M70.6302 151.55L74.0402 153.495L71.5802 157.48L68.1702 155.535L70.6302 151.55Z" fill="#CF6F64"/>
<path d="M76.1 96.5C76.1 96.5 88.69 112.365 86.325 127.54C84.42 139.795 73.37 156.39 73.37 156.39L68.175 153.81C71.8368 146.473 74.9616 138.879 77.525 131.09C78.3155 128.672 78.5462 126.105 78.1998 123.585C77.8533 121.064 76.9387 118.655 75.525 116.54C69.145 107.225 58.925 112.77 65.8 96.5H76.1Z" fill="#262626"/>
<path opacity="0.6" d="M76.1 96.5C76.1 96.5 88.69 112.365 86.325 127.54C84.42 139.795 73.37 156.39 73.37 156.39L68.175 153.81C71.8368 146.473 74.9616 138.879 77.525 131.09C78.3155 128.672 78.5462 126.105 78.1998 123.585C77.8533 121.064 76.9387 118.655 75.525 116.54C69.145 107.225 58.925 112.77 65.8 96.5H76.1Z" fill="black"/>
<path opacity="0.4" d="M82.2752 106.69L80.4452 104.87C80.4452 105.015 83.9902 126.9 84.9852 133.05C85.5724 131.254 86.022 129.415 86.3302 127.55C87.5002 120.105 85.0552 112.5 82.2752 106.69Z" fill="black"/>
<path d="M81.7202 96.5C81.7202 96.5 96.8802 116.44 97.3102 128.395C97.6652 138.395 80.8102 157.77 80.8102 157.77L75.9102 154.6C75.9102 154.6 85.7752 140.84 88.2602 129.6C87.3002 118.46 67.0002 96.5 67.0002 96.5H81.7202Z" fill="#262626"/>
<path opacity="0.6" d="M81.7202 96.5C81.7202 96.5 96.8802 116.44 97.3102 128.395C97.6652 138.395 80.8102 157.77 80.8102 157.77L75.9102 154.6C75.9102 154.6 85.7752 140.84 88.2602 129.6C87.3002 118.46 67.0002 96.5 67.0002 96.5H81.7202Z" fill="black"/>
<path d="M62.9653 72.705C61.3453 73.09 59.7903 78.98 59.7903 78.98L66.1253 83.21C66.1253 83.21 68.2353 78.55 67.4953 76.51C66.7303 74.385 65.0003 72.22 62.9653 72.705Z" fill="#0250A4"/>
<path opacity="0.2" d="M64.2051 76.5L63.7651 81.635L66.1201 83.215C66.7704 81.7511 67.2518 80.2179 67.5551 78.645L64.2051 76.5Z" fill="black"/>
<path d="M83.5951 72.8201C83.5951 72.8201 85.4651 73.4751 81.7201 96.4951H65.7901C66.0601 89.9951 66.0651 85.9951 62.9651 72.7051C65.1956 72.2454 67.4566 71.948 69.7301 71.8151C72.1387 71.6424 74.5565 71.6424 76.9651 71.8151C80.0751 72.1001 83.5951 72.8201 83.5951 72.8201Z" fill="#0250A4"/>
<path d="M85.2152 76.5001C85.5752 77.5001 85.9552 78.5751 86.3552 79.6101C86.7552 80.6451 87.1352 81.7101 87.5402 82.7601L88.7652 85.9001L89.0752 86.6851L89.2352 87.0751L89.3102 87.2701C89.3102 87.3051 89.3102 87.3051 89.3102 87.3001C89.2188 87.1713 89.0991 87.0653 88.9602 86.9901C88.7624 86.8737 88.5394 86.8068 88.3102 86.7951C88.1197 86.7892 87.9303 86.825 87.7552 86.9001C87.5252 87.0051 87.5252 87.0501 87.5302 87.0451C87.5717 87.0118 87.6087 86.9731 87.6402 86.9301C87.9169 86.5667 88.1565 86.1764 88.3552 85.7651C88.5902 85.3051 88.8152 84.8151 89.0402 84.3201C89.4802 83.3201 89.8852 82.2851 90.2902 81.2401C90.6952 80.1951 91.0802 79.1401 91.4552 78.0751L92.5952 74.8851L94.5202 75.3851C94.1402 77.6651 93.6502 79.8851 93.0602 82.1451C92.7752 83.2701 92.4402 84.3851 92.0602 85.5101C91.8702 86.0751 91.6602 86.6351 91.4202 87.2101C91.17 87.8342 90.862 88.4335 90.5002 89.0001C90.3672 89.1909 90.2201 89.3714 90.0602 89.5401C89.8048 89.8159 89.4949 90.0356 89.1502 90.1851C88.8442 90.3165 88.5129 90.378 88.1802 90.3651C87.8075 90.3512 87.4445 90.2429 87.1252 90.0501C86.7485 89.8151 86.4359 89.4904 86.2152 89.1051C86.1402 88.9751 86.0752 88.8451 86.0302 88.7501L85.9352 88.5601L85.7452 88.1701L85.3652 87.3951C84.8652 86.3551 84.3652 85.3051 83.9302 84.2501C83.4952 83.1951 83.0352 82.1251 82.6052 81.0501C82.1752 79.9751 81.7902 78.9001 81.4252 77.7401L85.2152 76.5001Z" fill="#E58A7B"/>
<path d="M83.5951 72.8201C85.5101 73.2751 87.6651 78.9351 87.6651 78.9351L81.9701 83.7801C81.9701 83.7801 78.2851 77.6101 79.0301 75.5751C79.8051 73.4551 81.0951 72.2251 83.5951 72.8201Z" fill="#0250A4"/>
<path d="M93.5001 73.095L95.5001 71.425L96.8901 73.59L95.8651 75.395C95.8651 75.395 94.2351 76.895 92.7951 76.13C92.5665 75.6163 92.5117 75.0421 92.6389 74.4944C92.7662 73.9467 93.0685 73.4554 93.5001 73.095Z" fill="#E58A7B"/>
<path d="M99.1101 71.43L98.9601 71.975L95.7951 72.505L95.4851 71.425L99.1101 71.43Z" fill="#E58A7B"/>
<path d="M81.2001 158.025L75.4901 154.335L76.5151 152.555L82.9301 156.5L81.2001 158.025Z" fill="#707070"/>
<path d="M71.5002 160.965C70.9992 160.904 70.5178 160.733 70.0902 160.465C70.0726 160.459 70.0573 160.447 70.0464 160.432C70.0356 160.417 70.0298 160.399 70.0298 160.38C70.0298 160.361 70.0356 160.343 70.0464 160.328C70.0573 160.313 70.0726 160.301 70.0902 160.295C70.2452 160.245 71.5902 159.83 71.9802 160.15C72.024 160.186 72.0574 160.234 72.0767 160.288C72.096 160.341 72.1007 160.399 72.0902 160.455C72.0833 160.545 72.0534 160.632 72.0036 160.707C71.9537 160.782 71.8854 160.844 71.8052 160.885C71.7116 160.936 71.6069 160.964 71.5002 160.965ZM70.3752 160.415C71.0002 160.735 71.5002 160.85 71.7402 160.73C71.7925 160.701 71.8364 160.659 71.868 160.608C71.8995 160.558 71.9174 160.5 71.9202 160.44C71.9202 160.36 71.9202 160.325 71.8752 160.305C71.6652 160.135 70.9152 160.265 70.3652 160.415H70.3752Z" fill="#263238"/>
<path d="M70.1252 160.5C70.0988 160.5 70.0736 160.489 70.0552 160.47C70.0477 160.456 70.0438 160.441 70.0438 160.425C70.0438 160.409 70.0477 160.394 70.0552 160.38C70.0552 160.335 70.3802 159.25 70.8902 159.005C70.9553 158.975 71.0261 158.96 71.0977 158.96C71.1693 158.96 71.24 158.975 71.3052 159.005C71.3754 159.027 71.4362 159.072 71.4778 159.133C71.5195 159.194 71.5397 159.267 71.5352 159.34C71.5002 159.79 70.5852 160.41 70.1652 160.515L70.1252 160.5ZM71.0952 159.135C71.0465 159.137 70.9988 159.148 70.9552 159.17C70.6452 159.32 70.3902 159.905 70.2652 160.26C70.7052 160.075 71.3102 159.585 71.3302 159.31C71.3302 159.265 71.3302 159.21 71.2152 159.16C71.1777 159.14 71.1372 159.126 71.0952 159.12V159.135Z" fill="#263238"/>
<path d="M78.6352 163.125C78.0702 163.125 77.2852 162.4 76.8552 161.955C76.8442 161.94 76.8383 161.921 76.8383 161.903C76.8383 161.884 76.8442 161.865 76.8552 161.85C76.865 161.834 76.8791 161.821 76.8958 161.812C76.9125 161.803 76.9313 161.799 76.9501 161.8C77.1501 161.8 78.8851 162.06 79.1301 162.55C79.1561 162.594 79.1698 162.644 79.1698 162.695C79.1698 162.746 79.1561 162.796 79.1301 162.84C79.0934 162.916 79.0379 162.982 78.9688 163.031C78.8997 163.08 78.8193 163.111 78.7352 163.12L78.6352 163.125ZM77.1852 162.025C77.8152 162.635 78.3702 162.975 78.6852 162.935C78.7403 162.928 78.7929 162.907 78.8382 162.875C78.8835 162.843 78.9203 162.8 78.9452 162.75C78.9563 162.733 78.9623 162.713 78.9623 162.693C78.9623 162.672 78.9563 162.652 78.9452 162.635C78.8152 162.365 77.8902 162.135 77.1852 162.025Z" fill="#263238"/>
<path d="M77.2401 162C77.1279 162.003 77.0156 161.995 76.9051 161.975C76.8897 161.973 76.8751 161.966 76.8628 161.957C76.8505 161.947 76.841 161.935 76.8351 161.92C76.8276 161.905 76.8237 161.889 76.8237 161.873C76.8237 161.856 76.8276 161.84 76.8351 161.825C76.8651 161.79 77.5401 160.975 78.1801 160.92C78.3613 160.906 78.5408 160.963 78.6801 161.08C78.8751 161.25 78.8651 161.4 78.8151 161.495C78.6901 161.835 77.8251 162 77.2401 162ZM77.1101 161.815C77.6701 161.845 78.5651 161.66 78.6801 161.415C78.6801 161.415 78.7201 161.335 78.5901 161.225C78.5384 161.18 78.4779 161.146 78.4126 161.126C78.3472 161.105 78.2783 161.098 78.2101 161.105C77.779 161.225 77.3951 161.475 77.1101 161.82V161.815Z" fill="#263238"/>
<path d="M70.2601 159.96L66.0201 158.76C65.947 158.738 65.8683 158.743 65.7991 158.776C65.7299 158.808 65.6751 158.865 65.6451 158.935L64.2151 162.15C64.1815 162.232 64.1658 162.321 64.1688 162.41C64.1719 162.499 64.1938 162.586 64.233 162.666C64.2722 162.745 64.3278 162.816 64.3963 162.873C64.4647 162.93 64.5444 162.971 64.6301 162.995C66.1301 163.385 66.8501 163.495 68.7151 164.03C69.8651 164.35 71.5051 164.945 73.0901 165.395C74.6751 165.845 75.2051 164.3 74.5901 163.97C71.8101 162.5 71.5901 161.47 70.8301 160.37C70.694 160.171 70.4923 160.026 70.2601 159.96Z" fill="#707070"/>
<path d="M76.9701 161.37L73.3501 158.87C73.2887 158.825 73.2131 158.805 73.1375 158.812C73.062 158.82 72.9917 158.854 72.9401 158.91L70.5401 161.49C70.4816 161.557 70.438 161.635 70.4122 161.72C70.3863 161.805 70.3788 161.894 70.3901 161.982C70.4015 162.07 70.4314 162.155 70.478 162.23C70.5245 162.306 70.5866 162.37 70.6601 162.42C71.9351 163.275 72.5951 163.62 74.1901 164.725C75.1901 165.405 77.1251 166.915 78.4751 167.855C79.8251 168.795 80.8301 167.505 80.3501 166.995C78.2001 164.7 77.7301 163.26 77.3751 161.955C77.3135 161.718 77.17 161.511 76.9701 161.37Z" fill="#707070"/>
<path d="M74.035 156.72L67.51 153.475L68.185 151.705L75.155 155.125L74.035 156.72Z" fill="#707070"/>
<path d="M65.5503 95.5601L65.0003 97.0001C64.9453 97.1101 65.0753 97.2251 65.2603 97.2251H81.8003C81.9453 97.2251 82.0653 97.1551 82.0753 97.0651L82.2153 95.6351C82.2153 95.5401 82.1003 95.4551 81.9453 95.4551H65.8103C65.7617 95.4505 65.7127 95.4577 65.6675 95.4759C65.6223 95.4942 65.5821 95.5231 65.5503 95.5601Z" fill="#707070"/>
<path opacity="0.4" d="M65.5503 95.5601L65.0003 97.0001C64.9453 97.1101 65.0753 97.2251 65.2603 97.2251H81.8003C81.9453 97.2251 82.0653 97.1551 82.0753 97.0651L82.2153 95.6351C82.2153 95.5401 82.1003 95.4551 81.9453 95.4551H65.8103C65.7617 95.4505 65.7127 95.4577 65.6675 95.4759C65.6223 95.4942 65.5821 95.5231 65.5503 95.5601Z" fill="white"/>
<path d="M68.1552 97.3651H67.7202C67.6352 97.3651 67.5702 97.3201 67.5752 97.2651L67.7802 95.4101C67.7802 95.3601 67.8602 95.3151 67.9452 95.3151H68.3802C68.4652 95.3151 68.5302 95.3601 68.5252 95.4101L68.3202 97.2651C68.3152 97.3201 68.2402 97.3651 68.1552 97.3651Z" fill="#707070"/>
<path d="M78.3552 97.3651H77.9252C77.8402 97.3651 77.7752 97.3201 77.7802 97.2651L77.9802 95.4101C77.9802 95.3601 78.0652 95.3151 78.1502 95.3151H78.5802C78.6652 95.3151 78.7352 95.3601 78.7252 95.4101L78.5252 97.2651C78.5002 97.3201 78.4452 97.3651 78.3552 97.3651Z" fill="#707070"/>
<g style="mix-blend-mode:multiply">
<path d="M67.7751 182.04C75.173 182.04 81.1701 181.606 81.1701 181.07C81.1701 180.534 75.173 180.1 67.7751 180.1C60.3773 180.1 54.3801 180.534 54.3801 181.07C54.3801 181.606 60.3773 182.04 67.7751 182.04Z" fill="#F5F5F5"/>
</g>
<path d="M75.9352 179.7C73.5652 179.01 70.9352 178.125 69.3452 177.2C69.3002 177.17 69.2502 177.155 69.2052 177.13V166.4H74.0002C74.3642 166.378 74.7062 166.219 74.9563 165.953C75.2064 165.688 75.3457 165.337 75.3457 164.973C75.3457 164.608 75.2064 164.257 74.9563 163.992C74.7062 163.726 74.3642 163.567 74.0002 163.545H69.2302V114.635H66.3502V163.545H61.5852C61.3906 163.533 61.1958 163.562 61.0126 163.628C60.8294 163.695 60.6617 163.798 60.5199 163.932C60.378 164.066 60.265 164.227 60.1878 164.406C60.1105 164.585 60.0707 164.778 60.0707 164.973C60.0707 165.167 60.1105 165.36 60.1878 165.539C60.265 165.718 60.378 165.879 60.5199 166.013C60.6617 166.147 60.8294 166.25 61.0126 166.317C61.1958 166.383 61.3906 166.412 61.5852 166.4H66.3502V177.115C66.3052 177.115 66.2602 177.155 66.2152 177.185C64.6002 178.125 61.9902 179.01 59.6202 179.685C59.4601 179.733 59.3226 179.838 59.2327 179.979C59.1427 180.12 59.1062 180.288 59.1298 180.454C59.1534 180.619 59.2354 180.771 59.3612 180.881C59.4869 180.992 59.648 181.053 59.8152 181.055H75.7402C75.9 181.044 76.0513 180.979 76.1687 180.87C76.2861 180.761 76.3627 180.615 76.3855 180.456C76.4083 180.298 76.376 180.136 76.2941 179.999C76.2121 179.861 76.0855 179.756 75.9352 179.7Z" fill="#E0E0E0"/>
<path d="M76.67 109.655H58.89C57.4596 109.655 56.3 110.815 56.3 112.245V117.53C56.3 118.96 57.4596 120.12 58.89 120.12H76.67C78.1005 120.12 79.2601 118.96 79.2601 117.53V112.245C79.2601 110.815 78.1005 109.655 76.67 109.655Z" fill="#707070"/>
<path d="M58.7251 120.125V121.035C58.7251 121.785 59.5401 122.395 60.5401 122.395H75.0401C76.0401 122.395 76.8551 121.785 76.8551 121.035V120.125H58.7251Z" fill="#707070"/>
<path opacity="0.3" d="M58.7251 120.125V121.035C58.7251 121.785 59.5401 122.395 60.5401 122.395H75.0401C76.0401 122.395 76.8551 121.785 76.8551 121.035V120.125H58.7251Z" fill="white"/>
</svg>
