<svg width="20" height="20" viewBox="0 0 20 20" fill="none" xmlns="http://www.w3.org/2000/svg">
<g clip-path="url(#clip0_165_760)">
<path d="M12.4999 10.8334C12.0391 10.8334 11.6666 11.2068 11.6666 11.6667V15.0001C11.6666 15.4592 11.2932 15.8334 10.8332 15.8334H8.33319V3.33351C8.33319 2.62184 7.87986 1.98602 7.19826 1.74936L6.95153 1.66681H10.8332C11.2932 1.66681 11.6666 2.04095 11.6666 2.50023V5.00021C11.6666 5.4601 12.0391 5.83348 12.4999 5.83348C12.9607 5.83348 13.3331 5.4601 13.3331 5.00021V2.50023C13.3331 1.12192 12.2115 0.000259399 10.8332 0.000259399H1.87498C1.84324 0.000259399 1.81669 0.0144499 1.78587 0.0185697C1.74574 0.0152129 1.70744 0.000259399 1.6667 0.000259399C0.74752 0.000259399 0 0.747627 0 1.66681V16.6666C0 17.3783 0.453334 18.0141 1.13494 18.2508L6.14999 19.9225C6.31997 19.975 6.48904 20 6.66665 20C7.58583 20 8.33319 19.2525 8.33319 18.3333V17.5001H10.8332C12.2115 17.5001 13.3331 16.3784 13.3331 15.0001V11.6667C13.3331 11.2068 12.9607 10.8334 12.4999 10.8334Z" fill="#313131"/>
<path d="M19.7557 7.74432L16.4223 4.41107C16.1841 4.17273 15.8257 4.10101 15.5141 4.2301C15.2033 4.35934 14.9999 4.66345 14.9999 5.00021V7.50018H11.6667C11.2066 7.50018 10.8333 7.87341 10.8333 8.33345C10.8333 8.7935 11.2066 9.16673 11.6667 9.16673H14.9999V11.6667C14.9999 12.0035 15.2033 12.3076 15.5141 12.4368C15.8257 12.5659 16.1841 12.4942 16.4223 12.256L19.7557 8.92259C20.0815 8.59682 20.0815 8.07009 19.7557 7.74432Z" fill="#313131"/>
</g>
<defs>
<clipPath id="clip0_165_760">
<rect width="20" height="20" fill="white"/>
</clipPath>
</defs>
</svg>
