<svg width="512" height="512" viewBox="0 0 512 512" fill="none" xmlns="http://www.w3.org/2000/svg">
<g clip-path="url(#clip0_3260_2158)">
<path d="M319.997 277.335C308.2 277.335 298.665 286.893 298.665 298.667V384.002C298.665 395.756 289.106 405.334 277.329 405.334H213.33V85.337C213.33 67.1184 201.724 50.8413 184.275 44.7827L177.959 42.6695H277.329C289.106 42.6695 298.665 52.2475 298.665 64.0052V128.005C298.665 139.778 308.2 149.336 319.997 149.336C331.793 149.336 341.328 139.778 341.328 128.005V64.0052C341.328 28.7204 312.614 0.00585938 277.329 0.00585938H47.9995C47.187 0.00585938 46.5073 0.369137 45.7183 0.474604C44.6909 0.388668 43.7105 0.00585938 42.6675 0.00585938C19.1365 0.00585938 0 19.1385 0 42.6695V426.665C0 444.884 11.6053 461.161 29.0544 467.22L157.44 510.016C161.791 511.36 166.119 512 170.666 512C194.197 512 213.33 492.864 213.33 469.333V448.001H277.329C312.614 448.001 341.328 419.287 341.328 384.002V298.667C341.328 286.893 331.793 277.335 319.997 277.335Z" fill="#4B4B4B"/>
<path d="M505.745 198.254L420.41 112.922C414.312 106.821 405.136 104.985 397.16 108.29C389.203 111.598 383.996 119.383 383.996 128.004V192.004H298.665C286.888 192.004 277.329 201.558 277.329 213.335C277.329 225.113 286.888 234.667 298.665 234.667H383.996V298.667C383.996 307.288 389.203 315.073 397.16 318.381C405.136 321.686 414.312 319.85 420.41 313.752L505.745 228.417C514.084 220.078 514.084 206.593 505.745 198.254Z" fill="#4B4B4B"/>
</g>
<defs>
<clipPath id="clip0_3260_2158">
<rect width="512" height="512" fill="white"/>
</clipPath>
</defs>
</svg>
