<svg width="500" height="500" viewBox="0 0 500 500" fill="none" xmlns="http://www.w3.org/2000/svg">
<path d="M447.009 450.311L386.814 437.063L368.158 495.96C366.816 500.195 361.081 500.816 358.865 496.966L284.398 367.606C321.079 359.658 353.717 340.821 378.777 314.641L452.531 442.778C454.744 446.622 451.341 451.265 447.009 450.311Z" fill="#FD646F"/>
<path d="M447.01 450.311L391.371 438.065C388.79 437.497 386.203 438.991 385.406 441.51L368.159 495.959C366.817 500.194 361.082 500.815 358.866 496.965L295.07 386.135L284.399 367.605C321.08 359.657 353.718 340.82 378.778 314.64L389.368 333.025L452.534 442.777C454.744 446.623 451.341 451.265 447.01 450.311Z" fill="#FD646F"/>
<path d="M447.009 450.308L391.374 438.064C388.79 437.502 386.206 438.993 385.41 441.505L391.398 422.897C392.206 420.387 394.793 418.905 397.367 419.477L445.242 430.119L452.534 442.782C454.75 446.621 451.339 451.268 447.009 450.308Z" fill="#FC4755"/>
<path d="M216.777 366.054L141.132 497.438C138.916 501.288 133.181 500.667 131.839 496.432L114.591 441.982C113.794 439.464 111.206 437.97 108.626 438.537L52.9883 450.783C48.6563 451.736 45.2527 447.093 47.4656 443.249L117.819 321.021C144.085 345.922 179.513 359.919 216.777 366.054Z" fill="#FD646F"/>
<path d="M127.776 339.203L65.0844 448.115L52.9914 450.779C48.6594 451.734 45.2547 447.091 47.4677 443.246L107.353 339.203L123.547 310.995C127.908 315.123 132.462 319.046 137.211 322.734L127.776 339.203Z" fill="#FC4755"/>
<path d="M148.511 484.611L141.128 497.437C138.912 501.287 133.183 500.674 131.835 496.436L114.587 441.986C113.791 439.463 111.207 437.972 108.623 438.534L127.699 434.338C130.279 433.77 132.866 435.264 133.663 437.781L148.511 484.611Z" fill="#FC4755"/>
<path d="M119.522 317.912L169.274 340.348L216.777 366.055L204.039 388.164C168.522 380.953 135.568 364.421 108.332 340.073C108.006 339.786 107.679 339.499 107.352 339.202L119.522 317.912Z" fill="#FC4755"/>
<path d="M389.367 333.026L378.777 314.641L322.74 339.374L284.398 367.606L288.707 375.089L299.29 393.468L358.865 496.965C361.081 500.815 366.816 500.194 368.158 495.959L371.951 483.982L312.737 380.84C341.403 370.865 367.499 354.636 389.367 333.026Z" fill="#FC4755"/>
<path d="M435.337 185.898C435.337 235.862 415.678 281.238 383.684 314.641C358.624 340.821 325.986 359.658 289.305 367.606C276.632 370.351 263.489 371.795 249.999 371.795C239.705 371.795 229.615 370.955 219.781 369.337C184.427 363.519 152.433 347.663 126.821 324.781C125.432 323.552 124.074 322.303 122.726 321.022C117.947 316.495 113.413 311.711 109.124 306.703C105.019 301.889 101.158 296.859 97.5536 291.636C86.7288 275.975 78.2426 258.551 72.5954 239.889C67.4383 222.804 64.6606 204.684 64.6606 185.899C64.6606 83.2331 147.644 0 249.999 0C268.717 0 286.793 2.78584 303.816 7.96946C322.432 13.6136 339.793 22.1254 355.417 32.993C360.625 36.6091 365.64 40.4805 370.429 44.6082C376.842 50.0981 382.867 56.0293 388.474 62.3383C417.629 95.1873 435.337 138.473 435.337 185.898Z" fill="#FAA515"/>
<path d="M249.999 319.046C323.313 319.046 382.747 259.433 382.747 185.897C382.747 112.36 323.313 52.7471 249.999 52.7471C176.684 52.7471 117.25 112.36 117.25 185.897C117.25 259.433 176.684 319.046 249.999 319.046Z" fill="#FAD207"/>
<path d="M382.745 185.898C382.745 259.432 323.311 319.045 249.998 319.045C176.686 319.045 117.252 259.432 117.252 185.898C117.252 180.346 117.589 174.876 118.253 169.51C126.3 235.32 182.221 286.268 249.998 286.268C317.776 286.268 373.697 235.32 381.744 169.51C382.408 174.877 382.745 180.347 382.745 185.898Z" fill="#FAA515"/>
<path fill-rule="evenodd" clip-rule="evenodd" d="M249.998 52.751C176.686 52.751 117.252 112.365 117.252 185.898C117.252 259.432 176.686 319.046 249.998 319.046C323.311 319.046 382.745 259.432 382.745 185.898C382.745 112.365 323.311 52.751 249.998 52.751ZM249.998 303.681C185.244 303.681 132.57 250.848 132.57 185.898C132.57 120.949 185.244 68.116 249.998 68.116C314.753 68.116 367.427 120.949 367.427 185.898C367.427 250.848 314.753 303.681 249.998 303.681Z" fill="#FAF063"/>
<path d="M254.585 112.268L272.82 149.518C273.563 151.036 275.008 152.087 276.681 152.327L317.662 158.216C321.857 158.818 323.534 163.972 320.498 166.928L290.774 195.871C289.567 197.047 289.018 198.741 289.305 200.4L296.388 241.325C297.112 245.506 292.716 248.694 288.966 246.708L252.389 227.325C250.894 226.533 249.103 226.533 247.608 227.325L211.032 246.708C207.282 248.695 202.885 245.507 203.61 241.325L210.693 200.4C210.98 198.741 210.43 197.047 209.223 195.871L179.499 166.928C176.463 163.971 178.141 158.818 182.335 158.216L223.317 152.327C224.988 152.087 226.433 151.036 227.177 149.518L245.412 112.268C247.28 108.452 252.717 108.452 254.585 112.268Z" fill="#FAA515"/>
</svg>
