<svg width="512" height="512" viewBox="0 0 512 512" fill="none" xmlns="http://www.w3.org/2000/svg">
<g clip-path="url(#clip0_3551_2478)">
<path d="M256 512C397.385 512 512 397.385 512 256C512 114.615 397.385 0 256 0C114.615 0 0 114.615 0 256C0 397.385 114.615 512 256 512Z" fill="url(#paint0_linear_3551_2478)"/>
<path d="M352.299 287.701C369.807 287.701 384 273.508 384 256C384 238.492 369.807 224.299 352.299 224.299C334.791 224.299 320.598 238.492 320.598 256C320.598 273.508 334.791 287.701 352.299 287.701Z" fill="white"/>
<path d="M256 287.701C273.508 287.701 287.701 273.508 287.701 256C287.701 238.492 273.508 224.299 256 224.299C238.492 224.299 224.299 238.492 224.299 256C224.299 273.508 238.492 287.701 256 287.701Z" fill="white"/>
<path d="M159.701 287.701C177.209 287.701 191.403 273.508 191.403 256C191.403 238.492 177.209 224.299 159.701 224.299C142.193 224.299 128 238.492 128 256C128 273.508 142.193 287.701 159.701 287.701Z" fill="white"/>
</g>
<defs>
<linearGradient id="paint0_linear_3551_2478" x1="256" y1="0" x2="256" y2="512" gradientUnits="userSpaceOnUse">
<stop stop-color="#09C4F9"/>
<stop offset="1" stop-color="#0163EC"/>
</linearGradient>
<clipPath id="clip0_3551_2478">
<rect width="512" height="512" fill="white"/>
</clipPath>
</defs>
</svg>
