<svg width="410" height="410" viewBox="0 0 410 410" fill="none" xmlns="http://www.w3.org/2000/svg">
<path fill-rule="evenodd" clip-rule="evenodd" d="M205.001 0.188965C89.6318 0.188965 0.200195 84.7002 0.200195 198.846C0.200195 258.551 24.6688 310.145 64.518 345.781C67.8614 348.776 69.8838 352.969 70.0221 357.46L71.1382 393.889C71.4966 405.511 83.498 413.068 94.1323 408.378L134.78 390.433C138.226 388.912 142.087 388.63 145.717 389.629C164.394 394.764 184.276 397.503 205.001 397.503C320.371 397.503 409.803 312.992 409.803 198.846C409.803 84.7002 320.371 0.188965 205.001 0.188965Z" fill="url(#paint0_radial_3551_2471)"/>
<path fill-rule="evenodd" clip-rule="evenodd" d="M82.0178 256.943L142.178 161.495C151.748 146.309 172.238 142.531 186.6 153.298L234.446 189.185C238.834 192.477 244.876 192.461 249.248 189.144L313.868 140.099C322.495 133.555 333.754 143.877 327.979 153.037L267.819 248.485C258.249 263.666 237.754 267.449 223.397 256.682L175.545 220.796C171.158 217.503 165.116 217.519 160.743 220.837L96.1235 269.881C87.4963 276.425 76.2373 266.103 82.0127 256.943H82.0178Z" fill="white"/>
<defs>
<radialGradient id="paint0_radial_3551_2471" cx="0" cy="0" r="1" gradientUnits="userSpaceOnUse" gradientTransform="translate(80.0727 406.694) scale(446.467 446.467)">
<stop stop-color="#0099FF"/>
<stop offset="0.61" stop-color="#A033FF"/>
<stop offset="0.93" stop-color="#FF5280"/>
<stop offset="1" stop-color="#FF7061"/>
</radialGradient>
</defs>
</svg>
