<svg width="225" height="232" viewBox="0 0 225 232" fill="none" xmlns="http://www.w3.org/2000/svg">
<path d="M204.322 206.585L118.9 157.255C117.375 156.374 115.646 155.91 113.885 155.91C112.125 155.91 110.395 156.374 108.871 157.255L78.6272 174.691C78.1274 174.977 77.712 175.39 77.4231 175.888C77.1342 176.386 76.9821 176.951 76.9821 177.527C76.9821 178.103 77.1342 178.668 77.4231 179.166C77.712 179.664 78.1274 180.077 78.6272 180.363L164.073 229.711C165.597 230.592 167.326 231.055 169.087 231.055C170.847 231.055 172.577 230.592 174.101 229.711L204.322 212.252C204.821 211.966 205.235 211.553 205.523 211.056C205.811 210.558 205.963 209.993 205.963 209.419C205.963 208.844 205.811 208.279 205.523 207.782C205.235 207.284 204.821 206.872 204.322 206.585Z" fill="#EAEAEA"/>
<path d="M41.9458 222.139C56.6536 222.139 68.5766 215.257 68.5766 206.767C68.5766 198.278 56.6536 191.396 41.9458 191.396C27.238 191.396 15.3149 198.278 15.3149 206.767C15.3149 215.257 27.238 222.139 41.9458 222.139Z" fill="#CECECE"/>
<path d="M18.7002 189.239L13.5215 192.245C13.5215 192.245 16.1307 183.907 14.656 175.512C14.307 173.535 13.5914 171.64 12.5459 169.925C12.1375 169.08 9.01783 163.845 11.7688 161.417C14.5198 158.989 20.9634 163.805 20.6741 176.732C20.5457 180.967 19.8824 185.17 18.7002 189.239Z" fill="#8A8A8A"/>
<path opacity="0.3" d="M18.7002 189.239L13.5215 192.245C13.5215 192.245 16.1307 183.907 14.656 175.512C14.307 173.535 13.5914 171.64 12.5459 169.925C12.1375 169.08 9.01783 163.845 11.7688 161.417C14.5198 158.989 20.9634 163.805 20.6741 176.732C20.5457 180.967 19.8824 185.17 18.7002 189.239Z" fill="#575757"/>
<path d="M16.2896 190.879C16.2635 190.885 16.2364 190.885 16.2102 190.879C16.1803 190.869 16.1526 190.852 16.1289 190.831C16.1052 190.81 16.086 190.785 16.0722 190.756C16.0585 190.728 16.0506 190.697 16.049 190.665C16.0473 190.634 16.052 190.602 16.0627 190.572C16.0627 190.521 18.014 185.155 17.9119 176.528C17.8098 167.901 13.3344 163.403 13.289 163.357C13.2439 163.312 13.2186 163.251 13.2186 163.187C13.2186 163.123 13.2439 163.062 13.289 163.017C13.3342 162.972 13.3954 162.947 13.4592 162.947C13.523 162.947 13.5843 162.972 13.6294 163.017C13.6748 163.062 18.2862 167.742 18.3883 176.522C18.4904 185.303 16.5335 190.703 16.5165 190.737C16.4966 190.78 16.4646 190.816 16.4243 190.842C16.3839 190.867 16.3371 190.88 16.2896 190.879Z" fill="white"/>
<path d="M14.6792 191.604L6.12559 196.635C6.12559 196.635 2.20613 196.068 2.50675 192.37C2.80738 188.672 4.38991 187.832 2.41033 186.193C0.43074 184.554 -0.0854272 184.491 0.0109996 182.88C0.107426 181.269 1.17379 180.611 1.67862 179.97C2.18344 179.329 3.58446 177.991 2.62019 176.085C1.65593 174.179 0.294608 172.324 2.27987 171.445C3.46535 170.918 5.45628 171.576 6.77789 172.977C8.09951 174.378 9.18289 175.387 10.4364 175.711C11.69 176.034 14.2935 176.062 14.2084 178.218C14.1233 180.373 13.5618 181.116 14.0836 182.075C15.0422 183.873 19.251 184.848 14.6792 191.604Z" fill="#8A8A8A"/>
<path d="M11.1963 193.872C11.1326 193.866 11.0737 193.836 11.0323 193.787C10.9909 193.738 10.9704 193.675 10.9751 193.611C10.9751 193.486 11.894 180.951 3.19856 172.732C3.15421 172.686 3.12939 172.625 3.12939 172.562C3.12939 172.498 3.15421 172.437 3.19856 172.392C3.22025 172.369 3.24625 172.351 3.275 172.339C3.30374 172.327 3.33466 172.321 3.36589 172.321C3.39712 172.321 3.42804 172.327 3.45678 172.339C3.48553 172.351 3.51153 172.369 3.53322 172.392C12.3988 180.769 11.4742 193.526 11.4742 193.657C11.4716 193.69 11.4621 193.722 11.4463 193.751C11.4306 193.78 11.4089 193.805 11.3828 193.826C11.3566 193.846 11.3266 193.86 11.2944 193.868C11.2623 193.876 11.2289 193.878 11.1963 193.872Z" fill="white"/>
<path d="M9.66436 182.941C9.63278 182.94 9.60181 182.932 9.57335 182.918C9.54489 182.905 9.51954 182.885 9.49883 182.861C9.47813 182.837 9.46252 182.809 9.45294 182.779C9.44337 182.749 9.44003 182.717 9.44315 182.686C9.50614 181.636 9.78735 180.61 10.2688 179.674C10.7503 178.739 11.4215 177.914 12.2395 177.252C12.2648 177.233 12.2935 177.22 12.3241 177.212C12.3546 177.205 12.3864 177.203 12.4175 177.208C12.4486 177.213 12.4785 177.223 12.5054 177.24C12.5323 177.256 12.5557 177.278 12.5742 177.303C12.61 177.355 12.6242 177.419 12.6136 177.482C12.603 177.544 12.5685 177.6 12.5175 177.638C11.7616 178.269 11.1417 179.046 10.6952 179.924C10.2486 180.801 9.98479 181.76 9.91961 182.743C9.90984 182.802 9.87814 182.855 9.83083 182.892C9.78352 182.929 9.72408 182.946 9.66436 182.941Z" fill="white"/>
<path d="M10.2945 185.121C10.2614 185.121 10.2287 185.113 10.1984 185.1C10.1682 185.086 10.1411 185.066 10.1187 185.042C10.1187 185.042 7.94059 182.716 3.05119 183.391C2.988 183.399 2.92412 183.382 2.8736 183.343C2.82307 183.305 2.79003 183.247 2.78176 183.184C2.77349 183.121 2.79065 183.057 2.82948 183.007C2.8683 182.956 2.92561 182.923 2.98879 182.915C8.13912 182.206 10.3626 184.616 10.4761 184.724C10.4985 184.746 10.5164 184.772 10.5286 184.801C10.5408 184.829 10.5471 184.86 10.5471 184.891C10.5471 184.923 10.5408 184.954 10.5286 184.982C10.5164 185.011 10.4985 185.037 10.4761 185.059C10.4527 185.083 10.4241 185.1 10.3926 185.111C10.3611 185.122 10.3276 185.126 10.2945 185.121Z" fill="white"/>
<path d="M178.355 216.521L109.439 176.731C104.577 173.929 100.635 166.396 100.635 159.913V12.3629C100.635 5.8796 104.577 2.90172 109.439 5.70944L178.355 45.4997C183.222 48.3074 187.164 55.8344 187.164 62.3176V209.868C187.164 216.351 183.222 219.329 178.355 216.521Z" fill="#586181"/>
<path d="M186.296 40.8431L117.374 1.05287C115.298 -0.143955 113.403 -0.285759 111.883 0.451623C111.698 0.542429 111.52 0.646698 111.35 0.763591L103.63 5.25027C105.179 4.32571 107.215 4.39378 109.444 5.68136L178.361 45.4716C183.228 48.2793 187.17 55.8063 187.17 62.2896V209.868C187.17 213.271 186.035 215.744 184.334 216.873L191.951 212.437C193.891 211.399 195.128 208.87 195.128 205.239V57.6667C195.099 51.1835 191.157 43.6508 186.296 40.8431Z" fill="#040123"/>
<path d="M187.164 62.2778V209.868C187.164 213.271 186.029 215.744 184.328 216.873L191.945 212.437C193.885 211.399 195.122 208.869 195.122 205.239V57.655L187.181 62.2608L187.164 62.2778Z" fill="#040123"/>
<path d="M195.099 69.123L187.164 73.7061V77.2796L195.099 72.7022V69.123Z" fill="#0250A4"/>
<path d="M191.623 92.9082C190.914 93.3223 190.335 92.9082 190.335 91.9383V84.2638C190.343 83.7823 190.463 83.3092 190.687 82.8827C190.91 82.4562 191.231 82.088 191.623 81.8078C192.332 81.3994 192.905 81.8078 192.905 82.7777V90.4749C192.894 90.9521 192.773 91.4205 192.551 91.8429C192.328 92.2652 192.011 92.63 191.623 92.9082Z" fill="#0250A4"/>
<path d="M190.335 91.9597V84.2626C190.343 83.7811 190.463 83.308 190.687 82.8815C190.91 82.4549 191.231 82.0868 191.623 81.8066C191.74 81.7259 191.877 81.6768 192.019 81.6639C192.161 81.651 192.304 81.6747 192.434 81.7328L191.475 81.2393C191.343 81.1748 191.196 81.1466 191.05 81.1576C190.903 81.1685 190.762 81.2183 190.641 81.3017C190.25 81.5819 189.929 81.9501 189.706 82.3767C189.482 82.8032 189.361 83.2762 189.354 83.7578V91.4549C189.332 91.6492 189.361 91.8458 189.437 92.0256C189.514 92.2055 189.636 92.3626 189.791 92.4816L190.8 93.0091C190.636 92.8913 190.507 92.732 190.425 92.5476C190.343 92.3631 190.312 92.1602 190.335 91.9597Z" fill="#969696"/>
<path d="M191.623 111.565C190.914 111.973 190.335 111.565 190.335 110.595V102.898C190.343 102.416 190.463 101.943 190.687 101.516C190.91 101.09 191.231 100.722 191.623 100.442C192.332 100.033 192.905 100.442 192.905 101.412V109.109C192.898 109.59 192.779 110.063 192.556 110.489C192.333 110.916 192.014 111.284 191.623 111.565Z" fill="#0250A4"/>
<path d="M190.335 110.594V102.897C190.343 102.415 190.463 101.942 190.687 101.516C190.91 101.089 191.231 100.721 191.623 100.441C191.74 100.359 191.876 100.309 192.018 100.296C192.161 100.283 192.304 100.307 192.434 100.367L191.475 99.868C191.344 99.8011 191.197 99.7715 191.05 99.7825C190.903 99.7935 190.761 99.8447 190.641 99.9304C190.25 100.211 189.929 100.579 189.706 101.005C189.482 101.432 189.361 101.905 189.354 102.386V110.084C189.332 110.278 189.361 110.474 189.437 110.654C189.514 110.834 189.636 110.991 189.791 111.11L190.8 111.638C190.637 111.52 190.508 111.362 190.427 111.179C190.345 110.995 190.313 110.794 190.335 110.594Z" fill="#ADADAD"/>
<path d="M175.961 49.6171L108.23 10.4792C107.946 10.3147 107.624 10.2279 107.296 10.2275C106.968 10.2272 106.646 10.3133 106.362 10.4773C106.078 10.6412 105.842 10.8771 105.678 11.1613C105.514 11.4454 105.428 11.7677 105.428 12.0958V159.912C105.428 164.847 108.922 170.899 113.199 173.367L179.285 211.523C179.597 211.703 179.951 211.797 180.311 211.798C180.671 211.798 181.024 211.704 181.336 211.525C181.649 211.346 181.908 211.088 182.09 210.777C182.271 210.466 182.368 210.114 182.371 209.754V60.7176C182.371 56.6506 179.484 51.6534 175.961 49.6171Z" fill="#FFA500"/>
<path opacity="0.5" d="M175.961 49.6171L108.23 10.4792C107.946 10.3147 107.624 10.2279 107.296 10.2275C106.968 10.2272 106.646 10.3133 106.362 10.4773C106.078 10.6412 105.842 10.8771 105.678 11.1613C105.514 11.4454 105.428 11.7677 105.428 12.0958V159.912C105.428 164.847 108.922 170.899 113.199 173.367L179.285 211.523C179.597 211.703 179.951 211.797 180.311 211.798C180.671 211.798 181.024 211.704 181.336 211.525C181.649 211.346 181.908 211.088 182.09 210.777C182.271 210.466 182.368 210.114 182.371 209.754V60.7176C182.371 56.6506 179.484 51.6534 175.961 49.6171Z" fill="white"/>
<path d="M128.48 20.7188L129.529 25.1374L151.98 38.0812L155.86 36.0166L128.48 20.7188Z" fill="#0250A4"/>
<path d="M135.082 24.9887C135.082 25.7204 134.566 26.0154 133.948 25.6524C133.616 25.4322 133.341 25.1374 133.144 24.7917C132.947 24.4459 132.834 24.0588 132.813 23.6614C132.813 22.9297 133.33 22.6291 133.948 22.9978C134.279 23.2179 134.555 23.5127 134.752 23.8585C134.949 24.2042 135.062 24.5913 135.082 24.9887Z" fill="#08005D"/>
<path d="M150.204 34.3373C150.081 34.3375 149.96 34.3063 149.853 34.2465L138.389 27.837C138.3 27.7946 138.22 27.7344 138.155 27.66C138.09 27.5857 138.041 27.4987 138.012 27.4047C137.982 27.3106 137.971 27.2114 137.981 27.1131C137.991 27.0149 138.021 26.9198 138.07 26.8337C138.118 26.7476 138.184 26.6723 138.262 26.6126C138.341 26.5529 138.431 26.5099 138.527 26.4865C138.623 26.463 138.722 26.4595 138.82 26.4762C138.917 26.4928 139.01 26.5293 139.092 26.5834L150.556 32.9873C150.695 33.0649 150.805 33.1867 150.868 33.3335C150.931 33.4804 150.943 33.6439 150.903 33.7985C150.863 33.9531 150.772 34.0898 150.646 34.1874C150.519 34.2849 150.364 34.3376 150.204 34.3373Z" fill="#08005D"/>
<path d="M91.8273 183.866C106.632 192.698 145.146 215.687 164.21 227.168C164.778 227.509 165.427 227.694 166.089 227.702C166.752 227.711 167.405 227.544 167.982 227.217C168.559 226.89 169.039 226.417 169.373 225.844C169.707 225.271 169.882 224.62 169.882 223.957V64.6659C169.883 62.8531 169.41 61.0715 168.51 59.4983C167.609 57.9251 166.312 56.6149 164.749 55.6982L91.4813 12.7599C90.9123 12.426 90.2651 12.2484 89.6054 12.2452C88.9457 12.2419 88.2968 12.413 87.7245 12.7412C87.1522 13.0694 86.6768 13.543 86.3464 14.114C86.016 14.6851 85.8424 15.3333 85.8431 15.993V173.327C85.8417 175.452 86.3925 177.541 87.4416 179.388C88.4907 181.236 90.002 182.779 91.8273 183.866Z" fill="white"/>
<path d="M91.5379 184.354C103.427 191.455 115.312 198.553 127.193 205.647L148.016 218.126L157.318 223.707L161.442 226.203C162.707 226.963 164.045 228.058 165.543 228.262C166.153 228.337 166.772 228.281 167.359 228.099C167.947 227.918 168.489 227.614 168.951 227.208C169.412 226.802 169.783 226.303 170.038 225.744C170.294 225.184 170.428 224.577 170.432 223.963C170.432 223.685 170.432 223.395 170.432 223.123V76.3616C170.432 72.5386 170.432 68.7155 170.432 64.8925C170.448 62.9135 169.939 60.9658 168.957 59.2472C167.976 57.5286 166.557 56.1005 164.845 55.108C163.172 54.1154 161.493 53.1398 159.814 52.1585L135.838 38.0972L107.358 21.4381C102.224 18.3978 97.1136 15.3291 91.9406 12.3626C91.2684 11.9485 90.4965 11.7241 89.7071 11.7133C88.9176 11.7025 88.1399 11.9056 87.4565 12.301C86.7731 12.6965 86.2096 13.2696 85.8256 13.9596C85.4417 14.6495 85.2517 15.4305 85.2758 16.2197C85.2758 17.4789 85.2758 18.7381 85.2758 19.9973V160.406C85.2758 164.566 85.2758 168.725 85.2758 172.885C85.2323 175.172 85.7847 177.431 86.8787 179.44C87.9726 181.449 89.5705 183.138 91.5152 184.343C92.1391 184.728 92.712 183.747 92.0824 183.367C88.2367 181.002 86.3819 177.02 86.3819 172.59V28.2447C86.3819 24.2741 86.3819 20.3036 86.3819 16.3331C86.3468 15.8197 86.4275 15.3049 86.6179 14.8268C86.8084 14.3487 87.1038 13.9195 87.4823 13.5708C88.7472 12.4931 90.273 12.7143 91.5889 13.4857L97.2611 16.8096L121.578 31.0807L149.405 47.3939C154.374 50.3037 159.36 53.1965 164.317 56.129C165.872 57.0431 167.155 58.3555 168.034 59.931C168.912 61.5064 169.354 63.2877 169.315 65.091C169.315 66.441 169.315 67.7966 169.315 69.1523V222.868C169.315 223.208 169.315 223.554 169.315 223.895C169.318 224.479 169.163 225.053 168.866 225.556C168.568 226.059 168.139 226.471 167.626 226.749C167.112 227.027 166.532 227.16 165.948 227.134C165.364 227.108 164.799 226.923 164.312 226.6C158.469 223.152 152.673 219.606 146.853 216.118C133.38 208.03 119.903 199.962 106.422 191.915L92.1108 183.378C91.9823 183.315 91.8346 183.303 91.6974 183.344C91.5602 183.385 91.4436 183.476 91.3711 183.6C91.2985 183.723 91.2754 183.87 91.3064 184.01C91.3373 184.15 91.42 184.273 91.5379 184.354Z" fill="#E0E0E0"/>
<path d="M129.961 201.882L125.247 199.165C124.77 198.824 124.38 198.376 124.108 197.857C123.836 197.337 123.69 196.761 123.682 196.175V191.292C123.682 190.157 124.38 189.59 125.247 190.106L129.961 192.829C130.436 193.171 130.825 193.619 131.096 194.138C131.367 194.657 131.512 195.233 131.521 195.818V200.679C131.521 201.853 130.812 202.381 129.961 201.882Z" fill="#E0E0E0"/>
<path d="M127.602 198.307C127.46 198.215 127.341 198.09 127.256 197.943C127.172 197.796 127.123 197.631 127.114 197.462V193.968C127.114 193.656 127.33 193.525 127.602 193.684C127.745 193.776 127.863 193.901 127.948 194.048C128.033 194.195 128.082 194.36 128.09 194.529V198.023C128.09 198.335 127.874 198.46 127.602 198.307Z" fill="white"/>
<path d="M129.11 197.433L126.082 195.686C125.94 195.593 125.822 195.468 125.738 195.321C125.653 195.174 125.604 195.01 125.594 194.841C125.594 194.529 125.815 194.398 126.082 194.557L129.11 196.304C129.252 196.397 129.37 196.522 129.455 196.669C129.54 196.815 129.589 196.98 129.598 197.149C129.604 197.461 129.383 197.586 129.11 197.433Z" fill="white"/>
<path d="M112.86 184.575C113.416 184.917 113.874 185.398 114.187 185.97C114.919 187.235 114.919 188.608 114.187 189.033C113.974 189.131 113.739 189.171 113.506 189.148C113.273 189.125 113.05 189.04 112.86 188.903C112.317 188.546 111.864 188.066 111.539 187.503C111.214 186.939 111.026 186.308 110.988 185.658C110.936 185.423 110.96 185.178 111.057 184.957C111.154 184.736 111.319 184.552 111.528 184.432C111.736 184.311 111.978 184.26 112.217 184.286C112.457 184.311 112.682 184.413 112.86 184.575ZM112.86 183.441C112.572 183.232 112.234 183.104 111.88 183.069C111.526 183.034 111.17 183.094 110.846 183.242C109.712 183.883 109.712 185.965 110.846 187.893C111.325 188.763 112.018 189.495 112.86 190.02C113.149 190.229 113.488 190.358 113.842 190.394C114.197 190.43 114.555 190.371 114.879 190.225C116.014 189.578 116.014 187.496 114.879 185.568C114.401 184.697 113.705 183.964 112.86 183.441Z" fill="#E0E0E0"/>
<path d="M117.005 194.483C116.861 194.39 116.743 194.264 116.659 194.114L114.532 190.427C114.339 190.098 114.339 189.741 114.532 189.628C114.725 189.514 115.031 189.696 115.224 190.03L117.351 193.717C117.544 194.046 117.544 194.404 117.351 194.517C117.295 194.54 117.234 194.549 117.174 194.543C117.114 194.537 117.056 194.517 117.005 194.483Z" fill="#E0E0E0"/>
<path d="M145.86 202.222C144.68 201.541 143.728 202.29 143.728 203.895C143.728 202.29 142.775 200.441 141.595 199.76C140.415 199.08 139.468 199.828 139.468 201.434C139.468 205.512 143.728 209.715 143.728 209.715C143.728 209.715 147.993 210.435 147.993 206.351C147.993 204.752 147.034 202.903 145.86 202.222Z" fill="#E0E0E0"/>
<path d="M159.507 212.283C159.507 213.486 158.662 213.985 157.618 213.372C157.068 213.014 156.61 212.531 156.281 211.962C155.953 211.394 155.764 210.755 155.729 210.1C155.729 208.897 156.574 208.398 157.618 209.01C158.168 209.369 158.626 209.852 158.954 210.421C159.282 210.99 159.472 211.628 159.507 212.283Z" fill="#E0E0E0"/>
<path d="M157.618 213.373C156.075 212.482 154.827 213.43 154.827 215.489V216.124L160.414 219.351V218.71C160.414 216.657 159.172 214.292 157.618 213.373Z" fill="#E0E0E0"/>
<path d="M99.0761 175.237L95.3098 176.479V181.76L98.231 183.462V180.58C98.231 180.041 98.611 179.82 99.0761 180.092C99.3234 180.253 99.5293 180.47 99.6771 180.725C99.8249 180.981 99.9105 181.267 99.927 181.562V184.437L102.848 186.139V180.824L99.0761 175.237Z" fill="#E0E0E0"/>
<path d="M112.269 169.805L94.7649 159.703C93.3866 158.903 92.2692 156.77 92.2692 154.938V135.613C92.2692 133.775 93.4036 132.936 94.7649 133.73L112.269 143.838C113.648 144.632 114.759 146.764 114.759 148.602V167.922C114.759 169.759 113.648 170.616 112.269 169.805Z" fill="#FFA500"/>
<path opacity="0.5" d="M112.269 169.805L94.7649 159.703C93.3866 158.903 92.2692 156.77 92.2692 154.938V135.613C92.2692 133.775 93.4036 132.936 94.7649 133.73L112.269 143.838C113.648 144.632 114.759 146.764 114.759 148.602V167.922C114.759 169.759 113.648 170.616 112.269 169.805Z" fill="white"/>
<path d="M94.9072 153.095L112.128 163.038L107.04 149.805L103.518 153.985L99.9157 148.857L94.9072 153.095Z" fill="#FFA500"/>
<path d="M100.88 144.842C100.91 145.387 101.067 145.917 101.34 146.389C101.613 146.861 101.994 147.262 102.451 147.559C103.319 148.064 104.022 147.656 104.022 146.652C103.989 146.111 103.83 145.586 103.557 145.118C103.284 144.65 102.905 144.252 102.451 143.957C101.583 143.435 100.88 143.838 100.88 144.842Z" fill="#FFA500"/>
<path d="M136.615 183.872L119.11 173.77C117.732 172.97 116.615 170.838 116.615 169.006V149.681C116.615 147.843 117.749 147.003 119.11 147.797L136.615 157.905C137.993 158.699 139.111 160.832 139.111 162.67V181.989C139.111 183.827 137.993 184.672 136.615 183.872Z" fill="#FFA500"/>
<path opacity="0.5" d="M136.615 183.872L119.11 173.77C117.732 172.97 116.615 170.838 116.615 169.006V149.681C116.615 147.843 117.749 147.003 119.11 147.797L136.615 157.905C137.993 158.699 139.111 160.832 139.111 162.67V181.989C139.111 183.827 137.993 184.672 136.615 183.872Z" fill="white"/>
<path d="M119.252 167.162L136.473 177.105L131.385 163.872L127.862 168.052L124.26 162.925L119.252 167.162Z" fill="#FFA500"/>
<path d="M125.225 158.908C125.255 159.453 125.413 159.983 125.686 160.455C125.959 160.927 126.339 161.328 126.796 161.625C127.664 162.13 128.368 161.722 128.368 160.718C128.338 160.173 128.18 159.643 127.907 159.171C127.634 158.699 127.254 158.298 126.796 158.001C125.929 157.502 125.225 157.904 125.225 158.908Z" fill="#FFA500"/>
<path d="M160.965 197.937L143.455 187.835C142.082 187.035 140.965 184.902 140.965 183.07V163.745C140.965 161.907 142.099 161.068 143.455 161.862L160.965 171.97C162.338 172.764 163.455 174.896 163.455 176.734V196.054C163.455 197.891 162.338 198.737 160.965 197.937Z" fill="#FFA500"/>
<path opacity="0.5" d="M160.965 197.937L143.455 187.835C142.082 187.035 140.965 184.902 140.965 183.07V163.745C140.965 161.907 142.099 161.068 143.455 161.862L160.965 171.97C162.338 172.764 163.455 174.896 163.455 176.734V196.054C163.455 197.891 162.338 198.737 160.965 197.937Z" fill="white"/>
<path d="M143.603 181.229L160.818 191.172L155.736 177.934L152.213 182.12L148.606 176.992L143.603 181.229Z" fill="#FFA500"/>
<path d="M149.575 172.977C149.605 173.521 149.763 174.051 150.036 174.523C150.309 174.995 150.689 175.396 151.146 175.694C152.014 176.198 152.712 175.79 152.712 174.786C152.683 174.242 152.527 173.712 152.255 173.24C151.983 172.768 151.603 172.367 151.146 172.069C150.279 171.564 149.575 171.973 149.575 172.977Z" fill="#FFA500"/>
<path d="M169.882 211.678C169.816 211.678 169.751 211.66 169.695 211.627L85.6728 163.118C85.6293 163.094 85.591 163.06 85.5603 163.021C85.5296 162.981 85.507 162.935 85.4938 162.887C85.4807 162.838 85.4772 162.788 85.4836 162.738C85.4899 162.688 85.5061 162.64 85.531 162.597C85.556 162.553 85.5893 162.515 85.629 162.484C85.6687 162.453 85.7141 162.431 85.7626 162.418C85.811 162.405 85.8616 162.401 85.9114 162.407C85.9612 162.414 86.0093 162.43 86.0529 162.455L170.075 210.963C170.119 210.988 170.157 211.022 170.188 211.062C170.219 211.103 170.242 211.149 170.255 211.198C170.268 211.247 170.272 211.298 170.265 211.348C170.258 211.398 170.242 211.447 170.216 211.491C170.181 211.548 170.132 211.595 170.074 211.628C170.015 211.661 169.949 211.678 169.882 211.678Z" fill="#E0E0E0"/>
<path d="M169.882 167.468C169.816 167.468 169.751 167.45 169.694 167.417L85.6726 118.909C85.5909 118.855 85.5328 118.772 85.51 118.677C85.4872 118.582 85.5013 118.482 85.5496 118.396C85.5979 118.311 85.6767 118.248 85.7701 118.219C85.8635 118.19 85.9645 118.197 86.0526 118.239L170.074 166.753C170.119 166.778 170.158 166.811 170.189 166.85C170.22 166.89 170.243 166.935 170.257 166.984C170.27 167.033 170.273 167.084 170.266 167.134C170.259 167.184 170.242 167.232 170.216 167.275C170.182 167.334 170.133 167.383 170.075 167.417C170.016 167.451 169.949 167.468 169.882 167.468Z" fill="#E0E0E0"/>
<path d="M164.749 55.6982L91.4813 12.7599C90.9123 12.426 90.2651 12.2484 89.6054 12.2452C88.9457 12.2419 88.2968 12.413 87.7245 12.7412C87.1522 13.0694 86.6768 13.543 86.3464 14.114C86.016 14.6851 85.8424 15.3333 85.8431 15.993V22.9017L169.859 71.4157V64.6658C169.863 62.8553 169.393 61.0752 168.497 59.5022C167.6 57.9291 166.308 56.6178 164.749 55.6982Z" fill="#E0E0E0"/>
<path d="M116.424 85.5577C121.967 82.3577 121.966 71.9803 116.423 62.3792C110.88 52.778 101.893 47.5889 96.3506 50.7889C90.8081 53.9889 90.8086 64.3663 96.3518 73.9674C101.895 83.5686 110.882 88.7577 116.424 85.5577Z" fill="#FFA500"/>
<path d="M99.6734 117.008C101.412 116.004 101.413 112.749 99.6741 109.738C97.9354 106.726 95.1163 105.099 93.3773 106.103C91.6383 107.107 91.6379 110.362 93.3766 113.373C95.1152 116.385 97.9344 118.012 99.6734 117.008Z" fill="#E0E0E0"/>
<path d="M111.697 120.486C111.697 123.322 109.7 124.456 107.244 123.061C105.947 122.215 104.868 121.076 104.094 119.736C103.319 118.396 102.871 116.892 102.786 115.347C102.786 112.511 104.782 111.376 107.244 112.777C108.539 113.622 109.618 114.76 110.391 116.1C111.165 117.439 111.612 118.941 111.697 120.486Z" fill="#E0E0E0"/>
<path d="M122.405 126.845C122.405 129.681 120.414 130.815 117.953 129.414C116.656 128.569 115.578 127.43 114.804 126.09C114.031 124.749 113.584 123.246 113.5 121.7C113.5 118.864 115.497 117.73 117.953 119.131C119.25 119.975 120.329 121.114 121.103 122.455C121.877 123.795 122.323 125.299 122.405 126.845Z" fill="#E0E0E0"/>
<path d="M133.12 132.975C133.12 135.811 131.129 136.946 128.667 135.55C127.372 134.704 126.294 133.564 125.521 132.224C124.747 130.884 124.3 129.381 124.215 127.836C124.215 125 126.211 123.865 128.667 125.267C129.964 126.11 131.043 127.248 131.816 128.588C132.59 129.927 133.037 131.43 133.12 132.975Z" fill="#E0E0E0"/>
<path d="M142.528 141.826C144.267 140.822 144.267 137.566 142.529 134.555C140.79 131.544 137.971 129.916 136.232 130.92C134.493 131.924 134.493 135.179 136.231 138.191C137.97 141.202 140.789 142.83 142.528 141.826Z" fill="#E0E0E0"/>
<path d="M153.857 148.181C155.596 147.177 155.597 143.922 153.858 140.91C152.12 137.899 149.3 136.272 147.561 137.276C145.822 138.28 145.822 141.535 147.561 144.546C149.299 147.558 152.118 149.185 153.857 148.181Z" fill="#E0E0E0"/>
<path d="M120.603 100.28C120.503 100.281 120.405 100.255 120.319 100.206L91.9298 83.8136C91.8001 83.7387 91.7052 83.6156 91.6659 83.4711C91.6266 83.3266 91.646 83.1724 91.72 83.0421C91.757 82.9771 91.8066 82.9201 91.8658 82.8744C91.9249 82.8286 91.9926 82.795 92.0648 82.7755C92.1371 82.756 92.2124 82.7509 92.2866 82.7607C92.3608 82.7704 92.4323 82.7948 92.497 82.8323L120.886 99.2248C120.993 99.288 121.076 99.3842 121.122 99.4989C121.169 99.6136 121.177 99.7404 121.145 99.8599C121.112 99.9795 121.042 100.085 120.944 100.161C120.846 100.237 120.726 100.279 120.603 100.28Z" fill="#FFA500"/>
<path d="M138.141 116.367C138.04 116.369 137.942 116.341 137.857 116.287L91.9124 89.7644C91.8446 89.7289 91.7847 89.6801 91.7363 89.6209C91.6878 89.5617 91.6519 89.4933 91.6306 89.4198C91.6092 89.3464 91.603 89.2693 91.6122 89.1934C91.6215 89.1175 91.6459 89.0442 91.6842 88.9779C91.7225 88.9117 91.7738 88.8539 91.835 88.808C91.8962 88.7621 91.9661 88.7291 92.0404 88.7109C92.1147 88.6927 92.1919 88.6897 92.2674 88.7021C92.3429 88.7145 92.415 88.7421 92.4796 88.7831L138.424 115.306C138.489 115.344 138.545 115.394 138.59 115.453C138.636 115.512 138.669 115.58 138.688 115.652C138.707 115.724 138.711 115.8 138.701 115.874C138.691 115.948 138.666 116.019 138.628 116.083C138.579 116.169 138.508 116.24 138.422 116.29C138.337 116.34 138.24 116.366 138.141 116.367Z" fill="#FFA500"/>
<path d="M163.392 137.832C163.293 137.833 163.195 137.807 163.109 137.758L91.9118 96.6466C91.782 96.5717 91.6871 96.4486 91.6478 96.3041C91.6085 96.1596 91.6279 96.0054 91.7019 95.8751C91.7389 95.8102 91.7885 95.7531 91.8477 95.7074C91.9069 95.6616 91.9745 95.628 92.0468 95.6085C92.119 95.589 92.1944 95.584 92.2685 95.5937C92.3427 95.6034 92.4142 95.6278 92.479 95.6653L163.676 136.771C163.785 136.833 163.871 136.93 163.919 137.046C163.968 137.161 163.977 137.29 163.944 137.411C163.912 137.533 163.84 137.64 163.74 137.716C163.64 137.792 163.518 137.833 163.392 137.832Z" fill="#FFA500"/>
<path d="M162.043 144.188C159.581 142.77 157.59 143.921 157.59 146.758C157.673 148.303 158.119 149.807 158.893 151.148C159.667 152.488 160.746 153.627 162.043 154.472V144.188Z" fill="#E0E0E0"/>
<path d="M138.571 78.0585C138.488 78.0566 138.406 78.0352 138.333 77.9961L129.581 72.9365C129.473 72.8749 129.395 72.773 129.362 72.6533C129.33 72.5336 129.346 72.406 129.408 72.2984C129.47 72.1909 129.571 72.1122 129.691 72.0798C129.811 72.0473 129.938 72.0637 130.046 72.1254L138.804 77.1793C138.894 77.2309 138.964 77.3106 139.004 77.4062C139.044 77.5018 139.051 77.6079 139.025 77.7081C138.998 77.8083 138.939 77.8969 138.857 77.9603C138.775 78.0236 138.675 78.0581 138.571 78.0585Z" fill="#FFA500"/>
<path d="M130.392 69.4926V66.2481L129.734 65.868V64.8584L131.487 65.8737V70.1335L130.392 69.4926Z" fill="#180D8B"/>
<path d="M135.48 70.2984C135.48 71.6994 134.879 72.1248 133.813 71.5066C133.274 71.1885 132.833 70.7279 132.539 70.1755C132.244 69.6231 132.108 69.0003 132.145 68.3755C132.145 66.9859 132.712 66.5548 133.813 67.1787C134.348 67.4983 134.786 67.9575 135.079 68.5071C135.373 69.0567 135.512 69.676 135.48 70.2984ZM133.268 69.0222C133.268 69.9354 133.421 70.3608 133.835 70.5934C134.249 70.8259 134.374 70.5593 134.374 69.6518C134.374 68.7442 134.221 68.3131 133.835 68.0919C133.45 67.8707 133.268 68.1146 133.268 69.0222Z" fill="#FFA500"/>
<path d="M139.201 72.4488C139.201 73.8498 138.606 74.2752 137.539 73.6626C137.002 73.3412 136.563 72.8792 136.269 72.3264C135.975 71.7736 135.838 71.1511 135.872 70.5259C135.872 69.1362 136.439 68.7052 137.539 69.3291C138.076 69.647 138.514 70.1061 138.807 70.6563C139.1 71.2064 139.237 71.8265 139.201 72.4488ZM136.995 71.1725C136.995 72.0858 137.148 72.5169 137.562 72.7437C137.976 72.9706 138.101 72.7437 138.101 71.8022C138.101 70.8606 137.948 70.4692 137.562 70.248C137.176 70.0268 136.995 70.265 136.995 71.1725Z" fill="#FFA500"/>
<path d="M150.416 85.0907C150.334 85.0895 150.254 85.068 150.183 85.0283L141.425 79.9688C141.318 79.9071 141.239 79.8052 141.207 79.6855C141.174 79.5659 141.191 79.4382 141.252 79.3307C141.314 79.2231 141.416 79.1444 141.535 79.112C141.655 79.0795 141.783 79.096 141.89 79.1576L150.665 84.2115C150.755 84.2631 150.825 84.3429 150.865 84.4385C150.905 84.5341 150.913 84.6402 150.886 84.7403C150.86 84.8405 150.801 84.9291 150.719 84.9925C150.637 85.0558 150.536 85.0904 150.433 85.0907H150.416Z" fill="#FFA500"/>
<path d="M142.922 73.6514V74.2186L143.16 74.3548C143.557 74.5557 143.896 74.8542 144.146 75.2223C144.396 75.5904 144.549 76.016 144.589 76.4591C144.589 77.3667 143.994 77.5936 143.069 77.0774C142.49 76.7121 141.989 76.236 141.594 75.6764L142.025 74.9674C142.224 75.4091 142.542 75.7864 142.944 76.0564C143.251 76.2322 143.415 76.1642 143.409 75.8636C143.403 75.7166 143.356 75.5742 143.274 75.4521C143.192 75.3301 143.078 75.233 142.944 75.1716L141.918 74.6043V72.1143L144.425 73.5607V74.5476L142.922 73.6514Z" fill="#FFA500"/>
<path d="M148.264 77.8755C148.264 79.2709 147.663 79.6963 146.602 79.0837C146.063 78.7656 145.622 78.305 145.328 77.7527C145.034 77.2003 144.898 76.5775 144.935 75.9527C144.935 74.563 145.502 74.1319 146.602 74.7559C147.136 75.0766 147.572 75.5362 147.865 76.0857C148.158 76.6352 148.296 77.2538 148.264 77.8755ZM146.052 76.5993C146.052 77.5125 146.205 77.9379 146.619 78.1705C147.033 78.4031 147.152 78.1365 147.152 77.2289C147.152 76.3214 146.999 75.8903 146.619 75.6691C146.239 75.4479 146.052 75.6918 146.052 76.5993Z" fill="#FFA500"/>
<path d="M151.992 80.0269C151.992 81.4279 151.391 81.8533 150.33 81.2408C149.786 80.9242 149.339 80.4642 149.039 79.911C148.739 79.3578 148.597 78.7327 148.628 78.104C148.628 76.7144 149.195 76.2833 150.33 76.9072C150.863 77.228 151.3 77.6876 151.593 78.2371C151.885 78.7865 152.023 79.4052 151.992 80.0269ZM149.78 78.7507C149.78 79.6639 149.933 80.095 150.347 80.3219C150.761 80.5488 150.88 80.2878 150.88 79.3803C150.88 78.4727 150.727 78.0473 150.347 77.8261C149.967 77.6049 149.78 77.8431 149.78 78.728V78.7507Z" fill="#FFA500"/>
<path d="M162.962 92.2213C162.88 92.2207 162.799 92.1972 162.73 92.1533L153.972 87.0994C153.919 87.0688 153.872 87.0281 153.834 86.9795C153.797 86.9309 153.769 86.8754 153.753 86.8162C153.737 86.7569 153.733 86.6951 153.741 86.6342C153.749 86.5733 153.768 86.5145 153.799 86.4613C153.829 86.408 153.87 86.3613 153.919 86.3238C153.967 86.2863 154.023 86.2587 154.082 86.2426C154.141 86.2265 154.203 86.2223 154.264 86.2301C154.325 86.238 154.384 86.2577 154.437 86.2883L163.195 91.3422C163.285 91.3937 163.355 91.4735 163.395 91.5691C163.435 91.6647 163.442 91.7708 163.416 91.871C163.389 91.9711 163.33 92.0598 163.248 92.1231C163.166 92.1865 163.066 92.221 162.962 92.2213Z" fill="#FFA500"/>
<path d="M154.782 83.656V80.4285L154.124 80.0485V79.0388L155.877 80.0541V84.3139L154.782 83.656Z" fill="#FFA500"/>
<path d="M157.703 82.0735V82.6407L157.942 82.7769C158.338 82.9796 158.677 83.2793 158.927 83.6483C159.177 84.0172 159.33 84.4432 159.371 84.8869C159.371 85.7888 158.804 86.0214 157.851 85.5052C157.272 85.1396 156.772 84.6612 156.382 84.0985L156.813 83.3951C157.011 83.8354 157.327 84.2122 157.726 84.4842C158.032 84.66 158.202 84.592 158.197 84.2913C158.19 84.1431 158.142 83.9997 158.059 83.8767C157.976 83.7536 157.861 83.6558 157.726 83.5937L156.699 83.0265V80.5364L159.206 81.9828V82.9641L157.703 82.0735Z" fill="#FFA500"/>
<path d="M163.047 86.2998C163.047 87.6951 162.446 88.1205 161.385 87.5079C160.856 87.186 160.425 86.7272 160.135 86.1801C159.845 85.633 159.709 85.0178 159.74 84.3996C159.74 83.0043 160.307 82.5732 161.408 83.1971C161.934 83.5198 162.364 83.9781 162.652 84.5239C162.941 85.0698 163.077 85.6832 163.047 86.2998ZM160.835 85.0235C160.835 85.9311 160.988 86.3622 161.402 86.5891C161.816 86.8159 161.969 86.5607 161.969 85.6475C161.969 84.7343 161.816 84.3145 161.402 84.0933C160.988 83.8721 160.835 84.1103 160.835 85.0235Z" fill="#FFA500"/>
<path d="M95.7638 36.6675C95.7638 37.6828 95.2533 38.0458 94.4649 37.5921C94.1122 37.3822 93.8299 37.0722 93.6538 36.7015V38.2614L92.5874 37.6488V33.1621L93.6538 33.7747V34.1604C93.841 33.9959 94.1132 34.0016 94.4365 34.1604C94.8552 34.4283 95.1975 34.8 95.4301 35.2393C95.6626 35.6786 95.7776 36.1706 95.7638 36.6675ZM94.6861 36.0152C94.6935 35.8137 94.6502 35.6135 94.56 35.4331C94.4698 35.2527 94.3356 35.0979 94.1699 34.9829C93.8636 34.8014 93.6538 34.9829 93.6538 35.4196C93.6469 35.6211 93.6904 35.8211 93.7806 36.0014C93.8708 36.1817 94.0046 36.3366 94.1699 36.452C94.5103 36.6335 94.6861 36.452 94.6861 36.0152Z" fill="#FFA500"/>
<path d="M97.2443 36.3727C97.4485 36.1288 97.7547 36.1004 98.1461 36.3217V37.4561C97.5789 37.0647 97.2443 37.1271 97.2443 37.6092V39.1861L96.2119 38.5452V35.2383L97.2726 35.8509L97.2443 36.3727Z" fill="#FFA500"/>
<path d="M101.481 39.9521C101.481 40.9731 100.857 41.285 99.8932 40.7292C99.4259 40.4663 99.0339 40.0878 98.7548 39.6299C98.4757 39.172 98.3188 38.6502 98.2993 38.1143C98.2993 37.0876 98.9289 36.7813 99.8932 37.3372C100.36 37.6 100.752 37.9786 101.03 38.4366C101.308 38.8946 101.464 39.4165 101.481 39.9521ZM99.3714 38.7439C99.3625 38.9471 99.4058 39.1492 99.4971 39.3309C99.5885 39.5126 99.7248 39.6678 99.8932 39.7819C100.205 39.9578 100.409 39.7819 100.409 39.3452C100.418 39.1435 100.375 38.9429 100.285 38.7623C100.194 38.5817 100.06 38.4271 99.8932 38.3128C99.5756 38.1257 99.3714 38.3072 99.3714 38.7439Z" fill="#FFA500"/>
<path d="M102.048 38.4951C102.048 37.7804 102.525 37.6386 103.183 38.0299C103.39 38.1528 103.58 38.3014 103.75 38.4724L103.71 39.4196C103.624 39.2972 103.514 39.1931 103.387 39.1133C103.205 38.9999 103.086 39.0396 103.086 39.2495V39.3572L103.653 39.6976V40.4917L103.086 40.1457V42.5393L102.031 41.9324V39.5387L101.646 39.3119V38.5234L102.031 38.7503L102.048 38.4951ZM103.999 38.807C103.999 38.4383 104.226 38.3079 104.567 38.4951C104.734 38.5916 104.874 38.7293 104.973 38.895C105.073 39.0608 105.128 39.2492 105.134 39.4423C105.134 39.811 104.907 39.9415 104.567 39.76C104.398 39.6629 104.258 39.5244 104.159 39.3575C104.059 39.1907 104.005 39.0011 103.999 38.807ZM105.071 40.3726V43.6794L104.011 43.0612V39.76L105.071 40.3726Z" fill="#FFA500"/>
<path d="M105.741 44.0639V39.5261L106.802 40.1557V44.6935L105.741 44.0639Z" fill="#FFA500"/>
<path d="M110.256 45.3109L108.327 44.1764C108.36 44.3443 108.428 44.5035 108.525 44.6441C108.623 44.7846 108.749 44.9035 108.894 44.9932C108.987 45.054 109.093 45.09 109.203 45.098C109.313 45.1059 109.424 45.0855 109.524 45.0386L110.091 45.9859C109.79 46.1957 109.359 46.156 108.821 45.8441C108.362 45.5868 107.979 45.2146 107.708 44.764C107.438 44.3134 107.289 43.8 107.278 43.2746C107.278 42.2366 107.885 41.9133 108.787 42.4351C109.275 42.7295 109.672 43.155 109.932 43.6632C110.191 44.1714 110.304 44.7422 110.256 45.3109ZM109.206 44.1254C109.21 43.9645 109.173 43.8054 109.097 43.6633C109.022 43.5212 108.911 43.401 108.775 43.3143C108.531 43.1725 108.361 43.3143 108.31 43.6036L109.206 44.1254Z" fill="#FFA500"/>
<path d="M41.5659 193.565L41.9233 198.784H47.6068L47.7145 191.988L41.5659 193.565Z" fill="#FFA8A7"/>
<path d="M25.0649 197.645V202.925C25.0649 202.925 25.6322 204.06 28.196 204.06C30.7598 204.06 30.3627 201.604 30.3627 201.604L30.6634 198.07L25.0649 197.645Z" fill="#FFA8A7"/>
<path d="M49.6999 136.697L48.9285 192.516C48.9285 192.516 46.2115 195.954 40.1706 193.753L39.0362 168.376L36.4497 138.16L49.6999 136.697Z" fill="#505050"/>
<path opacity="0.3" d="M49.6999 136.697L48.9285 192.516C48.9285 192.516 46.2115 195.954 40.1706 193.753L39.0362 168.376L36.4497 138.16L49.6999 136.697Z" fill="#292929"/>
<path d="M38.6444 163.611L40.8055 146.487C40.8055 146.487 45.814 144.099 47.1697 137.479L37.8049 138.013L36.4663 138.16L38.6444 163.611Z" fill="#505050"/>
<path opacity="0.5" d="M38.6444 163.611L40.8055 146.487C40.8055 146.487 45.814 144.099 47.1697 137.479L37.8049 138.013L36.4663 138.16L38.6444 163.611Z" fill="#292929"/>
<path d="M27.3632 136.629L26.0189 166.317C26.0189 166.317 23.6763 187.395 23.6763 198.115C24.9238 198.785 26.2961 199.19 27.7074 199.306C29.1187 199.421 30.5386 199.243 31.8782 198.784L36.467 167.701L40.239 145.426C40.239 145.426 46.6542 143.589 48.2935 137.032L27.3632 136.629Z" fill="#505050"/>
<path opacity="0.3" d="M27.3632 136.629L26.0189 166.317C26.0189 166.317 23.6763 187.395 23.6763 198.115C24.9238 198.785 26.2961 199.19 27.7074 199.306C29.1187 199.421 30.5386 199.243 31.8782 198.784L36.467 167.701L40.239 145.426C40.239 145.426 46.6542 143.589 48.2935 137.032L27.3632 136.629Z" fill="#292929"/>
<path d="M44.1411 103.332L53.6533 103.372C54.2602 104.527 54.6214 105.795 54.7141 107.096C54.8069 108.397 54.6291 109.704 54.1922 110.933L47.2608 111.114L44.1411 103.332Z" fill="#0250A4"/>
<path d="M34.8392 103.566C34.8392 103.566 31.1409 104.031 29.9951 104.331C29.236 104.494 28.4963 104.738 27.7887 105.057C27.5226 105.195 27.3015 105.406 27.1517 105.665C27.0019 105.925 26.9296 106.222 26.9435 106.521C27.1137 109.607 27.6469 119.221 27.6582 120.27C27.6582 121.518 27.3633 136.606 27.3633 136.606C27.3633 136.606 28.1006 139.794 39.9384 139.794C46.2232 139.794 49.7059 136.674 49.7059 136.674C49.7059 136.674 49.445 120.287 49.2862 116.368C49.1274 112.448 49.8023 104.632 44.1415 103.322L39.8023 103.248L34.8392 103.566Z" fill="#0250A4"/>
<path d="M47.1932 85.2158C47.1932 85.2158 48.424 86.475 48.424 89.7876C48.424 93.1001 45.6787 95.9702 45.6787 95.9702V85.3746L47.1932 85.2158Z" fill="#292929"/>
<path d="M47.1921 86.102C47.7274 85.796 48.1804 85.3646 48.5124 84.8449C48.8443 84.3253 49.0453 83.7328 49.0979 83.1185C49.2681 81.0028 48.0316 81.7628 47.6005 81.9443C47.1694 82.1258 45.8988 82.5966 45.8988 82.5966C45.8988 82.5966 47.0786 81.3714 46.3753 80.5546C45.8591 79.9477 43.3577 81.8536 40.1983 82.2279C37.0389 82.6023 34.0043 82.5683 33.1138 85.3987C33.1138 85.3987 30.0565 86.0113 30.7938 91.3658C31.5312 96.7203 33.8852 99.9761 34.8438 99.9308L47.1921 86.102Z" fill="#1C1C1C"/>
<path d="M41.504 95.9714H34.8392V103.566H41.504V95.9714Z" fill="#FFA8A7"/>
<path d="M41.5037 102.669C40.0719 102.473 38.7311 101.854 37.6522 100.892C36.5733 99.9306 35.8052 98.6695 35.4458 97.2696V95.0518H41.5037V102.669Z" fill="#F28F8F"/>
<path d="M42.6663 84.0995C42.6663 84.0995 48.934 84.3377 47.8053 94.4341C47.2721 99.1874 46.8807 101.808 42.8194 101.808C38.7582 101.808 32.757 98.745 33.1427 90.5884C33.5284 82.4318 42.6663 84.0995 42.6663 84.0995Z" fill="#FFA8A7"/>
<path d="M43.2963 92.4255V95.9706L45.3723 95.3297L43.2963 92.4255Z" fill="#F28F8F"/>
<path d="M40.267 93.039C40.267 93.1814 40.3092 93.3207 40.3884 93.4392C40.4675 93.5576 40.58 93.65 40.7117 93.7045C40.8433 93.759 40.9881 93.7733 41.1279 93.7455C41.2676 93.7177 41.396 93.6491 41.4967 93.5483C41.5975 93.4476 41.6661 93.3192 41.6939 93.1795C41.7216 93.0398 41.7074 92.8949 41.6529 92.7633C41.5983 92.6317 41.506 92.5192 41.3875 92.44C41.2691 92.3608 41.1298 92.3186 40.9873 92.3186C40.7963 92.3186 40.6131 92.3945 40.478 92.5296C40.3429 92.6647 40.267 92.8479 40.267 93.039Z" fill="#292929"/>
<path d="M45.0147 92.5339C45.0135 92.6779 45.0553 92.8191 45.1347 92.9393C45.214 93.0596 45.3273 93.1535 45.4602 93.2092C45.5931 93.2648 45.7396 93.2797 45.8809 93.2519C46.0223 93.224 46.1522 93.1548 46.2541 93.0529C46.356 92.951 46.4252 92.8211 46.453 92.6798C46.4809 92.5384 46.466 92.392 46.4104 92.2591C46.3547 92.1262 46.2608 92.0128 46.1405 91.9335C46.0203 91.8541 45.8791 91.8124 45.735 91.8135C45.6404 91.8135 45.5468 91.8321 45.4594 91.8683C45.372 91.9045 45.2925 91.9576 45.2257 92.0245C45.1588 92.0914 45.1057 92.1708 45.0695 92.2582C45.0333 92.3456 45.0147 92.4393 45.0147 92.5339Z" fill="#292929"/>
<path d="M46.6142 91.03L45.2075 90.1905C45.2075 90.1905 45.7464 89.6233 46.2852 89.9693C46.4408 90.0922 46.5555 90.2593 46.6142 90.4486C46.6729 90.6379 46.6729 90.8406 46.6142 91.03Z" fill="#292929"/>
<path d="M40.6243 90.7861L39.348 91.8241C39.348 91.8241 39.0077 91.1208 39.5125 90.7294C39.6823 90.6266 39.8789 90.5771 40.0771 90.5872C40.2753 90.5973 40.4659 90.6666 40.6243 90.7861Z" fill="#292929"/>
<path d="M42.9666 97.655C42.9666 97.655 40.3914 96.9913 41.021 97.1332C41.021 97.1332 40.8906 98.1541 41.7471 98.3527C41.9992 98.3903 42.2566 98.3419 42.4778 98.2153C42.6991 98.0888 42.8712 97.8914 42.9666 97.655Z" fill="#F28F8F"/>
<path d="M47.193 86.0993C47.193 86.0993 45.1907 87.9767 40.0574 87.591C34.9241 87.2053 35.3722 88.629 35.9338 91.0284C36.3195 92.6846 36.3535 97.0806 35.0716 94.9251H32.5361V89.8202C32.5361 88.1007 33.2192 86.4517 34.435 85.2358C35.6509 84.02 37.2999 83.3369 39.0194 83.3369H44.2718L47.193 86.0993Z" fill="#1C1C1C"/>
<path d="M35.1341 94.6441C35.1341 94.6441 34.8788 92.2164 33.1942 92.171C31.3394 92.1199 31.0898 93.901 31.1182 94.5363C31.1806 96.1982 32.5305 98.002 35.0433 98.0701L35.1341 94.6441Z" fill="#FFA8A7"/>
<path d="M33.1083 85.3746C33.1083 85.3746 31.8094 83.6729 32.6432 82.9355C33.477 82.1981 33.8627 85.2044 33.8627 85.2044L33.1083 85.3746Z" fill="#1C1C1C"/>
<path d="M33.2165 85.943C33.2165 85.943 31.0611 85.9146 31.01 84.8085C30.959 83.7024 33.5285 85.2169 33.5285 85.2169L33.2165 85.943Z" fill="#1C1C1C"/>
<path d="M34.8394 103.565C34.8394 103.565 36.8473 107.841 40.5115 107.632C44.1757 107.422 41.4644 103.332 41.4644 103.332L34.8394 103.565Z" fill="#FFA8A7"/>
<path d="M36.234 113.329L41.339 119.863C41.339 119.863 50.3123 121.043 55.474 121.979V126.67C55.474 126.67 41.0383 127.526 38.1115 125.677C35.1847 123.828 30.6696 118.36 30.6696 118.36C30.6696 118.36 31.6282 113.652 36.234 113.329Z" fill="#FFA8A7"/>
<path d="M27.7039 105.103C27.7039 105.103 30.0919 104.411 32.9677 108.46C34.1383 110.019 35.2287 111.635 36.2349 113.304C36.2349 113.304 32.6954 114.087 30.6478 118.336L26.1895 112.76C25.7264 112.184 25.3939 111.514 25.215 110.798C25.036 110.081 25.0148 109.333 25.1529 108.607C25.291 107.881 25.585 107.194 26.0147 106.593C26.4443 105.992 26.9994 105.491 27.6415 105.125L27.7039 105.103Z" fill="#0250A4"/>
<path d="M41.3174 119.839C40.301 120.235 39.4613 120.984 38.9521 121.949C39.0148 121.367 39.1986 120.806 39.4917 120.3C39.7848 119.793 40.1807 119.354 40.6538 119.011L41.3174 119.839Z" fill="#F28F8F"/>
<path d="M53.6703 103.373L58.8546 103.26C58.8546 103.26 56.166 92.8286 55.4513 89.414C55.4513 89.414 52.048 85.4435 53.1824 83.0441C54.3169 80.6448 57.3175 76.0674 58.8546 76.0674C60.3918 76.0674 62.2919 78.1094 61.1859 82.0005C60.0798 85.8916 60.4201 87.2699 60.4201 87.2699C60.4201 87.2699 65.4286 97.7351 66.1717 104.156C66.9148 110.577 62.3997 110.934 54.1751 110.934L53.6703 103.373Z" fill="#FFA8A7"/>
<path d="M133.966 67.842V153.77C133.966 156.101 133.11 157.666 131.799 158.177H131.765L126.207 161.223L126.235 156.271L126.842 65.6129L132.713 62.6123C133.5 64.2458 133.927 66.0292 133.966 67.842Z" fill="#E0E0E0"/>
<path d="M125.911 161.722L125.945 156.294L126.563 65.4427L132.848 62.2266L132.973 62.4932C133.775 64.1645 134.21 65.9884 134.249 67.842V153.77C134.249 156.118 133.37 157.865 131.906 158.443L125.911 161.722ZM127.13 65.7887L126.484 160.763L131.674 157.927C132.939 157.434 133.682 155.88 133.682 153.775V67.842C133.647 66.1694 133.273 64.5214 132.581 62.998L127.13 65.7887Z" fill="#E0E0E0"/>
<path d="M132.718 62.6126L126.842 65.6131L64.0057 29.0561L59.8083 26.617L65.5826 23.3499L65.7471 23.2534C66.6717 22.6862 67.8855 22.7316 69.2185 23.503L128.702 57.848C130.484 59.0032 131.881 60.6616 132.718 62.6126Z" fill="#EBEBEB"/>
<path d="M126.842 65.9365L126.711 65.8628L59.2354 26.6114L65.6279 23.0039C66.6772 22.3686 68.0102 22.4367 69.3829 23.2478L128.867 57.5928C130.692 58.7826 132.121 60.4886 132.973 62.4935L133.093 62.7374L126.842 65.9365ZM60.3811 26.6171L126.842 65.2899L132.333 62.4878C131.528 60.6899 130.222 59.1618 128.572 58.0862L69.0992 23.7413C67.9648 23.0833 66.8644 22.9755 66.0136 23.435L65.7527 23.5938L60.3811 26.6171Z" fill="#E0E0E0"/>
<path d="M122.968 160.871L63.4839 126.526C60.5911 124.824 58.2428 120.371 58.2428 116.52V30.6888C58.2428 26.8317 60.5911 25.0564 63.4839 26.7183L122.968 61.0632C125.861 62.7309 128.209 67.2119 128.209 71.0689V156.911C128.209 160.769 125.861 162.538 122.968 160.871Z" fill="#FAFAFA"/>
<path d="M125.049 161.781C124.262 161.756 123.496 161.527 122.825 161.117L63.3411 126.772C60.3745 125.07 57.9582 120.459 57.9582 116.522V30.6913C57.9582 28.5586 58.6729 26.925 59.9094 26.2103C60.9531 25.609 62.2747 25.7055 63.6247 26.4826L123.109 60.8332C126.075 62.5348 128.492 67.1406 128.492 71.0828V156.914C128.492 159.041 127.777 160.675 126.535 161.395C126.082 161.652 125.569 161.785 125.049 161.781ZM61.4012 26.3861C60.9782 26.3836 60.5619 26.4911 60.193 26.6981C59.138 27.3107 58.5254 28.7684 58.5254 30.6686V116.522C58.5254 120.277 60.7943 124.656 63.6304 126.279L123.114 160.624C124.283 161.299 125.383 161.401 126.257 160.901C127.317 160.289 127.958 158.837 127.958 156.931V71.0828C127.958 67.3221 125.69 62.9432 122.853 61.321L63.3411 26.976C62.7564 26.6148 62.088 26.4116 61.4012 26.3861Z" fill="#E0E0E0"/>
<path d="M133.909 67.7575V153.685C133.909 156.011 133.052 157.582 131.742 158.092H131.708L126.144 161.138L126.178 156.192L126.796 65.5113L132.667 62.5107C133.452 64.1503 133.876 65.9397 133.909 67.7575Z" fill="#E0E0E0"/>
<path d="M125.854 161.639L125.889 156.211L126.507 65.354L132.792 62.1436L132.916 62.4101C133.719 64.0815 134.154 65.9054 134.193 67.759V153.687C134.193 156.035 133.313 157.782 131.844 158.36L125.854 161.639ZM127.074 65.683L126.427 160.658L131.617 157.822C132.882 157.328 133.625 155.774 133.625 153.67V67.759C133.591 66.0864 133.216 64.4384 132.525 62.915L127.074 65.683Z" fill="#E0E0E0"/>
<path d="M132.661 62.5278L126.79 65.5283L63.9484 28.9712L59.751 26.5322L65.548 23.265L65.7125 23.1629C66.637 22.5957 67.8509 22.6468 69.1839 23.4182L128.668 57.7404C130.245 58.6764 131.702 60.4574 132.661 62.5278Z" fill="#EBEBEB"/>
<path d="M126.779 65.8516L126.648 65.7722L59.178 26.5435L65.5819 22.919C66.6369 22.2837 67.9699 22.3517 69.3426 23.1629L128.827 57.5078C130.65 58.6992 132.079 60.4047 132.933 62.4086L133.052 62.6525L126.779 65.8516ZM60.3181 26.5435L126.796 65.2163L132.287 62.4086C131.48 60.6132 130.175 59.0874 128.526 58.0126L69.0419 23.6563C67.9075 22.9927 66.8071 22.8906 65.9563 23.35L65.6954 23.5089L60.3181 26.5435Z" fill="#E0E0E0"/>
<path d="M128.147 70.9906V156.827C128.147 158.847 127.506 160.293 126.479 160.974L126.139 161.155C125.248 161.581 124.131 161.49 122.911 160.787L94.1589 144.184L80.7272 136.43L63.4271 126.442C60.5343 124.74 58.186 120.287 58.186 116.43V30.6048C58.186 28.6535 58.7532 27.2412 59.7515 26.5322C59.914 26.407 60.0936 26.3058 60.2847 26.2315C61.1582 25.8572 62.2473 25.9649 63.4271 26.6456L122.911 60.9905C124.614 62.0988 125.961 63.6742 126.791 65.5283C127.645 67.2249 128.108 69.0914 128.147 70.9906Z" fill="#FAFAFA"/>
<path d="M125.032 161.779C124.25 161.756 123.489 161.527 122.825 161.115L63.3411 126.77C60.3745 125.069 57.9582 120.457 57.9582 116.521V30.6895C57.9582 28.7099 58.5538 27.1841 59.6598 26.3843C59.8455 26.2481 60.0475 26.1357 60.2611 26.0496C61.2424 25.6299 62.4222 25.7774 63.6644 26.4864L123.148 60.8314C124.893 61.9716 126.271 63.5904 127.119 65.4939C127.99 67.2282 128.462 69.135 128.503 71.0753V156.912C128.503 158.977 127.868 160.531 126.705 161.297L126.347 161.49C125.937 161.687 125.487 161.786 125.032 161.779ZM61.4069 26.3843C61.0777 26.3842 60.7518 26.4497 60.4483 26.5772C60.2804 26.6451 60.1221 26.7347 59.9775 26.8438C59.0416 27.5301 58.5254 28.8971 58.5254 30.6895V116.521C58.5254 120.276 60.7943 124.655 63.6304 126.277L123.114 160.622C124.215 161.263 125.241 161.387 126.081 160.985L126.404 160.809C127.363 160.174 127.924 158.75 127.924 156.912V71.0753C127.884 69.2195 127.431 67.3961 126.597 65.7378C125.793 63.9344 124.485 62.4019 122.831 61.3248L63.3411 26.9799C62.76 26.6145 62.0928 26.409 61.4069 26.3843Z" fill="#E0E0E0"/>
<path d="M55.4517 121.954C56.2983 121.27 56.9595 120.384 57.3746 119.378C57.9134 117.858 58.2651 117.722 58.821 117.49V119.594C59.2078 120.094 59.6914 120.511 60.243 120.82C60.7947 121.129 61.4029 121.323 62.0314 121.392C64.1358 121.602 67.4994 121.426 67.42 122.611C67.3406 123.797 65.2986 126.939 63.0184 126.939C60.7382 126.939 55.4517 126.627 55.4517 126.627V121.954Z" fill="#FFA8A7"/>
<path d="M122.968 61.0757L63.4838 26.7307C60.591 25.0291 58.2427 26.8328 58.2427 30.7012V40.5311L128.209 80.9226V71.0814C128.209 67.2243 125.861 62.7433 122.968 61.0757Z" fill="white"/>
<path d="M128.492 81.4175L57.9582 40.7254V30.6913C57.9582 28.5586 58.6729 26.925 59.9094 26.2103C60.9531 25.609 62.2747 25.7055 63.6247 26.4826L123.109 60.8332C126.075 62.5348 128.492 67.1406 128.492 71.0828V81.4175ZM58.5254 40.368L127.924 80.4305V71.0828C127.924 67.3221 125.655 62.9432 122.819 61.321L63.3411 26.976C62.1726 26.3011 61.0722 26.2046 60.193 26.6981C59.138 27.3107 58.5254 28.7684 58.5254 30.6686V40.368Z" fill="#E0E0E0"/>
<path d="M69.9104 40.2807C69.9104 42.4361 68.4016 43.3096 66.5355 42.2319C65.548 41.5937 64.7252 40.7315 64.1338 39.7153C63.5424 38.6991 63.1993 37.5577 63.1322 36.3839C63.1322 34.2341 64.6467 33.3606 66.5355 34.4383C67.5182 35.0778 68.3361 35.9402 68.9225 36.9554C69.509 37.9706 69.8475 39.1099 69.9104 40.2807Z" fill="#0250A4"/>
<path d="M97.7773 56.0398C97.6774 56.0387 97.5796 56.0113 97.4937 55.9603L73.5231 42.1089C73.4581 42.0719 73.4011 42.0223 73.3553 41.9631C73.3095 41.9039 73.2759 41.8363 73.2564 41.7641C73.2369 41.6918 73.2319 41.6165 73.2417 41.5423C73.2514 41.4681 73.2757 41.3966 73.3132 41.3318C73.3508 41.2673 73.4007 41.2108 73.4601 41.1656C73.5195 41.1204 73.5872 41.0874 73.6594 41.0684C73.7316 41.0495 73.8068 41.0449 73.8807 41.0551C73.9547 41.0652 74.0259 41.0899 74.0903 41.1276L98.0722 54.9734C98.1815 55.0353 98.2671 55.1317 98.3157 55.2476C98.3642 55.3634 98.373 55.4921 98.3406 55.6134C98.3081 55.7347 98.2363 55.8419 98.1364 55.918C98.0365 55.9941 97.9142 56.035 97.7886 56.0341L97.7773 56.0398Z" fill="#0250A4"/>
<path d="M113.155 92.1139L114.856 93.0952V92.4826C114.856 92.4429 114.856 92.3975 114.856 92.3521C114.856 92.3067 114.856 92.2727 114.856 92.233C114.919 91.4275 115.531 91.0986 116.28 91.5467C116.62 91.7484 116.913 92.0189 117.142 92.3408C117.312 91.2404 118.209 90.849 119.286 91.4729C119.92 91.8847 120.448 92.4405 120.827 93.095C121.205 93.7496 121.424 94.4842 121.464 95.2392V96.5438C121.462 96.6478 121.488 96.7504 121.54 96.8404C121.592 96.9304 121.668 97.0044 121.759 97.0543L122.769 97.6499C122.989 97.7786 123.171 97.9626 123.297 98.1835C123.423 98.4045 123.49 98.6546 123.489 98.9091C123.49 99.0148 123.462 99.1186 123.409 99.2101C123.357 99.3017 123.281 99.3778 123.189 99.4307C123.098 99.4836 122.994 99.5115 122.888 99.5115C122.783 99.5116 122.679 99.4838 122.588 99.431L113.177 93.997C112.928 93.8519 112.721 93.6441 112.577 93.3944C112.433 93.1447 112.356 92.8617 112.355 92.5733C112.355 92.4799 112.38 92.3883 112.427 92.3075C112.474 92.2268 112.542 92.1598 112.623 92.1133C112.704 92.0668 112.795 92.0423 112.889 92.0424C112.982 92.0425 113.074 92.0672 113.155 92.1139Z" fill="#E6E6E6"/>
<path d="M67.4025 58.5505L69.5466 59.77V59.0156C69.5438 58.9608 69.5438 58.9059 69.5466 58.8511C69.5438 58.8001 69.5438 58.749 69.5466 58.6979C69.6203 57.694 70.3804 57.3083 71.3106 57.8471C71.7312 58.1034 72.0912 58.4478 72.3656 58.8568C72.5755 57.4954 73.6873 57.002 75.0316 57.7791C75.8202 58.2917 76.4767 58.9831 76.9479 59.7972C77.419 60.6113 77.6914 61.5251 77.7429 62.4643V64.0922C77.7429 64.2205 77.7763 64.3466 77.84 64.458C77.9037 64.5694 77.9953 64.6623 78.1059 64.7275L79.3651 65.4648C79.638 65.625 79.8642 65.8538 80.0214 66.1284C80.1787 66.403 80.2613 66.7139 80.2613 67.0304C80.2622 67.1633 80.2276 67.2941 80.1612 67.4093C80.0948 67.5245 79.9989 67.6199 79.8834 67.6857C79.7678 67.7516 79.6369 67.7855 79.5039 67.7839C79.371 67.7824 79.2408 67.7455 79.1269 67.677L67.4252 60.9158C67.1138 60.7373 66.8553 60.4795 66.6759 60.1687C66.4966 59.8578 66.4028 59.5049 66.4042 59.146C66.4001 59.0274 66.428 58.9098 66.4848 58.8056C66.5417 58.7013 66.6255 58.6142 66.7274 58.5534C66.8294 58.4926 66.9458 58.4602 67.0646 58.4597C67.1833 58.4592 67.3 58.4905 67.4025 58.5505Z" fill="#E6E6E6"/>
<path d="M54.8618 83.7071C54.8618 83.7071 55.0944 83.3384 57.3122 81.926C58.4977 81.1773 59.133 79.3565 60.0405 79.5551C60.948 79.7536 60.897 82.9073 58.4693 84.1325C58.4693 84.1325 58.9685 87.2692 56.8584 88.4887L54.8618 83.7071Z" fill="#FFA8A7"/>
<path d="M56.9662 88.6715L56.7564 88.3028C58.7133 87.1684 58.2652 84.1961 58.2595 84.1678C58.2501 84.1227 58.2561 84.0758 58.2767 84.0346C58.2973 83.9934 58.3312 83.9604 58.3729 83.9409C59.0091 83.6167 59.536 83.1127 59.8879 82.4914C60.2399 81.8702 60.4015 81.1592 60.3525 80.4469C60.3072 80.0668 60.1653 79.8002 59.9952 79.7662C59.6095 79.6811 59.2124 80.1746 58.7587 80.7532C58.3934 81.2765 57.9428 81.7347 57.4257 82.1088C55.3554 83.4304 55.0491 83.8104 55.0377 83.8104L54.686 83.5779C54.7257 83.5098 55.0491 83.1014 57.1988 81.7344C57.6733 81.3845 58.0872 80.9592 58.424 80.4752C58.9458 79.8116 59.4336 79.1876 60.0859 79.3408C60.449 79.4202 60.6985 79.8002 60.7723 80.3788C60.8365 81.1544 60.6746 81.932 60.3061 82.6175C59.9377 83.303 59.3785 83.8671 58.6963 84.2415C58.7757 84.9165 58.9288 87.5427 56.9662 88.6715Z" fill="#F28F8F"/>
<path d="M25.0428 202.131C25.0428 202.131 25.61 203.583 26.648 203.498C26.648 203.498 26.285 201.115 28.5482 201.115C30.8114 201.115 30.9135 201.223 30.9135 203.503C30.9135 203.503 31.3502 206.674 33.0292 208.455C34.7081 210.236 37.1812 214.053 32.2748 214.802C27.3684 215.551 26.0354 210.514 25.7915 209.731C25.5022 208.699 23.4035 207.967 24.4188 205.284C24.7081 204.524 24.5777 203.412 24.5266 202.579C24.5039 202.347 24.5386 202.112 24.6276 201.897C24.7166 201.681 24.8572 201.491 25.0371 201.342L25.0428 202.131Z" fill="#424242"/>
<path d="M32.4967 214.291C27.4541 215.057 26.0644 209.884 25.8375 209.084C25.6107 208.285 24.3628 207.672 24.1699 206.248C23.9374 208.154 25.5426 208.829 25.7922 209.72C26.0191 210.502 27.369 215.539 32.2755 214.791C34.0168 214.524 34.8223 213.877 35.0775 213.089C34.6521 213.639 33.8466 214.07 32.4967 214.291Z" fill="#292929"/>
<path d="M27.8399 205.438C27.8102 205.438 27.7807 205.432 27.7534 205.421C27.726 205.409 27.7014 205.392 27.6811 205.37C27.661 205.35 27.6451 205.327 27.6342 205.301C27.6233 205.275 27.6177 205.248 27.6177 205.22C27.6177 205.192 27.6233 205.164 27.6342 205.138C27.6451 205.112 27.661 205.089 27.6811 205.069C27.7548 205.001 29.4905 203.458 31.2092 204.36C31.2346 204.373 31.2571 204.39 31.2755 204.412C31.294 204.433 31.3078 204.458 31.3163 204.486C31.3248 204.513 31.3277 204.541 31.3249 204.569C31.3221 204.597 31.3136 204.625 31.2999 204.65C31.2724 204.699 31.2267 204.735 31.1726 204.751C31.1186 204.767 31.0604 204.761 31.0106 204.735C29.5529 203.969 27.9817 205.37 27.9647 205.387C27.9296 205.417 27.8859 205.435 27.8399 205.438Z" fill="white"/>
<path d="M28.5201 206.974C28.4904 206.974 28.461 206.968 28.4337 206.956C28.4065 206.945 28.3818 206.927 28.3613 206.906C28.3412 206.886 28.3252 206.863 28.3144 206.837C28.3035 206.811 28.2979 206.784 28.2979 206.756C28.2979 206.728 28.3035 206.7 28.3144 206.674C28.3252 206.648 28.3412 206.625 28.3613 206.605C28.435 206.537 30.1707 204.995 31.8893 205.896C31.9147 205.909 31.9373 205.927 31.9557 205.948C31.9741 205.97 31.988 205.995 31.9965 206.022C32.005 206.049 32.0079 206.077 32.0051 206.105C32.0023 206.133 31.9938 206.161 31.9801 206.186C31.9526 206.235 31.9069 206.271 31.8528 206.287C31.7987 206.303 31.7406 206.297 31.6908 206.271C30.2387 205.505 28.6619 206.906 28.6449 206.923C28.6098 206.953 28.5661 206.971 28.5201 206.974Z" fill="white"/>
<path d="M29.0986 208.416C29.0689 208.416 29.0395 208.41 29.0123 208.398C28.985 208.386 28.9603 208.369 28.9398 208.348C28.9019 208.307 28.8809 208.253 28.8809 208.197C28.8809 208.142 28.9019 208.088 28.9398 208.047C29.0135 207.979 30.7549 206.431 32.4735 207.338C32.4982 207.351 32.5202 207.368 32.5379 207.389C32.5557 207.411 32.569 207.435 32.577 207.462C32.5849 207.488 32.5874 207.516 32.5842 207.544C32.5811 207.571 32.5724 207.598 32.5586 207.622C32.5466 207.647 32.5296 207.669 32.5086 207.688C32.4876 207.706 32.463 207.72 32.4365 207.729C32.4099 207.737 32.3818 207.74 32.3541 207.737C32.3263 207.734 32.2994 207.726 32.275 207.712C30.8173 206.947 29.2404 208.348 29.2234 208.359C29.1898 208.392 29.1456 208.412 29.0986 208.416Z" fill="white"/>
<path d="M41.8274 197.412C41.8274 197.412 42.7803 197.979 43.2114 198.302C43.6425 198.626 45.0945 198.694 45.4802 198.268C45.8659 197.843 45.2533 196.669 47.2386 195.999C49.2239 195.33 48.6566 198.087 48.6566 198.087C48.6566 198.087 49.377 199.839 51.8784 200.866C54.3799 201.893 58.1178 202.159 56.4162 205.483C55.6731 206.935 50.8972 208.143 47.7604 205.858C46.7523 205.19 45.5658 204.844 44.3571 204.865C43.0412 204.865 40.2221 204.218 40.466 202.12C40.7099 200.021 41.1921 199.544 41.1921 198.784C41.1921 198.024 41.0616 197.179 41.7933 196.895L41.8274 197.412Z" fill="#424242"/>
<path d="M47.7209 205.262C46.6367 204.547 45.3607 204.179 44.0624 204.207C42.8143 204.217 41.5971 203.819 40.5967 203.072C41.1639 204.411 43.2683 204.853 44.3573 204.853C45.566 204.833 46.7525 205.179 47.7606 205.846C50.8917 208.115 55.6733 206.924 56.4163 205.477C54.8452 206.697 50.6251 207.383 47.7209 205.262Z" fill="#292929"/>
<path d="M46.2964 200.752C46.2721 200.758 46.2469 200.758 46.2226 200.752C46.1964 200.743 46.1723 200.728 46.1518 200.709C46.1313 200.69 46.1147 200.668 46.1031 200.642C46.0915 200.617 46.0851 200.59 46.0842 200.562C46.0833 200.534 46.0879 200.506 46.0978 200.48C46.1319 200.389 46.943 198.211 48.8829 198.211C48.94 198.211 48.9949 198.234 49.0353 198.274C49.0757 198.315 49.0984 198.37 49.0984 198.427C49.0984 198.482 49.0763 198.536 49.037 198.575C48.9976 198.614 48.9442 198.637 48.8886 198.637C47.2436 198.637 46.5006 200.622 46.4949 200.639C46.4758 200.674 46.447 200.704 46.4119 200.724C46.3768 200.744 46.3368 200.754 46.2964 200.752Z" fill="white"/>
<path d="M47.9076 201.74C47.8833 201.745 47.8582 201.745 47.8339 201.74C47.8077 201.731 47.7836 201.716 47.7631 201.697C47.7426 201.678 47.726 201.656 47.7144 201.63C47.7028 201.605 47.6963 201.577 47.6954 201.55C47.6945 201.522 47.6992 201.494 47.7091 201.468C47.7091 201.394 48.4238 199.551 50.0687 199.545C50.0968 199.544 50.1247 199.549 50.1508 199.559C50.1769 199.57 50.2007 199.585 50.2208 199.604C50.2409 199.624 50.2569 199.647 50.2678 199.673C50.2787 199.699 50.2843 199.727 50.2843 199.755C50.2843 199.812 50.2616 199.867 50.2212 199.907C50.1807 199.948 50.1259 199.97 50.0687 199.97C48.7244 199.97 48.1118 201.598 48.1062 201.615C48.0887 201.653 48.0606 201.685 48.0254 201.707C47.9901 201.729 47.9492 201.741 47.9076 201.74Z" fill="white"/>
<path d="M49.7003 202.845H49.6323C49.5792 202.826 49.5358 202.787 49.5114 202.736C49.487 202.685 49.4836 202.626 49.5018 202.573C49.5302 202.494 50.2222 200.65 51.8671 200.645C51.9175 200.653 51.9634 200.679 51.9965 200.718C52.0296 200.757 52.0478 200.806 52.0478 200.857C52.0478 200.908 52.0296 200.958 51.9965 200.997C51.9634 201.036 51.9175 201.062 51.8671 201.07C50.5171 201.07 49.9102 202.698 49.9045 202.715C49.8869 202.754 49.8581 202.787 49.8219 202.811C49.7856 202.834 49.7434 202.846 49.7003 202.845Z" fill="white"/>
<path d="M105.348 121.616C105.439 121.634 105.533 121.634 105.624 121.616C105.697 121.581 105.762 121.531 105.815 121.47C105.869 121.409 105.91 121.338 105.935 121.261C105.961 121.184 105.971 121.103 105.965 121.022C105.958 120.941 105.936 120.862 105.899 120.79L98.6538 106.068C98.5446 105.896 98.4004 105.749 98.2306 105.637C98.0608 105.524 97.8693 105.449 97.6684 105.416C97.4775 105.395 97.2844 105.413 97.1003 105.467C96.9162 105.522 96.7449 105.613 96.5962 105.734L90.4232 109.792L89.6117 109.951L90.1913 109.719L82.8447 91.838C82.7474 91.6547 82.6091 91.4964 82.4405 91.3754C82.272 91.2543 82.0778 91.1738 81.873 91.1402C81.6682 91.1065 81.4585 91.1206 81.2601 91.1813C81.0616 91.242 80.8799 91.3478 80.7291 91.4902L71.5711 100.938C71.4558 101.057 71.3925 101.217 71.3953 101.383C71.398 101.549 71.4664 101.707 71.5856 101.822C71.7047 101.937 71.8647 102 72.0305 101.998C72.1963 101.995 72.3542 101.927 72.4695 101.807L81.613 92.3886L89.0321 110.197C89.113 110.388 89.2337 110.559 89.3861 110.699C89.5386 110.839 89.7193 110.945 89.916 111.009C90.115 111.067 90.324 111.081 90.529 111.051C90.734 111.021 90.9301 110.947 91.1043 110.835L97.4946 106.662L104.74 121.341C104.805 121.44 104.896 121.518 105.004 121.567C105.112 121.615 105.231 121.633 105.348 121.616Z" fill="#FFA500"/>
<path d="M72.2971 78.7382V111.69L105.248 130.73V97.7787L72.3116 78.7382M71.3697 76.8254C71.4635 76.8274 71.5544 76.8577 71.6305 76.9124L72.8767 77.6369L105.872 96.7354C106.037 96.8384 106.172 96.9834 106.263 97.1556C106.373 97.3239 106.433 97.5198 106.437 97.7207V132.237C106.437 132.498 106.306 132.643 106.118 132.643C106.032 132.637 105.947 132.612 105.872 132.57L71.5581 112.747C71.3896 112.638 71.2492 112.491 71.1485 112.317C71.0478 112.143 70.9895 111.948 70.9785 111.748V77.2457C70.9785 76.9848 71.1089 76.8254 71.2973 76.8254H71.3697Z" fill="#FFA500"/>
<path d="M94.9153 102.139C95.2349 102.145 95.5501 102.065 95.8281 101.908C96.1599 101.686 96.4263 101.38 96.5996 101.021C96.7728 100.661 96.8466 100.262 96.8132 99.8647C96.7715 98.9577 96.513 98.0739 96.0593 97.2874C95.6055 96.5009 94.9698 95.8347 94.2054 95.3446C93.8893 95.0934 93.5051 94.9431 93.1025 94.9131C92.6999 94.883 92.2975 94.9747 91.9477 95.1762C91.5978 95.3776 91.3166 95.6796 91.1405 96.0429C90.9644 96.4062 90.9016 96.8141 90.9602 97.2135C91.0089 98.1209 91.2703 99.0041 91.7233 99.7918C92.1763 100.58 92.8082 101.25 93.568 101.748C93.9763 101.992 94.4402 102.126 94.9153 102.139ZM92.8581 96.1849C93.11 96.2037 93.3535 96.2832 93.568 96.4167C94.1457 96.7971 94.627 97.3067 94.974 97.9051C95.321 98.5035 95.5241 99.1744 95.5673 99.8647C95.6201 100.039 95.6126 100.226 95.5461 100.396C95.4795 100.566 95.3578 100.708 95.2005 100.8C95.0432 100.892 94.8595 100.928 94.6789 100.903C94.4984 100.878 94.3316 100.793 94.2054 100.662C93.6277 100.281 93.1464 99.7716 92.7994 99.1731C92.4524 98.5747 92.2493 97.9039 92.2061 97.2135C92.1807 97.0365 92.2006 96.8559 92.264 96.6887C92.3273 96.5215 92.432 96.3731 92.5683 96.2573C92.6494 96.2156 92.7381 96.1909 92.8291 96.1849H92.8581Z" fill="#FFA500"/>
<path d="M218.974 108.018C218.831 107.926 218.713 107.802 218.628 107.655C218.543 107.508 218.495 107.343 218.486 107.173V103.685C218.486 103.373 218.702 103.248 218.974 103.407C219.116 103.5 219.234 103.625 219.319 103.771C219.403 103.918 219.452 104.083 219.462 104.252V107.746C219.462 108.052 219.241 108.177 218.974 108.018Z" fill="#FFA500"/>
<path d="M220.483 107.15L217.46 105.386C217.317 105.293 217.199 105.167 217.114 105.019C217.029 104.871 216.981 104.706 216.972 104.535C216.972 104.223 217.188 104.099 217.46 104.257L220.483 106.004C220.626 106.096 220.746 106.221 220.832 106.367C220.918 106.514 220.967 106.68 220.977 106.85C220.999 107.179 220.755 107.303 220.483 107.15Z" fill="#FFA500"/>
<path d="M222.973 98.5797C222.832 98.4868 222.714 98.362 222.629 98.2152C222.544 98.0684 222.495 97.9038 222.485 97.7346V94.2405C222.485 93.9286 222.707 93.8038 222.973 93.9569C223.117 94.0501 223.236 94.1757 223.322 94.3235C223.407 94.4713 223.457 94.6372 223.467 94.8078V98.3018C223.467 98.6194 223.268 98.7499 222.973 98.5797Z" fill="#FFA500"/>
<path d="M224.487 97.7172L221.464 95.9702C221.321 95.8783 221.203 95.7537 221.118 95.6067C221.033 95.4597 220.985 95.2946 220.976 95.1251C220.976 94.8131 221.192 94.6883 221.464 94.8415L224.487 96.5885C224.63 96.6831 224.747 96.8101 224.831 96.9589C224.915 97.1078 224.962 97.2743 224.97 97.445C224.97 97.7513 224.76 97.8761 224.487 97.7172Z" fill="#FFA500"/>
<path d="M204.227 141.064C204.085 140.969 203.968 140.843 203.883 140.696C203.798 140.548 203.749 140.383 203.739 140.213V136.719C203.739 136.407 203.96 136.282 204.227 136.441C204.37 136.533 204.488 136.658 204.573 136.805C204.658 136.952 204.707 137.117 204.715 137.286V140.78C204.715 141.121 204.499 141.217 204.227 141.064Z" fill="#FFA500"/>
<path d="M205.741 140.191L202.712 138.444C202.571 138.349 202.453 138.223 202.368 138.076C202.284 137.928 202.235 137.763 202.225 137.593C202.225 137.281 202.446 137.156 202.712 137.315L205.741 139.062C205.884 139.154 206.003 139.279 206.088 139.426C206.172 139.573 206.221 139.738 206.229 139.907C206.252 140.219 206.014 140.344 205.741 140.191Z" fill="#FFA500"/>
<path d="M143.597 101.831C143.456 101.738 143.338 101.613 143.253 101.466C143.169 101.32 143.119 101.155 143.109 100.986V97.4921C143.109 97.1801 143.331 97.0496 143.597 97.2084C143.74 97.3003 143.859 97.4249 143.943 97.5719C144.028 97.7189 144.077 97.8841 144.085 98.0536V101.548C144.085 101.86 143.858 101.984 143.597 101.831Z" fill="#FFA500"/>
<path d="M145.111 100.958L142.082 99.2112C141.941 99.118 141.823 98.9931 141.738 98.8463C141.653 98.6996 141.604 98.5352 141.594 98.3661C141.594 98.0541 141.815 97.9236 142.082 98.0825L145.111 99.8295C145.254 99.9214 145.372 100.046 145.457 100.193C145.542 100.34 145.591 100.505 145.599 100.675C145.599 100.987 145.383 101.111 145.111 100.958Z" fill="#FFA500"/>
<path d="M202.197 188.893C201.796 188.885 201.405 188.772 201.062 188.564C200.437 188.163 199.917 187.619 199.545 186.977C199.173 186.335 198.96 185.613 198.924 184.871C198.886 184.542 198.945 184.208 199.095 183.912C199.244 183.615 199.477 183.369 199.764 183.203C200.052 183.037 200.382 182.959 200.713 182.978C201.044 182.998 201.363 183.113 201.629 183.312C202.253 183.713 202.771 184.258 203.142 184.9C203.513 185.542 203.725 186.263 203.762 187.004C203.789 187.336 203.727 187.669 203.581 187.968C203.436 188.268 203.212 188.523 202.934 188.706C202.708 188.83 202.454 188.894 202.197 188.893ZM200.54 184.117C200.471 184.115 200.403 184.131 200.342 184.162C200.244 184.25 200.168 184.361 200.123 184.484C200.078 184.608 200.063 184.741 200.081 184.871C200.115 185.414 200.275 185.941 200.547 186.412C200.82 186.883 201.198 187.283 201.652 187.583C201.727 187.715 201.852 187.812 201.999 187.853C202.146 187.893 202.302 187.873 202.435 187.798C202.567 187.723 202.664 187.598 202.705 187.451C202.745 187.305 202.726 187.148 202.65 187.015C202.616 186.473 202.457 185.947 202.185 185.476C201.914 185.006 201.537 184.605 201.085 184.304C200.921 184.198 200.734 184.134 200.54 184.117Z" fill="#FFA500"/>
<path d="M213.433 150.452C213.032 150.444 212.641 150.331 212.299 150.123C211.674 149.722 211.155 149.178 210.784 148.535C210.413 147.893 210.201 147.171 210.166 146.43C210.129 146.101 210.189 145.769 210.338 145.474C210.487 145.178 210.719 144.933 211.006 144.767C211.292 144.602 211.621 144.523 211.951 144.542C212.281 144.56 212.599 144.674 212.866 144.87C213.491 145.271 214.011 145.815 214.383 146.457C214.755 147.1 214.968 147.822 215.004 148.563C215.03 148.895 214.967 149.227 214.822 149.527C214.676 149.826 214.453 150.081 214.176 150.265C213.948 150.389 213.693 150.454 213.433 150.452ZM211.777 145.659C211.708 145.657 211.64 145.673 211.578 145.704C211.48 145.792 211.405 145.903 211.359 146.026C211.314 146.15 211.3 146.283 211.317 146.413C211.352 146.955 211.511 147.482 211.782 147.952C212.054 148.423 212.431 148.824 212.883 149.125C212.987 149.204 213.109 149.258 213.238 149.281C213.368 149.303 213.501 149.295 213.626 149.255C213.724 149.167 213.799 149.057 213.845 148.933C213.89 148.809 213.905 148.676 213.887 148.546C213.851 148.004 213.691 147.477 213.419 147.006C213.146 146.536 212.769 146.135 212.316 145.835C212.154 145.731 211.968 145.671 211.777 145.659Z" fill="#FFA500"/>
<path d="M178.651 111.541C178.25 111.533 177.859 111.42 177.517 111.212C176.892 110.811 176.373 110.267 176.002 109.624C175.631 108.982 175.419 108.26 175.384 107.519C175.347 107.19 175.407 106.858 175.556 106.562C175.705 106.267 175.937 106.022 176.224 105.856C176.51 105.691 176.839 105.612 177.169 105.631C177.5 105.649 177.817 105.763 178.084 105.959C178.708 106.36 179.227 106.904 179.598 107.547C179.969 108.189 180.181 108.911 180.217 109.652C180.244 109.983 180.182 110.316 180.038 110.615C179.893 110.914 179.671 111.169 179.394 111.353C179.166 111.477 178.911 111.542 178.651 111.541ZM176.995 106.765C176.928 106.764 176.861 106.779 176.802 106.81C176.704 106.898 176.629 107.008 176.583 107.132C176.538 107.256 176.523 107.389 176.541 107.519C176.575 108.061 176.734 108.588 177.006 109.058C177.278 109.529 177.654 109.93 178.107 110.23C178.182 110.363 178.306 110.46 178.453 110.5C178.6 110.541 178.757 110.521 178.889 110.446C179.022 110.371 179.119 110.246 179.159 110.099C179.2 109.952 179.18 109.796 179.105 109.663C179.072 109.121 178.913 108.594 178.642 108.123C178.37 107.653 177.993 107.252 177.539 106.952C177.376 106.845 177.189 106.781 176.995 106.765Z" fill="#FFA500"/>
<path d="M200.171 158.903C200.171 153.004 196.03 145.857 190.925 142.891C188.339 141.399 186.002 141.28 184.323 142.29L180.857 144.326L181.901 146.073C181.752 146.784 181.68 147.508 181.685 148.234C181.685 154.127 185.82 161.28 190.925 164.241C191.702 164.701 192.538 165.052 193.409 165.284L194.272 166.731L197.272 164.99C197.406 164.923 197.535 164.847 197.658 164.763C199.218 163.742 200.171 161.722 200.171 158.903Z" fill="#FFA500"/>
<path opacity="0.3" d="M200.171 158.903C200.171 153.004 196.03 145.857 190.925 142.891C188.339 141.399 186.002 141.28 184.323 142.29L180.857 144.326L181.901 146.073C181.752 146.784 181.68 147.508 181.685 148.234C181.685 154.127 185.82 161.28 190.925 164.241C191.702 164.701 192.538 165.052 193.409 165.284L194.272 166.731L197.272 164.99C197.406 164.923 197.535 164.847 197.658 164.763C199.218 163.742 200.171 161.722 200.171 158.903Z" fill="#08005D"/>
<path d="M197.022 160.718C197.022 166.611 192.887 168.999 187.782 166.05C182.677 163.1 178.537 155.936 178.537 150.043C178.537 144.149 182.677 141.761 187.782 144.705C192.887 147.649 197.022 154.824 197.022 160.718Z" fill="#FFA500"/>
<path d="M190.42 152.391C188.962 151.551 187.782 152.476 187.782 154.456C187.782 152.476 186.603 150.19 185.145 149.351C183.687 148.511 182.507 149.436 182.507 151.421C182.507 156.469 187.782 161.671 187.782 161.671C187.782 161.671 193.058 162.555 193.058 157.507C193.058 155.522 191.872 153.23 190.42 152.391Z" fill="white"/>
<path d="M143.596 86.1018C143.596 80.2084 139.461 73.0558 134.356 70.095C131.769 68.6032 129.432 68.4841 127.753 69.488L124.282 71.5243L125.326 73.2657C125.18 73.9787 125.108 74.7047 125.11 75.4325C125.11 81.3258 129.251 88.4784 134.356 91.4393C135.13 91.8989 135.965 92.2501 136.835 92.483L137.702 93.9294L140.703 92.188C140.836 92.12 140.965 92.0443 141.089 91.9612C142.643 90.9231 143.596 88.9039 143.596 86.1018Z" fill="#FFA500"/>
<path opacity="0.3" d="M143.596 86.1018C143.596 80.2084 139.461 73.0558 134.356 70.095C131.769 68.6032 129.432 68.4841 127.753 69.488L124.282 71.5243L125.326 73.2657C125.18 73.9787 125.108 74.7047 125.11 75.4325C125.11 81.3258 129.251 88.4784 134.356 91.4393C135.13 91.8989 135.965 92.2501 136.835 92.483L137.702 93.9294L140.703 92.188C140.836 92.12 140.965 92.0443 141.089 91.9612C142.643 90.9231 143.596 88.9039 143.596 86.1018Z" fill="#08005D"/>
<path d="M137.744 93.8809C141.352 91.7977 141.351 85.0418 137.742 78.7911C134.134 72.5405 128.283 69.1621 124.675 71.2453C121.067 73.3286 121.067 80.0845 124.676 86.3351C128.285 92.5858 134.135 95.9641 137.744 93.8809Z" fill="#FFA500"/>
<path d="M133.846 79.5721C132.388 78.7326 131.208 79.6572 131.208 81.6368C131.208 79.6572 130.029 77.3656 128.571 76.5318C127.113 75.698 125.939 76.6169 125.939 78.6022C125.939 83.6447 131.208 88.8518 131.208 88.8518C131.208 88.8518 136.484 89.7366 136.484 84.6884C136.484 82.6975 135.304 80.4286 133.846 79.5721Z" fill="white"/>
<path d="M177.822 124.105C177.822 119 174.237 112.761 169.808 110.225C167.567 108.927 165.542 108.824 164.084 109.698L161.078 111.462L161.98 112.976C161.855 113.592 161.794 114.22 161.798 114.848C161.798 119.953 165.383 126.193 169.808 128.728C170.479 129.126 171.203 129.43 171.957 129.63L172.712 130.889L175.315 129.375C175.421 129.326 175.523 129.271 175.622 129.21C177 128.32 177.822 126.567 177.822 124.105Z" fill="#FFA500"/>
<path opacity="0.3" d="M177.822 124.105C177.822 119 174.237 112.761 169.808 110.225C167.567 108.927 165.542 108.824 164.084 109.698L161.078 111.462L161.98 112.976C161.855 113.592 161.794 114.22 161.798 114.848C161.798 119.953 165.383 126.193 169.808 128.728C170.479 129.126 171.203 129.43 171.957 129.63L172.712 130.889L175.315 129.375C175.421 129.326 175.523 129.271 175.622 129.21C177 128.32 177.822 126.567 177.822 124.105Z" fill="#08005D"/>
<path d="M172.753 130.882C175.884 129.074 175.885 123.215 172.755 117.794C169.626 112.374 164.551 109.445 161.42 111.253C158.289 113.06 158.288 118.92 161.418 124.34C164.547 129.761 169.622 132.689 172.753 130.882Z" fill="#FFA500"/>
<path d="M169.382 118.477C168.117 117.745 167.113 118.551 167.113 120.269C167.113 118.568 166.087 116.566 164.844 115.834C163.602 115.102 162.575 115.908 162.575 117.626C162.575 122.005 167.147 126.514 167.147 126.514C167.147 126.514 171.719 127.286 171.719 122.907C171.651 121.188 170.63 119.203 169.382 118.477Z" fill="white"/>
<path d="M220.999 86.6687C220.999 81.5637 217.409 75.3244 212.985 72.7889C210.716 71.4956 208.713 71.3879 207.261 72.2614L204.249 74.0254L205.157 75.5399C205.03 76.1576 204.967 76.7868 204.97 77.4174C204.97 82.5223 208.56 88.7617 212.985 91.2972C213.656 91.695 214.38 91.9985 215.134 92.199L215.883 93.4526L218.487 91.9438C218.6 91.8814 218.713 91.819 218.821 91.7509C220.149 90.8547 220.999 89.1077 220.999 86.6687Z" fill="#FFA500"/>
<path opacity="0.3" d="M220.999 86.6687C220.999 81.5637 217.409 75.3244 212.985 72.7889C210.716 71.4956 208.713 71.3879 207.261 72.2614L204.249 74.0254L205.157 75.5399C205.03 76.1576 204.967 76.7868 204.97 77.4174C204.97 82.5223 208.56 88.7617 212.985 91.2972C213.656 91.695 214.38 91.9985 215.134 92.199L215.883 93.4526L218.487 91.9438C218.6 91.8814 218.713 91.819 218.821 91.7509C220.149 90.8547 220.999 89.1077 220.999 86.6687Z" fill="#08005D"/>
<path d="M218.248 88.2339C218.248 93.3389 214.657 95.4149 210.233 92.8567C205.809 90.2986 202.218 84.0876 202.218 78.9769C202.218 73.8663 205.809 71.796 210.233 74.3541C214.657 76.9123 218.248 83.1233 218.248 88.2339Z" fill="#FFA500"/>
<path d="M212.519 80.9953C211.254 80.2693 210.25 81.0691 210.25 82.7877C210.25 81.0861 209.229 79.0838 207.982 78.3578C206.734 77.6317 205.713 78.4315 205.713 80.1502C205.713 84.5234 210.284 89.0328 210.284 89.0328C210.284 89.0328 214.856 89.8042 214.856 85.4253C214.805 83.7236 213.784 81.744 212.519 80.9953Z" fill="white"/>
</svg>
