<svg width="309" height="300" viewBox="0 0 309 300" fill="none" xmlns="http://www.w3.org/2000/svg">
<path d="M88.3522 2.37354H4.45811V141.238H88.3522V2.37354Z" fill="#E0E0E0"/>
<path d="M85.559 2.37354H1.66494V141.238H85.559V2.37354Z" fill="#EBEBEB"/>
<path d="M81.9882 5.1875H5.24244V138.418H81.9882V5.1875Z" fill="#FAFAFA"/>
<path d="M67.038 22.4976H19.8485V121.101H67.038V22.4976Z" fill="#EBEBEB"/>
<path d="M19.8485 86.2127C19.7385 77.0005 28.0219 68.0084 37.1447 66.7218C41.4928 66.1095 46.0886 66.9695 50.1822 65.3045C57.4337 62.3324 59.7453 52.6936 67.045 49.8315L67.3752 121.108H19.8485V86.2127Z" fill="#E0E0E0"/>
<path d="M272.653 41.0138L265.766 41.051L265.951 75.3126L272.838 75.2754L272.653 41.0138Z" fill="#E0E0E0"/>
<path d="M223.951 41.0986L206.118 41.1951L206.221 60.1078L224.053 60.0113L223.951 41.0986Z" fill="#EBEBEB"/>
<path d="M241.701 41.0092L223.868 41.1057L223.97 60.0184L241.803 59.9219L241.701 41.0092Z" fill="#F3F5F6"/>
<path d="M206.144 46.4397C217.991 46.5361 229.873 46.4397 241.72 46.2746C241.764 46.2662 241.804 46.2427 241.832 46.2082C241.861 46.1736 241.876 46.1302 241.876 46.0854C241.876 46.0406 241.861 45.9972 241.832 45.9627C241.804 45.9282 241.764 45.9047 241.72 45.8962C229.868 45.8274 218.009 45.8985 206.144 46.1095C206.1 46.1095 206.058 46.1269 206.027 46.1579C205.996 46.1888 205.979 46.2308 205.979 46.2746C205.979 46.3184 205.996 46.3604 206.027 46.3914C206.058 46.4223 206.1 46.4397 206.144 46.4397Z" fill="#E0E0E0"/>
<path d="M227.402 59.7036L195.005 59.8789L195.088 75.2898L227.486 75.1145L227.402 59.7036Z" fill="#EBEBEB"/>
<path d="M259.64 59.5293L227.243 59.7046L227.326 75.1154L259.724 74.9402L259.64 59.5293Z" fill="#F3F5F6"/>
<path d="M195.019 64.1761C216.539 64.4238 238.135 64.1761 259.656 63.8596C259.7 63.8512 259.74 63.8277 259.768 63.7932C259.797 63.7586 259.812 63.7152 259.812 63.6704C259.812 63.6256 259.797 63.5822 259.768 63.5477C259.74 63.5132 259.7 63.4897 259.656 63.4812C238.135 63.3643 216.539 63.378 195.019 63.8527C194.982 63.8605 194.948 63.8807 194.924 63.9102C194.9 63.9396 194.887 63.9765 194.887 64.0144C194.887 64.0524 194.9 64.0892 194.924 64.1187C194.948 64.1481 194.982 64.1684 195.019 64.1761Z" fill="#E0E0E0"/>
<path d="M308.414 75.301H182.903V80.8256H308.414V75.301Z" fill="#E0E0E0"/>
<path d="M208.552 77.9565H203.454V96.8007H208.552V77.9565Z" fill="#E0E0E0"/>
<path d="M284.609 77.9565H279.511V96.8007H284.609V77.9565Z" fill="#E0E0E0"/>
<path d="M279.374 28.2357L272.487 28.2729L272.742 75.393L279.629 75.3557L279.374 28.2357Z" fill="#EBEBEB"/>
<path d="M290.134 37.0112L279.435 37.0691L279.642 75.2522L290.34 75.1943L290.134 37.0112Z" fill="#F3F5F6"/>
<path d="M290.052 44.3825C286.49 44.6302 282.915 44.6302 279.353 44.3825C282.915 44.1349 286.49 44.1349 290.052 44.3825Z" fill="#E0E0E0"/>
<path d="M290.052 42.7795C286.49 43.0272 282.915 43.0272 279.353 42.7795C282.915 42.5318 286.49 42.5318 290.052 42.7795Z" fill="#E0E0E0"/>
<path d="M290.052 69.4394C286.49 69.6871 282.915 69.6871 279.353 69.4394C282.915 69.1917 286.49 69.1917 290.052 69.4394Z" fill="#E0E0E0"/>
<path d="M290.052 67.8637C286.489 68.1022 282.915 68.1022 279.353 67.8637C282.915 67.6161 286.49 67.6161 290.052 67.8637Z" fill="#E0E0E0"/>
<path d="M284.878 64.3618C284.775 64.3618 284.692 60.509 284.692 55.755C284.692 51.0009 284.775 47.155 284.878 47.155C284.981 47.155 285.064 51.0009 285.064 55.755C285.064 60.509 284.967 64.3618 284.878 64.3618Z" fill="#E0E0E0"/>
<path d="M301.816 46.3984H290.169V75.2185H301.816V46.3984Z" fill="#EBEBEB"/>
<path d="M277.805 36.2986C277.812 36.6919 277.702 37.0783 277.488 37.4086C277.275 37.739 276.968 37.9983 276.606 38.1535C276.245 38.3088 275.845 38.353 275.459 38.2805C275.072 38.2079 274.716 38.022 274.435 37.7463C274.155 37.4706 273.963 37.1176 273.883 36.7324C273.804 36.3471 273.841 35.947 273.99 35.5829C274.139 35.2188 274.393 34.9073 274.72 34.688C275.046 34.4688 275.43 34.3516 275.824 34.3516C276.344 34.3497 276.844 34.5532 277.215 34.9177C277.586 35.2823 277.798 35.7785 277.805 36.2986Z" fill="#E0E0E0"/>
<path d="M276.436 41.7407H275.211V69.7696H276.436V41.7407Z" fill="#E0E0E0"/>
<path d="M100.44 260.427C100.44 260.427 94.1313 265.243 100.172 271.579C100.223 271.633 100.285 271.676 100.354 271.706C100.422 271.735 100.496 271.751 100.571 271.751L155.686 271.428C155.686 271.428 160.392 266.151 156.484 260.069L100.44 260.427Z" fill="#EBEBEB"/>
<path d="M143.502 265.442C143.502 265.504 136.622 265.552 128.18 265.552C119.738 265.552 112.852 265.504 112.852 265.442C112.852 265.38 119.732 265.332 128.18 265.332C136.629 265.332 143.502 265.38 143.502 265.442Z" fill="#E0E0E0"/>
<path d="M134.929 267.437C134.929 267.499 131.71 267.547 127.726 267.547C123.743 267.547 120.523 267.499 120.523 267.437C120.523 267.375 123.749 267.32 127.726 267.32C131.703 267.32 134.929 267.375 134.929 267.437Z" fill="#E0E0E0"/>
<path d="M149.137 271.249C149.137 271.249 149.26 270.616 149.432 269.598C149.653 268.27 149.759 266.926 149.749 265.58C149.735 264.232 149.604 262.887 149.357 261.562C149.164 260.544 148.999 259.924 149.033 259.911C149.101 260.047 149.154 260.19 149.192 260.337C149.32 260.727 149.426 261.125 149.508 261.527C149.803 262.856 149.96 264.212 149.976 265.573C149.984 266.933 149.852 268.291 149.584 269.625C149.48 270.134 149.377 270.547 149.295 270.822C149.212 271.097 149.157 271.256 149.137 271.249Z" fill="#E0E0E0"/>
<path d="M153.251 260.014C153.352 260.135 153.435 260.269 153.498 260.413C153.589 260.574 153.672 260.739 153.746 260.908C153.85 261.132 153.942 261.362 154.021 261.596C154.247 262.189 154.424 262.798 154.551 263.419C154.695 264.184 154.776 264.96 154.792 265.738C154.79 266.518 154.721 267.296 154.585 268.063C154.471 268.688 154.305 269.303 154.09 269.9C154.007 270.162 153.904 270.382 153.822 270.588C153.752 270.759 153.672 270.924 153.581 271.084C153.52 271.228 153.442 271.365 153.347 271.49C153.306 271.49 153.615 270.877 153.946 269.859C154.371 268.525 154.58 267.131 154.565 265.731C154.555 264.965 154.482 264.201 154.345 263.447C154.231 262.831 154.075 262.225 153.877 261.631C153.56 260.606 153.216 260.014 153.251 260.014Z" fill="#E0E0E0"/>
<path d="M109.136 271.324C109.035 271.212 108.947 271.087 108.875 270.953C108.781 270.807 108.696 270.655 108.62 270.499C108.511 270.293 108.413 270.082 108.325 269.866C108.091 269.304 107.912 268.721 107.788 268.125C107.643 267.393 107.572 266.649 107.575 265.903C107.591 265.157 107.683 264.415 107.85 263.688C107.989 263.097 108.185 262.521 108.435 261.968C108.525 261.753 108.629 261.544 108.744 261.342C108.821 261.183 108.911 261.031 109.013 260.888C109.171 260.647 109.267 260.516 109.281 260.53C109.295 260.544 108.964 261.08 108.593 262.03C108.368 262.582 108.191 263.153 108.063 263.736C107.914 264.452 107.829 265.179 107.809 265.91C107.81 266.639 107.874 267.366 108.001 268.084C108.118 268.669 108.279 269.244 108.483 269.804C108.841 270.76 109.171 271.304 109.136 271.324Z" fill="#E0E0E0"/>
<path d="M103.185 272.666C103.071 272.543 102.976 272.404 102.903 272.253C102.804 272.079 102.719 271.897 102.649 271.71C102.524 271.487 102.411 271.257 102.312 271.022C102.046 270.393 101.836 269.741 101.685 269.075C101.301 267.44 101.263 265.744 101.575 264.094C101.697 263.421 101.879 262.76 102.119 262.119C102.208 261.844 102.325 261.61 102.415 261.397C102.494 261.215 102.584 261.038 102.683 260.867C102.756 260.714 102.843 260.569 102.944 260.434C102.986 260.434 102.635 261.087 102.256 262.174C102.043 262.812 101.88 263.465 101.768 264.128C101.639 264.94 101.579 265.762 101.589 266.584C101.625 268.083 101.916 269.565 102.449 270.967C102.841 272.033 103.22 272.646 103.185 272.666Z" fill="#E0E0E0"/>
<path d="M153.664 288.222V298.762H133.258V288.222H153.664Z" fill="#EBEBEB"/>
<path d="M87.7536 293.581C87.7536 293.677 87.7536 293.767 87.7536 293.863C87.852 295.402 88.5353 296.845 89.6636 297.897C90.7918 298.948 92.2795 299.529 93.8218 299.518H154.599V298.755H140.151C138.754 298.755 137.413 298.2 136.425 297.211C135.437 296.223 134.881 294.882 134.881 293.485C134.881 292.087 135.437 290.747 136.425 289.758C137.413 288.77 138.754 288.215 140.151 288.215H154.599V287.093L93.808 287.3C92.9943 287.302 92.1893 287.468 91.4409 287.787C90.6925 288.106 90.0158 288.573 89.4511 289.159C88.8864 289.745 88.4452 290.438 88.1536 291.198C87.862 291.957 87.726 292.768 87.7536 293.581Z" fill="#E0E0E0"/>
<path d="M153.664 293.622C153.664 293.684 149.467 293.739 144.293 293.739C139.119 293.739 134.923 293.684 134.923 293.622C134.923 293.56 139.119 293.512 144.293 293.512C149.467 293.512 153.664 293.567 153.664 293.622Z" fill="#E0E0E0"/>
<path d="M153.368 296.003C153.368 296.065 149.398 296.113 144.499 296.113C139.601 296.113 135.631 296.065 135.631 296.003C135.631 295.941 139.601 295.893 144.499 295.893C149.398 295.893 153.368 295.941 153.368 296.003Z" fill="#E0E0E0"/>
<path d="M153.663 298.177C153.663 298.239 150.093 298.287 145.69 298.287C141.286 298.287 137.716 298.239 137.716 298.177C137.716 298.115 141.286 298.067 145.69 298.067C150.093 298.067 153.663 298.115 153.663 298.177Z" fill="#E0E0E0"/>
<path d="M153.663 291.489C153.663 291.551 149.535 291.6 144.486 291.6C139.436 291.6 135.308 291.551 135.308 291.489C135.308 291.428 139.436 291.379 144.486 291.379C149.535 291.379 153.663 291.428 153.663 291.489Z" fill="#E0E0E0"/>
<path d="M153.368 289.357C153.368 289.419 149.707 289.467 145.201 289.467C140.695 289.467 137.028 289.419 137.028 289.357C137.028 289.295 140.688 289.247 145.201 289.247C149.714 289.247 153.368 289.295 153.368 289.357Z" fill="#E0E0E0"/>
<path d="M95.122 287.472C94.6499 287.947 94.2173 288.46 93.8286 289.006C92.906 290.337 92.4203 291.923 92.4388 293.542C92.4573 295.162 92.9791 296.736 93.9318 298.046C94.3366 298.58 94.7804 299.084 95.2596 299.553C95.1034 299.462 94.958 299.353 94.8262 299.23C94.4494 298.904 94.1081 298.54 93.8079 298.142C92.7959 296.821 92.2389 295.208 92.2203 293.543C92.2017 291.879 92.7225 290.253 93.7047 288.91C93.9937 288.505 94.3259 288.134 94.6955 287.802C94.8226 287.674 94.966 287.563 95.122 287.472Z" fill="#F3F5F6"/>
<path d="M93.065 287.245C92.5989 287.728 92.1667 288.243 91.7715 288.786C90.8525 290.118 90.3695 291.702 90.3892 293.32C90.4089 294.938 90.9304 296.51 91.8816 297.819C92.2839 298.355 92.7279 298.859 93.2094 299.326C93.049 299.238 92.9009 299.129 92.7691 299.002C92.3924 298.677 92.0511 298.313 91.7509 297.915C90.7389 296.597 90.1813 294.986 90.1615 293.324C90.1416 291.662 90.6606 290.039 91.6408 288.696C91.93 288.29 92.2621 287.917 92.6315 287.582C92.7621 287.453 92.9076 287.339 93.065 287.245Z" fill="#F3F5F6"/>
<path d="M134.358 287.472C133.892 287.951 133.462 288.464 133.072 289.006C132.149 290.337 131.664 291.923 131.682 293.542C131.701 295.162 132.222 296.736 133.175 298.046C133.58 298.58 134.024 299.084 134.503 299.553C134.344 299.463 134.196 299.355 134.063 299.23C133.688 298.904 133.349 298.539 133.051 298.142C132.035 296.824 131.473 295.212 131.45 293.548C131.426 291.883 131.942 290.256 132.92 288.91C133.207 288.504 133.54 288.132 133.911 287.802C134.047 287.675 134.197 287.564 134.358 287.472Z" fill="#F3F5F6"/>
<path d="M132.308 287.245C131.837 287.724 131.405 288.239 131.015 288.786C130.092 290.116 129.606 291.7 129.624 293.319C129.643 294.938 130.165 296.511 131.118 297.819C131.523 298.353 131.967 298.857 132.446 299.326C132.29 299.235 132.144 299.126 132.012 299.002C131.634 298.679 131.292 298.314 130.994 297.915C129.982 296.597 129.425 294.986 129.405 293.324C129.385 291.662 129.904 290.039 130.884 288.696C131.173 288.29 131.505 287.917 131.875 287.582C132.004 287.451 132.149 287.337 132.308 287.245Z" fill="#F3F5F6"/>
<path d="M102.036 295.102L101.974 290.808C101.996 290.436 101.947 290.062 101.83 289.708C101.767 289.53 101.658 289.373 101.514 289.252C101.37 289.131 101.197 289.051 101.011 289.02C100.475 288.779 99.6353 289.226 99.2637 289.845C98.9345 290.496 98.7894 291.224 98.8441 291.951C98.8302 293.081 98.8854 294.212 99.0092 295.335C99.0324 295.876 99.1683 296.406 99.4082 296.89C99.5152 297.141 99.6987 297.352 99.9325 297.492C100.166 297.632 100.439 297.695 100.71 297.671C100.982 297.648 101.239 297.539 101.445 297.36C101.651 297.182 101.795 296.943 101.857 296.677C102.017 296.168 102.078 295.633 102.036 295.102Z" fill="#F3F5F6"/>
<path d="M125.641 293.829C125.641 293.891 121.245 293.946 115.831 293.946C110.416 293.946 106.013 293.891 106.013 293.829C106.013 293.767 110.409 293.719 115.831 293.719C121.252 293.719 125.641 293.767 125.641 293.829Z" fill="#F3F5F6"/>
<path d="M97.9634 287.052L97.8533 277.055H103.295L103.481 287.052H97.9634Z" fill="#F3F5F6"/>
<path d="M102.972 278.83C102.133 278.945 101.286 278.984 100.44 278.947C99.5968 278.985 98.7517 278.945 97.9153 278.83C98.7521 278.72 99.597 278.683 100.44 278.72C101.286 278.683 102.133 278.72 102.972 278.83Z" fill="#E0E0E0"/>
<path d="M102.972 280.378C102.133 280.489 101.286 280.526 100.44 280.489C99.597 280.526 98.7521 280.489 97.9153 280.378C98.7521 280.268 99.597 280.231 100.44 280.268C101.286 280.231 102.133 280.268 102.972 280.378Z" fill="#E0E0E0"/>
<path d="M102.972 281.919C102.133 282.03 101.286 282.067 100.44 282.03C99.597 282.067 98.7521 282.03 97.9153 281.919C98.7521 281.809 99.597 281.772 100.44 281.809C101.286 281.772 102.133 281.809 102.972 281.919Z" fill="#E0E0E0"/>
<path d="M102.972 283.461C102.133 283.571 101.286 283.608 100.44 283.571C99.597 283.608 98.7521 283.571 97.9153 283.461C98.7521 283.35 99.597 283.314 100.44 283.351C101.286 283.314 102.133 283.35 102.972 283.461Z" fill="#E0E0E0"/>
<path d="M102.972 285.002C102.133 285.117 101.286 285.156 100.44 285.119C99.5968 285.156 98.7517 285.117 97.9153 285.002C98.7524 284.895 99.597 284.859 100.44 284.892C101.286 284.859 102.133 284.896 102.972 285.002Z" fill="#E0E0E0"/>
<path d="M97.5644 276.787H157.874C158.566 280.357 158.566 284.026 157.874 287.595H97.8327V286.846H101.507C101.734 286.846 101.959 286.801 102.169 286.713C102.379 286.626 102.57 286.498 102.73 286.337C102.891 286.176 103.018 285.985 103.104 285.775C103.19 285.564 103.234 285.339 103.234 285.112V279.133C103.234 278.906 103.19 278.681 103.104 278.47C103.018 278.26 102.891 278.069 102.73 277.908C102.57 277.747 102.379 277.619 102.169 277.532C101.959 277.444 101.734 277.399 101.507 277.399H97.5782L97.5644 276.787Z" fill="#EBEBEB"/>
<path d="M111.82 282.202H112.824C112.86 282.191 112.898 282.191 112.934 282.202C112.968 282.219 112.997 282.245 113.016 282.278C113.036 282.311 113.046 282.349 113.044 282.387C113.048 282.41 113.048 282.433 113.044 282.456C113.044 282.539 113.003 282.621 112.975 282.711C112.855 283.133 112.638 283.521 112.342 283.846C112.239 283.976 112.11 284.083 111.963 284.16C111.816 284.237 111.655 284.282 111.489 284.293H111.366C111.221 284.267 111.085 284.208 110.966 284.123C110.847 284.037 110.748 283.926 110.678 283.798C110.468 283.43 110.365 283.01 110.382 282.587C110.384 282.294 110.423 282.003 110.499 281.72C110.609 281.293 110.813 280.895 111.097 280.557C111.204 280.415 111.34 280.298 111.497 280.215C111.654 280.131 111.828 280.084 112.005 280.076C112.136 280.075 112.265 280.103 112.384 280.158C112.669 280.318 112.881 280.582 112.975 280.894C112.982 280.928 112.982 280.964 112.975 280.998C112.985 281.031 112.985 281.067 112.975 281.101C112.957 281.134 112.93 281.162 112.898 281.181C112.865 281.2 112.828 281.211 112.79 281.211C112.767 281.218 112.743 281.218 112.721 281.211C112.689 281.202 112.66 281.186 112.636 281.163C112.612 281.14 112.594 281.112 112.583 281.08C112.553 280.995 112.511 280.914 112.459 280.839C112.41 280.755 112.339 280.686 112.255 280.636C112.171 280.587 112.075 280.56 111.978 280.557C111.858 280.558 111.742 280.599 111.648 280.674C111.395 280.882 111.205 281.156 111.097 281.465C110.945 281.825 110.866 282.211 110.863 282.601C110.853 282.908 110.912 283.213 111.035 283.495C111.073 283.606 111.143 283.702 111.236 283.772C111.329 283.842 111.442 283.882 111.558 283.887C111.656 283.876 111.75 283.843 111.835 283.792C111.919 283.741 111.991 283.673 112.047 283.591C112.277 283.318 112.453 283.003 112.563 282.663C112.102 282.663 111.875 282.663 111.84 282.663C111.776 282.663 111.715 282.637 111.67 282.592C111.625 282.547 111.599 282.486 111.599 282.422V282.346C111.618 282.303 111.649 282.267 111.688 282.241C111.727 282.215 111.773 282.202 111.82 282.202Z" fill="#FAFAFA"/>
<path d="M115.246 280.234C115.246 280.234 115.246 280.282 115.246 280.31C115.287 280.452 115.516 281.697 115.934 284.045C115.937 284.064 115.937 284.082 115.934 284.101C115.943 284.137 115.943 284.175 115.934 284.211C115.918 284.244 115.892 284.273 115.861 284.292C115.829 284.312 115.792 284.322 115.755 284.321H115.721C115.681 284.314 115.645 284.296 115.616 284.269C115.586 284.243 115.565 284.208 115.555 284.169L115.315 282.924H114.076L113.478 284.176C113.482 284.19 113.482 284.204 113.478 284.217C113.457 284.248 113.43 284.273 113.397 284.291C113.365 284.309 113.329 284.319 113.292 284.321C113.251 284.32 113.21 284.308 113.175 284.286C113.145 284.265 113.121 284.237 113.104 284.205C113.087 284.173 113.079 284.137 113.079 284.101C113.072 284.08 113.072 284.059 113.079 284.039C113.113 283.949 113.175 283.818 113.264 283.633C114.131 281.734 114.64 280.619 114.819 280.275C114.836 280.233 114.864 280.197 114.901 280.17C114.937 280.143 114.981 280.127 115.026 280.124C115.069 280.121 115.112 280.13 115.15 280.15C115.189 280.169 115.222 280.198 115.246 280.234ZM114.978 281.073L114.29 282.484H115.239L114.978 281.073Z" fill="#FAFAFA"/>
<path d="M118.61 284.321H116.794C116.753 284.32 116.712 284.308 116.677 284.286C116.646 284.257 116.62 284.222 116.603 284.183C116.585 284.144 116.575 284.102 116.574 284.059C116.574 283.99 116.739 282.745 117.076 280.344C117.073 280.317 117.073 280.289 117.076 280.262C117.091 280.221 117.118 280.187 117.154 280.163C117.19 280.14 117.233 280.128 117.275 280.131C117.307 280.124 117.34 280.124 117.372 280.131C117.408 280.148 117.438 280.176 117.459 280.21C117.48 280.244 117.49 280.283 117.489 280.323L117.372 281.342C117.165 282.933 117.055 283.773 117.042 283.86H118.59C118.628 283.853 118.668 283.853 118.707 283.86C118.748 283.876 118.784 283.904 118.808 283.941C118.833 283.978 118.846 284.022 118.844 284.066C118.847 284.089 118.847 284.112 118.844 284.135C118.831 284.187 118.801 284.234 118.758 284.267C118.716 284.301 118.664 284.319 118.61 284.321Z" fill="#FAFAFA"/>
<path d="M121.094 280.234C121.094 280.234 121.094 280.282 121.094 280.31C121.135 280.454 121.376 281.686 121.782 284.045C121.785 284.064 121.785 284.082 121.782 284.1C121.78 284.139 121.768 284.177 121.747 284.21C121.731 284.244 121.706 284.272 121.674 284.292C121.643 284.312 121.606 284.321 121.569 284.321H121.534C121.496 284.312 121.46 284.294 121.431 284.267C121.402 284.241 121.381 284.207 121.369 284.169L121.225 282.924H119.986L119.388 284.176C119.391 284.19 119.391 284.204 119.388 284.217C119.365 284.247 119.336 284.272 119.303 284.29C119.269 284.308 119.233 284.318 119.195 284.321C119.154 284.319 119.114 284.307 119.078 284.286C119.048 284.265 119.024 284.237 119.007 284.205C118.99 284.173 118.982 284.137 118.982 284.1C118.979 284.08 118.979 284.059 118.982 284.038C119.016 283.949 119.078 283.818 119.167 283.633C120.034 281.734 120.543 280.619 120.722 280.275C120.739 280.233 120.767 280.197 120.804 280.17C120.84 280.143 120.884 280.127 120.929 280.124C120.962 280.13 120.994 280.143 121.023 280.162C121.051 280.18 121.075 280.205 121.094 280.234ZM120.826 281.073L120.138 282.484H121.087L120.826 281.073Z" fill="#FAFAFA"/>
<path d="M123.977 282.38L124.307 283.289C124.493 283.811 124.589 284.08 124.589 284.107C124.6 284.143 124.6 284.182 124.589 284.217C124.569 284.249 124.542 284.275 124.509 284.293C124.477 284.311 124.44 284.32 124.403 284.321C124.321 284.321 124.265 284.272 124.224 284.176C124.183 284.08 124.224 284.107 124.19 284.08C124.093 283.853 123.928 283.392 123.701 282.8L122.676 284.176C122.656 284.209 122.627 284.237 122.594 284.258C122.56 284.278 122.523 284.29 122.484 284.293C122.447 284.3 122.41 284.3 122.373 284.293C122.341 284.275 122.313 284.248 122.295 284.215C122.277 284.182 122.268 284.145 122.27 284.107V284.094C122.294 284.027 122.331 283.966 122.38 283.915C122.724 283.468 123.068 282.938 123.522 282.325C123.481 282.202 123.44 282.092 123.399 281.981C123.013 280.943 122.814 280.406 122.814 280.372C122.808 280.335 122.808 280.298 122.814 280.261C122.831 280.229 122.857 280.201 122.888 280.182C122.92 280.163 122.956 280.152 122.993 280.151C123.034 280.152 123.075 280.164 123.11 280.185C123.145 280.207 123.173 280.238 123.192 280.275L123.805 281.913L125.015 280.261C125.036 280.229 125.065 280.203 125.098 280.185C125.132 280.167 125.17 280.158 125.208 280.158C125.24 280.151 125.273 280.151 125.304 280.158C125.34 280.176 125.369 280.204 125.389 280.238C125.408 280.272 125.417 280.311 125.414 280.351C125.424 280.385 125.424 280.42 125.414 280.454L123.977 282.38Z" fill="#FAFAFA"/>
<path d="M128.49 280.138C128.521 280.131 128.554 280.131 128.586 280.138C128.622 280.154 128.652 280.18 128.672 280.213C128.693 280.246 128.704 280.284 128.703 280.323C128.407 282.676 128.242 283.942 128.215 284.135C128.163 284.491 128.029 284.831 127.822 285.126C127.627 285.401 127.338 285.597 127.01 285.678C126.681 285.759 126.335 285.719 126.034 285.566C125.763 285.455 125.538 285.256 125.394 285.002C125.388 284.968 125.388 284.933 125.394 284.899C125.384 284.863 125.384 284.825 125.394 284.789C125.411 284.754 125.438 284.726 125.47 284.706C125.503 284.687 125.541 284.677 125.58 284.678C125.612 284.681 125.643 284.69 125.672 284.705C125.7 284.721 125.725 284.742 125.745 284.768C125.846 284.924 125.983 285.054 126.145 285.146C126.306 285.238 126.488 285.29 126.673 285.298C126.808 285.291 126.939 285.255 127.058 285.192C127.177 285.129 127.281 285.041 127.361 284.933C127.609 284.603 127.748 284.204 127.76 283.791C127.691 283.902 127.6 283.999 127.492 284.073C127.306 284.213 127.079 284.288 126.845 284.286H126.722C126.577 284.261 126.44 284.203 126.321 284.117C126.202 284.031 126.104 283.92 126.034 283.791C125.819 283.425 125.714 283.004 125.731 282.58C125.731 282.36 125.731 282.133 125.731 281.892C125.763 281.521 125.846 280.998 125.979 280.323C125.973 280.303 125.973 280.282 125.979 280.261C125.989 280.218 126.014 280.18 126.049 280.153C126.084 280.125 126.127 280.11 126.171 280.11C126.208 280.112 126.244 280.124 126.274 280.145C126.308 280.159 126.336 280.184 126.355 280.214C126.375 280.245 126.385 280.28 126.384 280.317C126.365 280.593 126.331 280.869 126.281 281.142C126.21 281.563 126.164 281.988 126.144 282.415C126.13 282.75 126.184 283.085 126.302 283.399C126.426 283.695 126.605 283.839 126.839 283.839H126.914C127.143 283.767 127.336 283.612 127.458 283.406C127.675 283.106 127.827 282.763 127.905 282.401L128.18 280.337C128.176 280.308 128.176 280.277 128.18 280.248C128.188 280.217 128.204 280.188 128.226 280.164C128.248 280.14 128.276 280.122 128.306 280.111C128.336 280.101 128.369 280.097 128.401 280.102C128.433 280.106 128.464 280.119 128.49 280.138Z" fill="#FAFAFA"/>
<path d="M155.624 287.733C155.562 287.733 155.507 285.256 155.507 282.195C155.507 279.133 155.562 276.649 155.624 276.649C155.686 276.649 155.734 279.133 155.734 282.195C155.734 285.256 155.672 287.733 155.624 287.733Z" fill="#F3F5F6"/>
<path d="M106.254 287.733C106.192 287.733 106.144 285.256 106.144 282.195C106.144 279.133 106.192 276.649 106.254 276.649C106.316 276.649 106.364 279.133 106.364 282.195C106.364 285.256 106.316 287.733 106.254 287.733Z" fill="#E0E0E0"/>
<path d="M156.663 287.733C156.608 287.733 156.553 285.256 156.553 282.195C156.553 279.133 156.608 276.649 156.663 276.649C156.718 276.649 156.78 279.133 156.78 282.195C156.78 285.256 156.725 287.733 156.663 287.733Z" fill="#F3F5F6"/>
<path d="M105.27 287.733C105.208 287.733 105.153 285.256 105.153 282.195C105.153 279.133 105.208 276.649 105.27 276.649C105.332 276.649 105.38 279.133 105.38 282.195C105.38 285.256 105.325 287.733 105.27 287.733Z" fill="#E0E0E0"/>
<path d="M140.984 278.473L147.355 283.612L147.41 283.66H147.341L146.495 283.887L141.114 285.298L136.237 283.234L134.861 282.642L134.496 282.484L134.407 282.442L134.503 282.484L134.867 282.628L136.243 283.206L141.128 285.27L146.508 283.853L147.361 283.626V283.688L140.997 278.535" fill="#E0E0E0"/>
<path d="M146.77 282.8L147.121 283.123L147.589 283.027L147.382 283.454L147.623 283.866L147.148 283.811L146.832 284.162L146.742 283.694L146.309 283.502L146.722 283.275L146.77 282.8Z" fill="#E0E0E0"/>
<path d="M140.66 284.823L140.894 285.023L141.197 284.94L141.08 285.229L141.252 285.483L140.942 285.463L140.75 285.704L140.674 285.408L140.385 285.298L140.647 285.133L140.66 284.823Z" fill="#E0E0E0"/>
<path d="M133.904 282.057L134.283 282.078L134.517 281.782L134.613 282.147L134.971 282.277L134.647 282.477L134.634 282.862L134.338 282.621L133.98 282.725L134.118 282.367L133.904 282.057Z" fill="#E0E0E0"/>
<path d="M149.632 278.555L150.01 278.583L150.244 278.28L150.341 278.652L150.691 278.782L150.375 278.982L150.361 279.36L150.065 279.119L149.701 279.223L149.845 278.872L149.632 278.555Z" fill="#E0E0E0"/>
<path d="M140.674 278.307L140.915 278.321L141.066 278.135L141.128 278.369L141.355 278.452L141.149 278.583L141.142 278.823L140.956 278.665L140.722 278.734L140.812 278.507L140.674 278.307Z" fill="#E0E0E0"/>
<path d="M150.162 278.824C150.162 278.824 148.098 278.775 145.559 278.672C143.02 278.569 140.956 278.452 140.956 278.425C140.956 278.397 143.02 278.473 145.559 278.583C148.098 278.693 150.162 278.796 150.162 278.824Z" fill="#E0E0E0"/>
<path d="M152.48 276.698H91.3105C90.5125 274.881 90.3129 273.154 91.3105 271.606H152.48C152.86 272.401 153.056 273.271 153.056 274.152C153.056 275.033 152.86 275.903 152.48 276.698Z" fill="#E0E0E0"/>
<path d="M137.117 273.058H103.976V274.909H137.117V273.058Z" fill="#EBEBEB"/>
<path d="M93.6566 276.725C93.4546 276.555 93.2905 276.344 93.175 276.106C92.8632 275.551 92.6731 274.935 92.6174 274.3C92.5616 273.666 92.6415 273.027 92.8516 272.425C92.9198 272.17 93.0471 271.934 93.2232 271.737C93.1629 271.989 93.0895 272.237 93.003 272.48C92.8431 273.069 92.7872 273.682 92.8379 274.29C92.8978 274.897 93.0582 275.49 93.3126 276.044C93.4474 276.26 93.5625 276.488 93.6566 276.725Z" fill="#E0E0E0"/>
<path d="M94.9844 276.725C94.7778 276.559 94.6129 276.347 94.5028 276.106C94.187 275.553 93.9945 274.938 93.9387 274.304C93.8845 273.668 93.9641 273.028 94.1726 272.425C94.2474 272.173 94.3739 271.938 94.5441 271.737C94.4879 271.99 94.4143 272.238 94.3239 272.48C94.1666 273.07 94.1131 273.682 94.1657 274.29C94.2189 274.898 94.3796 275.492 94.6404 276.044C94.7685 276.264 94.8834 276.492 94.9844 276.725Z" fill="#E0E0E0"/>
<path d="M150.003 276.601C150.248 275.794 150.393 274.96 150.437 274.118C150.401 273.272 150.265 272.434 150.031 271.62C150.48 272.373 150.698 273.242 150.657 274.118C150.692 274.992 150.464 275.857 150.003 276.601Z" fill="#F3F5F6"/>
<path d="M148.868 276.594C148.799 276.594 149.054 275.501 149.047 274.152C149.04 272.804 148.792 271.73 148.861 271.717C149.407 273.297 149.407 275.014 148.861 276.594H148.868Z" fill="#F3F5F6"/>
<path d="M187.444 252.969L101.493 252.914C99.0355 252.913 96.6022 252.428 94.3322 251.487C92.0621 250.545 89.9997 249.166 88.2626 247.428C86.5255 245.689 85.1479 243.626 84.2083 241.355C83.2686 239.084 82.7855 236.651 82.7864 234.193L82.8277 18.7203C82.8286 16.261 83.3139 13.826 84.2558 11.5543C85.1978 9.28252 86.578 7.21855 88.3176 5.48021C90.0572 3.74187 92.1222 2.36319 94.3947 1.42289C96.6671 0.482597 99.1025 -0.000902389 101.562 1.26435e-06L187.506 0.0550421C192.469 0.0586885 197.228 2.03239 200.737 5.54254C204.246 9.05269 206.218 13.8122 206.22 18.7754L206.171 234.248C206.171 236.707 205.687 239.142 204.746 241.414C203.804 243.686 202.425 245.75 200.686 247.488C198.947 249.227 196.882 250.605 194.61 251.546C192.338 252.486 189.903 252.97 187.444 252.969Z" fill="#1C1C1C"/>
<path d="M187.224 7.7398H170.561C170.017 7.7505 169.48 7.86861 168.982 8.08733C168.484 8.30605 168.034 8.62107 167.658 9.01428C167.282 9.40749 166.988 9.87112 166.792 10.3785C166.596 10.8859 166.502 11.4271 166.515 11.971V14.9913C166.528 15.5351 166.433 16.0761 166.236 16.5831C166.039 17.0902 165.744 17.5533 165.367 17.9459C164.991 18.3384 164.54 18.6527 164.042 18.8706C163.544 19.0885 163.007 19.2057 162.463 19.2155H129.983C129.439 19.2048 128.903 19.0867 128.404 18.868C127.906 18.6493 127.456 18.3343 127.08 17.9411C126.704 17.5479 126.41 17.0842 126.214 16.5768C126.018 16.0694 125.924 15.5282 125.937 14.9844V11.9572C125.955 11.4128 125.864 10.8703 125.671 10.361C125.478 9.85177 125.186 9.38576 124.812 8.98989C124.438 8.59402 123.989 8.2761 123.491 8.05446C122.994 7.83283 122.457 7.71185 121.913 7.69852H116.051H101.472C99.7492 7.6949 98.0421 8.03096 96.4489 8.68748C94.8557 9.34399 93.4074 10.3081 92.187 11.5247C90.9666 12.7412 89.998 14.1864 89.3364 15.7776C88.6749 17.3688 88.3335 19.0747 88.3317 20.7979L88.2904 231.118C88.285 232.838 88.6191 234.542 89.2736 236.133C89.9281 237.724 90.8901 239.17 92.1044 240.388C93.3188 241.606 94.7617 242.573 96.3503 243.232C97.939 243.892 99.6422 244.231 101.362 244.231L187.141 244.279C188.863 244.28 190.569 243.942 192.16 243.284C193.751 242.626 195.198 241.66 196.416 240.443C197.634 239.226 198.601 237.781 199.261 236.191C199.921 234.6 200.261 232.895 200.262 231.173L200.344 20.853C200.344 19.1303 200.005 17.4246 199.345 15.8332C198.686 14.2418 197.719 12.7959 196.501 11.5781C195.282 10.3604 193.836 9.3946 192.244 8.736C190.653 8.07741 188.947 7.73889 187.224 7.7398Z" fill="white"/>
<path d="M201.287 41.1559C201.287 41.2523 175.962 41.3348 144.733 41.3348C113.505 41.3348 88.2009 41.2316 88.2009 41.1559C88.2009 41.0803 113.519 40.9771 144.768 40.9771C176.017 40.9771 201.287 41.0527 201.287 41.1559Z" fill="#263238"/>
<path d="M100 33.3609C99.9169 33.3617 99.8362 33.3324 99.773 33.2783L96.505 30.4094C96.4664 30.3781 96.4356 30.3381 96.4153 30.2926C96.395 30.2472 96.3856 30.1976 96.3881 30.1479C96.3875 30.0978 96.3984 30.0482 96.4199 30.0029C96.4413 29.9576 96.4728 29.9178 96.5119 29.8865L99.7799 27.1345C99.8503 27.0775 99.9404 27.0506 100.031 27.0596C100.121 27.0686 100.204 27.1128 100.261 27.1827C100.291 27.2172 100.312 27.2572 100.326 27.3003C100.339 27.3434 100.344 27.3887 100.339 27.4337C100.335 27.4786 100.321 27.5221 100.3 27.5617C100.278 27.6014 100.249 27.6362 100.213 27.6643L97.2618 30.1273L100.22 32.7279C100.255 32.7569 100.283 32.7926 100.303 32.8327C100.324 32.8728 100.336 32.9166 100.339 32.9615C100.342 33.0063 100.336 33.0514 100.322 33.094C100.307 33.1366 100.285 33.1759 100.255 33.2095C100.227 33.2528 100.189 33.289 100.145 33.3153C100.101 33.3416 100.051 33.3572 100 33.3609Z" fill="#263238"/>
<path d="M171.311 29.9621C171.311 30.0653 160.667 30.141 147.534 30.141C134.4 30.141 123.757 30.0653 123.757 29.9621C123.757 29.8589 134.4 29.7832 147.534 29.7832C160.667 29.7832 171.311 29.8658 171.311 29.9621Z" fill="#263238"/>
<path d="M185.084 29.9415C185.084 30.1864 185.012 30.4259 184.876 30.6295C184.74 30.8332 184.546 30.9919 184.32 31.0856C184.094 31.1794 183.845 31.2039 183.604 31.1561C183.364 31.1083 183.143 30.9904 182.97 30.8172C182.797 30.644 182.679 30.4233 182.631 30.1831C182.584 29.9429 182.608 29.6939 182.702 29.4676C182.796 29.2413 182.954 29.0479 183.158 28.9118C183.362 28.7758 183.601 28.7031 183.846 28.7031C184.174 28.7031 184.489 28.8336 184.722 29.0658C184.954 29.2981 185.084 29.6131 185.084 29.9415Z" fill="#263238"/>
<path d="M188.648 29.9415C188.648 30.1868 188.575 30.4265 188.439 30.6303C188.303 30.8341 188.109 30.9928 187.882 31.0863C187.655 31.1798 187.406 31.2039 187.166 31.1556C186.925 31.1073 186.705 30.9886 186.532 30.8147C186.359 30.6409 186.241 30.4196 186.194 30.1789C186.147 29.9382 186.173 29.689 186.268 29.4628C186.362 29.2367 186.522 29.0437 186.727 28.9085C186.931 28.7732 187.171 28.7018 187.417 28.7031C187.579 28.7031 187.74 28.7352 187.889 28.7975C188.039 28.8599 188.175 28.9512 188.29 29.0663C188.404 29.1814 188.495 29.3179 188.556 29.4681C188.618 29.6183 188.649 29.7792 188.648 29.9415Z" fill="#263238"/>
<path d="M192.219 29.9415C192.219 30.1864 192.146 30.4259 192.01 30.6295C191.874 30.8332 191.681 30.9919 191.454 31.0856C191.228 31.1794 190.979 31.2039 190.739 31.1561C190.499 31.1083 190.278 30.9904 190.105 30.8172C189.932 30.644 189.814 30.4233 189.766 30.1831C189.718 29.9429 189.743 29.6939 189.836 29.4676C189.93 29.2413 190.089 29.0479 190.292 28.9118C190.496 28.7758 190.736 28.7031 190.98 28.7031C191.309 28.7031 191.624 28.8336 191.856 29.0658C192.088 29.2981 192.219 29.6131 192.219 29.9415Z" fill="#263238"/>
<path d="M134.001 87.3614C134.001 88.1595 133.67 88.6411 133.12 88.6411C132.99 88.6537 132.86 88.6197 132.753 88.5454C132.646 88.4711 132.569 88.3611 132.535 88.2352C132.443 88.3688 132.318 88.4763 132.172 88.5474C132.027 88.6186 131.865 88.6508 131.703 88.6411C131.407 88.6184 131.131 88.485 130.93 88.2675C130.728 88.0501 130.616 87.7645 130.616 87.4681C130.616 87.1716 130.728 86.8861 130.93 86.6686C131.131 86.4511 131.407 86.3177 131.703 86.295C131.848 86.2874 131.993 86.3132 132.127 86.3705C132.26 86.4278 132.379 86.5149 132.473 86.6253V86.3226H132.982V87.8912C132.982 88.1251 133.093 88.2077 133.223 88.2077C133.471 88.2077 133.609 87.9118 133.609 87.3683C133.612 87.1406 133.568 86.9147 133.479 86.7052C133.39 86.4957 133.258 86.3073 133.091 86.1522C132.924 85.9972 132.727 85.8789 132.511 85.8051C132.296 85.7313 132.067 85.7037 131.84 85.724C131.602 85.7026 131.361 85.7312 131.134 85.8079C130.907 85.8846 130.698 86.0078 130.521 86.1696C130.344 86.3314 130.203 86.5283 130.106 86.7477C130.01 86.9671 129.96 87.2042 129.96 87.444C129.96 87.6837 130.01 87.9209 130.106 88.1403C130.203 88.3597 130.344 88.5565 130.521 88.7183C130.698 88.8801 130.907 89.0033 131.134 89.0801C131.361 89.1568 131.602 89.1854 131.84 89.164C132.151 89.1654 132.457 89.0947 132.735 88.9576L132.859 89.3291C132.539 89.4755 132.192 89.5484 131.84 89.5424C131.554 89.5587 131.268 89.5165 130.999 89.4183C130.729 89.3201 130.483 89.1679 130.275 88.9711C130.066 88.7744 129.9 88.5371 129.787 88.2739C129.673 88.0107 129.615 87.7271 129.615 87.4405C129.615 87.1539 129.673 86.8704 129.787 86.6072C129.9 86.344 130.066 86.1067 130.275 85.91C130.483 85.7132 130.729 85.561 130.999 85.4628C131.268 85.3646 131.554 85.3223 131.84 85.3387C132.118 85.3178 132.397 85.3546 132.659 85.447C132.921 85.5394 133.162 85.6853 133.365 85.8755C133.568 86.0656 133.729 86.2959 133.839 86.5517C133.948 86.8075 134.003 87.0832 134.001 87.3614ZM132.48 87.4646C132.472 87.3306 132.425 87.2019 132.345 87.0943C132.264 86.9867 132.154 86.905 132.028 86.8592C131.902 86.8134 131.765 86.8055 131.635 86.8365C131.504 86.8676 131.385 86.9361 131.293 87.0338C131.201 87.1315 131.139 87.2539 131.116 87.3862C131.093 87.5184 131.108 87.6545 131.162 87.7779C131.215 87.9012 131.303 88.0063 131.415 88.0802C131.527 88.1541 131.658 88.1937 131.792 88.1939C131.886 88.1941 131.979 88.175 132.065 88.1379C132.152 88.1008 132.23 88.0464 132.294 87.978C132.358 87.9097 132.408 87.8289 132.44 87.7406C132.472 87.6523 132.486 87.5584 132.48 87.4646Z" fill="#263238"/>
<path d="M160 88.6137C160 88.71 155.019 88.7926 148.882 88.7926C142.745 88.7926 137.771 88.71 137.771 88.6137C137.771 88.5174 142.745 88.428 148.882 88.428C155.019 88.428 160 88.5105 160 88.6137Z" fill="#263238"/>
<path d="M116.044 120.055C115.031 120.294 113.975 120.294 112.962 120.055C113.975 119.817 115.031 119.817 116.044 120.055Z" fill="#263238"/>
<path d="M123.289 127.513C123.289 127.609 119.573 127.692 114.985 127.692C110.396 127.692 106.687 127.609 106.687 127.513C106.687 127.417 110.403 127.334 114.985 127.334C119.567 127.334 123.289 127.417 123.289 127.513Z" fill="#263238"/>
<path d="M149.432 120.055C147.866 120.236 146.288 120.296 144.713 120.234C143.137 120.296 141.559 120.236 139.993 120.055C141.56 119.878 143.137 119.818 144.713 119.876C146.288 119.818 147.866 119.878 149.432 120.055Z" fill="#263238"/>
<path d="M152.226 127.114C152.226 127.21 148.421 127.293 143.729 127.293C139.037 127.293 135.225 127.21 135.225 127.114C135.225 127.018 139.03 126.935 143.729 126.935C148.428 126.935 152.226 127.018 152.226 127.114Z" fill="#263238"/>
<path d="M180.255 120.158C178.138 120.335 176.014 120.395 173.891 120.337C171.768 120.395 169.643 120.335 167.527 120.158C169.643 119.977 171.768 119.917 173.891 119.979C176.014 119.917 178.138 119.977 180.255 120.158Z" fill="#263238"/>
<path d="M182.635 127.41C182.635 127.513 178.968 127.588 174.441 127.588C169.914 127.588 166.24 127.513 166.24 127.41C166.24 127.306 169.907 127.231 174.441 127.231C178.975 127.231 182.635 127.313 182.635 127.41Z" fill="#263238"/>
<path d="M158.865 134.469H112.233C111.264 134.469 110.478 135.254 110.478 136.223V147.128C110.478 148.097 111.264 148.882 112.233 148.882H158.865C159.834 148.882 160.619 148.097 160.619 147.128V136.223C160.619 135.254 159.834 134.469 158.865 134.469Z" fill="#FFA500"/>
<path d="M151.139 141.92C151.139 142.016 144.685 142.098 136.725 142.098C128.765 142.098 122.277 142.016 122.277 141.92C122.277 141.823 128.731 141.741 136.725 141.741C144.72 141.741 151.139 141.816 151.139 141.92Z" fill="white"/>
<path d="M177.461 134.2H166.398C165.498 134.2 164.768 134.93 164.768 135.831V147.341C164.768 148.241 165.498 148.971 166.398 148.971H177.461C178.362 148.971 179.092 148.241 179.092 147.341V135.831C179.092 134.93 178.362 134.2 177.461 134.2Z" fill="#EBEBEB"/>
<path d="M170.382 140.833H173.471L172.061 143L170.382 140.833Z" fill="#263238"/>
<path d="M160.619 159.601C160.619 159.704 152.645 159.78 142.814 159.78C132.983 159.78 125.009 159.704 125.009 159.601C125.009 159.498 132.983 159.422 142.814 159.422C152.645 159.422 160.619 159.505 160.619 159.601Z" fill="#E0E0E0"/>
<path d="M170.98 166.309C170.98 166.405 159.285 166.488 144.837 166.488C130.389 166.488 118.693 166.405 118.693 166.309C118.693 166.213 130.389 166.13 144.837 166.13C159.285 166.13 170.98 166.213 170.98 166.309Z" fill="#E0E0E0"/>
<path d="M201.032 177.936C201.032 178.039 175.955 178.122 145.016 178.122C114.076 178.122 88.999 178.039 88.999 177.936C88.999 177.833 114.076 177.757 145.016 177.757C175.955 177.757 201.032 177.84 201.032 177.936Z" fill="#263238"/>
<path d="M146.13 190.987C145.953 188.878 145.893 186.76 145.951 184.644C145.893 182.53 145.953 180.415 146.13 178.308C146.311 180.415 146.371 182.53 146.309 184.644C146.371 186.76 146.311 188.878 146.13 190.987Z" fill="#263238"/>
<path d="M139.174 98.0049L135.955 105.394H134.579L131.352 98.0049H132.838L135.294 103.701L137.778 98.0049H139.174Z" fill="#0250A4"/>
<path d="M144.685 103H140.262C140.343 103.414 140.575 103.784 140.913 104.038C141.251 104.292 141.671 104.413 142.092 104.376C142.375 104.387 142.658 104.339 142.921 104.233C143.184 104.128 143.422 103.967 143.619 103.763L144.307 104.575C144.019 104.886 143.667 105.129 143.274 105.287C142.882 105.445 142.459 105.515 142.037 105.49C140.151 105.49 138.927 104.279 138.927 102.601C138.913 102.213 138.98 101.827 139.123 101.467C139.266 101.107 139.483 100.781 139.76 100.509C140.036 100.237 140.366 100.026 140.728 99.8887C141.09 99.7513 141.478 99.6908 141.865 99.7111C142.248 99.697 142.63 99.7632 142.986 99.9053C143.342 100.047 143.664 100.262 143.932 100.536C144.2 100.81 144.408 101.137 144.543 101.496C144.677 101.855 144.735 102.239 144.713 102.621C144.706 102.711 144.692 102.869 144.685 103ZM140.255 102.119H143.447C143.409 101.73 143.222 101.37 142.927 101.114C142.631 100.858 142.248 100.725 141.858 100.743C141.466 100.728 141.084 100.862 140.787 101.117C140.489 101.372 140.299 101.73 140.255 102.119Z" fill="#0250A4"/>
<path d="M149.233 99.7111V100.963C149.133 100.943 149.032 100.931 148.93 100.929C148.702 100.911 148.472 100.945 148.258 101.028C148.045 101.111 147.852 101.24 147.695 101.407C147.538 101.574 147.42 101.774 147.351 101.993C147.281 102.211 147.261 102.442 147.293 102.669V105.421H145.992V99.7867H147.251V100.605C147.478 100.299 147.778 100.056 148.125 99.8994C148.472 99.7428 148.854 99.6779 149.233 99.7111Z" fill="#0250A4"/>
<path d="M150.175 98.0393C150.176 97.9309 150.199 97.8238 150.243 97.7245C150.286 97.6252 150.349 97.5358 150.428 97.4617C150.508 97.3877 150.601 97.3306 150.703 97.2939C150.805 97.2571 150.913 97.2415 151.022 97.2481C151.127 97.2396 151.233 97.2528 151.333 97.2868C151.434 97.3207 151.526 97.3748 151.604 97.4457C151.683 97.5165 151.746 97.6026 151.79 97.6988C151.835 97.795 151.859 97.8991 151.861 98.0049C151.842 98.2153 151.745 98.4109 151.589 98.5534C151.433 98.6959 151.23 98.7749 151.018 98.7749C150.807 98.7749 150.603 98.6959 150.447 98.5534C150.292 98.4109 150.195 98.2153 150.175 98.0049V98.0393ZM150.354 99.7593H151.675V105.394H150.354V99.7593Z" fill="#0250A4"/>
<path d="M155.624 97.4889C156.045 97.4704 156.462 97.5782 156.822 97.7985L156.45 98.7892C156.236 98.6394 155.982 98.5579 155.721 98.5553C155.17 98.5553 154.888 98.858 154.888 99.4634V99.8006H156.443V100.853H154.936V105.394H153.56V100.853H152.639V99.8006H153.56V99.4428C153.538 99.171 153.578 98.8976 153.675 98.643C153.773 98.3883 153.926 98.1588 154.124 97.9713C154.322 97.7838 154.56 97.6431 154.819 97.5596C155.079 97.4762 155.354 97.452 155.624 97.4889ZM157.991 98.0393C157.992 97.9309 158.015 97.8238 158.058 97.7245C158.102 97.6252 158.165 97.5358 158.244 97.4617C158.323 97.3877 158.417 97.3306 158.519 97.2939C158.621 97.2571 158.729 97.2415 158.837 97.2481C158.943 97.2396 159.049 97.2528 159.149 97.2868C159.249 97.3207 159.341 97.3748 159.42 97.4457C159.499 97.5165 159.562 97.6026 159.606 97.6988C159.65 97.795 159.674 97.8991 159.677 98.0049C159.658 98.2153 159.561 98.4109 159.405 98.5534C159.249 98.6959 159.045 98.7749 158.834 98.7749C158.623 98.7749 158.419 98.6959 158.263 98.5534C158.107 98.4109 158.01 98.2153 157.991 98.0049V98.0393ZM158.17 99.7593H159.491V105.394H158.17V99.7593Z" fill="#0250A4"/>
<path d="M166.467 103H162.05C162.13 103.414 162.361 103.784 162.698 104.038C163.034 104.292 163.453 104.412 163.873 104.376C164.158 104.385 164.44 104.335 164.704 104.23C164.968 104.124 165.208 103.966 165.408 103.763L166.096 104.575C165.809 104.887 165.456 105.13 165.064 105.288C164.671 105.447 164.248 105.516 163.825 105.49C161.94 105.49 160.716 104.279 160.716 102.601C160.705 102.217 160.773 101.836 160.916 101.48C161.059 101.124 161.274 100.801 161.546 100.531C161.819 100.261 162.145 100.051 162.502 99.912C162.86 99.7733 163.242 99.7096 163.626 99.7249C164.009 99.7108 164.391 99.7769 164.747 99.919C165.103 100.061 165.425 100.276 165.693 100.55C165.962 100.824 166.17 101.151 166.304 101.51C166.438 101.869 166.496 102.252 166.474 102.635C166.488 102.711 166.481 102.869 166.467 103ZM162.037 102.119H165.256C165.216 101.729 165.029 101.37 164.732 101.114C164.435 100.858 164.052 100.725 163.66 100.743C163.266 100.725 162.879 100.856 162.578 101.112C162.276 101.367 162.083 101.727 162.037 102.119Z" fill="#0250A4"/>
<path d="M173.278 97.5645V105.394H172.012V104.665C171.782 104.929 171.494 105.139 171.171 105.277C170.849 105.415 170.499 105.479 170.148 105.463C169.383 105.463 168.65 105.159 168.11 104.618C167.569 104.078 167.265 103.344 167.265 102.58C167.265 101.815 167.569 101.082 168.11 100.542C168.65 100.001 169.383 99.6972 170.148 99.6972C170.487 99.6821 170.825 99.742 171.137 99.8729C171.45 100.004 171.73 100.202 171.957 100.454V97.5645H173.278ZM171.978 102.573C171.962 102.245 171.85 101.929 171.656 101.664C171.462 101.399 171.194 101.197 170.887 101.082C170.579 100.968 170.244 100.946 169.924 101.02C169.604 101.094 169.313 101.26 169.086 101.497C168.86 101.735 168.708 102.034 168.649 102.357C168.591 102.68 168.629 103.014 168.758 103.316C168.887 103.618 169.102 103.875 169.376 104.056C169.65 104.237 169.971 104.334 170.299 104.334C170.528 104.339 170.755 104.295 170.966 104.207C171.177 104.119 171.368 103.988 171.526 103.823C171.684 103.657 171.805 103.46 171.883 103.245C171.961 103.03 171.993 102.801 171.978 102.573Z" fill="#0250A4"/>
<path d="M120.956 107.244C124.152 107.244 126.742 104.654 126.742 101.458C126.742 98.2629 124.152 95.6724 120.956 95.6724C117.761 95.6724 115.17 98.2629 115.17 101.458C115.17 104.654 117.761 107.244 120.956 107.244Z" fill="#FFA500"/>
<path d="M118.342 101.569L119.085 100.826L120.523 102.098L123.337 99.3877L124.025 100.131L120.413 103.529L118.342 101.569Z" fill="white"/>
<path d="M145.827 244.252H100.42C97.1717 244.241 94.0608 242.942 91.7699 240.639C89.4791 238.337 88.1955 235.219 88.2009 231.971V190.987H145.862L145.827 244.252Z" fill="#EBEBEB"/>
<path d="M187.706 244.362L145.305 244.252V190.987H200.468V231.627C200.397 234.987 199.029 238.19 196.65 240.564C194.271 242.938 191.066 244.299 187.706 244.362Z" fill="#888888"/>
<path d="M201.032 190.987C201.032 191.084 175.955 191.166 145.022 191.166C114.09 191.166 89.0059 191.084 89.0059 190.987C89.0059 190.891 114.076 190.808 145.022 190.808C175.968 190.808 201.032 190.891 201.032 190.987Z" fill="#263238"/>
<path d="M144.183 222.174C144.183 222.174 144.121 222.174 144.025 222.078L143.591 221.761L141.954 220.537L135.968 215.968C134.709 215.012 133.32 213.904 131.84 212.824C131.446 212.595 130.994 212.482 130.538 212.498C130.081 212.513 129.639 212.658 129.26 212.914C128.879 213.23 128.521 213.572 128.187 213.939L127.093 215.046L117.461 224.775L116.87 225.373L116.76 225.483L116.636 225.394L111.077 221.266L108.435 219.291C108.074 218.949 107.62 218.723 107.129 218.641C106.639 218.559 106.135 218.625 105.683 218.83C105.258 219.076 104.873 219.385 104.541 219.745L103.454 220.757L101.39 222.683L97.6747 226.123L92.2877 231.09L90.8085 232.425L90.4232 232.769C90.3361 232.847 90.2879 232.881 90.2787 232.872C90.312 232.824 90.3513 232.78 90.3957 232.742L90.7603 232.377L92.1914 231.001L97.5027 225.951L101.19 222.47L103.254 220.537L104.334 219.518L104.885 219.002C105.091 218.816 105.322 218.661 105.573 218.541C106.075 218.299 106.639 218.217 107.19 218.307C107.468 218.351 107.738 218.439 107.988 218.569C108.232 218.699 108.462 218.854 108.676 219.03L111.324 220.991L116.89 225.119H116.656L117.248 224.513L126.88 214.806L127.981 213.705C128.328 213.324 128.703 212.97 129.102 212.645C129.531 212.361 130.031 212.202 130.546 212.188C131.06 212.173 131.568 212.303 132.012 212.563C133.54 213.698 134.875 214.785 136.14 215.762L142.057 220.42L143.66 221.699L144.066 222.043C144.111 222.082 144.15 222.126 144.183 222.174Z" fill="#263238"/>
<path d="M121.679 204.286C121.637 204.286 121.679 203.846 121.452 203.082C121.155 202.014 120.511 201.075 119.622 200.413C119.013 199.958 118.306 199.654 117.558 199.525C116.707 199.374 115.831 199.45 115.019 199.745C114.12 200.074 113.339 200.663 112.776 201.438C112.169 202.265 111.841 203.264 111.841 204.29C111.841 205.316 112.169 206.315 112.776 207.141C113.316 207.874 114.05 208.441 114.894 208.779C115.739 209.117 116.662 209.212 117.558 209.054C118.307 208.925 119.015 208.618 119.622 208.16C120.511 207.498 121.155 206.559 121.452 205.49C121.658 204.733 121.637 204.286 121.679 204.286C121.689 204.394 121.689 204.502 121.679 204.61C121.679 204.918 121.645 205.225 121.576 205.525C121.32 206.651 120.68 207.653 119.766 208.359C119.136 208.853 118.398 209.19 117.613 209.343C116.658 209.528 115.671 209.439 114.765 209.086C113.859 208.733 113.072 208.13 112.494 207.348C111.838 206.463 111.483 205.391 111.483 204.29C111.483 203.188 111.838 202.116 112.494 201.232C113.1 200.406 113.938 199.781 114.902 199.436C115.771 199.128 116.707 199.057 117.613 199.229C118.397 199.385 119.135 199.722 119.766 200.213C120.679 200.921 121.318 201.922 121.576 203.048C121.645 203.35 121.68 203.66 121.679 203.97C121.689 204.075 121.689 204.181 121.679 204.286Z" fill="#263238"/>
<path d="M198.762 220.468C198.762 220.468 198.707 220.468 198.61 220.372L198.198 220.062L196.615 218.83L190.843 214.255C189.632 213.299 188.297 212.191 186.873 211.111C186.492 210.882 186.052 210.772 185.608 210.796C185.164 210.819 184.737 210.974 184.383 211.242C184.021 211.563 183.678 211.905 183.357 212.267L182.312 213.375L173.099 223.068L172.522 223.667L172.411 223.784L172.281 223.688L166.921 219.56L164.376 217.585C164.033 217.241 163.59 217.014 163.11 216.938C162.631 216.861 162.139 216.938 161.706 217.159C161.303 217.417 160.935 217.726 160.612 218.081L159.573 219.092L157.585 221.011L154.015 224.451L148.848 229.405L147.43 230.74L147.052 231.077C146.969 231.152 146.921 231.194 146.914 231.187C146.948 231.138 146.987 231.095 147.031 231.056C147.121 230.953 147.238 230.836 147.375 230.691L148.751 229.315L153.843 224.279L157.379 220.805C158.019 220.186 158.672 219.539 159.353 218.872L160.385 217.86L160.915 217.344C161.103 217.16 161.316 217.002 161.548 216.877C162.033 216.62 162.588 216.526 163.13 216.608C163.404 216.648 163.67 216.734 163.915 216.863C164.158 216.995 164.388 217.149 164.603 217.324L167.148 219.291L172.515 223.419H172.274L172.852 222.814L182.085 213.141L183.137 212.04C183.473 211.665 183.831 211.311 184.211 210.98C184.617 210.681 185.103 210.508 185.608 210.485C186.113 210.462 186.613 210.589 187.045 210.85C188.524 211.985 189.797 213.072 191.022 214.049L196.718 218.713L198.253 220L198.645 220.337L198.762 220.468Z" fill="#263238"/>
<path d="M175.37 202.752C175.335 202.752 175.37 202.312 175.15 201.555C174.857 200.485 174.212 199.545 173.32 198.885C172.805 198.501 172.22 198.223 171.597 198.066C170.974 197.909 170.327 197.877 169.692 197.971C169.056 198.066 168.446 198.286 167.896 198.617C167.347 198.949 166.868 199.386 166.488 199.904C165.88 200.73 165.553 201.73 165.553 202.755C165.553 203.781 165.88 204.78 166.488 205.607C167.05 206.381 167.831 206.968 168.731 207.293C169.492 207.574 170.311 207.658 171.113 207.538C171.916 207.418 172.675 207.097 173.32 206.605C174.211 205.945 174.855 205.005 175.15 203.935C175.244 203.538 175.318 203.136 175.37 202.731C175.388 202.838 175.388 202.948 175.37 203.055C175.371 203.363 175.336 203.67 175.267 203.97C175.03 205.098 174.41 206.109 173.512 206.832C172.88 207.321 172.143 207.655 171.359 207.809C170.453 207.988 169.516 207.917 168.648 207.602C167.685 207.26 166.846 206.637 166.24 205.814C165.584 204.929 165.23 203.857 165.23 202.755C165.23 201.654 165.584 200.582 166.24 199.697C166.818 198.915 167.605 198.313 168.511 197.96C169.417 197.606 170.404 197.517 171.359 197.702C172.143 197.856 172.88 198.19 173.512 198.679C174.427 199.388 175.066 200.392 175.322 201.52C175.391 201.821 175.426 202.128 175.425 202.436C175.425 202.543 175.407 202.651 175.37 202.752Z" fill="#263238"/>
<path d="M146.151 82.8484C154.951 82.8484 162.085 75.7145 162.085 66.9144C162.085 58.1143 154.951 50.9805 146.151 50.9805C137.351 50.9805 130.217 58.1143 130.217 66.9144C130.217 75.7145 137.351 82.8484 146.151 82.8484Z" fill="#F3F5F6"/>
<path d="M156.45 79.0025C156.178 76.4749 154.966 74.1419 153.055 72.4661C151.143 70.7903 148.671 69.8941 146.13 69.9553C140.475 69.9553 136.601 74.2347 135.81 79.0369C135.81 79.0369 139.305 82.9034 146.13 82.8484C152.955 82.7933 156.45 79.0025 156.45 79.0025Z" fill="#E0E0E0"/>
<path d="M152.634 65.3572C153.186 61.9416 150.865 58.7252 147.449 58.1732C144.033 57.6212 140.817 59.9426 140.265 63.3582C139.713 66.7738 142.034 69.9902 145.45 70.5422C148.866 71.0943 152.082 68.7729 152.634 65.3572Z" fill="#E0E0E0"/>
<path d="M156.374 78.459C156.179 77.4397 155.853 76.4499 155.404 75.5143C154.825 74.468 154.06 73.5355 153.148 72.7624C151.949 71.7503 150.569 70.9752 149.082 70.4782L148.751 70.375L149.054 70.2168C150.104 69.646 150.967 68.7834 151.538 67.7331C152.035 66.8076 152.283 65.769 152.258 64.7189C152.234 63.6687 151.938 62.6428 151.399 61.7414C150.859 60.8399 150.096 60.0936 149.182 59.5755C148.268 59.0573 147.236 58.7849 146.185 58.7849C145.135 58.7849 144.102 59.0573 143.188 59.5755C142.275 60.0936 141.511 60.8399 140.972 61.7414C140.432 62.6428 140.136 63.6687 140.112 64.7189C140.087 65.769 140.336 66.8076 140.833 67.7331C141.122 68.2697 141.488 68.7611 141.92 69.1917C142.338 69.5943 142.799 69.9497 143.296 70.2512L143.571 70.4232L143.254 70.5126C141.731 70.9136 140.332 71.6867 139.181 72.7624C138.308 73.5894 137.587 74.5626 137.049 75.6382C136.702 76.328 136.421 77.049 136.209 77.7916C136.134 78.0462 136.085 78.2457 136.051 78.3764C136.042 78.4451 136.023 78.5123 135.996 78.5759C135.984 78.5077 135.984 78.4378 135.996 78.3695C135.996 78.2319 136.051 78.0255 136.113 77.771C136.293 77.0116 136.554 76.2736 136.89 75.5694C137.412 74.4572 138.13 73.4481 139.009 72.5904C140.168 71.4733 141.587 70.6622 143.137 70.2305L143.096 70.492C142.577 70.1854 142.092 69.8232 141.651 69.4118C141.193 68.962 140.804 68.4474 140.495 67.8845C139.815 66.615 139.581 65.1538 139.83 63.7352C140.08 62.3166 140.799 61.023 141.871 60.062C143.047 59.0032 144.572 58.4172 146.154 58.4172C147.736 58.4172 149.262 59.0032 150.437 60.062C151.204 60.7516 151.794 61.6166 152.155 62.5832C152.515 63.5498 152.637 64.5894 152.509 65.6132C152.382 66.637 152.008 67.6148 151.421 68.4631C150.834 69.3114 150.05 70.0051 149.137 70.4851V70.2168C150.655 70.736 152.057 71.547 153.265 72.6041C154.189 73.4101 154.952 74.3835 155.514 75.4731C155.711 75.8765 155.874 76.2952 156.003 76.7252C156.11 77.0367 156.19 77.3566 156.244 77.6815C156.278 77.9223 156.306 78.1218 156.326 78.287C156.347 78.4521 156.388 78.459 156.374 78.459Z" fill="#263238"/>
<path d="M162.085 66.9143C162.063 66.8288 162.052 66.741 162.05 66.6528C162.05 66.4671 162.05 66.2194 161.995 65.9029L161.961 65.3456C161.961 65.1392 161.892 64.9191 161.851 64.6576C161.779 64.1019 161.667 63.5523 161.514 63.0133C161.14 61.5286 160.544 60.1091 159.746 58.8028C157.856 55.6489 154.927 53.2516 151.462 52.0224C147.997 50.7933 144.212 50.8092 140.757 52.0673C140.049 52.3224 139.359 52.6258 138.693 52.9755C138.02 53.3442 137.374 53.7603 136.76 54.2208C136.13 54.6875 135.533 55.1954 134.971 55.7412C134.415 56.3164 133.898 56.9278 133.423 57.5713C132.445 58.8885 131.686 60.3543 131.173 61.9125C130.091 65.1427 130.091 68.6377 131.173 71.8678C131.686 73.4282 132.445 74.8963 133.423 76.216C133.9 76.8581 134.417 77.4693 134.971 78.046C135.533 78.5918 136.13 79.0998 136.76 79.5665C137.375 80.0245 138.021 80.4406 138.693 80.8118C141.858 82.4806 145.49 83.0447 149.013 82.4148C151.225 82.0079 153.325 81.1373 155.176 79.8601C157.027 78.583 158.587 76.9284 159.752 75.0051C160.552 73.6969 161.148 72.2749 161.521 70.7877C161.674 70.251 161.786 69.7037 161.858 69.1502C161.899 68.9094 161.94 68.6893 161.968 68.4623L162.002 67.905C162.002 67.5885 162.043 67.3408 162.057 67.1482C162.059 67.0623 162.07 66.9769 162.092 66.8936C162.101 66.9805 162.101 67.0681 162.092 67.1551C162.092 67.3408 162.092 67.5954 162.092 67.9119C162.092 68.0839 162.092 68.2696 162.092 68.4691C162.092 68.6686 162.03 68.9026 162.002 69.1571C161.941 69.7168 161.837 70.271 161.693 70.8152C161.335 72.3236 160.751 73.7689 159.959 75.1014C158.799 77.064 157.236 78.7578 155.373 80.0708C153.51 81.3838 151.389 82.2859 149.15 82.7175C146.319 83.2475 143.397 83.0099 140.688 82.0295C139.967 81.7696 139.263 81.4616 138.583 81.1076C137.894 80.7321 137.232 80.3091 136.601 79.8417C135.957 79.3655 135.345 78.8461 134.771 78.2868C134.202 77.702 133.673 77.0791 133.189 76.4223C132.184 75.075 131.404 73.5742 130.877 71.9779C130.35 70.3337 130.069 68.6202 130.045 66.8936C130.067 65.164 130.35 63.4477 130.884 61.8025C131.407 60.2081 132.185 58.7093 133.189 57.3649C133.673 56.706 134.202 56.0807 134.771 55.4936C135.349 54.9401 135.96 54.4231 136.601 53.9456C137.232 53.4781 137.894 53.0551 138.583 52.6797C139.263 52.3256 139.967 52.0176 140.688 51.7577C143.395 50.7776 146.314 50.54 149.144 51.0698C151.383 51.5 153.506 52.4015 155.37 53.7146C157.235 55.0277 158.799 56.7222 159.959 58.6859C160.751 60.016 161.335 61.459 161.693 62.9652C161.837 63.5116 161.941 64.0682 162.002 64.6301C162.002 64.8709 162.071 65.098 162.092 65.3181C162.112 65.5383 162.092 65.7103 162.092 65.8823C162.092 66.1987 162.092 66.4533 162.092 66.6391C162.099 66.7308 162.097 66.8231 162.085 66.9143Z" fill="#263238"/>
<path d="M80.2477 139.291C71.8817 143.626 65.4627 151.09 60.8531 159.305C56.2436 167.52 53.2852 176.539 50.3199 185.49L47.74 231.655C57.4751 215.094 65.2907 195.624 67.4028 176.526L60.9219 175.948C65.2701 175.26 68.9164 172.136 71.2419 168.38C73.5673 164.623 74.7575 160.337 75.9202 156.106L68.0152 157.275C74.251 153.074 78.6311 146.634 80.2477 139.291Z" fill="#727272"/>
<path d="M80.2477 139.291C71.8817 143.626 65.4627 151.09 60.8531 159.305C56.2436 167.52 53.2852 176.539 50.3199 185.49L47.74 231.655C57.4751 215.094 65.2907 195.624 67.4028 176.526L60.9219 175.948C65.2701 175.26 68.9164 172.136 71.2419 168.38C73.5673 164.623 74.7575 160.337 75.9202 156.106L68.0152 157.275C74.251 153.074 78.6311 146.634 80.2477 139.291Z" fill="#727272"/>
<path d="M46.2952 242.477C46.2952 242.477 25.1669 217.179 25.4077 193.031H33.9457C33.9457 193.031 24.6715 186.935 25.4077 183.523C26.1438 180.11 26.3846 167.176 26.3846 167.176L34.1934 169.13C34.1934 169.13 28.3385 166.206 27.6024 161.562C26.8662 156.918 29.3086 135.487 29.3086 135.487C29.3086 135.487 38.8236 145.483 41.7544 155.728C44.6853 165.972 52.3633 177.922 50.1067 209.144C47.8501 240.365 46.2952 242.477 46.2952 242.477Z" fill="#727272"/>
<path d="M57.0141 244.878C57.0141 244.878 79.9106 229.625 84.9949 210.155L78.1149 208.29C78.1149 208.29 86.9075 205.415 87.0588 202.511C87.2102 199.608 89.8108 189.157 89.8108 189.157L83.1098 189.02C83.1098 189.02 88.4555 187.946 90.0585 184.383C91.6615 180.819 94.4548 163.007 94.4548 163.007C94.4548 163.007 84.6165 168.971 80.0069 176.567C75.3973 184.162 66.6185 192.088 61.603 217.682C56.5876 243.275 57.0141 244.878 57.0141 244.878Z" fill="#727272"/>
<path d="M35.0878 157.503C35.0878 157.503 35.0878 157.592 35.1566 157.764C35.2254 157.936 35.2666 158.218 35.3423 158.542C35.5006 159.23 35.7207 160.262 36.0303 161.548C36.3399 162.835 36.6633 164.451 37.0279 166.309C37.3925 168.167 37.8397 170.286 38.2663 172.632C39.1744 177.324 40.1239 182.952 41.1077 189.144C42.0915 195.335 43.0135 202.264 43.8597 209.501C44.7059 216.739 45.332 223.66 45.8274 229.955C46.3227 236.251 46.6461 241.933 46.8318 246.701C46.9557 249.089 47.0107 251.249 47.0726 253.148C47.1345 255.047 47.1689 256.677 47.1827 258.012C47.1965 259.347 47.1827 260.365 47.2171 261.087V261.885C47.2171 262.064 47.2171 262.16 47.2171 262.16C47.2056 262.069 47.2056 261.977 47.2171 261.885V261.087C47.2171 260.365 47.1552 259.333 47.1139 258.012C47.0726 256.691 47.0245 255.047 46.9419 253.155C46.8593 251.263 46.7837 249.102 46.6529 246.715C46.4259 241.947 46.0475 236.278 45.5659 229.983C45.0843 223.688 44.3963 216.78 43.5707 209.543C42.7451 202.305 41.7819 195.432 40.8188 189.192C39.8556 182.952 38.9268 177.344 38.0668 172.68C37.654 170.327 37.2343 168.215 36.8834 166.35C36.5325 164.486 36.1954 162.91 35.9409 161.576C35.6863 160.241 35.4799 159.271 35.3423 158.562C35.2804 158.225 35.2254 157.971 35.191 157.771C35.1482 157.685 35.1136 157.595 35.0878 157.503Z" fill="#263238"/>
<path d="M43.3643 257.95C43.3643 257.95 24.0248 236.023 18.0255 222.759L22.5593 220.798C19.2707 221.342 15.9064 219.931 13.354 217.785C10.8015 215.638 8.93705 212.817 7.1001 210.038L13.0719 209.027C7.57592 207.466 2.89361 203.846 0 198.92C7.04506 200.083 13.4228 203.949 18.6722 208.793C22.9309 212.707 26.5291 217.255 29.9897 221.906C31.6826 224.168 33.1547 226.587 34.386 229.13C37.6608 235.865 43.3781 249.907 43.3643 257.95Z" fill="#727272"/>
<path d="M85.2976 175.783C85.2778 175.86 85.2477 175.934 85.2081 176.003L84.9123 176.643C84.6302 177.221 84.2243 178.019 83.7289 179.071C83.2336 180.124 82.58 181.417 81.8645 182.924C81.149 184.431 80.3165 186.137 79.4427 188.043C77.654 191.847 75.6037 196.402 73.3953 201.493C71.1868 206.584 68.882 212.24 66.5635 218.211C64.2449 224.183 62.1878 229.907 60.3715 235.17C58.5552 240.434 57.0279 245.181 55.7895 249.192C55.1565 251.194 54.6268 253.017 54.1383 254.613C53.6498 256.209 53.2508 257.585 52.9274 258.741C52.6041 259.897 52.3495 260.723 52.1638 261.335L51.9574 262.023C51.9378 262.101 51.9102 262.177 51.8748 262.25C51.884 262.168 51.9001 262.088 51.923 262.009C51.9642 261.837 52.0262 261.617 52.095 261.321L52.7829 258.707C53.0857 257.578 53.4709 256.189 53.9319 254.579C54.3929 252.969 54.9157 251.139 55.5349 249.144C56.7389 245.119 58.2869 240.358 60.0413 235.095C61.7957 229.832 63.9078 224.087 66.2332 218.108C68.5587 212.129 70.891 206.488 73.1132 201.39C75.3354 196.292 77.42 191.758 79.2295 187.967C80.1239 186.061 80.9701 184.362 81.7062 182.862C82.4424 181.362 83.0822 180.11 83.6257 179.037L84.8641 176.636L85.1944 176.017C85.2208 175.935 85.2554 175.857 85.2976 175.783Z" fill="#263238"/>
<path d="M45.0086 267.368C44.9635 267.237 44.9335 267.101 44.9192 266.962L44.7334 265.8C44.6578 265.291 44.5683 264.671 44.4307 263.956C44.2931 263.24 44.183 262.422 43.9835 261.527C43.6395 259.732 43.1442 257.613 42.5112 255.273C41.8783 252.934 41.0595 250.416 40.0757 247.802C39.0919 245.187 38.0117 242.759 36.966 240.578C35.9202 238.397 34.902 236.491 33.9388 234.916C33.4916 234.111 33.0444 233.416 32.666 232.797C32.2876 232.177 31.978 231.641 31.6753 231.214L31.0423 230.217C30.9652 230.104 30.8984 229.984 30.8428 229.859C30.9439 229.952 31.0319 230.058 31.1043 230.175L31.7923 231.139C32.0881 231.551 32.4458 232.074 32.838 232.687C33.2302 233.299 33.6911 233.987 34.1521 234.785C35.1153 236.347 36.1679 238.266 37.2618 240.433C38.3557 242.601 39.4152 245.057 40.4128 247.671C41.4104 250.285 42.1947 252.845 42.8277 255.191C43.4606 257.537 43.9216 259.677 44.2037 261.479C44.3826 262.38 44.4858 263.206 44.5958 263.928C44.7059 264.651 44.7885 265.27 44.8366 265.779C44.8848 266.288 44.9261 266.646 44.9536 266.956C44.9903 267.09 45.0088 267.229 45.0086 267.368Z" fill="#263238"/>
<path d="M70.5263 262.208H28.2009V270.843H70.5263V262.208Z" fill="#3A3A3A"/>
<path d="M32.2326 270.843L36.8146 299.883H62.3874L66.6529 270.843H32.2326Z" fill="#3A3A3A"/>
<path d="M67.9326 270.843C67.9326 270.939 59.9244 271.022 50.0448 271.022C40.1652 271.022 32.1569 270.939 32.1569 270.843C32.1569 270.746 40.1652 270.657 50.0448 270.657C59.9244 270.657 67.9326 270.74 67.9326 270.843Z" fill="#263238"/>
<g opacity="0.3">
<path d="M80.2477 139.291C71.8817 143.626 65.4627 151.09 60.8531 159.305C56.2436 167.52 53.2852 176.539 50.3199 185.49L47.74 231.655C57.4751 215.094 65.2907 195.624 67.4028 176.526L60.9219 175.948C65.2701 175.26 68.9164 172.136 71.2419 168.38C73.5673 164.623 74.7575 160.337 75.9202 156.106L68.0152 157.275C74.251 153.074 78.6311 146.634 80.2477 139.291Z" fill="black"/>
</g>
<path d="M277.31 176.553C277.31 176.553 284.328 188.201 285.373 199.291C286.419 210.382 279.009 300 279.009 300H191.703C191.703 300 215.095 189.336 222.745 182.236L223.268 174.875L277.31 176.553Z" fill="#263238"/>
<path d="M281.039 185.435C281.058 185.956 281.047 186.477 281.005 186.997C280.904 188.49 280.625 189.966 280.172 191.393C279.465 193.663 278.361 195.79 276.911 197.674C276.008 198.854 274.968 199.923 273.815 200.86C272.513 201.884 271.133 202.804 269.687 203.612C268.18 204.492 266.57 205.346 264.961 206.364C263.274 207.361 261.738 208.593 260.399 210.024C259.032 211.612 257.977 213.445 257.289 215.425C256.602 217.547 256.125 219.732 255.865 221.947C255.556 224.217 255.356 226.563 255.047 228.958C254.768 231.411 254.214 233.825 253.395 236.154C252.508 238.576 251.057 240.752 249.164 242.504C247.183 244.249 244.94 245.672 242.518 246.722C237.702 248.93 232.639 250.34 228.366 252.914C226.271 254.154 224.437 255.79 222.965 257.73C221.62 259.644 220.587 261.759 219.904 263.997C218.528 268.359 217.909 272.714 216.767 276.656C216.615 277.145 216.464 277.633 216.319 278.115C216.175 278.596 215.982 279.057 215.817 279.525C215.464 280.433 215.064 281.321 214.62 282.188C214.214 283.048 213.698 283.832 213.244 284.616C212.989 284.995 212.728 285.366 212.473 285.731L212.095 286.274L211.682 286.79C209.743 289.265 207.42 291.414 204.802 293.154C202.83 294.472 200.705 295.544 198.473 296.347C197.062 296.841 195.615 297.226 194.145 297.496L192.996 297.668L192.597 297.716L192.989 297.633L194.131 297.427C195.59 297.13 197.025 296.725 198.425 296.216C203.587 294.296 208.113 290.978 211.496 286.632L211.902 286.123L212.281 285.58L213.038 284.472C213.492 283.694 214.001 282.917 214.414 282.057C214.852 281.2 215.245 280.321 215.59 279.422C215.755 278.961 215.913 278.493 216.079 278.046C216.244 277.599 216.374 277.083 216.519 276.594C217.647 272.68 218.225 268.338 219.629 263.915C220.321 261.643 221.368 259.495 222.731 257.551C224.226 255.563 226.096 253.887 228.235 252.618C232.563 249.996 237.613 248.586 242.415 246.384C244.804 245.362 247.016 243.969 248.972 242.257C250.816 240.547 252.231 238.425 253.1 236.065C253.9 233.74 254.436 231.333 254.696 228.889C255.005 226.508 255.212 224.162 255.528 221.885C255.797 219.649 256.28 217.444 256.973 215.301C257.682 213.284 258.763 211.417 260.158 209.797C261.524 208.352 263.087 207.108 264.802 206.102C266.426 205.112 268.043 204.259 269.543 203.399C270.987 202.588 272.367 201.668 273.671 200.647C274.812 199.727 275.844 198.679 276.746 197.523C278.191 195.665 279.301 193.57 280.028 191.331C280.497 189.917 280.799 188.453 280.929 186.969C280.984 186.46 280.984 186.075 281.005 185.807C281.025 185.538 281.039 185.435 281.039 185.435Z" fill="#455A64"/>
<path d="M283.488 193.581C283.538 193.695 283.582 193.813 283.619 193.932C283.743 194.273 283.842 194.622 283.915 194.978C284.181 196.36 284.156 197.782 283.839 199.154C283.345 201.326 282.369 203.36 280.984 205.105C279.11 207.361 276.984 209.394 274.647 211.166C272.15 213.23 269.309 215.439 267.128 218.562C265.998 220.165 265.207 221.982 264.802 223.901C264.422 225.945 264.192 228.015 264.114 230.093C264.033 232.302 263.726 234.496 263.199 236.643C262.622 238.879 261.779 241.039 260.688 243.075C258.392 247.375 255.063 251.037 251.001 253.732C246.797 256.484 242.057 257.805 237.895 259.876C235.832 260.846 233.933 262.132 232.267 263.688C230.72 265.228 229.47 267.04 228.579 269.033C226.811 272.927 226.082 276.98 225.098 280.667C224.642 282.46 224.081 284.224 223.419 285.951C222.789 287.54 221.984 289.054 221.018 290.464C220.124 291.732 219.08 292.887 217.909 293.904C217.372 294.407 216.787 294.819 216.244 295.246C215.7 295.673 215.122 296.023 214.544 296.326C212.622 297.454 210.531 298.267 208.352 298.734C206.983 299.019 205.588 299.164 204.19 299.168L203.103 299.113H204.19C205.579 299.075 206.961 298.907 208.318 298.61C210.465 298.119 212.522 297.295 214.414 296.168C214.978 295.865 215.507 295.48 216.078 295.088C216.65 294.696 217.193 294.248 217.723 293.746C218.875 292.725 219.9 291.571 220.777 290.306C221.723 288.906 222.512 287.406 223.13 285.834C223.779 284.115 224.328 282.36 224.775 280.578C225.752 276.904 226.46 272.831 228.215 268.882C229.117 266.849 230.386 265 231.957 263.426C233.649 261.844 235.578 260.537 237.675 259.553C241.871 257.454 246.619 256.113 250.747 253.423C256.706 249.471 261.001 243.463 262.814 236.546C263.336 234.42 263.642 232.246 263.729 230.059C263.798 227.959 264.028 225.869 264.417 223.805C264.833 221.848 265.642 219.996 266.797 218.363C269.027 215.205 271.902 212.989 274.407 210.946C276.771 209.207 278.93 207.203 280.839 204.974C282.222 203.26 283.206 201.26 283.722 199.119C284.041 197.766 284.088 196.363 283.86 194.991C283.66 194.056 283.461 193.588 283.488 193.581Z" fill="#455A64"/>
<path d="M194.874 131.263C194.874 131.263 200.537 170.313 209.247 174.104C213.636 176.023 217.166 174.372 219.567 169.976C221.968 165.58 228.098 133.636 228.098 133.636L211.152 133.237L210.52 139.587L203.984 127.43L194.874 131.263Z" fill="#FFBE9D"/>
<path d="M219.856 156.76C219.822 156.65 219.774 156.546 219.711 156.45L219.25 155.597L217.544 152.467C216.085 149.825 214.104 146.165 211.896 142.112C209.687 138.06 207.768 134.407 206.343 131.703L204.665 128.545L204.204 127.692C204.094 127.499 204.032 127.396 204.018 127.403C204.049 127.512 204.09 127.618 204.142 127.719L204.555 128.6C204.919 129.364 205.456 130.458 206.137 131.813C207.513 134.51 209.419 138.211 211.641 142.264C213.863 146.316 215.865 149.962 217.372 152.584C218.129 153.891 218.748 154.936 219.195 155.659L219.711 156.484C219.75 156.581 219.799 156.673 219.856 156.76Z" fill="#FFBE9D"/>
<path d="M278.906 140.392L274.07 162.03L276.361 176.553H223.206L226.68 108.765L239.931 107.637L272.308 113.106L278.906 140.392Z" fill="#FFA500"/>
<path d="M265.387 112.714C265.387 112.714 279.229 111.441 285.827 120.86C289.866 126.625 295.528 139.869 295.528 139.869L277.097 143.055L265.387 112.714Z" fill="#FFA500"/>
<g opacity="0.3">
<path d="M273.781 140.647C272.845 138.733 271.384 137.124 269.569 136.009C267.754 134.893 265.66 134.316 263.53 134.345C262.608 134.345 261.569 134.592 261.08 135.37C260.592 136.147 260.86 137.262 261.218 138.163C261.679 139.34 262.291 140.585 263.419 141.149C264.245 141.562 265.215 141.541 266.103 141.837C267.162 142.244 268.13 142.856 268.951 143.64C269.688 144.189 270.323 144.861 270.829 145.628C271.169 146.278 271.415 146.973 271.558 147.692C272.46 151.228 273.175 158.528 274.07 162.064L275.06 159.016C275.088 156.108 275.113 153.2 275.136 150.292C275.164 146.99 275.164 143.605 273.781 140.647Z" fill="black"/>
</g>
<path d="M257.255 158.686C257.255 158.631 257.943 158.755 259.14 158.844C260.651 158.964 262.17 158.927 263.674 158.734C265.178 158.533 266.658 158.18 268.091 157.682C269.192 157.296 269.852 156.994 269.873 157.042C269.742 157.151 269.596 157.241 269.439 157.31C269.029 157.528 268.606 157.723 268.173 157.895C265.301 159.036 262.189 159.443 259.119 159.078C258.656 159.025 258.197 158.944 257.743 158.837C257.573 158.815 257.408 158.764 257.255 158.686Z" fill="#263238"/>
<path d="M234.056 159.635C234.056 159.553 241.624 161.699 250.85 164.451C260.076 167.203 267.589 169.46 267.561 169.549C267.534 169.639 259.993 167.485 250.76 164.733C241.527 161.981 234.056 159.725 234.056 159.635Z" fill="#263238"/>
<g opacity="0.3">
<path d="M257.633 158.775C258.311 159.78 259.251 160.581 260.35 161.092C261.45 161.602 262.668 161.803 263.874 161.672C265.024 161.543 266.113 161.085 267.01 160.353C267.907 159.621 268.574 158.645 268.93 157.544C265.336 158.931 261.442 159.356 257.633 158.775Z" fill="black"/>
</g>
<g opacity="0.3">
<path d="M265.545 168.861L265.353 168.937C260.606 169.783 256.154 168.937 251.593 167.313C247.031 165.69 242.807 163.364 238.603 161.004L265.545 168.861Z" fill="black"/>
</g>
<path d="M226.681 108.765C226.681 108.765 217.916 109.838 214.517 117.324C212.181 122.662 210.205 128.151 208.6 133.753L226.488 137.778C226.488 137.778 229.302 122.642 229.515 117.324C229.756 111.483 229.99 108.593 226.681 108.765Z" fill="#FFA500"/>
<path d="M224.995 140.172C224.836 138.505 224.786 136.83 224.844 135.157C224.794 133.485 224.851 131.812 225.016 130.148C225.174 131.812 225.225 133.485 225.167 135.157C225.216 136.83 225.159 138.506 224.995 140.172Z" fill="#263238"/>
<path d="M234.703 60.8051C239.429 55.0259 245.786 51.696 253.278 51.5722C257.489 51.5034 259.236 52.3771 262.271 53.1958C265.303 53.9292 267.981 55.7044 269.838 58.2113C271.992 61.266 273.801 64.6853 274.207 68.3936C274.62 72.212 275.04 76.051 274.751 79.8763C274.462 83.7015 273.43 87.5474 271.173 90.6571L261.438 92.3496C256.058 92.5285 250.609 92.7074 245.373 91.4827C240.138 90.2581 235.053 87.4373 232.246 82.8484C228.352 76.4707 229.969 66.5911 234.703 60.8051Z" fill="#263238"/>
<path d="M268.222 96.1335C268.222 96.1335 268.38 96.3743 268.806 96.6426C269.413 97.0197 270.098 97.2549 270.808 97.3306C271.88 97.4493 272.963 97.2304 273.904 96.7045C275.048 96.0123 275.88 94.9059 276.229 93.6156C276.577 92.3252 276.415 90.9502 275.776 89.7764C275.229 88.8495 274.406 88.1161 273.423 87.678C272.775 87.3852 272.07 87.2395 271.359 87.2515C271.098 87.2332 270.838 87.283 270.602 87.396C271.523 87.4328 272.428 87.6429 273.271 88.0152C274.138 88.4662 274.855 89.1594 275.335 90.0103C275.865 91.0684 275.987 92.2845 275.677 93.4265C275.368 94.5686 274.648 95.5567 273.657 96.2023C272.825 96.6931 271.869 96.9321 270.905 96.8903C269.97 96.8146 269.058 96.5576 268.222 96.1335Z" fill="#E0E0E0"/>
<path d="M225.263 89.0608C225.356 87.9527 225.701 86.8806 226.273 85.9266C226.844 84.9726 227.626 84.162 228.559 83.5569C229.507 82.9826 230.613 82.7244 231.717 82.8196C232.821 82.9148 233.867 83.3585 234.703 84.0866L236.237 85.9098C237.422 86.4604 238.407 87.3662 239.054 88.5016C239.701 89.637 239.979 90.9458 239.849 92.2462C239.671 93.5422 239.127 94.7606 238.282 95.7586C237.436 96.7566 236.323 97.4928 235.074 97.8809C233.816 98.2344 232.489 98.2587 231.219 97.9515C229.949 97.6442 228.78 97.0158 227.823 96.1265C226.887 95.2211 226.169 94.114 225.726 92.8896C225.282 91.6652 225.124 90.3557 225.263 89.0608Z" fill="#263238"/>
<path d="M227.176 95.6243C226.802 95.0488 226.619 94.3698 226.653 93.6842C226.736 92.4389 227.637 90.8084 228.875 89.3154C229.964 88.0326 231.288 86.97 232.776 86.1851C233.918 85.5727 234.703 85.3526 234.675 85.27C233.952 85.3301 233.25 85.5386 232.611 85.8823C231.018 86.6007 229.607 87.6682 228.483 89.0058C227.859 89.7343 227.33 90.5388 226.908 91.4001C226.527 92.1011 226.313 92.8803 226.281 93.6773C226.267 94.223 226.418 94.7603 226.715 95.2184C226.99 95.5349 227.176 95.645 227.176 95.6243Z" fill="#455A64"/>
<path d="M231.902 98.5002C232.061 98.5002 231.4 95.5487 232.336 92.0675C233.272 88.5862 235.239 86.3433 235.088 86.2539C234.573 86.6514 234.137 87.1414 233.801 87.6987C232.908 88.9911 232.249 90.4302 231.854 91.9505C231.458 93.4692 231.328 95.0451 231.469 96.6082C231.497 97.26 231.644 97.9011 231.902 98.5002Z" fill="#455A64"/>
<path d="M261.438 108.139C261.376 104.699 261.293 101.947 261.293 101.947C261.293 101.947 269.233 101.073 271.421 90.9048C272.515 85.8481 272.714 77.4614 272.659 70.6021C272.611 64.4102 267.348 56.0166 259.725 55.9891L256.333 55.5901L243.357 60.75C242.452 60.7927 241.595 61.1743 240.958 61.8193C240.321 62.4642 239.949 63.3252 239.918 64.2313L239.56 107.671L252.102 138.122L261.101 125.924L261.438 108.139Z" fill="#FFBE9D"/>
<path d="M256.168 88.5174C256.244 87.9965 256.508 87.5215 256.911 87.1827C257.28 86.8653 257.743 86.6779 258.229 86.6493C258.715 86.6208 259.197 86.7526 259.601 87.0245C260.02 87.3465 260.344 87.7748 260.542 88.2648C260.739 88.7548 260.801 89.2886 260.723 89.8109C260.5 90.124 260.213 90.3856 259.881 90.5779C259.548 90.7702 259.178 90.8887 258.796 90.9254C258.675 90.9324 258.553 90.9324 258.431 90.9254C257.826 90.9225 257.244 90.6916 256.801 90.2787C256.569 90.052 256.392 89.7757 256.282 89.4707C256.173 89.1656 256.134 88.8397 256.168 88.5174Z" fill="#FFBE9D"/>
<path d="M267.616 77.6196C267.602 77.9633 267.453 78.2877 267.202 78.5231C266.952 78.7585 266.618 78.8861 266.275 78.8786C266.106 78.8832 265.939 78.8541 265.782 78.7929C265.625 78.7317 265.483 78.6396 265.362 78.5223C265.241 78.4049 265.146 78.2645 265.08 78.1095C265.015 77.9545 264.981 77.7879 264.981 77.6196C264.997 77.2765 265.146 76.9532 265.397 76.7181C265.647 76.4831 265.979 76.3548 266.323 76.3606C266.491 76.356 266.658 76.3851 266.815 76.4464C266.972 76.5076 267.115 76.5996 267.235 76.717C267.356 76.8343 267.452 76.9747 267.517 77.1297C267.583 77.2848 267.616 77.4513 267.616 77.6196Z" fill="#263238"/>
<path d="M270.134 74.4066C269.962 74.5648 269.006 73.7736 267.589 73.7186C266.171 73.6635 265.098 74.2965 264.954 74.1176C264.809 73.9387 265.064 73.7323 265.532 73.4296C266.17 73.0409 266.911 72.8561 267.657 72.8999C268.395 72.9396 269.1 73.2117 269.673 73.6773C270.086 74.0144 270.217 74.3309 270.134 74.4066Z" fill="#263238"/>
<path d="M261.239 85.1324C261.996 84.9369 262.775 84.8397 263.557 84.8434C263.922 84.8434 264.245 84.7746 264.341 84.5269C264.396 84.157 264.333 83.7794 264.162 83.4468C263.867 82.5524 263.564 81.6099 263.241 80.6329C261.975 76.6288 261.073 73.347 261.239 73.2989C261.404 73.2507 262.559 76.4499 263.825 80.454C264.128 81.4378 264.424 82.3804 264.699 83.2817C264.904 83.7282 264.943 84.2331 264.809 84.7058C264.751 84.8319 264.664 84.9424 264.556 85.0285C264.447 85.1146 264.319 85.1738 264.183 85.2012C263.98 85.2482 263.772 85.2667 263.564 85.2562C262.787 85.3158 262.005 85.2741 261.239 85.1324Z" fill="#263238"/>
<path d="M261.293 101.94C256.458 101.749 251.771 100.22 247.754 97.5232C247.754 97.5232 251.022 104.837 261.349 104.438L261.293 101.94Z" fill="#FFBE9D"/>
<path d="M257.014 85.8824C257.248 85.8824 257.166 87.4167 258.39 88.5794C259.615 89.7421 261.294 89.6664 261.294 89.8797C261.294 89.976 260.915 90.1618 260.22 90.1411C259.319 90.1032 258.459 89.7502 257.792 89.1435C257.155 88.5582 256.768 87.75 256.711 86.8869C256.718 86.2402 256.911 85.8687 257.014 85.8824Z" fill="#263238"/>
<path d="M269.832 69.0679C269.577 69.3982 268.504 69.1092 267.231 69.1436C265.958 69.178 264.892 69.4532 264.63 69.1436C264.513 68.9854 264.672 68.6551 265.126 68.3318C265.75 67.9264 266.48 67.7135 267.224 67.7194C267.964 67.6942 268.695 67.8906 269.322 68.2836C269.832 68.5794 269.962 68.9028 269.832 69.0679Z" fill="#263238"/>
<path d="M251.139 77.2481C251.122 77.5955 251.243 77.9355 251.477 78.1935C251.71 78.4514 252.037 78.6062 252.384 78.624C252.551 78.6391 252.719 78.6209 252.879 78.5705C253.039 78.52 253.187 78.4384 253.315 78.3302C253.443 78.222 253.548 78.0895 253.625 77.9404C253.701 77.7912 253.747 77.6284 253.76 77.4613C253.777 77.1139 253.655 76.7739 253.422 76.5159C253.188 76.258 252.862 76.1031 252.515 76.0853C252.348 76.0693 252.179 76.0869 252.019 76.1369C251.859 76.187 251.71 76.2686 251.582 76.3769C251.454 76.4853 251.348 76.6181 251.272 76.7677C251.196 76.9173 251.151 77.0806 251.139 77.2481Z" fill="#263238"/>
<path d="M250.733 73.8976C250.891 74.0696 251.902 73.3472 253.32 73.3747C254.737 73.4023 255.762 74.1315 255.92 73.9595C256.078 73.7875 255.838 73.5743 255.39 73.2715C254.789 72.8363 254.069 72.5962 253.327 72.5835C252.589 72.5656 251.866 72.7851 251.263 73.2096C250.802 73.5123 250.65 73.815 250.733 73.8976Z" fill="#263238"/>
<path d="M249.914 70.8497C250.189 71.1799 251.29 70.8497 252.604 70.8497C253.918 70.8497 255.033 71.1111 255.294 70.774C255.404 70.6157 255.239 70.2924 254.758 69.9759C254.097 69.5893 253.342 69.394 252.577 69.4118C251.816 69.406 251.069 69.6159 250.423 70.0172C249.955 70.3612 249.797 70.6914 249.914 70.8497Z" fill="#263238"/>
<path d="M241.693 81.4722C241.734 80.7016 240.95 78.8578 240.2 78.7202C238.204 78.3005 234.558 78.2592 234.248 83.3779C233.815 90.3679 240.922 89.3566 240.95 89.1571C240.977 88.9576 241.555 84.1072 241.693 81.4722Z" fill="#FFBE9D"/>
<path d="M239.181 86.4602C239.147 86.4602 239.051 86.5358 238.837 86.6184C238.541 86.7231 238.217 86.7108 237.929 86.584C237.207 86.2675 236.656 85.0498 236.698 83.7907C236.717 83.1891 236.87 82.5992 237.145 82.0639C237.222 81.8485 237.352 81.6558 237.523 81.5032C237.693 81.3506 237.899 81.243 238.122 81.1901C238.263 81.1626 238.409 81.1854 238.535 81.2545C238.66 81.3237 238.758 81.4348 238.81 81.5685C238.892 81.768 238.844 81.9056 238.879 81.9194C238.913 81.9332 239.037 81.8093 238.996 81.5204C238.969 81.3446 238.881 81.1839 238.748 81.0663C238.655 80.9834 238.546 80.921 238.427 80.883C238.309 80.8451 238.184 80.8325 238.06 80.8461C237.769 80.884 237.492 80.9963 237.257 81.1723C237.022 81.3483 236.837 81.5819 236.718 81.8506C236.386 82.4374 236.199 83.0959 236.175 83.7701C236.134 85.1874 236.773 86.5221 237.771 86.9005C237.955 86.9664 238.151 86.9901 238.345 86.9699C238.539 86.9496 238.726 86.8859 238.892 86.7835C239.154 86.639 239.202 86.4739 239.181 86.4602Z" fill="#FFBE9D"/>
<path d="M239.911 78.7133L241.693 80.5572C249.364 73.2163 264.362 54.8262 263.523 55.9201C260.026 54.6146 256.258 54.2054 252.563 54.7299C246.853 55.6999 236.051 58.5551 236.202 65.2906C236.354 72.026 239.911 78.7133 239.911 78.7133Z" fill="#263238"/>
<path d="M240.076 96.1334C240.076 96.1334 239.918 96.3742 239.498 96.6425C238.889 97.0206 238.202 97.2558 237.489 97.3305C236.419 97.4491 235.339 97.2302 234.4 96.7044C233.257 96.0121 232.424 94.9063 232.074 93.6163C231.724 92.3264 231.885 90.9513 232.522 89.7763C233.071 88.8489 233.896 88.1156 234.881 87.678C235.529 87.3838 236.234 87.2381 236.945 87.2514C237.208 87.2356 237.47 87.2853 237.709 87.3959C236.791 87.4431 235.89 87.6625 235.053 88.0426C234.187 88.4943 233.47 89.1873 232.989 90.0378C232.46 91.0959 232.338 92.3119 232.648 93.454C232.957 94.596 233.677 95.5841 234.668 96.2297C235.512 96.7265 236.483 96.9657 237.461 96.9177C238.375 96.8266 239.263 96.5603 240.076 96.1334Z" fill="#E0E0E0"/>
<path d="M229.749 77.1724C229.773 77.034 229.81 76.8982 229.859 76.7665C229.986 76.3868 230.145 76.0185 230.334 75.6657C231.057 74.3696 232.055 73.2472 233.258 72.3771C235.042 71.1033 237.032 70.1446 239.14 69.5425C241.479 68.7857 244.121 68.1666 246.708 67.0795C249.143 66.0605 251.452 64.763 253.588 63.213C255.339 61.9413 256.972 60.5136 258.466 58.9474C259.468 57.8869 260.41 56.7706 261.287 55.6038L261.975 54.6337C262.06 54.5143 262.157 54.4037 262.264 54.3035C262.215 54.4339 262.148 54.5567 262.064 54.6681C261.913 54.902 261.706 55.246 261.376 55.6726C260.542 56.8833 259.622 58.0328 258.624 59.1125C257.146 60.7163 255.517 62.1746 253.76 63.4676C251.602 65.0528 249.262 66.374 246.791 67.4029C244.313 68.3522 241.787 69.1698 239.223 69.8521C237.141 70.4286 235.169 71.3469 233.388 72.5697C232.198 73.4085 231.193 74.4835 230.437 75.7276C229.928 76.6289 229.79 77.1862 229.749 77.1724Z" fill="#455A64"/>
<path d="M231.785 78.2731C231.768 77.7502 231.862 77.2296 232.061 76.7457C232.586 75.4083 233.502 74.2599 234.689 73.4502C236.147 72.3632 238.232 71.689 240.523 71.1661C243.018 70.6683 245.45 69.8954 247.774 68.8613C250.086 67.8026 252.258 66.4623 254.242 64.8709C255.857 63.5674 257.341 62.1088 258.672 60.5159C259.566 59.4359 260.391 58.3008 261.142 57.1172L261.734 56.1403C261.798 56.0227 261.874 55.9121 261.961 55.8101C261.925 55.9395 261.869 56.0625 261.796 56.1747C261.658 56.443 261.479 56.7801 261.259 57.1929C260.549 58.4113 259.748 59.575 258.865 60.6742C255.929 64.3238 252.184 67.2399 247.926 69.1915C245.58 70.2398 243.121 71.0155 240.599 71.5032C238.308 72.0123 236.271 72.6453 234.833 73.6773C233.669 74.4467 232.751 75.5361 232.191 76.8145C232.011 77.2871 231.875 77.7754 231.785 78.2731Z" fill="#455A64"/>
<path d="M195.583 135.074C195.191 134.93 194.675 129.364 194.675 129.364C194.675 129.364 189.109 124.912 188.352 123.103C187.596 121.294 187.706 116.98 187.706 116.98L196.822 110.788C196.822 110.788 202.209 115.604 203.619 117.503C204.41 118.562 204.995 121.486 205.408 123.853C205.738 125.865 205.814 127.911 205.635 129.942L205.504 131.51C205.504 131.51 201.837 137.399 195.583 135.074Z" fill="#FFBE9D"/>
<path d="M188.772 124.197C188.117 123.615 187.494 122.997 186.908 122.346C185.724 121.067 184.41 119.869 185.532 118.514C185.7 118.29 185.914 118.104 186.159 117.969C186.405 117.834 186.676 117.752 186.956 117.73C186.956 117.73 186.268 116.54 186.866 115.79C187.035 115.568 187.254 115.39 187.505 115.27C187.757 115.151 188.033 115.093 188.311 115.102C188.311 115.102 187.424 113.395 188.242 112.246C188.554 111.827 188.977 111.503 189.463 111.311C189.95 111.119 190.48 111.066 190.994 111.159C190.994 111.159 187.3 103.633 187.08 103.247C186.254 101.823 186.33 100.268 187.981 100.096C188.586 100.035 189.109 100.509 190.678 102.848C192.246 105.188 194.875 109.144 194.875 109.144C194.875 109.144 197.743 111.572 199.181 112.934C200.619 114.297 203.626 117.489 204.128 118.438C205.415 120.908 205.139 124.885 205.139 124.885L194.682 129.364C194.682 129.364 189.446 124.795 188.772 124.197Z" fill="#FFBE9D"/>
<path d="M187.272 117.991C187.706 118.247 188.12 118.534 188.511 118.851L189.825 119.828C190.09 120.019 190.339 120.233 190.568 120.468C190.835 120.728 191.009 121.069 191.063 121.438C191.097 121.629 191.08 121.825 191.012 122.007C190.944 122.188 190.829 122.348 190.678 122.47C190.385 122.673 190.025 122.754 189.673 122.697C189.379 122.666 189.089 122.606 188.806 122.518C188.538 122.442 188.297 122.367 188.07 122.291C187.63 122.146 187.272 122.016 187.031 121.913C186.791 121.809 186.667 121.747 186.674 121.727C186.681 121.706 187.231 121.885 188.118 122.133C188.633 122.291 189.16 122.408 189.694 122.484C189.988 122.519 190.284 122.451 190.533 122.291C190.65 122.191 190.738 122.062 190.79 121.917C190.842 121.773 190.856 121.617 190.829 121.465C190.777 121.147 190.625 120.853 190.396 120.626C190.184 120.398 189.954 120.189 189.708 120L188.421 118.975C188.01 118.681 187.626 118.352 187.272 117.991Z" fill="#FFBE9D"/>
<path d="M196.374 115.762C196.078 115.235 195.91 114.646 195.886 114.042C195.781 113.448 195.817 112.838 195.989 112.26C196.065 112.26 195.989 113.058 196.12 114.021C196.251 114.984 196.443 115.741 196.374 115.762Z" fill="#FFBE9D"/>
<path d="M201.438 116.526C200.108 115.93 198.634 115.732 197.193 115.955C195.758 116.176 194.366 116.617 193.065 117.262C192.019 117.757 190.877 118.486 190.733 119.635C190.588 120.784 191.668 121.885 192.838 122.112C194.028 122.244 195.23 122.004 196.278 121.424C197.318 120.83 198.427 120.368 199.58 120.048" fill="#FFBE9D"/>
<path d="M199.594 120.083C199.594 120.083 199.285 120.158 198.741 120.365C197.988 120.673 197.25 121.02 196.533 121.404C196.027 121.664 195.5 121.88 194.957 122.05C194.326 122.258 193.657 122.326 192.996 122.25C192.248 122.152 191.567 121.767 191.097 121.177C190.842 120.867 190.676 120.493 190.616 120.096C190.572 119.681 190.654 119.261 190.85 118.892C191.276 118.219 191.891 117.686 192.618 117.358C193.261 117.035 193.923 116.751 194.599 116.505C195.747 116.075 196.959 115.843 198.184 115.817C199.008 115.797 199.83 115.92 200.612 116.182C200.826 116.253 201.036 116.338 201.238 116.436C201.309 116.468 201.376 116.507 201.438 116.553C201.438 116.553 201.142 116.429 200.585 116.271C199.804 116.053 198.994 115.958 198.184 115.989C196.981 116.045 195.795 116.298 194.675 116.739C194.009 116.984 193.359 117.268 192.728 117.592C192.044 117.901 191.465 118.403 191.063 119.037C190.884 119.357 190.812 119.726 190.857 120.089C190.906 120.445 191.051 120.78 191.276 121.06C191.711 121.603 192.335 121.962 193.024 122.064C193.655 122.137 194.295 122.079 194.902 121.892C195.438 121.731 195.961 121.526 196.464 121.28C197.193 120.909 197.944 120.582 198.714 120.303C198.925 120.233 199.141 120.178 199.36 120.138C199.435 120.108 199.514 120.09 199.594 120.083Z" fill="#FFBE9D"/>
<path d="M187.403 118.087C189.144 119.388 190.843 120.908 192.412 122.374C192.841 122.844 193.387 123.193 193.994 123.385C194.482 123.488 195.329 122.697 195.721 122.353L190.1 116.45" fill="#FFBE9D"/>
<path d="M190.1 116.45C190.271 116.572 190.428 116.713 190.568 116.87L191.779 118.094C192.804 119.14 194.221 120.605 195.81 122.27L195.893 122.36L195.796 122.442C195.496 122.712 195.182 122.964 194.854 123.199C194.712 123.293 194.563 123.373 194.407 123.44C194.323 123.474 194.235 123.495 194.145 123.502C194.054 123.52 193.961 123.52 193.87 123.502C193.558 123.41 193.267 123.261 193.01 123.062C192.508 122.676 192.109 122.257 191.689 121.885C190.864 121.128 190.12 120.454 189.488 119.897C188.855 119.34 188.325 118.899 187.96 118.596C187.764 118.448 187.578 118.287 187.403 118.115C187.621 118.23 187.827 118.369 188.015 118.528C188.4 118.803 188.944 119.216 189.591 119.766C190.237 120.316 191.008 120.97 191.834 121.727C192.253 122.092 192.673 122.518 193.148 122.876C193.382 123.057 193.648 123.192 193.932 123.275C194.073 123.291 194.215 123.278 194.351 123.235C194.486 123.192 194.61 123.121 194.716 123.027C195.039 122.799 195.349 122.553 195.645 122.291V122.415C194.056 120.743 192.666 119.257 191.668 118.184L190.506 116.911C190.361 116.765 190.226 116.612 190.1 116.45Z" fill="#FFBE9D"/>
<path d="M188.517 114.661L194.187 121.046C194.562 121.523 195.015 121.932 195.528 122.257C195.785 122.417 196.079 122.511 196.381 122.53C196.684 122.55 196.986 122.493 197.262 122.367C197.605 122.13 197.858 121.785 197.983 121.387C198.107 120.99 198.096 120.562 197.95 120.172C197.644 119.394 197.175 118.69 196.574 118.108C194.863 116.168 193.306 114.098 191.916 111.916" fill="#FFBE9D"/>
<path d="M191.93 111.896C191.93 111.896 191.992 111.957 192.088 112.095L192.501 112.694C192.866 113.21 193.388 113.953 194.063 114.854C194.737 115.755 195.583 116.794 196.56 117.915C197.113 118.477 197.577 119.12 197.936 119.821C198.116 120.217 198.185 120.655 198.136 121.087C198.1 121.544 197.894 121.972 197.558 122.284C197.382 122.433 197.176 122.542 196.953 122.602C196.731 122.663 196.498 122.674 196.271 122.635C195.841 122.571 195.435 122.396 195.095 122.126C194.506 121.605 193.96 121.037 193.464 120.427L190.857 117.448C190.134 116.615 189.549 115.927 189.116 115.425L188.648 114.847C188.59 114.784 188.539 114.715 188.497 114.641C188.497 114.641 188.566 114.696 188.683 114.813L189.185 115.342L190.98 117.317L193.629 120.262C194.121 120.856 194.659 121.41 195.239 121.92C195.548 122.164 195.916 122.323 196.306 122.381C196.499 122.413 196.698 122.403 196.888 122.352C197.078 122.301 197.255 122.21 197.406 122.085C197.696 121.81 197.873 121.437 197.902 121.039C197.947 120.649 197.885 120.254 197.723 119.897C197.361 119.212 196.897 118.585 196.347 118.039C195.37 116.911 194.544 115.845 193.884 114.93C193.223 114.015 192.714 113.258 192.377 112.721C192.212 112.453 192.081 112.246 191.999 112.102C191.968 112.036 191.945 111.967 191.93 111.896Z" fill="#FFBE9D"/>
<path d="M200.578 126.543C200.367 126.654 200.128 126.704 199.89 126.687C199.331 126.718 198.773 126.619 198.259 126.398C197.735 126.187 197.264 125.86 196.883 125.442C196.717 125.279 196.592 125.078 196.519 124.857C197.013 125.433 197.635 125.886 198.335 126.178C199.035 126.471 199.794 126.596 200.55 126.543H200.578Z" fill="#FFBE9D"/>
<path d="M272.673 108.545L270.691 133.546C270.658 133.974 270.457 134.372 270.133 134.653C269.808 134.933 269.386 135.075 268.958 135.046L255.026 134.111C254.808 134.098 254.595 134.041 254.4 133.944C254.204 133.847 254.031 133.712 253.889 133.546C253.747 133.38 253.64 133.188 253.574 132.98C253.508 132.772 253.485 132.553 253.505 132.336L255.783 107.355C255.82 106.93 256.021 106.538 256.343 106.26C256.666 105.982 257.085 105.842 257.51 105.868L271.152 106.756C271.371 106.771 271.584 106.829 271.78 106.927C271.975 107.026 272.149 107.162 272.29 107.329C272.432 107.496 272.539 107.689 272.605 107.898C272.67 108.107 272.694 108.327 272.673 108.545Z" fill="#455A64"/>
<path d="M292.618 140.372C292.618 140.372 296.78 168.497 296.615 172.274C296.45 176.051 292.178 184.438 286.426 185.256C280.674 186.075 275.253 180.819 275.088 173.918C274.923 167.018 274.07 145.194 274.07 145.194L278.363 142.828L292.618 140.372Z" fill="#FFBE9D"/>
<path d="M268.917 117.131C268.917 117.131 273.223 119.78 274.496 120.475C275.769 121.17 275.604 126.302 275.604 126.302L282.855 143.158L274.118 146.288C274.118 146.288 271.001 140.392 270.107 139.649C269.494 139.168 268.793 138.812 268.043 138.603C268.043 138.603 267.596 140.241 266.254 139.498C265.19 138.795 264.234 137.94 263.419 136.959C263.419 136.959 262.222 137.709 261.775 136.815C261.328 135.92 260.585 133.98 260.585 133.98C260.585 133.98 263.117 130.698 264.162 130.698C265.208 130.698 270.575 130.994 270.575 130.994C270.575 130.994 270.279 130.547 268.786 129.955C267.293 129.364 258.418 126.742 257.998 126.584C257.372 126.343 256.67 124.713 258.61 124.561C260.55 124.41 271.469 126.364 271.469 126.364C271.469 126.364 272.068 123.543 271.62 122.924C271.173 122.305 267.272 119.814 268.917 117.131Z" fill="#FFBE9D"/>
<path d="M263.385 136.863C263.309 136.457 263.321 136.039 263.419 135.638C263.513 135.171 263.754 134.747 264.107 134.427C264.572 134.091 265.137 133.921 265.71 133.946C266.691 133.883 267.675 133.917 268.648 134.049C269.055 134.075 269.455 134.168 269.832 134.324C269.832 134.427 267.988 134.118 265.704 134.269C265.198 134.244 264.697 134.379 264.273 134.654C263.965 134.93 263.746 135.292 263.646 135.693C263.58 136.087 263.493 136.478 263.385 136.863Z" fill="#FFBE9D"/>
<path d="M265.119 137.365C265.69 137.599 266.248 137.863 266.791 138.156C267.378 138.349 267.952 138.579 268.511 138.844C267.868 138.887 267.227 138.749 266.66 138.445C266.051 138.244 265.515 137.869 265.119 137.365Z" fill="#FFBE9D"/>
<path d="M270.953 126.302C271.533 126.39 272.072 126.656 272.494 127.064C272.915 127.472 273.199 128.002 273.306 128.579C273.216 128.579 272.921 127.891 272.267 127.3C271.613 126.708 270.919 126.391 270.953 126.302Z" fill="#FFBE9D"/>
<path d="M196.505 276.815C196.409 276.815 200.165 260.991 204.899 241.534C209.632 222.078 213.54 206.35 213.636 206.35C213.732 206.35 209.976 222.174 205.243 241.637C200.509 261.101 196.601 276.835 196.505 276.815Z" fill="#455A64"/>
<path d="M299.463 299.78C299.463 299.876 233.829 299.959 152.879 299.959C71.9298 299.959 6.27448 299.876 6.27448 299.78C6.27448 299.684 71.9023 299.601 152.879 299.601C233.856 299.601 299.463 299.677 299.463 299.78Z" fill="#263238"/>
<path d="M265.291 51.6753L267.313 44.3756C264.636 40.0371 263.678 34.8539 264.628 29.8449C265.578 24.8359 268.368 20.3636 272.449 17.3073C276.529 14.2509 281.606 12.8316 286.68 13.3284C291.754 13.8252 296.458 16.2022 299.869 19.9919C303.279 23.7817 305.148 28.7102 305.109 33.8083C305.07 38.9065 303.125 43.8055 299.656 47.5423C296.188 51.279 291.447 53.5832 286.366 54.0017C281.285 54.4202 276.231 52.9228 272.198 49.8039L265.291 51.6753Z" fill="#0566CF"/>
<path d="M265.291 51.6752L265.752 51.5376L267.08 51.1661L272.184 49.7351L272.136 49.8658C272.123 49.8506 272.115 49.831 272.115 49.8107C272.115 49.7904 272.123 49.7708 272.136 49.7557C272.152 49.7459 272.17 49.7407 272.188 49.7407C272.206 49.7407 272.224 49.7459 272.239 49.7557C274.951 51.837 278.147 53.1958 281.527 53.7048C283.691 54.0372 285.895 54.0093 288.05 53.6222C292.062 52.9254 295.772 51.0358 298.696 48.1997C301.619 45.3636 303.62 41.7126 304.438 37.7227C305.034 34.6754 304.93 31.5325 304.135 28.5311C303.32 25.3964 301.755 22.5065 299.577 20.1097C297.398 17.7129 294.67 15.8809 291.627 14.7712C288.502 13.6238 285.142 13.2653 281.845 13.7275C278.548 14.1897 275.416 15.4583 272.726 17.4209C270.037 19.3835 267.873 21.9793 266.428 24.9782C264.982 27.9772 264.298 31.2866 264.438 34.6129C264.582 38.0416 265.595 41.3774 267.382 44.3068C267.389 44.3292 267.389 44.3532 267.382 44.3756C266.694 46.7216 266.192 48.5035 265.834 49.7626C265.662 50.3749 265.525 50.8358 265.428 51.1386C265.332 51.4413 265.284 51.627 265.284 51.627C265.284 51.627 265.318 51.4757 265.394 51.1661C265.47 50.8565 265.6 50.3818 265.765 49.7901C266.096 48.5311 266.591 46.6941 267.224 44.2861V44.3549C265.059 40.8746 263.995 36.8221 264.171 32.7272C264.346 28.6324 265.753 24.6858 268.208 21.4034C271.356 17.2005 275.991 14.3603 281.165 13.4649C286.34 12.5695 291.66 13.6867 296.037 16.5875C297.401 17.5123 298.652 18.5928 299.766 19.8073C300.888 21.037 301.865 22.3922 302.676 23.8458C304.945 28.1021 305.674 33.0114 304.74 37.7433C303.91 41.7941 301.875 45.4993 298.901 48.3724C295.927 51.2455 292.154 53.1523 288.077 53.8424C285.892 54.2283 283.657 54.2469 281.465 53.8974C278.051 53.3515 274.832 51.9477 272.109 49.8176L272.226 49.7075C272.233 49.7146 272.239 49.7231 272.243 49.7326C272.247 49.7421 272.249 49.7523 272.249 49.7626C272.249 49.7729 272.247 49.7831 272.243 49.7925C272.239 49.802 272.233 49.8105 272.226 49.8176L267.031 51.1936L265.704 51.5514L265.291 51.6752Z" fill="#263238"/>
<path d="M275.549 34.207L277.929 31.8197L282.525 35.9064L291.544 27.2239L293.76 29.6112L282.188 40.5022L275.549 34.207Z" fill="white"/>
</svg>
