<svg width="320" height="448" viewBox="0 0 320 448" fill="none" xmlns="http://www.w3.org/2000/svg">
<path d="M112 48V400C112 412.73 106.943 424.939 97.9411 433.941C88.9394 442.943 76.7304 448 64 448H48C35.2696 448 23.0606 442.943 14.0589 433.941C5.05713 424.939 0 412.73 0 400V48C0 35.2696 5.05713 23.0606 14.0589 14.0589C23.0606 5.05713 35.2696 0 48 0H64C76.7304 0 88.9394 5.05713 97.9411 14.0589C106.943 23.0606 112 35.2696 112 48ZM272 0H256C243.27 0 231.061 5.05713 222.059 14.0589C213.057 23.0606 208 35.2696 208 48V400C208 412.73 213.057 424.939 222.059 433.941C231.061 442.943 243.27 448 256 448H272C284.73 448 296.939 442.943 305.941 433.941C314.943 424.939 320 412.73 320 400V48C320 35.2696 314.943 23.0606 305.941 14.0589C296.939 5.05713 284.73 0 272 0Z" fill="#202020"/>
</svg>
