<svg width="500" height="500" viewBox="0 0 500 500" fill="none" xmlns="http://www.w3.org/2000/svg">
<path d="M498.289 217.858C493.732 204.879 481.363 195.561 466.879 195.561H466.553C457.114 195.561 448.61 199.508 442.548 205.814C439.447 202.572 435.721 199.992 431.595 198.23C427.47 196.467 423.029 195.56 418.543 195.561H418.258C409.958 195.561 402.35 198.613 396.531 203.617V201.095C396.328 198.531 394.253 196.538 391.649 196.538H369.353C366.627 196.538 364.43 198.735 364.43 201.461V322.463C364.43 325.189 366.627 327.386 369.353 327.386H391.649C392.832 327.386 393.974 326.958 394.865 326.18C395.755 325.401 396.333 324.326 396.491 323.154V236.289C396.491 235.963 396.491 235.719 396.531 235.434C396.898 231.569 399.746 228.355 404.221 227.989H408.331C410.202 228.151 411.789 228.802 413.01 229.819C414.962 231.365 416.02 233.725 416.02 236.329L416.102 322.748C416.102 325.474 418.299 327.711 421.025 327.711H443.321C444.581 327.712 445.793 327.226 446.703 326.354C447.613 325.482 448.151 324.292 448.203 323.032V236.248C448.203 233.4 449.505 230.796 451.825 229.29C452.964 228.558 454.347 228.07 455.934 227.907H460.043C464.885 228.314 467.774 231.976 467.774 236.248L467.855 322.585C467.855 325.311 470.052 327.508 472.778 327.508H495.074C497.678 327.508 499.835 325.474 499.997 322.91V228.233C499.875 222.903 499.184 220.421 498.289 217.858ZM347.423 196.863H334.688V176.113C334.686 175.45 334.537 174.795 334.251 174.197C333.966 173.598 333.552 173.069 333.039 172.649C332.526 172.229 331.926 171.928 331.282 171.767C330.639 171.606 329.968 171.59 329.317 171.719C315.199 175.584 318.006 195.154 292.211 196.823H289.729C289.363 196.823 288.997 196.863 288.631 196.945C286.474 197.474 284.806 199.427 284.806 201.786V224.083C284.806 226.809 287.003 229.006 289.729 229.006H303.156L303.115 323.48C303.115 326.165 305.312 328.362 307.997 328.362H330.05C332.735 328.362 334.932 326.165 334.932 323.48V229.006H347.423C350.108 229.006 352.346 226.768 352.346 224.083V201.786C352.346 199.06 350.149 196.863 347.423 196.863Z" fill="#00BAF2"/>
<path d="M267.27 196.863H244.974C242.288 196.863 240.051 199.06 240.051 201.786V247.884C240.01 250.732 237.691 253.011 234.843 253.011H225.526C222.637 253.011 220.277 250.692 220.277 247.803L220.196 201.786C220.196 199.06 217.999 196.863 215.273 196.863H192.976C190.25 196.863 188.053 199.06 188.053 201.786V252.278C188.053 271.442 201.724 285.153 220.928 285.153C220.928 285.153 235.331 285.153 235.779 285.234C238.383 285.519 240.376 287.716 240.376 290.402C240.376 293.046 238.423 295.243 235.819 295.569C235.697 295.569 235.575 295.609 235.453 295.65L202.863 295.772C200.137 295.772 197.94 297.969 197.94 300.695V322.951C197.94 325.677 200.137 327.874 202.863 327.874H239.278C258.482 327.874 272.152 314.203 272.152 295.04V201.786C272.193 199.06 269.996 196.863 267.27 196.863ZM140.491 196.985H109.569C106.843 196.985 104.605 199.06 104.605 201.583V222.496C104.605 225.181 106.965 227.419 109.854 227.419H139.311C141.63 227.785 143.461 229.494 143.746 232.138V235.027C143.502 237.55 141.671 239.381 139.433 239.584H124.867C105.46 239.584 91.6668 252.482 91.6668 270.547V296.464C91.6668 314.447 103.547 327.223 122.792 327.223H163.194C170.436 327.223 176.336 321.73 176.336 314.976V230.43C176.336 209.924 165.757 196.985 140.491 196.985ZM144.03 289.995V293.494C144.03 293.779 143.99 294.063 143.949 294.308C143.908 294.552 143.827 294.796 143.746 295.04C143.054 296.993 141.101 298.417 138.782 298.417H129.505C126.617 298.417 124.257 296.22 124.257 293.494V274.412C124.257 271.726 126.617 269.529 129.505 269.529H138.782C141.671 269.529 144.03 271.726 144.03 274.452V289.995ZM53.5435 196.823H4.8417C2.15639 196.823 0 199.02 0 201.664V322.747C0 325.433 1.99364 327.63 4.51621 327.671H27.2193C29.9453 327.671 32.1424 325.473 32.1424 322.747L32.2238 288.896H53.5435C71.3642 288.896 83.8143 276.527 83.8143 258.585V227.175C83.8143 209.273 71.3642 196.823 53.5435 196.823ZM51.5906 237.672V251.424C51.5906 254.313 49.2714 256.672 46.3827 256.672H32.2644V229.128H46.3827C49.2714 229.128 51.5906 231.447 51.5906 234.336V237.672Z" fill="#042E6F"/>
</svg>
