<svg width="750" height="500" viewBox="0 0 750 500" fill="none" xmlns="http://www.w3.org/2000/svg">
<path d="M229.704 276.542C240.913 229.071 211.517 181.502 164.046 170.292C116.575 159.083 69.0054 188.479 57.7961 235.95C46.5869 283.421 75.9829 330.991 123.454 342.2C170.925 353.409 218.495 324.013 229.704 276.542Z" fill="#5F259F"/>
<path d="M502.096 306.744V274.672C502.096 266.777 499.135 262.83 491.734 262.83C488.773 262.83 485.32 263.324 483.346 263.817V310.691C483.346 312.171 481.866 313.652 480.385 313.652H469.037C467.557 313.652 466.076 312.171 466.076 310.691V255.922C466.076 253.949 467.557 252.469 469.037 251.975C476.438 249.508 483.839 248.028 491.734 248.028C509.497 248.028 519.365 257.403 519.365 274.672V311.185C519.365 312.665 517.885 314.145 516.405 314.145H509.497C505.056 314.145 502.096 310.691 502.096 306.744ZM546.503 287.501L546.009 291.942C546.009 297.862 549.957 301.316 556.371 301.316C561.305 301.316 565.746 299.836 570.68 297.369C571.173 297.369 571.667 296.876 572.16 296.876C573.147 296.876 573.64 297.369 574.134 297.862C574.627 298.356 575.614 299.836 575.614 299.836C576.601 301.316 577.588 303.29 577.588 304.77C577.588 307.237 576.107 309.704 574.134 310.691C568.706 313.652 562.292 315.132 555.384 315.132C547.49 315.132 541.075 313.158 536.141 309.211C531.207 304.77 528.246 298.849 528.246 291.448V272.205C528.246 256.909 538.115 247.534 554.891 247.534C571.173 247.534 580.548 256.416 580.548 272.205V284.047C580.548 285.527 579.068 287.007 577.588 287.007H546.503V287.501ZM546.009 276.646H564.759V271.712C564.759 265.791 561.305 261.843 555.384 261.843C549.463 261.843 546.009 265.297 546.009 271.712V276.646ZM671.83 287.501L671.336 291.942C671.336 297.862 675.283 301.316 681.698 301.316C686.632 301.316 691.073 299.836 696.007 297.369C696.5 297.369 696.994 296.876 697.487 296.876C698.474 296.876 698.967 297.369 699.461 297.862C699.954 298.356 700.941 299.836 700.941 299.836C701.928 301.316 702.915 303.29 702.915 304.77C702.915 307.237 701.434 309.704 699.461 310.691C694.033 313.652 687.619 315.132 680.711 315.132C672.816 315.132 666.402 313.158 661.468 309.211C656.534 304.77 653.573 298.849 653.573 291.448V272.205C653.573 256.909 663.442 247.534 680.218 247.534C696.5 247.534 705.875 256.416 705.875 272.205V284.047C705.875 285.527 704.395 287.007 702.915 287.007H671.83V287.501ZM671.336 276.646H690.086V271.712C690.086 265.791 686.632 261.843 680.711 261.843C674.79 261.843 671.336 265.297 671.336 271.712V276.646ZM381.209 314.145H388.117C389.598 314.145 391.078 312.665 391.078 311.185V274.672C391.078 257.896 382.196 248.028 367.394 248.028C362.953 248.028 358.019 249.015 355.059 250.001V231.745C355.059 227.798 351.605 224.344 347.657 224.344H340.75C339.269 224.344 337.789 225.824 337.789 227.304V311.185C337.789 312.665 339.269 314.145 340.75 314.145H352.098C353.578 314.145 355.059 312.665 355.059 311.185V264.804C357.526 263.817 360.98 263.324 363.447 263.324C370.848 263.324 373.808 266.777 373.808 275.165V307.237C374.302 310.691 377.262 314.145 381.209 314.145ZM455.715 272.698V290.955C455.715 306.25 445.353 315.625 428.084 315.625C411.308 315.625 400.453 306.25 400.453 290.955V272.698C400.453 257.403 410.814 248.028 428.084 248.028C445.353 248.028 455.715 257.403 455.715 272.698ZM438.445 272.698C438.445 266.777 434.991 262.83 428.577 262.83C422.163 262.83 418.709 266.284 418.709 272.698V290.955C418.709 296.876 422.163 300.33 428.577 300.33C434.991 300.33 438.445 296.876 438.445 290.955V272.698ZM328.414 264.31C328.414 280.1 316.572 290.955 300.783 290.955C296.836 290.955 293.382 290.461 289.928 288.981V311.185C289.928 312.665 288.448 314.145 286.968 314.145H275.619C274.139 314.145 272.659 312.665 272.659 311.185V232.732C272.659 230.758 274.139 229.278 275.619 228.785C283.02 226.318 290.422 224.837 298.316 224.837C316.079 224.837 328.414 235.692 328.414 252.469V264.31ZM310.651 251.482C310.651 243.587 305.224 239.64 297.823 239.64C293.382 239.64 290.422 241.12 290.422 241.12V273.685C293.382 275.165 294.862 275.659 298.316 275.659C305.717 275.659 311.145 271.218 311.145 263.817V251.482H310.651ZM647.159 264.31C647.159 280.1 635.317 290.955 619.528 290.955C615.581 290.955 612.127 290.461 608.673 288.981V311.185C608.673 312.665 607.192 314.145 605.712 314.145H594.364C592.884 314.145 591.403 312.665 591.403 311.185V232.732C591.403 230.758 592.884 229.278 594.364 228.785C601.765 226.318 609.166 224.837 617.061 224.837C634.824 224.837 647.159 235.692 647.159 252.469V264.31ZM629.396 251.482C629.396 243.587 623.969 239.64 616.567 239.64C612.127 239.64 609.166 241.12 609.166 241.12V273.685C612.127 275.165 613.607 275.659 617.061 275.659C624.462 275.659 629.889 271.218 629.889 263.817V251.482H629.396Z" fill="#5F259F"/>
<path d="M183.84 233.216C183.84 229.762 180.88 226.802 177.426 226.802H165.584L138.446 195.717C135.979 192.756 132.032 191.769 128.084 192.756L118.71 195.717C117.229 196.21 116.736 198.184 117.723 199.17L147.328 227.295H102.427C100.947 227.295 99.96 228.282 99.96 229.762V234.696C99.96 238.15 102.92 241.11 106.374 241.11H113.282V264.794C113.282 282.557 122.657 292.919 138.446 292.919C143.38 292.919 147.328 292.425 152.262 290.452V306.241C152.262 310.682 155.716 314.136 160.156 314.136H167.064C168.544 314.136 170.025 312.655 170.025 311.175V240.617H181.373C182.853 240.617 183.84 239.63 183.84 238.15V233.216ZM152.262 275.649C149.301 277.13 145.354 277.623 142.393 277.623C134.499 277.623 130.552 273.676 130.552 264.794V241.11H152.262V275.649Z" fill="white"/>
</svg>
