<svg width="455" height="455" viewBox="0 0 455 455" fill="none" xmlns="http://www.w3.org/2000/svg">
<path d="M227.463 0.155273C101.908 0.155273 0.455078 101.795 0.455078 227.163C0.455078 323.384 60.2433 405.593 144.694 438.664C142.639 420.727 140.958 393.076 145.441 373.458C149.552 355.707 171.972 260.607 171.972 260.607C171.972 260.607 165.247 246.968 165.247 226.976C165.247 195.401 183.556 171.859 206.351 171.859C225.782 171.859 235.124 186.432 235.124 203.808C235.124 223.24 222.792 252.386 216.254 279.478C210.835 302.085 227.65 320.582 249.884 320.582C290.242 320.582 321.256 277.983 321.256 216.7C321.256 162.331 282.207 124.403 226.342 124.403C161.696 124.403 123.769 172.794 123.769 222.866C123.769 242.297 131.242 263.223 140.584 274.62C142.452 276.862 142.639 278.917 142.079 281.159C140.397 288.259 136.474 303.767 135.726 306.943C134.792 311.054 132.363 311.988 128.065 309.933C100.04 296.48 82.4771 255.002 82.4771 221.745C82.4771 150.186 134.418 84.4192 232.508 84.4192C311.167 84.4192 372.45 140.471 372.45 215.579C372.45 293.864 323.125 356.828 254.742 356.828C231.761 356.828 210.087 344.871 202.801 330.672C202.801 330.672 191.404 374.018 188.601 384.667C183.556 404.472 169.73 429.135 160.388 444.269C181.688 450.808 204.109 454.358 227.65 454.358C353.019 454.358 454.659 352.718 454.659 227.35C454.472 101.795 352.832 0.155273 227.463 0.155273Z" fill="#E60019"/>
</svg>
