<svg width="336" height="364" viewBox="0 0 336 364" fill="none" xmlns="http://www.w3.org/2000/svg">
<path d="M310.123 139.611L75.4565 7.21606C67.7928 2.83647 59.1059 0.564869 50.2794 0.632319C41.4528 0.699768 32.8016 3.10387 25.2058 7.60006C17.8056 11.8324 11.6575 17.9481 7.38596 25.3258C3.11446 32.7035 0.871801 41.0804 0.885807 49.6054V314.395C0.871801 322.92 3.11446 331.297 7.38596 338.674C11.6575 346.052 17.8056 352.168 25.2058 356.4C32.8024 360.894 41.4533 363.297 50.2794 363.364C59.1055 363.432 67.7921 361.162 75.4565 356.784L310.123 224.389C317.691 220.197 323.999 214.055 328.392 206.6C332.784 199.146 335.1 190.652 335.1 182C335.1 173.348 332.784 164.854 328.392 157.4C323.999 149.946 317.691 143.803 310.123 139.611Z" fill="#313131"/>
</svg>
