<svg height="512" viewBox="0 0 24 24" width="512" xmlns="http://www.w3.org/2000/svg"><g id="Layer_2" data-name="Layer 2"><path d="m13.25 8.5a1.25 1.25 0 0 0 -2.5 0v1.25h2.5z"/><path d="m14.5 11.25h-5a.75113.75113 0 0 0 -.75.75v3a.75113.75113 0 0 0 .75.75h5a.75113.75113 0 0 0 .75-.75v-3a.75113.75113 0 0 0 -.75-.75z"/><path d="m20.18213 4.18164a17.386 17.386 0 0 1 -3.93262-.88864 17.32958 17.32958 0 0 1 -3.33451-1.59671 1.75189 1.75189 0 0 0 -1.82959 0 17.34754 17.34754 0 0 1 -3.33492 1.59671 17.39157 17.39157 0 0 1 -3.93115.88867 1.74626 1.74626 0 0 0 -1.56934 1.73923v5.19531a10.75457 10.75457 0 0 0 5.5293 9.39649l3.3706 1.873a1.73414 1.73414 0 0 0 1.7002 0l3.3706-1.873a10.75457 10.75457 0 0 0 5.5293-9.39649v-5.19531a1.74615 1.74615 0 0 0 -1.56787-1.73926zm-3.43213 10.81836a2.25278 2.25278 0 0 1 -2.25 2.25h-5a2.25278 2.25278 0 0 1 -2.25-2.25v-3a2.24558 2.24558 0 0 1 2-2.22467v-1.27533a2.75 2.75 0 0 1 5.5 0v1.27533a2.24558 2.24558 0 0 1 2 2.22467z"/></g></svg>