<svg width="456" height="456" viewBox="0 0 456 456" fill="none" xmlns="http://www.w3.org/2000/svg">
<path d="M227.845 455.4C353.52 455.4 455.4 353.52 455.4 227.844C455.4 102.169 353.52 0.288818 227.845 0.288818C102.169 0.288818 0.289062 102.169 0.289062 227.844C0.289062 353.52 102.169 455.4 227.845 455.4Z" fill="#FF4500"/>
<path d="M379.542 227.842C379.542 209.478 364.638 194.574 346.274 194.574C337.225 194.574 329.24 198.034 323.385 203.889C300.763 187.654 269.357 177.008 234.758 175.678L249.929 104.616L299.166 114.996C299.698 127.505 310.078 137.619 322.853 137.619C335.894 137.619 346.54 126.973 346.54 113.931C346.54 100.89 335.894 90.2444 322.853 90.2444C313.538 90.2444 305.553 95.5673 301.827 103.552L246.735 91.8413C245.138 91.5751 243.541 91.8413 242.21 92.6397C240.88 93.4382 240.081 94.7689 239.549 96.3658L222.782 175.678C187.384 176.742 155.713 187.122 132.824 203.889C126.969 198.3 118.718 194.574 109.935 194.574C91.5712 194.574 76.667 209.478 76.667 227.842C76.667 241.416 84.6514 252.86 96.3619 258.183C95.8296 261.377 95.5634 264.837 95.5634 268.297C95.5634 319.397 154.914 360.65 228.371 360.65C301.827 360.65 361.178 319.397 361.178 268.297C361.178 264.837 360.912 261.643 360.38 258.449C371.292 253.126 379.542 241.416 379.542 227.842ZM151.987 251.529C151.987 238.488 162.632 227.842 175.674 227.842C188.715 227.842 199.361 238.488 199.361 251.529C199.361 264.571 188.715 275.216 175.674 275.216C162.632 275.216 151.987 264.571 151.987 251.529ZM284.262 314.074C268.027 330.309 237.154 331.373 228.105 331.373C219.056 331.373 187.916 330.043 171.948 314.074C169.552 311.679 169.552 307.686 171.948 305.291C174.343 302.896 178.335 302.896 180.73 305.291C190.844 315.405 212.668 319.131 228.371 319.131C244.073 319.131 265.631 315.405 276.011 305.291C278.406 302.896 282.399 302.896 284.794 305.291C286.657 307.953 286.657 311.679 284.262 314.074ZM280.003 275.216C266.962 275.216 256.316 264.571 256.316 251.529C256.316 238.488 266.962 227.842 280.003 227.842C293.044 227.842 303.69 238.488 303.69 251.529C303.69 264.571 293.044 275.216 280.003 275.216Z" fill="white"/>
</svg>
