<svg width="300" height="300" viewBox="0 0 300 300" fill="none" xmlns="http://www.w3.org/2000/svg">
<path d="M44.8922 145.542C-13.1578 179.058 -13.1518 233.394 44.8922 266.91C102.936 300.426 197.052 300.426 255.102 266.91C313.152 233.394 313.146 179.058 255.102 145.542C197.058 112.026 102.942 112.032 44.8922 145.542Z" fill="#F1F1F1"/>
<path d="M13.1279 203.736L45.2879 185.172L77.4479 203.736L45.2879 222.306L13.1279 203.736Z" fill="#F1F1F1"/>
<path d="M193.86 206.7L101.064 260.25C99.978 260.85 99.978 261.894 101.064 262.518L115.584 270.882C116.193 271.19 116.866 271.35 117.549 271.35C118.232 271.35 118.905 271.19 119.514 270.882L212.316 217.338C213.402 216.708 213.402 215.694 212.316 215.064L197.79 206.7C197.181 206.393 196.508 206.232 195.825 206.232C195.142 206.232 194.469 206.393 193.86 206.7Z" fill="#F1F1F1"/>
<path d="M53.7178 236.707L85.8778 218.137L118.038 236.707L85.8778 255.277L53.7178 236.707Z" fill="#F1F1F1"/>
<path d="M199.758 141.18L235.524 120.528L271.296 141.18L235.524 161.832L199.758 141.18Z" fill="#F1F1F1"/>
<path d="M217.296 180.541L253.068 159.889L288.84 180.541L253.068 201.193L217.296 180.541Z" fill="#F1F1F1"/>
<path d="M155.454 288.678L135.9 277.392C134.442 276.546 134.442 275.178 135.9 274.332L209.154 232.038C209.975 231.621 210.882 231.403 211.803 231.403C212.724 231.403 213.631 231.621 214.452 232.038L234 243.324C235.464 244.17 235.458 245.538 234 246.384L201 265.44L160.752 288.678C159.931 289.093 159.023 289.309 158.103 289.309C157.183 289.309 156.275 289.093 155.454 288.678Z" fill="#F1F1F1"/>
<path d="M45.288 219.157L16.89 202.741V167.803L16.29 167.455V159.085L45.288 175.825V219.157Z" fill="#F1F1F1"/>
<path opacity="0.15" d="M45.2881 184.201L34.4161 177.925L16.8901 167.803V169.009L45.2881 185.401V184.201Z" fill="black"/>
<path d="M45.2881 219.157L73.5301 202.861V167.893L74.2861 167.455V159.085L45.2881 175.825V219.157Z" fill="#F0F0F0"/>
<path opacity="0.1" d="M73.5361 167.893L45.2881 184.201V185.401L73.5361 169.111V167.893Z" fill="black"/>
<path d="M74.286 159.085L45.288 142.345L16.29 159.085L45.288 175.825L74.286 159.085Z" fill="#DEDEDE"/>
<path d="M57.0659 212.365V169.027L61.7759 166.309V209.641L57.0659 212.365Z" fill="#EBEBEB"/>
<path d="M33.5098 212.365V169.027L28.7998 166.309V209.641L33.5098 212.365Z" fill="#F1F1F1"/>
<path opacity="0.15" d="M33.5098 212.365V169.027L28.7998 166.309V209.641L33.5098 212.365Z" fill="black"/>
<path d="M61.7759 166.308L32.7779 149.568L28.0679 152.286L57.0659 169.026L61.7759 166.308Z" fill="#F5F5F5"/>
<path opacity="0.25" d="M45.6719 162.451L50.3819 159.733L45.6719 157.015L40.9619 159.733L45.6719 162.451Z" fill="black"/>
<path d="M33.5098 169.026L62.5078 152.286L57.7978 149.568L28.7998 166.308L33.5098 169.026Z" fill="#F5F5F5"/>
<path d="M32.7603 152.101C33.2163 154.075 36.0963 159.811 45.2403 160.435L46.2003 159.601C46.2003 159.601 35.5803 156.943 37.8843 147.637L32.7603 152.101Z" fill="#F1F1F1"/>
<path d="M46.2783 161.52C46.2783 161.52 46.2783 155.892 44.1423 152.574C42.0063 149.256 37.8543 147.654 37.8543 147.654C35.7977 148.667 34.0416 150.2 32.7603 152.1C35.3183 152.17 37.8289 152.807 40.1103 153.966C43.7103 155.868 45.2403 160.434 45.2403 160.434L46.2783 161.52Z" fill="#EBEBEB"/>
<path d="M40.0201 153.925L43.7221 151.975C43.1139 151.193 42.4105 150.489 41.6281 149.881L36.7441 152.677C37.8787 152.971 38.9774 153.39 40.0201 153.925Z" fill="#DEDEDE"/>
<path d="M32.0762 162.439C32.0762 162.439 38.3342 164.083 46.2782 161.521L45.6782 160.435C45.6782 160.435 41.5442 161.131 38.6162 160.435C35.6882 159.739 33.2162 155.581 33.2162 155.581L32.0762 162.439Z" fill="#F1F1F1"/>
<path d="M46.278 161.521C46.278 161.521 46.206 159.979 44.034 157.957C41.184 155.311 35.634 155.311 33.192 155.557C32.2031 156.311 31.5347 157.41 31.32 158.635C31.026 160.141 32.076 162.415 32.076 162.415C32.8778 161.453 33.8691 160.667 34.9881 160.105C36.1071 159.544 37.3298 159.219 38.58 159.151C40.8753 158.952 43.1587 159.648 44.952 161.095L46.278 161.521Z" fill="#EBEBEB"/>
<path d="M37.8482 155.611C36.9258 155.51 35.9981 155.466 35.0702 155.479C34.3806 156.174 33.8962 157.046 33.6707 157.999C33.4452 158.952 33.4873 159.948 33.7922 160.879C34.6741 160.265 35.6542 159.807 36.6902 159.523C36.6279 158.126 37.0357 156.748 37.8482 155.611Z" fill="#DEDEDE"/>
<path d="M38.0762 169.723C38.0762 169.723 41.4542 169.315 43.5842 166.867C44.9229 165.343 45.8502 163.503 46.2782 161.521L45.2402 160.435C44.454 162.282 43.0171 163.776 41.2022 164.635C38.8022 165.697 34.3262 165.685 34.3262 165.685L38.0762 169.723Z" fill="#F1F1F1"/>
<path d="M46.2782 161.521L45.2402 160.435C45.2402 160.435 41.2262 159.625 39.0602 160.435C36.8942 161.245 34.3742 164.635 34.3262 165.667C34.6049 166.582 35.087 167.423 35.7364 168.125C36.3858 168.827 37.1857 169.374 38.0762 169.723C38.0762 169.723 37.8722 166.027 40.6562 163.861C42.2796 162.579 44.2248 161.77 46.2782 161.521Z" fill="#EBEBEB"/>
<path d="M42.0898 162.925L38.5678 160.687C37.7757 161.133 37.0589 161.702 36.4438 162.373L39.9058 164.563C40.1353 164.308 40.3862 164.073 40.6558 163.861C41.1093 163.512 41.5887 163.2 42.0898 162.925Z" fill="#DEDEDE"/>
<path d="M56.4301 151.548C56.6521 152.628 55.8301 155.604 53.2321 157.548C50.6341 159.492 46.2001 160.26 46.2001 160.26L45.6001 159.876C45.6001 159.876 49.9981 157.116 51.4261 154.584C52.8541 152.052 51.8041 147.984 51.8041 147.984L56.4301 151.548Z" fill="#F1F1F1"/>
<path d="M46.2001 160.261C47.0003 157.789 48.537 155.62 50.6041 154.045C53.8981 151.711 56.4601 151.549 56.4601 151.549C55.9518 150.678 55.2761 149.916 54.4718 149.307C53.6675 148.699 52.7506 148.255 51.7741 148.003C51.7741 148.003 48.0001 150.217 46.5541 153.601C45.7154 155.581 45.3676 157.734 45.5401 159.877L46.2001 160.261Z" fill="#EBEBEB"/>
<path d="M52.2419 153.001C52.9658 152.601 53.7226 152.264 54.5039 151.993C53.3389 150.699 51.9055 149.676 50.3039 148.993C49.4838 149.65 48.7338 150.39 48.0659 151.201C49.5907 151.428 51.03 152.048 52.2419 153.001Z" fill="#DEDEDE"/>
<path d="M60.2039 158.581C58.9199 160.321 54.4559 163.225 46.6499 160.855L46.1699 159.943C46.1699 159.943 50.6099 160.291 54.2699 158.425C57.9299 156.559 58.1999 154.045 58.1999 154.045L60.2039 158.581Z" fill="#F1F1F1"/>
<path d="M46.2002 159.943C47.3972 157.724 49.2963 155.964 51.6002 154.939C53.6697 154.017 55.96 153.707 58.2002 154.045C58.2002 154.045 60.5042 155.845 60.2042 158.581C58.1924 157.616 55.938 157.273 53.7302 157.597C50.0102 158.137 47.1302 159.817 46.6502 160.855L46.2002 159.943Z" fill="#EBEBEB"/>
<path d="M56.4001 157.536C57.3056 157.616 58.1982 157.805 59.0581 158.1C58.6541 156.467 57.7526 154.999 56.4781 153.9C55.9197 153.91 55.3625 153.956 54.8101 154.038C55.6274 155.051 56.1745 156.255 56.4001 157.536Z" fill="#DEDEDE"/>
<path d="M55.2842 170.599C53.2682 170.653 46.9622 167.797 46.2842 161.521L46.9622 160.015C46.9622 160.015 48.4502 163.489 51.2942 165.079C54.1382 166.669 58.2842 166.639 58.2842 166.639L55.2842 170.599Z" fill="#F1F1F1"/>
<path d="M46.2002 159.943C46.2002 159.943 49.8002 159.859 52.2722 160.855C56.6402 162.655 58.1162 164.701 58.3082 166.639C57.8032 168.27 56.7414 169.671 55.3082 170.599C55.3082 170.599 53.5082 165.931 51.3122 163.969C48.3722 161.347 46.3022 161.521 46.3022 161.521L46.2002 159.943Z" fill="#EBEBEB"/>
<path d="M54.7442 169.332C56.0464 168.265 57.1495 166.975 58.0022 165.522C57.5792 164.472 56.8679 163.563 55.9502 162.9C54.8928 163.89 53.6031 164.598 52.2002 164.958C53.2151 166.313 54.0688 167.781 54.7442 169.332Z" fill="#DEDEDE"/>
<path d="M85.8779 252.067L57.4799 235.651V211.069L56.8799 210.721V202.351L85.8779 219.091V252.067Z" fill="#F1F1F1"/>
<path opacity="0.15" d="M85.878 227.46L75.006 221.184L57.48 211.068V212.268L85.878 228.666V227.46Z" fill="black"/>
<path d="M85.8779 252.067L114.12 235.771V211.153L114.876 210.721V202.351L85.8779 219.091V252.067Z" fill="#F0F0F0"/>
<path opacity="0.1" d="M114.12 211.152L85.8779 227.46V228.666L114.12 212.37V211.152Z" fill="black"/>
<path d="M114.876 202.35L85.8779 185.61L56.8799 202.35L85.8779 219.09L114.876 202.35Z" fill="#DEDEDE"/>
<path d="M97.6499 245.274V212.292L102.366 209.574V242.556L97.6499 245.274Z" fill="#EBEBEB"/>
<path d="M74.0996 245.274V212.292L69.3896 209.574V242.556L74.0996 245.274Z" fill="#F1F1F1"/>
<path opacity="0.15" d="M74.0996 245.274V212.292L69.3896 209.574V242.556L74.0996 245.274Z" fill="black"/>
<path d="M102.366 209.574L73.3677 192.834L68.6577 195.552L97.6497 212.292L102.366 209.574Z" fill="#F5F5F5"/>
<path opacity="0.25" d="M86.2618 205.716L90.9718 202.998L86.2618 200.28L81.5518 202.998L86.2618 205.716Z" fill="black"/>
<path d="M74.0996 212.292L103.098 195.552L98.3876 192.834L69.3896 209.574L74.0996 212.292Z" fill="#F5F5F5"/>
<path d="M73.3501 195.366C73.8061 197.34 76.6861 203.076 85.8301 203.7L86.7601 202.884C86.7601 202.884 76.1401 200.226 78.4441 190.92L73.3501 195.366Z" fill="#F1F1F1"/>
<path d="M86.8681 204.78C86.8681 204.78 86.8681 199.158 84.7321 195.84C82.5961 192.522 78.4441 190.92 78.4441 190.92C76.3875 191.932 74.6314 193.465 73.3501 195.366C75.9081 195.435 78.4187 196.073 80.7001 197.232C84.3001 199.128 85.8301 203.7 85.8301 203.7L86.8681 204.78Z" fill="#EBEBEB"/>
<path d="M80.61 197.191L84.312 195.241C83.7022 194.458 82.999 193.753 82.218 193.141L77.334 195.943C78.4686 196.237 79.5672 196.655 80.61 197.191Z" fill="#DEDEDE"/>
<path d="M72.666 205.705C72.666 205.705 78.924 207.343 86.868 204.781L86.268 203.701C86.268 203.701 82.134 204.397 79.206 203.701C76.278 203.005 73.806 198.847 73.806 198.847L72.666 205.705Z" fill="#F1F1F1"/>
<path d="M86.8679 204.78C86.8679 204.78 86.7958 203.238 84.6238 201.222C81.7738 198.576 76.2239 198.576 73.7819 198.822C72.7912 199.575 72.1223 200.674 71.9099 201.9C71.6159 203.406 72.6659 205.68 72.6659 205.68C73.4734 204.719 74.4704 203.935 75.5946 203.376C76.7188 202.818 77.9461 202.497 79.1999 202.434C81.4948 202.239 83.7767 202.935 85.5718 204.378L86.8679 204.78Z" fill="#EBEBEB"/>
<path d="M78.4381 198.876C77.5159 198.773 76.588 198.729 75.6601 198.744C74.9704 199.439 74.4861 200.311 74.2606 201.264C74.0351 202.217 74.0771 203.214 74.3821 204.144C75.2626 203.528 76.243 203.07 77.2801 202.788C77.2178 201.391 77.6255 200.014 78.4381 198.876Z" fill="#DEDEDE"/>
<path d="M78.666 213C78.666 213 82.044 212.586 84.174 210.144C85.5134 208.619 86.4408 206.776 86.868 204.792L85.83 203.712C85.041 205.559 83.6022 207.054 81.786 207.912C79.386 208.974 74.916 208.962 74.916 208.962L78.666 213Z" fill="#F1F1F1"/>
<path d="M86.868 204.781L85.83 203.701C85.83 203.701 81.816 202.891 79.65 203.701C77.484 204.511 74.964 207.901 74.916 208.933C75.1947 209.848 75.6768 210.688 76.3262 211.391C76.9756 212.093 77.7755 212.639 78.666 212.989C78.666 212.989 78.462 209.293 81.246 207.127C82.8681 205.842 84.8137 205.03 86.868 204.781Z" fill="#EBEBEB"/>
<path d="M82.6797 206.184L79.1577 203.946C78.3657 204.396 77.649 204.967 77.0337 205.638L80.4957 207.828C80.7252 207.573 80.9761 207.338 81.2457 207.126C81.6991 206.776 82.1785 206.461 82.6797 206.184Z" fill="#DEDEDE"/>
<path d="M97.0197 194.814C97.2417 195.894 96.4497 198.87 93.8217 200.814C91.1937 202.758 86.7597 203.502 86.7597 203.502L86.1597 203.124C86.1597 203.124 90.5577 200.358 91.9857 197.832C93.4137 195.306 92.3637 191.232 92.3637 191.232L97.0197 194.814Z" fill="#F1F1F1"/>
<path d="M86.76 203.521C87.5613 201.05 89.0978 198.884 91.164 197.311C94.458 194.977 97.02 194.815 97.02 194.815C96.5127 193.943 95.8373 193.18 95.0329 192.571C94.2284 191.963 93.311 191.52 92.334 191.269C92.334 191.269 88.578 193.483 87.144 196.861C86.3052 198.842 85.9574 200.997 86.13 203.143L86.76 203.521Z" fill="#EBEBEB"/>
<path d="M92.832 196.273C93.5558 195.875 94.3126 195.539 95.094 195.271C93.9259 193.988 92.4928 192.975 90.894 192.301C90.0796 192.938 89.3336 193.658 88.668 194.449C90.19 194.688 91.6245 195.316 92.832 196.273Z" fill="#DEDEDE"/>
<path d="M100.8 201.847C99.5101 203.587 95.0521 206.485 87.2461 204.121L86.7661 203.209C86.7661 203.209 91.2061 203.557 94.8661 201.685C98.5261 199.813 98.7961 197.311 98.7961 197.311L100.8 201.847Z" fill="#F1F1F1"/>
<path d="M86.7598 203.208C87.9568 200.989 89.8559 199.229 92.1598 198.204C94.2382 197.276 96.5398 196.966 98.7898 197.31C98.7898 197.31 101.094 199.11 100.794 201.846C98.7829 200.878 96.5276 200.535 94.3198 200.862C90.5998 201.402 87.7198 203.082 87.2398 204.12L86.7598 203.208Z" fill="#EBEBEB"/>
<path d="M96.972 200.796C97.8767 200.882 98.7685 201.071 99.63 201.36C99.2231 199.728 98.3221 198.261 97.05 197.16C96.4895 197.167 95.9301 197.213 95.376 197.298C96.1985 198.308 96.748 199.513 96.972 200.796Z" fill="#DEDEDE"/>
<path d="M95.874 213.864C93.858 213.918 87.552 211.062 86.874 204.78L87.552 203.274C87.552 203.274 89.04 206.754 91.884 208.344C94.728 209.934 98.874 209.898 98.874 209.898L95.874 213.864Z" fill="#F1F1F1"/>
<path d="M86.7598 203.208C86.7598 203.208 90.3598 203.118 92.8318 204.12C97.1998 205.89 98.6758 207.966 98.8678 209.898C98.3626 211.53 97.301 212.934 95.8678 213.864C95.8678 213.864 94.0678 209.196 91.8718 207.234C88.9318 204.612 86.8618 204.78 86.8618 204.78L86.7598 203.208Z" fill="#EBEBEB"/>
<path d="M95.334 212.592C96.6374 211.528 97.7407 210.24 98.592 208.788C98.1666 207.739 97.4557 206.831 96.54 206.166C95.4839 207.157 94.1936 207.863 92.79 208.218C93.8024 209.574 94.656 211.042 95.334 212.592Z" fill="#DEDEDE"/>
<path d="M235.524 158.328L203.94 140.07V86.1783L203.274 85.8003V76.4883L235.524 95.1063V158.328Z" fill="#F1F1F1"/>
<path opacity="0.15" d="M235.524 104.419L223.434 97.4347L203.94 86.1787V87.5227L235.524 105.757V104.419Z" fill="black"/>
<path d="M235.524 158.328L266.94 140.202V86.2803L267.774 85.8003V76.4883L235.524 95.1063V158.328Z" fill="#F0F0F0"/>
<path opacity="0.1" d="M266.94 86.2803L235.524 104.418V105.756L266.94 87.6363V86.2803Z" fill="black"/>
<path d="M267.774 76.4883L235.524 57.8643L203.274 76.4883L235.524 95.1063L267.774 76.4883Z" fill="#DEDEDE"/>
<path d="M248.622 150.768V87.5465L253.86 84.5225V147.744L248.622 150.768Z" fill="#EBEBEB"/>
<path d="M222.426 150.768V87.5465L217.188 84.5225V147.744L222.426 150.768Z" fill="#F1F1F1"/>
<path opacity="0.15" d="M222.426 150.768V87.5465L217.188 84.5225V147.744L222.426 150.768Z" fill="black"/>
<path d="M253.86 84.5224L221.61 65.8984L216.372 68.9224L248.622 87.5464L253.86 84.5224Z" fill="#F5F5F5"/>
<path opacity="0.25" d="M235.956 80.2327L241.194 77.2087L235.956 74.1787L230.712 77.2087L235.956 80.2327Z" fill="black"/>
<path d="M222.426 87.5464L254.676 68.9224L249.438 65.8984L217.188 84.5224L222.426 87.5464Z" fill="#F5F5F5"/>
<path d="M221.586 68.7186C222.102 70.9146 225.3 77.2926 235.47 77.9886L236.502 77.0826C236.502 77.0826 224.694 74.1246 227.262 63.7686L221.586 68.7186Z" fill="#F1F1F1"/>
<path d="M236.622 79.2004C236.622 79.2004 236.622 72.9424 234.252 69.2524C231.882 65.5624 227.262 63.7744 227.262 63.7744C224.973 64.9045 223.017 66.6103 221.586 68.7244C224.432 68.7995 227.226 69.5087 229.764 70.8004C233.748 72.9124 235.47 78.0004 235.47 78.0004L236.622 79.2004Z" fill="#EBEBEB"/>
<path d="M229.662 70.7461L233.784 68.5801C233.109 67.7079 232.326 66.9238 231.456 66.2461L226.02 69.3541C227.282 69.6816 228.503 70.1485 229.662 70.7461Z" fill="#DEDEDE"/>
<path d="M220.83 80.2147C220.83 80.2147 227.796 82.0147 236.622 79.1947L235.956 77.9947C235.956 77.9947 231.354 78.7687 228.102 77.9947C224.85 77.2207 222.072 72.5947 222.072 72.5947L220.83 80.2147Z" fill="#F1F1F1"/>
<path d="M236.622 79.2004C236.622 79.2004 236.544 77.4844 234.126 75.2404C230.964 72.2944 224.772 72.2944 222.072 72.5944C220.968 73.4307 220.224 74.6555 219.99 76.0204C219.66 77.6944 220.83 80.2204 220.83 80.2204C221.725 79.1571 222.83 78.289 224.074 77.6698C225.319 77.0505 226.678 76.6934 228.066 76.6204C230.618 76.4019 233.156 77.1756 235.152 78.7804L236.622 79.2004Z" fill="#EBEBEB"/>
<path d="M227.25 72.5998C226.224 72.482 225.192 72.4319 224.16 72.4498C223.395 73.2233 222.858 74.1921 222.608 75.2504C222.357 76.3087 222.402 77.4155 222.738 78.4498C223.719 77.7644 224.811 77.2529 225.966 76.9378C225.896 75.3888 226.348 73.8611 227.25 72.5998Z" fill="#DEDEDE"/>
<path d="M227.508 88.3141C227.508 88.3141 231.264 87.8581 233.628 85.1401C235.12 83.4471 236.153 81.4 236.628 79.1941L235.476 77.9941C234.597 80.0413 232.998 81.6956 230.982 82.6441C228.312 83.8441 223.338 83.8441 223.338 83.8441L227.508 88.3141Z" fill="#F1F1F1"/>
<path d="M236.622 79.2006L235.47 78.0006C235.47 78.0006 231.006 77.1006 228.6 78.0006C226.194 78.9006 223.38 82.6626 223.332 83.8206C223.645 84.8405 224.186 85.776 224.914 86.5566C225.641 87.3371 226.537 87.9423 227.532 88.3266C227.532 88.3266 227.298 84.2226 230.394 81.8106C232.191 80.3859 234.346 79.4829 236.622 79.2006Z" fill="#EBEBEB"/>
<path d="M231.972 80.7546L228.048 78.2646C227.168 78.7648 226.37 79.3983 225.684 80.1427L229.542 82.5786C229.796 82.2963 230.073 82.0354 230.37 81.7986C230.876 81.4097 231.412 81.0606 231.972 80.7546Z" fill="#DEDEDE"/>
<path d="M247.92 68.1065C248.166 69.3065 247.284 72.6125 244.362 74.7965C241.44 76.9805 236.502 77.7965 236.502 77.7965L235.8 77.4005C235.8 77.4005 240.69 74.3225 242.28 71.5085C243.87 68.6945 242.7 64.1885 242.7 64.1885L247.92 68.1065Z" fill="#F1F1F1"/>
<path d="M236.502 77.7902C237.394 75.0409 239.105 72.6294 241.404 70.8782C245.064 68.2802 247.92 68.1062 247.92 68.1062C247.355 67.1365 246.603 66.2884 245.708 65.6108C244.813 64.9332 243.793 64.4395 242.706 64.1582C242.706 64.1582 238.506 66.6242 236.934 70.3802C235.995 72.5944 235.606 75.003 235.8 77.4002L236.502 77.7902Z" fill="#EBEBEB"/>
<path d="M243.264 69.7267C244.069 69.2851 244.91 68.9118 245.778 68.6107C244.473 67.1805 242.872 66.0523 241.086 65.3047C240.185 66.0211 239.357 66.8251 238.614 67.7047C240.312 67.9662 241.914 68.6628 243.264 69.7267Z" fill="#DEDEDE"/>
<path d="M252.12 75.9239C250.686 77.8619 245.724 81.0899 237.042 78.4559L236.502 77.4359C236.502 77.4359 241.446 77.8259 245.502 75.7499C249.558 73.6739 249.87 70.8779 249.87 70.8779L252.12 75.9239Z" fill="#F1F1F1"/>
<path d="M236.502 77.436C237.835 74.9718 239.944 73.0167 242.502 71.874C244.812 70.8429 247.369 70.4972 249.87 70.878C249.87 70.878 252.438 72.894 252.108 75.924C249.87 74.8505 247.363 74.4703 244.908 74.832C240.774 75.432 237.546 77.304 237.036 78.432L236.502 77.436Z" fill="#EBEBEB"/>
<path d="M247.86 74.7604C248.869 74.8534 249.864 75.0649 250.824 75.3904C250.367 73.5799 249.363 71.9541 247.95 70.7344C247.329 70.7399 246.709 70.7901 246.096 70.8844C247.038 71.8564 247.572 73.4764 247.86 74.7604Z" fill="#DEDEDE"/>
<path d="M246.642 89.2927C244.398 89.3527 237.384 86.1787 236.622 79.1947L237.378 77.5146C237.378 77.5146 239.034 81.3846 242.178 83.1546C245.322 84.9246 249.978 84.8826 249.978 84.8826L246.642 89.2927Z" fill="#F1F1F1"/>
<path d="M236.502 77.4366C236.502 77.4366 240.504 77.3406 243.258 78.4566C248.118 80.4186 249.762 82.7346 249.978 84.8826C249.414 86.6963 248.234 88.2561 246.642 89.2926C246.642 89.2926 244.65 84.1026 242.196 81.9186C238.926 79.0026 236.622 79.1946 236.622 79.1946L236.502 77.4366Z" fill="#EBEBEB"/>
<path d="M246.042 87.8825C247.484 86.6955 248.703 85.2611 249.642 83.6465C249.17 82.4785 248.378 81.4676 247.356 80.7305C246.182 81.8335 244.747 82.6202 243.186 83.0165C244.322 84.5231 245.281 86.1559 246.042 87.8825Z" fill="#DEDEDE"/>
<path d="M253.068 197.622L221.478 179.364V166.566L220.812 166.176V156.87L253.068 175.488V197.622Z" fill="#F1F1F1"/>
<path opacity="0.15" d="M253.062 184.8L240.972 177.816L221.478 166.566V167.904L253.062 186.138V184.8Z" fill="black"/>
<path d="M253.068 197.622L284.478 179.502V166.662L285.318 166.176V156.87L253.068 175.488V197.622Z" fill="#F0F0F0"/>
<path opacity="0.1" d="M284.484 166.662L253.062 184.8V186.138L284.484 168.018V166.662Z" fill="black"/>
<path d="M285.318 156.87L253.068 138.246L220.812 156.87L253.068 175.488L285.318 156.87Z" fill="#DEDEDE"/>
<path d="M266.166 190.068V167.928L271.404 164.904V187.044L266.166 190.068Z" fill="#EBEBEB"/>
<path d="M239.97 190.068V167.928L234.726 164.904V187.044L239.97 190.068Z" fill="#F1F1F1"/>
<path opacity="0.15" d="M239.97 190.068V167.928L234.726 164.904V187.044L239.97 190.068Z" fill="black"/>
<path d="M271.404 164.904L239.154 146.28L233.91 149.304L266.166 167.928L271.404 164.904Z" fill="#F5F5F5"/>
<path opacity="0.25" d="M253.494 160.615L258.732 157.591L253.494 154.561L248.256 157.591L253.494 160.615Z" fill="black"/>
<path d="M239.97 167.928L272.22 149.304L266.982 146.28L234.726 164.904L239.97 167.928Z" fill="#F5F5F5"/>
<path d="M239.13 149.1C239.64 151.296 242.838 157.674 253.008 158.37L254.046 157.464C254.046 157.464 242.232 154.506 244.8 144.15L239.13 149.1Z" fill="#F1F1F1"/>
<path d="M254.166 159.6C254.166 159.6 254.166 153.342 251.766 149.652C249.366 145.962 244.8 144.15 244.8 144.15C242.512 145.281 240.558 146.986 239.13 149.1C241.976 149.183 244.768 149.901 247.302 151.2C251.292 153.312 253.008 158.4 253.008 158.4L254.166 159.6Z" fill="#EBEBEB"/>
<path d="M247.2 151.128L251.316 148.962C250.642 148.088 249.86 147.304 248.988 146.628L243.552 149.736C244.816 150.062 246.04 150.529 247.2 151.128Z" fill="#DEDEDE"/>
<path d="M238.368 160.597C238.368 160.597 245.334 162.397 254.166 159.577L253.494 158.377C253.494 158.377 248.892 159.151 245.64 158.377C242.388 157.603 239.64 152.977 239.64 152.977L238.368 160.597Z" fill="#F1F1F1"/>
<path d="M254.166 159.6C254.166 159.6 254.082 157.884 251.67 155.64C248.502 152.694 242.316 152.694 239.61 152.994C238.509 153.832 237.765 155.056 237.528 156.42C237.204 158.094 238.368 160.62 238.368 160.62C239.263 159.553 240.366 158.68 241.611 158.056C242.855 157.432 244.214 157.069 245.604 156.99C248.156 156.77 250.695 157.544 252.69 159.15L254.166 159.6Z" fill="#EBEBEB"/>
<path d="M244.8 153C243.775 152.882 242.742 152.832 241.71 152.85C240.947 153.624 240.41 154.593 240.16 155.651C239.909 156.709 239.953 157.816 240.288 158.85C241.269 158.165 242.361 157.653 243.516 157.338C243.449 155.79 243.901 154.263 244.8 153Z" fill="#DEDEDE"/>
<path d="M245.046 168.696C245.046 168.696 248.802 168.24 251.172 165.522C252.664 163.829 253.696 161.782 254.172 159.576L253.014 158.376C252.138 160.423 250.541 162.078 248.526 163.026C245.856 164.226 240.882 164.196 240.882 164.196L245.046 168.696Z" fill="#F1F1F1"/>
<path d="M254.166 159.6L253.008 158.4C253.008 158.4 248.55 157.5 246.138 158.4C243.726 159.3 240.924 163.062 240.876 164.22C241.189 165.24 241.729 166.176 242.457 166.957C243.184 167.738 244.08 168.342 245.076 168.726C245.076 168.726 244.848 164.622 247.944 162.21C249.739 160.785 251.892 159.883 254.166 159.6Z" fill="#EBEBEB"/>
<path d="M249.51 161.136L245.592 158.646C244.712 159.147 243.914 159.78 243.228 160.524L247.08 162.96C247.337 162.681 247.614 162.42 247.908 162.18C248.414 161.791 248.95 161.442 249.51 161.136Z" fill="#DEDEDE"/>
<path d="M265.458 148.488C265.704 149.688 264.828 152.994 261.9 155.178C258.972 157.362 254.046 158.178 254.046 158.178L253.344 157.758C253.344 157.758 258.24 154.68 259.824 151.872C261.408 149.064 260.244 144.546 260.244 144.546L265.458 148.488Z" fill="#F1F1F1"/>
<path d="M254.046 158.172C254.937 155.424 256.645 153.013 258.942 151.26C262.608 148.662 265.458 148.488 265.458 148.488C264.894 147.517 264.143 146.668 263.248 145.99C262.353 145.312 261.332 144.819 260.244 144.54C260.244 144.54 256.044 147.006 254.478 150.762C253.546 152.968 253.157 155.365 253.344 157.752L254.046 158.172Z" fill="#EBEBEB"/>
<path d="M260.802 150.109C261.608 149.667 262.448 149.294 263.316 148.993C262.013 147.564 260.414 146.436 258.63 145.687C257.728 146.401 256.899 147.205 256.158 148.087C257.855 148.347 259.456 149.043 260.802 150.109Z" fill="#DEDEDE"/>
<path d="M269.658 156.306C268.224 158.244 263.268 161.472 254.58 158.838L254.046 157.818C254.046 157.818 258.984 158.208 263.046 156.132C267.108 154.056 267.42 151.26 267.42 151.26L269.658 156.306Z" fill="#F1F1F1"/>
<path d="M254.046 157.8C255.379 155.336 257.488 153.381 260.046 152.238C262.358 151.206 264.917 150.86 267.42 151.242C267.42 151.242 269.988 153.258 269.652 156.288C267.415 155.213 264.907 154.833 262.452 155.196C258.318 155.796 255.09 157.668 254.58 158.796L254.046 157.8Z" fill="#EBEBEB"/>
<path d="M265.404 155.142C266.409 155.228 267.402 155.43 268.362 155.742C267.908 153.933 266.906 152.309 265.494 151.092C264.871 151.097 264.249 151.147 263.634 151.242C264.6 152.238 265.11 153.858 265.404 155.142Z" fill="#DEDEDE"/>
<path d="M264.186 169.674C261.942 169.734 254.928 166.56 254.166 159.576L254.922 157.896C254.922 157.896 256.572 161.766 259.722 163.536C262.872 165.306 267.522 165.264 267.522 165.264L264.186 169.674Z" fill="#F1F1F1"/>
<path d="M254.046 157.8C254.046 157.8 258.042 157.704 260.796 158.82C265.662 160.782 267.3 163.098 267.516 165.246C266.954 167.059 265.776 168.619 264.186 169.656C264.186 169.656 262.188 164.466 259.74 162.282C256.47 159.366 254.166 159.558 254.166 159.558L254.046 157.8Z" fill="#EBEBEB"/>
<path d="M263.58 168.264C265.031 167.078 266.26 165.644 267.21 164.028C266.734 162.863 265.942 161.853 264.924 161.112C263.741 162.219 262.295 163.005 260.724 163.398C261.861 164.905 262.819 166.538 263.58 168.264Z" fill="#DEDEDE"/>
<path d="M48.7741 250.481C49.2661 248.387 47.1841 247.061 46.2001 245.855C44.6821 243.995 44.2141 239.657 44.2261 237.455C44.2261 234.689 43.9141 232.721 45.6361 230.219C47.6701 227.267 50.5081 223.799 59.9881 215.327L48.3061 203.579C45.8641 207.413 39.6961 220.841 39.6961 220.841L39.2881 221.675C38.2669 223.046 37.0238 224.236 35.6101 225.197L34.9621 225.527C33.8461 226.289 31.0141 227.093 31.0621 229.727C31.1101 232.361 32.1421 233.027 33.3421 235.193C34.1041 236.579 34.6621 237.281 34.7161 239.921C34.7641 242.051 34.6741 244.427 34.6501 246.335C34.6501 247.943 36.1141 250.271 39.2041 251.315C43.7041 252.857 48.2881 252.539 48.7741 250.481Z" fill="#FFBDA7"/>
<path d="M29.4599 229.8C28.1203 231.602 26.9891 233.551 26.0879 235.608L29.1899 240L31.7939 235.62C30.6358 233.855 29.8423 231.876 29.4599 229.8Z" fill="#263238"/>
<path d="M29.1899 240L33.4499 239.712C33.6508 238.814 33.5005 237.874 33.0299 237.084C32.7124 236.516 32.2958 236.01 31.7999 235.59L29.1899 240Z" fill="black"/>
<path d="M30.3177 228.84C29.9887 229.077 29.7094 229.377 29.4957 229.722C29.2917 230.154 29.4957 232.878 30.4077 234.198C31.3197 235.518 32.7357 236.922 33.0897 238.8C33.4437 240.678 32.6997 245.016 33.4497 247.638C34.1997 250.26 36.7317 253.266 42.2577 253.974C46.2057 254.484 47.6997 253.734 49.0197 252.912C49.4937 251.208 49.4517 250.764 47.2917 249.312C45.1317 247.86 30.3177 228.84 30.3177 228.84Z" fill="#263238"/>
<path d="M37.674 221.904C35.874 224.01 35.274 224.82 33.636 225.762C31.662 226.908 31.236 227.364 30.318 228.84C29.916 231.114 30.378 232.056 32.466 234.966C33.9 236.958 34.368 238.266 34.326 241.002C34.278 244.32 33.126 247.338 37.188 250.728C40.332 253.368 47.208 253.548 49.074 251.712C50.676 247.188 46.422 247.428 45.474 242.634C44.94 239.982 44.874 235.974 45.726 233.328C46.0892 232.131 46.557 230.968 47.124 229.854C47.784 228.726 48.372 227.91 47.838 227.316L46.8 228.552C45.798 228.768 43.38 228.246 41.784 226.962C37.938 223.866 39.276 221.676 39.276 221.676L39.684 220.842C39.306 220.374 38.676 220.71 37.674 221.904Z" fill="#3B454A"/>
<path d="M80.4297 116.352C81.3957 122.88 84.5457 131.07 86.2917 146.532C87.9297 161.028 88.6917 168.594 87.6237 175.8C87.2517 178.368 85.9317 181.38 83.4237 185.184C75.5097 197.094 59.9397 215.832 59.9397 215.832C59.9397 215.832 56.4057 215.778 52.1397 212.37C50.9136 211.365 49.9004 210.126 49.1596 208.725C48.4188 207.323 47.9653 205.788 47.8257 204.21C47.8257 204.21 48.2457 201.486 54.7737 190.512C61.3017 179.538 62.1357 167.664 62.1357 167.664L57.8817 121.104C67.9857 122.004 75.7017 120.15 80.4297 116.352Z" fill="#263238"/>
<path d="M52.1099 212.4C50.8838 211.395 49.8706 210.156 49.1298 208.755C48.389 207.354 47.9355 205.819 47.7959 204.24C47.7959 204.24 48.2159 201.516 54.7439 190.542C61.2719 179.568 62.1059 167.694 62.1059 167.694L58.8479 132C66.7799 130.8 77.8499 130.872 77.8499 130.872C78.0599 135.972 76.9259 142.272 69.5819 146.094C69.5819 146.094 70.9319 171.162 71.1059 178.494C71.2379 184.086 69.6059 198.336 68.8259 204.78C63.8819 211.032 59.9219 215.802 59.9219 215.802C59.9219 215.802 56.3999 215.778 52.1099 212.4Z" fill="black"/>
<path d="M65.5438 239.19L65.5978 238.062L66.7018 215.172L50.5918 219.192L54.1918 237.546L54.3118 238.5C54.3118 238.5 54.4858 243.162 61.6798 243.432C65.3458 243.564 65.5438 239.19 65.5438 239.19Z" fill="#FFBDA7"/>
<path d="M56.8438 260.064L62.4358 257.988L62.6158 252.678L56.9277 254.826L56.8438 260.064Z" fill="black"/>
<path d="M51.408 248.153C51.174 250.103 52.782 257.603 52.782 257.603L56.844 260.063L56.928 254.825C56.928 254.825 58.056 255.785 59.244 258.557C60.372 261.173 61.92 263.693 64.578 265.013C67.236 266.333 71.826 266.879 75.726 266.375C78.498 266.009 80.208 264.827 80.67 264.119C80.81 263.769 80.8655 263.391 80.832 263.015L51.408 248.153Z" fill="#263238"/>
<path d="M65.5981 238.061C66.3601 238.001 66.3001 238.733 67.2481 243.125C67.9501 246.407 69.4921 252.065 75.4681 255.797C77.9281 257.333 81.3301 258.311 80.8321 262.997C79.1281 265.277 73.1761 265.883 69.6121 265.253C62.4121 263.981 61.3441 261.143 59.5441 256.913C58.1041 253.517 56.8381 253.157 54.9121 251.795C53.6401 250.895 51.9121 249.599 51.4081 248.135C51.3181 244.907 52.5301 242.801 52.9681 241.175C53.3761 239.645 53.1421 237.761 54.1681 237.527L54.2881 238.481C54.2881 238.481 55.2541 241.067 60.2881 241.163C65.3221 241.259 65.5681 239.171 65.5681 239.171L65.5981 238.061Z" fill="#3B454A"/>
<path d="M80.4298 116.352C80.4298 116.352 81.7138 124.788 78.9658 132.474C76.5658 139.152 71.9998 142.914 67.1758 144.474C67.1758 144.474 68.7778 174.474 69.2038 178.632C69.6298 182.79 68.6038 197.934 67.7278 207.888C66.8518 217.842 66.5278 221.25 66.5278 221.25C66.5278 221.25 64.3978 223.494 58.4398 223.608C52.4818 223.722 50.5978 221.268 50.5978 221.268C50.5978 221.268 46.8298 209.76 46.6738 200.73C46.5838 195.552 47.7178 192.978 46.7338 187.848C45.7498 182.718 38.4718 159.876 37.2418 149.046C36.0118 138.216 37.8778 128.706 45.5998 117.6C53.8798 123.03 72.8818 121.668 80.4298 116.352Z" fill="#263238"/>
<path d="M48.9837 119.291C44.7837 125.051 38.7837 136.931 43.0617 153.953C44.2617 158.789 45.4617 163.457 46.6617 167.975C49.4037 178.553 51.5697 186.905 51.8637 190.097C51.9681 191.902 51.8796 193.712 51.5997 195.497C51.0037 199.694 51.0037 203.954 51.5997 208.151C52.3437 213.599 53.4297 219.299 54.2157 223.199C53.9637 223.133 53.7237 223.067 53.5017 222.989C52.7217 219.119 51.7017 213.545 50.9457 208.235C50.3443 203.989 50.3443 199.678 50.9457 195.431C51.217 193.695 51.3054 191.936 51.2097 190.181C50.9217 187.037 48.7557 178.709 46.0257 168.155C44.8257 163.637 43.6257 158.969 42.4257 154.127C38.1237 136.985 44.1237 124.967 48.3597 119.069L48.9837 119.291Z" fill="black"/>
<path d="M108 100.368C110.712 101.364 112.602 100.806 114.6 100.854C117.138 100.914 119.298 101.712 122.898 102.552L124.74 102.996C125.035 103.082 125.336 103.148 125.64 103.194C125.928 103.194 126.168 103.266 126.24 103.626C126.265 103.885 126.194 104.145 126.042 104.358C125.786 104.704 125.46 104.993 125.086 105.207C124.712 105.421 124.298 105.554 123.87 105.6C123.016 105.682 122.157 105.692 121.302 105.63C120.642 105.63 121.08 106.23 121.302 106.482C122.502 107.748 127.38 107.928 129.042 108.372C129.798 108.576 130.704 108.372 131.022 109.26C131.101 109.561 131.21 109.855 131.346 110.136C131.541 110.401 131.771 110.64 132.03 110.844C132.399 111.173 132.643 111.621 132.72 112.11C132.754 112.354 132.716 112.602 132.609 112.824C132.502 113.046 132.332 113.232 132.12 113.358C131.778 113.532 131.34 113.508 131.028 113.736C130.895 113.859 130.77 113.991 130.656 114.132C130.056 114.732 129.162 114.66 128.358 114.792C127.662 114.912 127.068 115.26 126.39 115.392C125.679 115.57 124.954 115.693 124.224 115.758C122.508 115.825 120.79 115.726 119.094 115.464C116.84 114.98 114.702 114.061 112.8 112.758C111.281 111.573 109.488 110.791 107.586 110.484C104.352 109.806 91.9859 107.736 87.3539 105.684C85.6739 104.928 84.7079 103.944 79.0439 100.104C70.6439 94.4035 57.3599 84.4135 57.3599 84.4135L63.4859 75.7555C69.3359 74.4595 75.5699 79.8655 79.3859 83.0275C86.3999 88.7995 91.7999 92.7355 91.7999 92.7355C91.7999 92.7355 105.69 99.5215 108 100.368Z" fill="#FFBDA7"/>
<path d="M119.43 106.416C117.534 108.456 113.838 108.312 112.2 107.754C112.2 107.754 114.492 109.158 116.364 108.768C118.41 108.348 119.022 107.478 119.43 106.416Z" fill="#F0997A"/>
<path d="M37.2422 103.032C37.2422 103.032 40.4402 99.9003 41.2982 93.0003C41.6882 89.8683 41.1602 86.5323 39.8282 81.8163L48.7142 78.9243C48.7142 78.9243 49.8002 77.6163 56.4002 76.4103L63.5282 75.7383C63.5282 75.7383 75.4022 81.5583 79.8722 87.4203C82.3082 90.6183 84.8342 97.4403 80.5442 102.624C80.8802 107.262 80.9402 116.724 80.9402 116.724C80.9402 116.724 78.4202 121.296 66.2942 122.676C48.8942 124.662 44.0522 118.326 44.0522 118.326C43.6922 113.346 39.0722 107.814 37.2422 103.032Z" fill="#FFA500"/>
<path opacity="0.2" d="M37.2422 103.032C37.2422 103.032 40.4402 99.9003 41.2982 93.0003C41.6882 89.8683 41.1602 86.5323 39.8282 81.8163L48.7142 78.9243C48.7142 78.9243 49.8002 77.6163 56.4002 76.4103L63.5282 75.7383C63.5282 75.7383 75.4022 81.5583 79.8722 87.4203C82.3082 90.6183 84.8342 97.4403 80.5442 102.624C80.8802 107.262 80.9402 116.724 80.9402 116.724C80.9402 116.724 78.4202 121.296 66.2942 122.676C48.8942 124.662 44.0522 118.326 44.0522 118.326C43.6922 113.346 39.0722 107.814 37.2422 103.032Z" fill="#FFA500"/>
<path d="M67.6078 104.238C67.6078 104.238 65.0998 108.486 58.3678 108.324C51.6358 108.162 49.6318 103.392 49.6318 103.392C49.6318 103.392 50.1538 109.83 58.1938 109.992C66.1138 110.148 67.6078 104.238 67.6078 104.238Z" fill="#7D7D7D"/>
<path d="M43.02 44.2498C43.9837 43.0889 45.2936 42.2668 46.758 41.9038C48.156 41.5558 49.014 41.5738 50.358 41.0278C51.702 40.4818 52.716 39.6238 53.958 39.0898C56.742 37.8898 60.102 38.6458 62.496 40.4938C63.552 41.3098 64.542 42.3658 65.868 42.5638C66.5251 42.6117 67.1849 42.6117 67.842 42.5638C69.93 42.5638 71.856 43.9198 72.96 45.6898C73.7924 47.1004 74.2911 48.6828 74.418 50.3158C74.586 51.9298 74.022 53.4298 74.124 55.0378C74.196 56.2378 74.928 57.2518 75.648 58.1398C76.62 59.3398 77.412 60.2518 77.892 61.7698C78.3032 62.9227 78.4247 64.1589 78.246 65.3698C78.1453 65.9761 77.8936 66.5474 77.514 67.0308C77.1344 67.5142 76.6392 67.8942 76.074 68.1358C76.2877 67.5626 76.3563 66.9454 76.2736 66.3392C76.1909 65.7331 75.9595 65.1568 75.6 64.6618C75.7161 65.2061 75.7228 65.7681 75.6198 66.315C75.5168 66.862 75.3061 67.383 75 67.8478C74.3727 68.7692 73.5742 69.5615 72.648 70.1818C70.6286 71.7483 68.1699 72.6441 65.616 72.7438C62.946 72.7438 60.216 71.8378 57.6 72.5338C56.8743 72.7523 56.1612 73.0107 55.464 73.3078C54.248 73.7734 52.9874 74.1132 51.702 74.3218C50.502 74.5198 49.23 74.4298 48.012 74.6038C46.0037 74.8961 43.9595 74.4135 42.294 73.2538C41.2275 72.4199 40.3629 71.3561 39.7645 70.1417C39.1661 68.9273 38.8494 67.5936 38.838 66.2398C38.3966 66.8233 38.1153 67.5121 38.022 68.2378C37.4392 67.5305 37.0316 66.6956 36.8324 65.8011C36.6333 64.9065 36.6482 63.9775 36.876 63.0898C37.248 61.6918 38.136 60.4378 38.244 59.0038C38.334 57.7618 37.824 56.5558 37.686 55.3138C37.5708 53.8612 37.9578 52.4131 38.7824 51.2117C39.607 50.0103 40.8191 49.1285 42.216 48.7138C42.0454 47.9537 42.0287 47.1672 42.1668 46.4005C42.3048 45.6339 42.5949 44.9026 43.02 44.2498Z" fill="#263238"/>
<path d="M43.0561 59.8736C44.7541 59.1596 46.2361 59.7536 47.2141 61.5296C48.0721 63.0716 49.7461 62.4656 49.2601 60.0296C53.0101 56.2196 48.4261 54.0296 51.5041 50.3456C53.4181 48.0596 57.6901 48.5096 59.4361 49.8416C59.8801 49.009 60.5917 48.3502 61.4559 47.9714C62.3202 47.5926 63.2869 47.5159 64.2001 47.7536C66.0001 48.3536 67.2001 49.3496 68.1241 51.7976C69.1021 54.3476 68.1961 54.8636 68.6881 56.6756C68.8801 57.3716 69.6361 58.7396 69.7261 60.5396C70.1521 69.0716 68.4481 71.2856 66.6121 72.7496C65.3521 73.7576 63.7201 74.3276 60.9061 74.4476L61.1701 78.1676C63.5066 81.0083 64.9752 84.4621 65.4001 88.1156C57.2761 86.0336 53.0521 83.3156 48.3001 79.7156L47.4901 67.3436C47.1241 68.3276 45.1741 69.4616 43.1281 67.9016C40.5421 65.9156 40.0501 61.1336 43.0561 59.8736Z" fill="#FFBDA7"/>
<path d="M67.2002 55.6681L64.4282 54.6421C64.4854 54.4582 64.5796 54.2878 64.7049 54.1414C64.8302 53.9951 64.9841 53.8759 65.1571 53.7911C65.3301 53.7062 65.5185 53.6576 65.711 53.6482C65.9034 53.6387 66.0958 53.6687 66.2762 53.7361C66.6477 53.8794 66.9503 54.1593 67.1221 54.5185C67.2939 54.8777 67.3218 55.289 67.2002 55.6681Z" fill="#263238"/>
<path d="M56.3998 54.9778L53.8558 56.4778C53.7496 56.3171 53.6773 56.1364 53.6433 55.9468C53.6093 55.7572 53.6144 55.5626 53.6582 55.375C53.702 55.1874 53.7836 55.0107 53.8981 54.8558C54.0125 54.7008 54.1574 54.5708 54.3238 54.4738C54.6683 54.275 55.0761 54.2165 55.4627 54.3103C55.8492 54.4041 56.1848 54.6432 56.3998 54.9778Z" fill="#263238"/>
<path d="M57.8878 65.1416L62.0218 66.4256C61.9335 66.7156 61.7856 66.9839 61.5874 67.2132C61.3893 67.4426 61.1453 67.628 60.8712 67.7574C60.5971 67.8868 60.299 67.9574 59.996 67.9647C59.6929 67.9719 59.3918 67.9157 59.1118 67.7996C57.9838 67.3796 57.5998 66.3056 57.8878 65.1416Z" fill="#B16668"/>
<path d="M60.3061 67.8901C60.2378 67.3308 59.9644 66.8168 59.5387 66.4476C59.113 66.0785 58.5654 65.8805 58.0021 65.8921C57.9313 65.8959 57.8611 65.9059 57.7921 65.9221C57.7818 66.3323 57.905 66.7349 58.143 67.0692C58.381 67.4035 58.7211 67.6515 59.1121 67.7761C59.495 67.9103 59.9047 67.9495 60.3061 67.8901Z" fill="#F28F8F"/>
<path d="M60.4082 56.3877L61.3082 64.0137L65.4842 62.4357L60.4082 56.3877Z" fill="#F0997A"/>
<path d="M57.2882 58.5955C57.3042 58.8392 57.2476 59.0821 57.1257 59.2937C57.0037 59.5053 56.8218 59.676 56.6029 59.7843C56.384 59.8926 56.1379 59.9336 55.8958 59.9022C55.6536 59.8707 55.4261 59.7682 55.2421 59.6077C55.0581 59.4471 54.9258 59.2356 54.8619 58.9999C54.798 58.7642 54.8054 58.5148 54.883 58.2833C54.9607 58.0518 55.1052 57.8484 55.2984 57.699C55.4915 57.5495 55.7246 57.4606 55.9682 57.4435C56.1306 57.4321 56.2936 57.4528 56.448 57.5046C56.6023 57.5564 56.7449 57.6382 56.8676 57.7452C56.9902 57.8522 57.0905 57.9825 57.1627 58.1284C57.2349 58.2743 57.2775 58.433 57.2882 58.5955Z" fill="#263238"/>
<path d="M66.9059 58.0554C66.9219 58.2991 66.8653 58.5421 66.7433 58.7537C66.6214 58.9653 66.4395 59.136 66.2206 59.2442C66.0017 59.3525 65.7556 59.3935 65.5134 59.3621C65.2713 59.3307 65.0438 59.2282 64.8598 59.0676C64.6758 58.907 64.5435 58.6956 64.4796 58.4599C64.4157 58.2242 64.423 57.9748 64.5007 57.7433C64.5784 57.5117 64.7229 57.3084 64.916 57.1589C65.1092 57.0095 65.3423 56.9206 65.5859 56.9034C65.7483 56.892 65.9113 56.9128 66.0656 56.9646C66.22 57.0164 66.3626 57.0981 66.4852 57.2052C66.6079 57.3122 66.7082 57.4424 66.7804 57.5883C66.8526 57.7343 66.8952 57.893 66.9059 58.0554Z" fill="#263238"/>
<path d="M60.894 74.4474C58.152 74.3994 53.496 74.3994 51.144 71.3994C51.144 71.3994 51.492 73.1994 54.33 74.5494C56.328 75.4854 60.972 75.7494 60.972 75.7494L60.894 74.4474Z" fill="#F0997A"/>
<path d="M33.8521 143.939C33.0421 143.063 32.0101 142.289 31.6741 141.095C31.5787 140.793 31.5551 140.474 31.6051 140.161C31.6551 139.849 31.7774 139.552 31.9621 139.295C32.0589 139.204 32.1329 139.091 32.1781 138.965C32.2021 138.859 32.2021 138.748 32.1781 138.641C32.0665 138.191 32.0958 137.718 32.2621 137.285C32.3471 137.11 32.4678 136.954 32.6166 136.828C32.7654 136.702 32.939 136.608 33.1261 136.553C32.9101 135.888 32.9101 135.172 33.1261 134.507C33.3961 133.727 34.2001 133.109 34.7221 133.979C34.9656 134.411 35.1665 134.865 35.3221 135.335C35.7173 136.512 35.977 137.73 36.0961 138.965C36.2221 140.249 36.5341 143.891 34.5421 144.059C34.4041 144.059 33.9601 144.065 33.8521 143.939Z" fill="#F0997A"/>
<path d="M39.8099 81.8096C31.1219 84.2876 29.7059 88.4096 25.1399 94.6976C20.5739 100.986 17.2139 105.438 15.3179 108.924C13.3259 112.596 13.1219 114.072 17.4119 118.764C19.6439 121.206 22.3439 123.63 26.4119 127.266C28.2119 128.88 33.1559 133.17 33.8939 133.866C34.6131 134.763 35.1271 135.808 35.3999 136.926C35.4348 137.077 35.4549 137.232 35.4599 137.388C35.4352 138.051 35.357 138.711 35.2259 139.362C35.1426 140.242 35.1769 141.13 35.3279 142.002C35.4359 142.734 35.6279 143.442 34.8059 143.802C34.4965 143.92 34.1623 143.96 33.8339 143.916C34.4008 144.351 35.0324 144.695 35.7059 144.936C36.3851 145.179 37.1313 145.155 37.7939 144.87C38.5967 144.453 39.4243 144.087 40.2719 143.772C40.6319 143.664 41.0159 143.682 41.3759 143.586C41.7477 143.492 42.0799 143.281 42.3239 142.986C42.7019 142.512 42.8579 141.822 43.3919 141.534C43.6647 141.428 43.9431 141.338 44.2259 141.264C44.4943 141.133 44.7275 140.94 44.906 140.701C45.0846 140.462 45.2031 140.184 45.2519 139.89C45.3458 139.292 45.3315 138.682 45.2099 138.09C44.9699 136.512 44.6999 134.79 44.3099 133.236C43.9815 131.717 43.3354 130.286 42.4139 129.036C39.7499 125.31 29.6099 112.596 29.6099 112.596L38.2139 102.09C40.2779 100.494 44.9999 88.4456 39.8099 81.8096Z" fill="#FFBDA7"/>
<path d="M29.6277 112.638C27.2937 114.924 23.6818 115.11 22.3438 115.038C23.6964 115.588 25.1722 115.764 26.6164 115.548C28.0606 115.332 29.4199 114.73 30.5517 113.808L29.6277 112.638Z" fill="#F0997A"/>
<path d="M203.748 210.33L191.52 31.0563C191.208 26.4423 188.646 25.2243 186.372 24.0963C184.098 22.9683 180.438 22.3323 177.432 24.0963L100.488 68.4963C97.4877 70.2303 95.2317 74.3463 95.4597 77.6823L107.682 256.956C107.91 260.298 110.304 262.218 112.578 263.346C114.852 264.474 118.77 265.68 121.776 263.946L198.72 219.546C201.726 217.8 204.066 214.98 203.748 210.33Z" fill="#37474F"/>
<path d="M198.786 212.136L119.664 257.814L107.4 77.7665L96.7498 72.4805C95.841 74.0577 95.3901 75.8571 95.4478 77.6765L107.67 256.95C107.898 260.292 110.292 262.212 112.566 263.34C114.84 264.468 118.758 265.674 121.764 263.94L198.708 219.54C200.807 218.44 202.425 216.602 203.25 214.38L202.92 214.218L198.786 212.136Z" fill="#263238"/>
<path d="M185.622 29.6286L108.456 74.1846C107.371 74.8727 106.477 75.8247 105.859 76.9515C105.241 78.0784 104.919 79.3434 104.922 80.6286L117.048 258.445C117.294 262.045 120.144 263.437 123.372 261.571L198.48 218.209C200.88 216.829 202.68 213.547 202.482 210.901L190.278 31.9386C190.098 29.2926 187.998 28.2546 185.622 29.6286Z" fill="#455A64"/>
<path d="M198.282 206.737C198.456 209.263 196.746 212.383 194.484 213.685L124.92 253.849C122.652 255.169 120.672 254.185 120.504 251.659L109.104 84.2168C109.099 83.0926 109.326 81.9795 109.771 80.9471C110.216 79.9147 110.869 78.9852 111.69 78.2168C111.822 78.1028 111.942 77.9828 112.074 77.8748C112.334 77.6626 112.611 77.4719 112.902 77.3048L132.444 66.0008L133.722 65.2628C134.424 64.8548 135.042 65.1608 135.096 65.9468C135.15 66.7328 135.798 67.0148 136.554 66.5468L159.36 53.4008C159.738 53.1708 160.053 52.8489 160.274 52.4651C160.495 52.0812 160.616 51.6478 160.626 51.2048C160.624 50.8001 160.717 50.4007 160.899 50.039C161.08 49.6772 161.344 49.3633 161.67 49.1228L161.802 49.0388L186.552 34.7588L198.282 206.737Z" fill="black"/>
<path d="M187.986 209.4C190.248 208.098 191.958 204.978 191.784 202.452L180.6 38.1904L161.82 49.0264L161.688 49.1104C161.363 49.351 161.098 49.6648 160.917 50.0266C160.736 50.3883 160.642 50.7878 160.644 51.1924C160.635 51.6392 160.512 52.0762 160.287 52.4625C160.063 52.8487 159.744 53.1715 159.36 53.4004L136.56 66.5644C135.804 67.0084 135.156 66.7204 135.102 65.9644C135.048 65.2084 134.43 64.8724 133.728 65.2804L132.444 66.0004L108.774 79.6684L120.282 248.484L187.986 209.4Z" fill="#DEDEDE"/>
<path d="M104.334 99.0308C104.243 98.3128 103.985 97.6261 103.581 97.0258C103.177 96.4256 102.637 95.9286 102.006 95.5748C101.792 95.4403 101.548 95.3625 101.296 95.3488C101.044 95.3352 100.793 95.3861 100.566 95.4968C100.314 95.6468 99.3238 96.1988 99.0598 96.3608C98.8469 96.5166 98.6821 96.7293 98.5845 96.9744C98.4869 97.2196 98.4603 97.4873 98.5078 97.7468L99.5038 112.351C99.5945 113.069 99.8523 113.756 100.257 114.356C100.661 114.956 101.201 115.453 101.832 115.807C102.037 115.934 102.271 116.011 102.512 116.03C102.753 116.048 102.995 116.009 103.218 115.915C103.5 115.771 104.514 115.183 104.778 115.027C104.992 114.871 105.157 114.657 105.255 114.411C105.353 114.164 105.379 113.895 105.33 113.635L104.334 99.0308Z" fill="#455A64"/>
<path d="M102.834 99.8887L103.836 114.499C103.92 115.813 103.026 116.401 101.832 115.807C101.2 115.453 100.661 114.956 100.257 114.356C99.8522 113.755 99.5943 113.069 99.5037 112.351L98.5077 97.7467C98.4177 96.4327 99.3177 95.8447 100.512 96.4387C101.143 96.7908 101.682 97.2867 102.085 97.8861C102.489 98.4855 102.745 99.1716 102.834 99.8887Z" fill="#37474F"/>
<path d="M106.074 124.596C105.983 123.879 105.726 123.193 105.323 122.593C104.92 121.993 104.382 121.495 103.752 121.14C103.538 121.006 103.294 120.928 103.042 120.914C102.79 120.901 102.538 120.952 102.312 121.062C102.06 121.212 101.064 121.764 100.806 121.926C100.592 122.081 100.426 122.294 100.328 122.539C100.231 122.784 100.205 123.053 100.254 123.312L101.25 137.916C101.338 138.635 101.596 139.322 102 139.923C102.405 140.523 102.945 141.02 103.578 141.372C103.783 141.5 104.016 141.576 104.257 141.595C104.499 141.614 104.741 141.574 104.964 141.48C105.24 141.336 106.26 140.748 106.518 140.592C106.732 140.436 106.897 140.222 106.995 139.976C107.092 139.73 107.118 139.461 107.07 139.2L106.074 124.596Z" fill="#455A64"/>
<path d="M104.58 125.46L105.6 140.064C105.69 141.378 104.796 141.966 103.602 141.372C102.969 141.02 102.429 140.523 102.024 139.923C101.62 139.322 101.363 138.635 101.274 137.916L100.278 123.312C100.188 121.998 101.082 121.41 102.276 122.004C102.903 122.36 103.438 122.858 103.839 123.458C104.239 124.058 104.493 124.744 104.58 125.46Z" fill="#37474F"/>
<path d="M108.774 79.6502L186.558 34.7402L210.276 50.0642L132.492 94.9742L108.774 79.6502Z" fill="#E8E8E8"/>
<path d="M108.774 79.6502L132.492 94.9742L141.132 89.9822L117.414 74.6582L108.774 79.6502Z" fill="#B1B1B1"/>
<path d="M126.06 69.6727L149.778 84.9967L158.418 80.0047L134.7 64.6807L126.06 69.6727Z" fill="#B1B1B1"/>
<path d="M143.346 59.6882L167.064 75.0121L175.704 70.0261L151.986 54.7021L143.346 59.6882Z" fill="#B1B1B1"/>
<path d="M160.632 49.7098L184.35 65.0338L192.99 60.0418L169.272 44.7178L160.632 49.7098Z" fill="#B1B1B1"/>
<path d="M177.918 39.7322L201.636 55.0562L210.276 50.0642L186.558 34.7402L177.918 39.7322Z" fill="#B1B1B1"/>
<path d="M132.492 94.9744C132.492 97.7284 134.424 98.8504 136.812 97.4704C138.07 96.6499 139.117 95.5441 139.867 94.2431C140.618 92.942 141.051 91.4823 141.132 89.9824L132.492 94.9744Z" fill="#B1B1B1"/>
<path d="M149.778 84.9959C149.778 87.7499 151.71 88.8659 154.098 87.4919C155.352 86.6686 156.395 85.5619 157.142 84.2611C157.889 82.9603 158.32 81.502 158.4 80.0039L149.778 84.9959Z" fill="#B1B1B1"/>
<path d="M167.064 75.0006C167.064 77.7606 169.002 78.8766 171.384 77.4966C172.642 76.6773 173.69 75.5729 174.442 74.2729C175.193 72.9729 175.628 71.514 175.71 70.0146L167.064 75.0006Z" fill="#B1B1B1"/>
<path d="M184.35 65.034C184.35 67.788 186.288 68.904 188.67 67.53C189.929 66.7094 190.976 65.6038 191.728 64.3029C192.479 63.0019 192.914 61.5422 192.996 60.042L184.35 65.034Z" fill="#B1B1B1"/>
<path d="M201.636 55.0505C201.636 57.8105 203.574 58.9265 205.962 57.5465C207.219 56.7265 208.265 55.6217 209.016 54.3218C209.767 53.0218 210.2 51.5633 210.282 50.0645L201.636 55.0505Z" fill="#B1B1B1"/>
<g opacity="0.3">
<path d="M132.492 94.9744C132.492 97.7284 134.424 98.8504 136.812 97.4704C138.07 96.6499 139.117 95.5441 139.867 94.2431C140.618 92.942 141.051 91.4823 141.132 89.9824L132.492 94.9744Z" fill="black"/>
<path d="M149.778 84.9969C149.778 87.7509 151.71 88.8669 154.098 87.4929C155.352 86.6696 156.395 85.5629 157.142 84.2621C157.889 82.9613 158.32 81.503 158.4 80.0049L149.778 84.9969Z" fill="black"/>
<path d="M167.063 75.0006C167.063 77.7606 169.001 78.8766 171.383 77.4966C172.642 76.6773 173.689 75.5729 174.441 74.2729C175.193 72.9729 175.627 71.514 175.709 70.0146L167.063 75.0006Z" fill="black"/>
<path d="M184.35 65.034C184.35 67.788 186.288 68.904 188.67 67.53C189.928 66.7094 190.976 65.6038 191.727 64.3029C192.479 63.0019 192.913 61.5422 192.996 60.042L184.35 65.034Z" fill="black"/>
<path d="M201.636 55.0505C201.636 57.8105 203.574 58.9265 205.962 57.5465C207.219 56.7265 208.265 55.6217 209.016 54.3218C209.767 53.0218 210.2 51.5633 210.282 50.0645L201.636 55.0505Z" fill="black"/>
</g>
<path d="M141.132 90.0006C141.132 92.7606 143.07 93.8766 145.458 92.4966C146.715 91.6767 147.762 90.5719 148.512 89.272C149.263 87.972 149.696 86.5135 149.778 85.0146L141.132 90.0006Z" fill="#F1F1F1"/>
<path d="M158.4 80.0047C158.4 82.7587 160.338 83.8747 162.726 82.5007C163.984 81.6801 165.031 80.5744 165.781 79.2734C166.532 77.9723 166.965 76.5126 167.046 75.0127L158.4 80.0047Z" fill="#F1F1F1"/>
<path d="M175.71 70.0262C175.71 72.7802 177.642 73.8962 180.03 72.5162C181.288 71.6969 182.335 70.5923 183.085 69.2922C183.836 67.9921 184.269 66.5333 184.35 65.0342L175.71 70.0262Z" fill="#F1F1F1"/>
<path d="M192.996 60.0418C192.996 62.7958 194.928 63.9178 197.316 62.5378C198.574 61.7172 199.621 60.6115 200.372 59.3105C201.122 58.0094 201.555 56.5497 201.636 55.0498L192.996 60.0418Z" fill="#F1F1F1"/>
<path d="M186.084 197.196L230.034 171.792V140.562L230.964 140.028V127.068L186.084 152.982V197.196Z" fill="#0250A4"/>
<g opacity="0.45">
<path d="M186.084 197.196L230.034 171.792V140.562L230.964 140.028V127.068L186.084 152.982V197.196Z" fill="#E8E8E8"/>
</g>
<path opacity="0.15" d="M186.084 165.936L202.914 156.222L230.034 140.562V142.429L186.084 167.796V165.936Z" fill="black"/>
<path d="M186.084 197.196L142.374 171.978V140.7L141.204 140.028V127.068L186.084 152.982V197.196Z" fill="#0250A4"/>
<path opacity="0.3" d="M186.084 197.196L142.374 171.978V140.7L141.204 140.028V127.068L186.084 152.982V197.196Z" fill="#E8E8E8"/>
<path opacity="0.1" d="M142.368 140.7L186.084 165.936V167.796L142.368 142.584V140.7Z" fill="black"/>
<path d="M141.204 127.068L186.084 101.16L230.964 127.068L186.084 152.982L141.204 127.068Z" fill="#0250A4"/>
<g opacity="0.6">
<path d="M141.204 127.068L186.084 101.16L230.964 127.068L186.084 152.982L141.204 127.068Z" fill="#E8E8E8"/>
</g>
<path d="M167.856 186.678V142.458L160.566 138.252V182.472L167.856 186.678Z" fill="#EBEBEB"/>
<path d="M167.856 186.678V142.458L160.566 138.252V182.472L167.856 186.678Z" fill="#0250A4"/>
<path opacity="0.4" d="M167.856 186.678V142.458L160.566 138.252V182.472L167.856 186.678Z" fill="black"/>
<path d="M204.312 186.678V142.458L211.602 138.252V182.472L204.312 186.678Z" fill="#0250A4"/>
<path opacity="0.15" d="M204.312 186.678V142.458L211.602 138.252V182.472L204.312 186.678Z" fill="black"/>
<path d="M160.566 138.252L205.446 112.338L212.736 116.55L167.856 142.458L160.566 138.252Z" fill="#0250A4"/>
<path opacity="0.25" d="M185.49 132.282L178.2 128.07L185.49 123.864L192.78 128.07L185.49 132.282Z" fill="black"/>
<path d="M204.312 142.458L159.432 116.55L166.722 112.338L211.602 138.252L204.312 142.458Z" fill="#0250A4"/>
<path d="M184.332 131.064L194.652 148.044V177.63L201.036 168.606V144.384L185.826 127.938L184.332 131.064Z" fill="#0250A4"/>
<path d="M186.102 129.282L215.832 130.2L220.962 123.288L186.036 126.432L186.102 129.282Z" fill="#0250A4"/>
<path d="M157.272 115.872C157.272 115.872 159.072 123.072 167.43 125.85C175.788 128.628 185.472 129.288 185.472 129.288L166.482 106.626L157.272 115.872Z" fill="#0250A4"/>
<path opacity="0.4" d="M157.272 115.872C157.272 115.872 159.072 123.072 167.43 125.85C175.788 128.628 185.472 129.288 185.472 129.288L166.482 106.626L157.272 115.872Z" fill="black"/>
<path d="M185.472 129.288C185.472 129.288 185.676 122.19 182.01 116.826C178.344 111.462 166.482 106.626 166.482 106.626C163.025 109.297 159.929 112.404 157.272 115.872C157.272 115.872 173.04 115.746 183.876 129.042L185.472 129.288Z" fill="#0250A4"/>
<path opacity="0.1" d="M185.472 129.288C185.472 129.288 185.676 122.19 182.01 116.826C178.344 111.462 166.482 106.626 166.482 106.626C163.025 109.297 159.929 112.404 157.272 115.872C157.272 115.872 173.04 115.746 183.876 129.042L185.472 129.288Z" fill="#E8E8E8"/>
<path opacity="0.3" d="M167.166 117.696C170.108 118.652 172.918 119.974 175.53 121.632L181.308 115.926C179.382 113.676 176.196 111.576 173.262 109.926L167.166 117.696Z" fill="#E8E8E8"/>
<path d="M185.472 129.288C183.715 132.487 180.982 135.041 177.672 136.578C171.972 139.344 162.432 139.2 162.432 139.2L161.52 127.2C162.615 128.864 164.108 130.228 165.862 131.171C167.617 132.114 169.578 132.605 171.57 132.6C175.853 132.63 180.001 131.101 183.24 128.298L185.472 129.288Z" fill="#0250A4"/>
<path opacity="0.4" d="M185.472 129.288C183.715 132.487 180.982 135.041 177.672 136.578C171.972 139.344 162.432 139.2 162.432 139.2L161.52 127.2C162.615 128.864 164.108 130.228 165.862 131.171C167.617 132.114 169.578 132.605 171.57 132.6C175.853 132.63 180.001 131.101 183.24 128.298L185.472 129.288Z" fill="black"/>
<path d="M185.472 129.288C179.502 123.204 173.916 122.616 168.822 123.804C163.182 125.124 161.514 127.182 161.514 127.182L162.426 139.182C162.426 139.182 165.426 133.314 173.574 130.674C181.722 128.034 185.472 129.288 185.472 129.288Z" fill="#0250A4"/>
<path opacity="0.1" d="M185.472 129.288C179.502 123.204 173.916 122.616 168.822 123.804C163.182 125.124 161.514 127.182 161.514 127.182L162.426 139.182C162.426 139.182 165.426 133.314 173.574 130.674C181.722 128.034 185.472 129.288 185.472 129.288Z" fill="#E8E8E8"/>
<path opacity="0.3" d="M164.31 125.328C165.696 127.32 167.91 130.578 169.296 132.636C170.648 131.835 172.082 131.183 173.574 130.692C174.987 130.236 176.426 129.861 177.882 129.57L172.698 123.306C171.392 123.332 170.092 123.499 168.822 123.804C167.269 124.153 165.757 124.664 164.31 125.328Z" fill="#E8E8E8"/>
<path d="M185.136 127.95C185.136 127.95 193.536 126.75 199.338 120.522C205.14 114.294 206.4 105.6 206.4 105.6L195.828 99C196.707 101.697 196.993 104.552 196.666 107.369C196.34 110.187 195.41 112.901 193.938 115.326C190.176 121.746 184.938 123.06 184.938 123.06L185.136 127.95Z" fill="#0250A4"/>
<path opacity="0.4" d="M185.136 127.95C185.136 127.95 193.536 126.75 199.338 120.522C205.14 114.294 206.4 105.6 206.4 105.6L195.828 99C196.707 101.697 196.993 104.552 196.666 107.369C196.34 110.187 195.41 112.901 193.938 115.326C190.176 121.746 184.938 123.06 184.938 123.06L185.136 127.95Z" fill="black"/>
<path d="M185.136 127.95L186.684 127.632C187.57 121.56 190.489 115.967 194.964 111.768C202.668 104.712 206.4 105.6 206.4 105.6C203.304 102.492 199.644 100.572 195.828 99C195.828 99 189.276 102.828 186.378 108.246C182.904 114.732 184.044 124.344 185.136 127.95Z" fill="#0250A4"/>
<path opacity="0.1" d="M185.136 127.95L186.684 127.632C187.57 121.56 190.489 115.967 194.964 111.768C202.668 104.712 206.4 105.6 206.4 105.6C203.304 102.492 199.644 100.572 195.828 99C195.828 99 189.276 102.828 186.378 108.246C182.904 114.732 184.044 124.344 185.136 127.95Z" fill="#E8E8E8"/>
<g opacity="0.3">
<path d="M200.736 107.4L191.814 101.91C191.388 102.264 190.962 102.636 190.524 103.044L199.236 108.354C199.764 108 200.268 107.664 200.736 107.4Z" fill="#E8E8E8"/>
<path d="M197.91 109.296L189.282 104.286C188.459 105.155 187.714 106.095 187.056 107.094L186.996 107.178C186.774 107.52 186.564 107.874 186.396 108.228C186.288 108.438 186.216 108.678 186.114 108.894L193.314 113.436C193.824 112.872 194.37 112.314 194.964 111.768C196.026 110.796 196.998 109.992 197.91 109.296Z" fill="#E8E8E8"/>
</g>
<path d="M185.4 129.276C185.4 129.276 188.112 131.982 194.478 133.362C200.844 134.742 208.8 133.536 212.118 129.636L211.062 118.488C211.062 118.488 205.974 125.808 198.288 127.272C192.432 128.382 185.322 126.276 185.322 126.276L185.4 129.276Z" fill="#0250A4"/>
<path opacity="0.4" d="M185.4 129.276C185.4 129.276 188.112 131.982 194.478 133.362C200.844 134.742 208.8 133.536 212.118 129.636L211.062 118.488C211.062 118.488 205.974 125.808 198.288 127.272C192.432 128.382 185.322 126.276 185.322 126.276L185.4 129.276Z" fill="black"/>
<path d="M184.95 126.72C184.95 126.72 190.872 120.12 197.442 118.92C206.34 117.282 211.086 118.488 211.086 118.488C212.79 122.466 213.09 126.174 212.142 129.636C212.142 129.636 208.152 125.604 199.092 125.556C191.928 125.52 185.424 129.276 185.424 129.276L184.95 126.72Z" fill="#0250A4"/>
<path opacity="0.1" d="M184.95 126.72C184.95 126.72 190.872 120.12 197.442 118.92C206.34 117.282 211.086 118.488 211.086 118.488C212.79 122.466 213.09 126.174 212.142 129.636C212.142 129.636 208.152 125.604 199.092 125.556C191.928 125.52 185.424 129.276 185.424 129.276L184.95 126.72Z" fill="#E8E8E8"/>
<path opacity="0.3" d="M210.21 128.274C208.236 127.177 206.092 126.418 203.868 126.03L202.464 118.23C204.678 118.019 206.907 118.003 209.124 118.182C210.147 121.442 210.516 124.871 210.21 128.274Z" fill="#E8E8E8"/>
<path opacity="0.15" d="M201.036 144.384L194.652 148.044V177.63L201.036 168.606V144.384Z" fill="black"/>
<path d="M178.632 172.158C178.11 173.358 175.314 172.758 174.312 172.758C174.045 172.744 173.778 172.772 173.52 172.842C173.213 172.968 172.928 173.14 172.674 173.352C171.352 174.158 169.79 174.477 168.258 174.252C166.626 174.102 164.466 172.968 162.99 173.856C161.514 174.744 159.486 174.342 157.776 173.79C154.809 172.837 151.923 171.645 149.148 170.226C147.348 169.314 145.698 168.282 144.036 167.226L143.61 166.944C141.81 165.78 139.92 164.826 138.15 163.62C134.55 161.16 131.184 158.436 127.458 156.198C126.312 155.508 124.974 154.752 123.492 153.948L122.97 153.666L122.922 153.63C121.812 152.844 121.122 151.23 121.122 149.04C121.122 144.726 123.744 139.716 126.984 137.844C128.502 136.962 129.888 136.938 130.932 137.61L131.418 137.988C133.371 139.574 135.423 141.033 137.562 142.356C143.25 145.518 145.608 145.476 149.202 145.29C151.5 145.176 153.762 145.44 156.054 145.488C158.958 145.554 161.886 145.626 164.808 145.656C164.93 145.642 165.054 145.653 165.173 145.687C165.291 145.721 165.402 145.778 165.498 145.854C165.592 145.97 165.654 146.109 165.678 146.256C165.978 147.456 165.72 148.134 164.748 148.926C163.254 150.126 161.148 150.726 159.258 151.014C158.412 151.152 155.88 151.212 155.496 152.214C155.226 152.922 156.57 153.876 157.098 154.2C160.056 156 163.578 157.104 166.788 158.4C168.546 159.12 170.292 159.858 172.008 160.668C174.222 161.712 177.618 162.834 177.954 165.666C177.982 165.787 177.969 165.914 177.918 166.026C177.831 166.155 177.698 166.246 177.546 166.278C176.802 166.465 176.026 166.488 175.272 166.344C174.198 166.206 173.136 165.99 172.074 165.78C171.012 165.57 170.226 165.354 169.002 165.03C168.132 164.802 166.956 164.382 165.912 164.196C165.912 164.196 172.71 167.25 175.74 168.522C176.665 168.823 177.501 169.346 178.176 170.046C178.422 170.333 178.592 170.676 178.672 171.045C178.751 171.413 178.738 171.796 178.632 172.158Z" fill="#FFA8A7"/>
<path d="M165.9 164.178C162.576 163.032 158.016 161.46 156.864 160.788C158.898 162.312 162.732 163.566 165.9 164.178Z" fill="#F28F8F"/>
<path d="M172.8 172.26C169.992 171.414 167.208 170.43 164.472 169.368C163.092 168.828 161.718 168.264 160.35 167.694C158.982 167.124 157.686 166.494 156.348 165.894C156.348 165.894 156.306 165.942 156.348 165.954C158.941 167.384 161.632 168.631 164.4 169.686C167.146 170.737 169.951 171.631 172.8 172.362C172.83 172.374 172.842 172.266 172.8 172.26Z" fill="#F28F8F"/>
<path d="M164.4 173.19C162.21 172.44 160.038 171.552 157.902 170.58C156.816 170.088 155.748 169.566 154.674 169.044C153.6 168.522 152.592 167.922 151.542 167.364C151.542 167.364 151.542 167.412 151.542 167.424C153.555 168.754 155.674 169.916 157.878 170.898C159.992 171.852 162.172 172.654 164.4 173.298C164.436 173.31 164.448 173.202 164.4 173.19Z" fill="#F28F8F"/>
<path d="M123.312 138.258C122.604 139.031 121.969 139.869 121.416 140.76C120.871 141.677 120.423 142.648 120.078 143.658C119.749 144.618 119.508 145.606 119.358 146.61C119.211 147.722 119.199 148.848 119.322 149.964C119.322 150.006 119.358 149.964 119.358 149.964C119.36 148.979 119.44 147.996 119.598 147.024C119.738 145.984 119.975 144.959 120.306 143.964C120.963 141.923 121.996 140.024 123.354 138.366C123.378 138.324 123.354 138.216 123.312 138.258Z" fill="#F1F1F1"/>
<path d="M123.264 155.466C122.576 155.545 121.88 155.471 121.224 155.25C120.568 154.993 119.983 154.582 119.52 154.05C119.024 153.454 118.652 152.765 118.428 152.022C118.292 151.598 118.185 151.165 118.11 150.726C118.05 150.252 117.966 149.782 117.858 149.316H117.822C117.74 150.171 117.845 151.032 118.128 151.842C118.349 152.679 118.739 153.461 119.274 154.14C119.766 154.748 120.401 155.224 121.122 155.526C121.462 155.696 121.832 155.796 122.211 155.82C122.59 155.845 122.971 155.794 123.33 155.67C123.408 155.622 123.342 155.46 123.264 155.466Z" fill="#F1F1F1"/>
<path d="M132.24 137.142C131.861 136.326 131.256 135.636 130.496 135.153C129.737 134.671 128.856 134.416 127.956 134.418C125.724 134.376 123.582 135.618 122.07 137.136C121.13 138.09 120.348 139.188 119.754 140.388C119.754 140.424 119.754 140.544 119.808 140.484C121.608 137.622 123.09 136.116 125.712 135.138C127.956 134.31 131.004 134.874 132.126 137.214C132.18 137.322 132.276 137.232 132.24 137.142Z" fill="#F1F1F1"/>
<path d="M110.31 49.5482C107.001 52.4494 102.708 53.9774 98.3101 53.8202L96.3361 53.6402C92.0492 52.9817 88.1654 50.739 85.4521 47.3553C82.7389 43.9717 81.3937 39.6933 81.6825 35.3658C81.9713 31.0383 83.8729 26.9765 87.0116 23.9833C90.1504 20.9901 94.2977 19.2833 98.6341 19.2002L100.614 19.2842C103.978 19.6148 107.171 20.9226 109.801 23.0463C112.43 25.1701 114.381 28.017 115.411 31.2359C116.442 34.4548 116.509 37.9051 115.602 41.1612C114.696 44.4173 112.856 47.337 110.31 49.5602V49.5482Z" fill="#FFFEFE"/>
<path d="M113.04 24.1202C109.935 20.5708 105.61 18.318 100.922 17.8084C96.2343 17.2988 91.5261 18.5697 87.7314 21.3691C83.9367 24.1685 81.3327 28.2919 80.4359 32.9214C79.5391 37.5509 80.415 42.3483 82.8899 46.3622L80.1839 51.5402C80.0797 51.7348 80.0372 51.9566 80.0621 52.1759C80.0871 52.3953 80.1783 52.6019 80.3237 52.7681C80.469 52.9342 80.6616 53.0522 80.8756 53.1062C81.0897 53.1602 81.3152 53.1476 81.5219 53.0702L86.9999 51.0722C90.6498 54.0751 95.2968 55.5928 100.015 55.3232C104.734 55.0536 109.178 53.0164 112.462 49.6173C115.746 46.2183 117.629 41.7069 117.736 36.9818C117.843 32.2566 116.167 27.6645 113.04 24.1202ZM110.31 49.5482C107 52.4494 102.708 53.9774 98.3099 53.8202L96.3359 53.6402C92.0491 52.9817 88.1652 50.739 85.452 47.3553C82.7388 43.9717 81.3936 39.6933 81.6824 35.3658C81.9711 31.0383 83.8728 26.9765 87.0115 23.9833C90.1502 20.9902 94.2976 19.2833 98.6339 19.2002L100.614 19.2842C103.978 19.6148 107.171 20.9226 109.801 23.0463C112.43 25.1701 114.38 28.017 115.411 31.2359C116.442 34.4548 116.508 37.9051 115.602 41.1612C114.695 44.4174 112.856 47.337 110.31 49.5602V49.5482Z" fill="#D9D9D9"/>
<path d="M98.898 45.708C86.664 39.192 85.698 32.196 89.232 28.782C92.418 25.716 98.232 27.738 98.898 32.112C99.546 27.738 105.372 25.716 108.558 28.782C112.11 32.196 111.126 39.192 98.898 45.708Z" fill="#FFA500"/>
<path d="M232.722 240.804C232.664 241.587 232.423 242.345 232.018 243.018C231.612 243.69 231.054 244.257 230.388 244.674L160.68 284.922C159.957 285.288 159.157 285.48 158.346 285.48C157.535 285.48 156.736 285.288 156.012 284.922L138.804 274.986C138.1 274.613 137.51 274.056 137.098 273.374C136.687 272.691 136.47 271.909 136.47 271.113C136.47 270.316 136.687 269.534 137.098 268.852C137.51 268.169 138.1 267.612 138.804 267.24L208.512 226.992C209.236 226.625 210.035 226.434 210.846 226.434C211.657 226.434 212.457 226.625 213.18 226.992L230.4 236.928C231.064 237.346 231.621 237.915 232.024 238.588C232.428 239.262 232.667 240.021 232.722 240.804Z" fill="#E2E2E2"/>
<path opacity="0.2" d="M232.722 240.804C232.664 241.587 232.423 242.345 232.018 243.018C231.612 243.69 231.054 244.257 230.388 244.674L160.68 284.922C159.957 285.288 159.157 285.48 158.346 285.48C157.535 285.48 156.736 285.288 156.012 284.922L138.804 274.986C138.1 274.613 137.51 274.056 137.098 273.374C136.687 272.691 136.47 271.909 136.47 271.113C136.47 270.316 136.687 269.534 137.098 268.852C137.51 268.169 138.1 267.612 138.804 267.24L208.512 226.992C209.236 226.625 210.035 226.434 210.846 226.434C211.657 226.434 212.457 226.625 213.18 226.992L230.4 236.928C231.064 237.346 231.621 237.915 232.024 238.588C232.428 239.262 232.667 240.021 232.722 240.804Z" fill="black"/>
<path d="M230.742 237.168C231.666 237.918 231.546 238.968 230.388 239.622L201.33 256.422L160.68 279.87C159.963 280.252 159.159 280.444 158.346 280.428V285.48C159.158 285.496 159.961 285.307 160.68 284.928L230.4 244.674C231.072 244.32 231.64 243.797 232.048 243.156C232.455 242.516 232.688 241.779 232.723 241.021C232.759 240.262 232.595 239.507 232.248 238.832C231.902 238.156 231.385 237.582 230.748 237.168H230.742Z" fill="#E2E2E2"/>
<path d="M156 279.87L138.792 269.934C137.502 269.19 137.502 267.984 138.792 267.24L208.5 226.992C209.224 226.625 210.023 226.434 210.834 226.434C211.645 226.434 212.445 226.625 213.168 226.992L230.4 236.928C231.69 237.672 231.69 238.878 230.4 239.622L201.342 256.422L160.68 279.87C159.955 280.238 159.154 280.431 158.34 280.431C157.527 280.431 156.725 280.238 156 279.87Z" fill="white"/>
<path d="M211.01 226.847C211.675 226.832 212.333 226.985 212.924 227.291L230.132 237.227C230.468 237.419 230.678 237.659 230.678 237.827C230.678 237.995 230.468 238.247 230.132 238.427L201.074 255.227L160.417 278.699C159.824 278.991 159.171 279.143 158.51 279.143C157.848 279.143 157.195 278.991 156.602 278.699L139.364 268.775C139.028 268.577 138.818 268.343 138.818 268.175C138.818 268.007 139.028 267.749 139.364 267.575L209.078 227.327C209.666 227.02 210.322 226.868 210.986 226.883M210.986 226.037C210.173 226.022 209.37 226.214 208.652 226.595L138.968 266.807C137.677 267.551 137.677 268.757 138.968 269.501L156.164 279.437C156.887 279.804 157.686 279.995 158.498 279.995C159.309 279.995 160.108 279.804 160.832 279.437L201.482 255.965L230.54 239.165C231.83 238.421 231.83 237.215 230.54 236.471L213.343 226.559C212.625 226.178 211.822 225.986 211.01 226.001L210.986 226.037Z" fill="#E3E3E3"/>
<path d="M155.151 274.551L147.584 270.203L150.423 268.575C151.005 268.241 151.594 268.02 152.19 267.91C152.789 267.798 153.372 267.789 153.938 267.883C154.505 267.974 155.03 268.158 155.513 268.435C155.998 268.714 156.316 269.016 156.466 269.34C156.616 269.661 156.588 269.992 156.384 270.332C156.177 270.672 155.782 271.008 155.201 271.342L153.178 272.501L152.041 271.847L153.878 270.794C154.218 270.599 154.45 270.412 154.573 270.234C154.694 270.054 154.715 269.882 154.636 269.718C154.557 269.551 154.384 269.391 154.115 269.236C153.847 269.082 153.565 268.981 153.269 268.933C152.971 268.883 152.664 268.892 152.349 268.96C152.031 269.026 151.701 269.157 151.358 269.354L150.101 270.074L156.522 273.765L155.151 274.551ZM155.634 270.338L160.937 271.234L159.406 272.112L154.136 271.197L155.634 270.338ZM164.406 269.372C163.837 269.699 163.227 269.913 162.576 270.014C161.926 270.113 161.272 270.1 160.614 269.977C159.954 269.852 159.327 269.619 158.733 269.278C158.149 268.943 157.748 268.585 157.529 268.204C157.31 267.821 157.278 267.443 157.433 267.071C157.586 266.698 157.934 266.356 158.476 266.045C158.826 265.844 159.213 265.687 159.637 265.575C160.061 265.459 160.509 265.4 160.982 265.397C161.458 265.393 161.945 265.456 162.445 265.584C162.943 265.712 163.441 265.919 163.938 266.205L164.348 266.44L159.694 269.109L158.793 268.591L162.164 266.658C161.905 266.512 161.622 266.413 161.314 266.36C161.004 266.306 160.693 266.302 160.383 266.347C160.075 266.391 159.793 266.486 159.536 266.633C159.263 266.79 159.089 266.966 159.015 267.161C158.939 267.355 158.949 267.546 159.048 267.736C159.146 267.923 159.321 268.09 159.572 268.237L160.359 268.689C160.69 268.879 161.033 269.007 161.39 269.074C161.745 269.139 162.094 269.146 162.436 269.093C162.776 269.04 163.092 268.93 163.383 268.763C163.577 268.651 163.726 268.535 163.83 268.413C163.931 268.29 163.985 268.164 163.993 268.036C164 267.907 163.953 267.78 163.852 267.654L165.242 267.018C165.494 267.253 165.631 267.505 165.656 267.773C165.68 268.039 165.589 268.309 165.382 268.584C165.172 268.856 164.847 269.119 164.406 269.372ZM165.153 262.301L166.188 262.896L162.831 264.82L161.797 264.226L165.153 262.301ZM168.311 267.006L162.1 263.437C161.718 263.217 161.479 262.99 161.383 262.753C161.29 262.516 161.315 262.284 161.458 262.058C161.601 261.831 161.836 261.624 162.164 261.436C162.396 261.304 162.62 261.196 162.837 261.114C163.054 261.032 163.22 260.975 163.336 260.943L164.104 261.69C164.03 261.712 163.941 261.743 163.838 261.783C163.732 261.821 163.626 261.871 163.52 261.931C163.271 262.074 163.155 262.21 163.172 262.339C163.19 262.464 163.309 262.591 163.531 262.718L169.653 266.237L168.311 267.006ZM174.288 263.707C173.718 264.033 173.108 264.247 172.458 264.349C171.807 264.447 171.153 264.435 170.496 264.312C169.835 264.187 169.208 263.954 168.615 263.613C168.031 263.277 167.63 262.919 167.41 262.539C167.191 262.155 167.16 261.778 167.315 261.406C167.468 261.032 167.815 260.69 168.358 260.379C168.708 260.179 169.095 260.022 169.518 259.909C169.942 259.793 170.391 259.734 170.864 259.732C171.339 259.728 171.827 259.79 172.327 259.919C172.825 260.047 173.322 260.253 173.82 260.539L174.23 260.775L169.576 263.443L168.674 262.925L172.046 260.992C171.787 260.846 171.504 260.747 171.196 260.695C170.885 260.641 170.575 260.637 170.265 260.682C169.957 260.725 169.674 260.821 169.418 260.968C169.145 261.124 168.971 261.3 168.897 261.496C168.82 261.689 168.831 261.881 168.93 262.07C169.028 262.257 169.203 262.424 169.454 262.571L170.241 263.024C170.571 263.213 170.915 263.342 171.272 263.408C171.627 263.473 171.975 263.48 172.318 263.428C172.658 263.374 172.973 263.264 173.264 263.097C173.459 262.986 173.608 262.869 173.712 262.748C173.813 262.625 173.867 262.499 173.874 262.37C173.882 262.241 173.835 262.114 173.734 261.988L175.124 261.352C175.375 261.587 175.513 261.839 175.538 262.108C175.562 262.374 175.471 262.644 175.264 262.918C175.054 263.191 174.729 263.454 174.288 263.707ZM177.834 261.546L172.159 258.285L173.457 257.541L174.402 258.084L174.462 258.051C174.237 257.803 174.162 257.556 174.236 257.31C174.311 257.061 174.51 256.843 174.836 256.657C174.909 256.615 174.996 256.569 175.094 256.521C175.193 256.47 175.279 256.431 175.353 256.403L176.583 257.11C176.507 257.131 176.4 257.173 176.262 257.235C176.124 257.294 175.998 257.356 175.885 257.421C175.641 257.561 175.474 257.717 175.386 257.89C175.297 258.059 175.289 258.229 175.363 258.399C175.437 258.569 175.595 258.723 175.836 258.862L179.172 260.779L177.834 261.546ZM181.962 259.18L176.287 255.918L177.584 255.174L178.53 255.718L178.589 255.684C178.365 255.436 178.29 255.19 178.364 254.944C178.438 254.695 178.638 254.477 178.963 254.29C179.037 254.248 179.123 254.203 179.222 254.155C179.32 254.104 179.407 254.064 179.481 254.036L180.711 254.743C180.635 254.764 180.527 254.806 180.389 254.868C180.251 254.928 180.126 254.99 180.012 255.055C179.768 255.195 179.602 255.351 179.513 255.523C179.424 255.693 179.417 255.863 179.491 256.032C179.564 256.202 179.722 256.356 179.963 256.495L183.3 258.413L181.962 259.18ZM187.736 256.001C187.376 256.207 186.988 256.356 186.572 256.448C186.155 256.537 185.736 256.556 185.315 256.506C184.896 256.455 184.501 256.323 184.129 256.109C183.809 255.925 183.603 255.739 183.512 255.551C183.421 255.363 183.415 255.174 183.494 254.984C183.573 254.795 183.708 254.608 183.901 254.425C184.093 254.238 184.312 254.057 184.559 253.882C184.857 253.671 185.096 253.499 185.276 253.365C185.453 253.229 185.559 253.117 185.594 253.03C185.628 252.939 185.582 252.857 185.454 252.783L185.431 252.771C185.153 252.611 184.855 252.534 184.537 252.541C184.219 252.548 183.905 252.64 183.595 252.818C183.267 253.006 183.078 253.197 183.029 253.389C182.982 253.58 183.023 253.75 183.151 253.9L181.724 254.515C181.477 254.26 181.352 254.001 181.347 253.738C181.34 253.474 181.442 253.214 181.654 252.96C181.864 252.704 182.167 252.462 182.564 252.235C182.837 252.078 183.142 251.94 183.477 251.821C183.812 251.703 184.166 251.622 184.538 251.578C184.907 251.533 185.285 251.544 185.672 251.61C186.062 251.676 186.445 251.817 186.821 252.033L190.62 254.216L189.333 254.954L188.553 254.505L188.509 254.531C188.585 254.668 188.619 254.819 188.609 254.983C188.599 255.144 188.525 255.312 188.387 255.488C188.249 255.66 188.032 255.831 187.736 256.001ZM187.101 255.237C187.369 255.083 187.549 254.919 187.64 254.745C187.729 254.569 187.738 254.4 187.667 254.238C187.598 254.074 187.459 253.931 187.249 253.811L186.58 253.427C186.573 253.471 186.534 253.53 186.462 253.605C186.393 253.678 186.308 253.757 186.207 253.84C186.106 253.924 186.004 254.005 185.9 254.084C185.797 254.163 185.707 254.232 185.63 254.29C185.458 254.42 185.323 254.548 185.227 254.673C185.131 254.799 185.093 254.92 185.112 255.036C185.13 255.151 185.224 255.258 185.397 255.357C185.643 255.498 185.919 255.554 186.225 255.523C186.53 255.492 186.822 255.396 187.101 255.237ZM185.737 248.328L193.303 252.677L191.965 253.444L184.399 249.096L185.737 248.328ZM198.788 243.777L197.405 244.569C197.139 244.462 196.866 244.388 196.585 244.348C196.302 244.307 196.02 244.297 195.739 244.316C195.458 244.336 195.186 244.386 194.922 244.466C194.658 244.544 194.411 244.649 194.179 244.782C193.767 245.018 193.506 245.287 193.395 245.588C193.281 245.888 193.333 246.203 193.55 246.534C193.764 246.864 194.155 247.192 194.724 247.519C195.303 247.852 195.881 248.08 196.457 248.205C197.034 248.327 197.581 248.356 198.098 248.291C198.616 248.223 199.079 248.072 199.488 247.838C199.715 247.708 199.897 247.569 200.035 247.422C200.173 247.272 200.262 247.118 200.302 246.96C200.344 246.8 200.333 246.639 200.269 246.478C200.207 246.315 200.086 246.158 199.907 246.007L201.297 245.219C201.605 245.455 201.83 245.713 201.973 245.993C202.118 246.272 202.173 246.56 202.138 246.857C202.101 247.152 201.966 247.445 201.731 247.735C201.495 248.023 201.151 248.297 200.7 248.555C200.034 248.937 199.287 249.189 198.456 249.311C197.626 249.434 196.77 249.415 195.888 249.253C195.006 249.091 194.158 248.777 193.345 248.31C192.53 247.841 191.985 247.354 191.709 246.847C191.431 246.339 191.399 245.847 191.614 245.371C191.828 244.894 192.266 244.466 192.926 244.088C193.348 243.846 193.799 243.655 194.279 243.516C194.76 243.376 195.256 243.291 195.769 243.26C196.279 243.227 196.79 243.254 197.303 243.339C197.815 243.421 198.31 243.567 198.788 243.777ZM207.586 244.616C207.032 244.934 206.429 245.139 205.779 245.232C205.128 245.325 204.472 245.31 203.809 245.186C203.149 245.062 202.525 244.831 201.939 244.494C201.353 244.157 200.95 243.798 200.731 243.418C200.515 243.036 200.488 242.658 200.651 242.285C200.813 241.911 201.172 241.566 201.727 241.248C202.281 240.93 202.884 240.725 203.534 240.632C204.185 240.539 204.841 240.555 205.504 240.681C206.169 240.806 206.795 241.037 207.381 241.374C207.967 241.711 208.367 242.07 208.582 242.45C208.798 242.829 208.825 243.205 208.662 243.579C208.499 243.952 208.141 244.298 207.586 244.616ZM206.522 243.996C206.823 243.823 206.992 243.632 207.029 243.421C207.063 243.209 206.99 242.994 206.807 242.776C206.628 242.557 206.365 242.348 206.021 242.15C205.673 241.95 205.309 241.799 204.927 241.695C204.545 241.589 204.169 241.546 203.8 241.565C203.43 241.585 203.095 241.681 202.794 241.853C202.486 242.03 202.314 242.225 202.277 242.438C202.242 242.65 202.316 242.867 202.498 243.088C202.68 243.306 202.945 243.514 203.292 243.714C203.637 243.912 203.999 244.064 204.379 244.168C204.76 244.272 205.136 244.314 205.506 244.294C205.875 244.272 206.214 244.172 206.522 243.996ZM213.539 241.19C213.093 241.446 212.579 241.609 211.998 241.679C211.416 241.75 210.805 241.718 210.165 241.585C209.524 241.452 208.892 241.206 208.269 240.848C207.639 240.485 207.21 240.12 206.984 239.752C206.757 239.382 206.71 239.031 206.844 238.7C206.974 238.368 207.258 238.077 207.694 237.826C208.027 237.636 208.357 237.511 208.685 237.454C209.01 237.394 209.314 237.374 209.598 237.393C209.879 237.41 210.122 237.438 210.329 237.478L210.385 237.446L207.555 235.82L208.897 235.05L216.463 239.399L215.147 240.153L214.253 239.639L214.172 239.686C214.241 239.805 214.288 239.946 214.312 240.11C214.334 240.273 214.292 240.447 214.186 240.632C214.08 240.818 213.864 241.003 213.539 241.19ZM212.815 240.345C213.099 240.183 213.264 240 213.311 239.798C213.355 239.594 213.291 239.384 213.119 239.166C212.946 238.948 212.677 238.734 212.31 238.523C211.943 238.312 211.572 238.158 211.198 238.062C210.826 237.964 210.465 237.929 210.115 237.957C209.767 237.984 209.45 238.08 209.161 238.245C208.863 238.416 208.692 238.603 208.647 238.807C208.603 239.011 208.667 239.22 208.839 239.435C209.011 239.65 209.274 239.859 209.626 240.061C209.981 240.265 210.348 240.418 210.727 240.52C211.106 240.619 211.476 240.658 211.836 240.635C212.195 240.61 212.522 240.513 212.815 240.345ZM220.514 237.204C219.945 237.53 219.335 237.744 218.684 237.845C218.034 237.944 217.38 237.932 216.722 237.808C216.062 237.684 215.435 237.451 214.841 237.109C214.257 236.774 213.856 236.416 213.637 236.035C213.418 235.652 213.386 235.274 213.541 234.902C213.694 234.529 214.042 234.187 214.584 233.876C214.934 233.676 215.321 233.519 215.745 233.406C216.169 233.29 216.617 233.231 217.09 233.228C217.566 233.224 218.054 233.287 218.554 233.416C219.051 233.543 219.549 233.75 220.046 234.036L220.457 234.272L215.802 236.94L214.901 236.422L218.272 234.489C218.014 234.343 217.73 234.244 217.422 234.192C217.112 234.138 216.802 234.133 216.491 234.178C216.183 234.222 215.901 234.317 215.645 234.464C215.371 234.621 215.197 234.797 215.123 234.992C215.047 235.186 215.058 235.378 215.156 235.567C215.255 235.754 215.429 235.921 215.681 236.068L216.468 236.521C216.798 236.71 217.141 236.838 217.499 236.905C217.853 236.97 218.202 236.977 218.544 236.925C218.885 236.871 219.2 236.761 219.491 236.594C219.685 236.483 219.835 236.366 219.938 236.244C220.039 236.121 220.093 235.996 220.101 235.867C220.108 235.738 220.062 235.611 219.961 235.485L221.351 234.849C221.602 235.084 221.74 235.336 221.764 235.605C221.789 235.871 221.697 236.141 221.49 236.415C221.281 236.688 220.955 236.951 220.514 237.204Z" fill="#0566CF"/>
<path d="M277.002 196.914C277.021 198.476 276.576 200.01 275.723 201.319C274.87 202.629 273.647 203.656 272.21 204.27C270.773 204.884 269.186 205.058 267.65 204.77C266.114 204.481 264.698 203.744 263.581 202.65C262.465 201.556 261.698 200.156 261.378 198.626C261.058 197.096 261.199 195.506 261.784 194.056C262.369 192.607 263.37 191.363 264.662 190.483C265.954 189.604 267.477 189.127 269.04 189.114C271.13 189.093 273.143 189.903 274.636 191.365C276.129 192.828 276.98 194.824 277.002 196.914Z" fill="#455A64"/>
<path d="M273.066 197.946L264.204 203.172C265.687 204.334 267.536 204.928 269.419 204.847C271.301 204.765 273.092 204.013 274.468 202.727C275.845 201.44 276.716 199.704 276.924 197.831C277.132 195.959 276.664 194.073 275.604 192.516C276.336 194.52 275.916 196.266 273.066 197.946Z" fill="#37474F"/>
<path d="M267.6 202.445L262.074 199.319C263.952 206.779 264.76 214.468 264.474 222.155L266.682 223.409C267.948 219.191 268.158 210.599 267.6 202.445Z" fill="#37474F"/>
<path d="M274.29 202.332L271.998 205.332V213.972C272 215.875 271.511 217.746 270.578 219.403C269.644 221.061 268.298 222.45 266.67 223.434C267.942 218.418 268.014 209.91 267.582 202.47L274.29 202.332Z" fill="#455A64"/>
<path d="M267.066 212.244L267.228 212.334C267.373 212.408 267.533 212.446 267.696 212.446C267.859 212.446 268.019 212.408 268.164 212.334L269.418 211.596C269.676 211.446 269.886 211.56 269.892 211.86V212.046C269.885 212.209 269.839 212.367 269.759 212.509C269.678 212.651 269.566 212.772 269.43 212.862L268.158 213.6C268.014 213.675 267.853 213.715 267.69 213.715C267.527 213.715 267.367 213.675 267.222 213.6L267.072 213.51C266.936 213.419 266.822 213.299 266.74 213.157C266.658 213.016 266.609 212.857 266.598 212.694V212.508C266.598 212.22 266.802 212.094 267.066 212.244Z" fill="#B1B1B1"/>
<path d="M266.892 215.076L267.054 215.166C267.2 215.24 267.362 215.278 267.525 215.278C267.689 215.278 267.85 215.24 267.996 215.166L269.244 214.428C269.502 214.278 269.718 214.392 269.718 214.692V214.878C269.712 215.041 269.667 215.2 269.587 215.342C269.506 215.484 269.393 215.605 269.256 215.694L267.984 216.444C267.841 216.519 267.681 216.559 267.519 216.559C267.357 216.559 267.198 216.519 267.054 216.444L266.898 216.354C266.762 216.264 266.649 216.144 266.567 216.002C266.486 215.86 266.439 215.701 266.43 215.538V215.352C266.4 215.052 266.634 214.926 266.892 215.076Z" fill="#B1B1B1"/>
<path d="M266.718 217.908L266.886 217.998C267.031 218.072 267.191 218.11 267.354 218.11C267.517 218.11 267.677 218.072 267.822 217.998L269.076 217.26C269.334 217.104 269.544 217.224 269.544 217.524V217.71C269.536 217.873 269.491 218.031 269.41 218.173C269.33 218.315 269.218 218.436 269.082 218.526L267.81 219.276C267.665 219.351 267.505 219.39 267.342 219.39C267.179 219.39 267.019 219.351 266.874 219.276L266.724 219.186C266.587 219.096 266.472 218.976 266.39 218.834C266.308 218.692 266.26 218.533 266.25 218.37V218.184C266.25 217.884 266.46 217.758 266.718 217.908Z" fill="#B1B1B1"/>
<path d="M258.78 192.33C259.83 191.73 261.252 191.73 262.836 192.486C262.998 192.564 263.172 192.648 263.34 192.744C263.508 192.84 263.736 192.984 263.94 193.116C264.269 193.336 264.586 193.574 264.888 193.83C265.468 194.321 266.004 194.861 266.49 195.444C267.839 197.061 268.846 198.935 269.448 200.952C269.731 201.901 269.885 202.884 269.904 203.874C269.904 205.878 269.244 207.312 268.134 208.014L272.088 205.692C272.821 205.209 273.417 204.546 273.82 203.766C274.224 202.987 274.421 202.117 274.392 201.24C274.375 200.296 274.236 199.358 273.978 198.45C273.381 196.382 272.359 194.461 270.978 192.81C270.495 192.227 269.961 191.689 269.382 191.202C269.08 190.944 268.764 190.704 268.434 190.482C268.236 190.35 268.038 190.23 267.834 190.116C267.63 190.002 267.492 189.936 267.318 189.858C266.61 189.531 265.835 189.371 265.055 189.39C264.275 189.41 263.509 189.609 262.818 189.972L262.704 190.032L262.566 190.122L258.78 192.33Z" fill="#B1B1B1"/>
<path opacity="0.1" d="M272.088 205.691C272.821 205.208 273.417 204.545 273.82 203.765C274.224 202.986 274.42 202.116 274.392 201.239C274.375 200.295 274.235 199.358 273.978 198.449L269.454 200.963C269.737 201.912 269.89 202.895 269.91 203.885C269.91 205.889 269.25 207.323 268.14 208.025L272.088 205.691Z" fill="black"/>
<path d="M256.92 196.536C256.962 200.652 259.92 205.632 263.478 207.66C265.278 208.68 266.904 208.758 268.068 208.056L268.134 208.014C269.244 207.312 269.934 205.878 269.904 203.874C269.868 199.758 266.934 194.778 263.346 192.744C261.546 191.736 259.944 191.652 258.786 192.33C257.628 193.008 256.902 194.472 256.92 196.536Z" fill="#B1B1B1"/>
<path opacity="0.2" d="M256.92 196.536C256.962 200.652 259.92 205.632 263.478 207.66C265.278 208.68 266.904 208.758 268.068 208.056L268.134 208.014C269.244 207.312 269.934 205.878 269.904 203.874C269.868 199.758 266.934 194.778 263.346 192.744C261.546 191.736 259.944 191.652 258.786 192.33C257.628 193.008 256.902 194.472 256.92 196.536Z" fill="black"/>
<path d="M237.114 195.648C237.114 195.648 243.66 198.93 249.312 208.518C250.328 210.237 251.226 212.023 252 213.864C254.856 220.692 254.664 225.414 254.664 225.414C256.56 220.644 258.93 215.7 262.926 211.896C264.489 210.41 266.13 209.008 267.84 207.696C268.902 207.096 269.514 205.722 269.496 203.868C269.461 202.571 269.203 201.291 268.734 200.082C268.427 199.267 268.049 198.48 267.606 197.73C266.539 195.833 265.004 194.241 263.148 193.104C261.534 192.192 260.058 192.072 258.996 192.696C257.021 193.568 255.003 194.337 252.948 195C247.686 196.62 242.208 196.296 237.114 195.648Z" fill="#B1B1B1"/>
<path opacity="0.6" d="M237.114 195.648C237.114 195.648 243.66 198.93 249.312 208.518C250.328 210.237 251.226 212.023 252 213.864C254.856 220.692 254.664 225.414 254.664 225.414C256.56 220.644 258.93 215.7 262.926 211.896C264.489 210.41 266.13 209.008 267.84 207.696C268.902 207.096 269.514 205.722 269.496 203.868C269.461 202.571 269.203 201.291 268.734 200.082C268.427 199.267 268.049 198.48 267.606 197.73C266.539 195.833 265.004 194.241 263.148 193.104C261.534 192.192 260.058 192.072 258.996 192.696C257.021 193.568 255.003 194.337 252.948 195C247.686 196.62 242.208 196.296 237.114 195.648Z" fill="#E8E8E8"/>
<path opacity="0.1" d="M252 213.864C254.856 220.692 254.664 225.414 254.664 225.414C256.56 220.644 258.93 215.7 262.926 211.896C264.489 210.411 266.129 209.009 267.84 207.696C268.902 207.096 269.514 205.722 269.496 203.868C269.461 202.572 269.203 201.291 268.734 200.082C263.814 202.608 255.864 207.234 252 213.864Z" fill="black"/>
<path d="M224.928 205.05C224.97 209.346 226.332 214.05 228.57 218.352C231.444 223.884 235.77 228.81 240.534 231.516C249.066 236.316 255.906 232.308 255.816 222.516C255.774 220.166 255.413 217.833 254.742 215.58C252.974 209.632 249.722 204.23 245.292 199.884C244.692 199.284 244.062 198.75 243.42 198.234L242.616 197.634C242.232 197.352 241.842 197.076 241.452 196.818C241.062 196.56 240.63 196.302 240.216 196.068C231.684 191.22 224.838 195.252 224.928 205.05Z" fill="#B1B1B1"/>
<path opacity="0.1" d="M228.6 218.358C231.474 223.89 235.8 228.816 240.564 231.522C249.096 236.322 255.936 232.314 255.846 222.522C255.804 220.172 255.443 217.839 254.772 215.586C254.214 216.858 252.162 218.682 251.232 217.428C251.816 219.427 252.133 221.495 252.174 223.578C252.174 226.392 251.574 228.672 250.422 230.178C249.938 230.804 249.313 231.307 248.598 231.646C247.883 231.985 247.097 232.15 246.306 232.128C244.287 232.053 242.322 231.458 240.6 230.4C236.526 228.096 232.758 223.926 230.076 219.186C230.076 219.168 229.548 219.6 228.6 218.358Z" fill="black"/>
<path d="M225.984 205.59C226.026 209.916 227.586 214.788 230.076 219.168C232.758 223.908 236.526 228.078 240.6 230.382C242.311 231.434 244.263 232.029 246.27 232.11C247.061 232.132 247.847 231.967 248.562 231.628C249.277 231.289 249.902 230.786 250.386 230.16C251.556 228.666 252.186 226.386 252.138 223.56C252.097 221.477 251.78 219.409 251.196 217.41C250.968 216.612 250.71 215.814 250.41 215.01C249.885 213.605 249.268 212.236 248.562 210.912L248.118 210.096C247.866 209.646 247.602 209.202 247.332 208.764C246.418 207.277 245.393 205.861 244.266 204.528L244.224 204.486C243.499 203.629 242.725 202.814 241.908 202.044C241.308 201.504 240.744 200.994 240.144 200.526C239.892 200.328 239.64 200.136 239.382 199.926C239.124 199.716 238.782 199.5 238.452 199.296C238.122 199.092 237.852 198.912 237.534 198.738C235.822 197.683 233.867 197.086 231.858 197.004C228.132 197.088 225.936 200.28 225.984 205.59Z" fill="#B1B1B1"/>
<path opacity="0.4" d="M225.984 205.59C226.026 209.916 227.586 214.788 230.076 219.168C232.758 223.908 236.526 228.078 240.6 230.382C242.311 231.434 244.263 232.029 246.27 232.11C247.061 232.132 247.847 231.967 248.562 231.628C249.277 231.289 249.902 230.786 250.386 230.16C251.556 228.666 252.186 226.386 252.138 223.56C252.097 221.477 251.78 219.409 251.196 217.41C250.968 216.612 250.71 215.814 250.41 215.01C249.885 213.605 249.268 212.236 248.562 210.912L248.118 210.096C247.866 209.646 247.602 209.202 247.332 208.764C246.418 207.277 245.393 205.861 244.266 204.528L244.224 204.486C243.499 203.629 242.725 202.814 241.908 202.044C241.308 201.504 240.744 200.994 240.144 200.526C239.892 200.328 239.64 200.136 239.382 199.926C239.124 199.716 238.782 199.5 238.452 199.296C238.122 199.092 237.852 198.912 237.534 198.738C235.822 197.683 233.867 197.086 231.858 197.004C228.132 197.088 225.936 200.28 225.984 205.59Z" fill="black"/>
<path d="M237.132 209.22L242.454 218.442C244.644 217.242 247.308 215.784 250.692 215.826C250.602 215.562 250.512 215.304 250.41 215.034C249.884 213.632 249.266 212.265 248.562 210.942C248.418 210.666 248.268 210.39 248.118 210.126C247.866 209.676 247.602 209.226 247.332 208.788C246.418 207.303 245.393 205.889 244.266 204.558L244.224 204.51L243.732 203.91C242.076 206.958 237.132 209.22 237.132 209.22Z" fill="#37474F"/>
<path d="M241.728 218.592C242.868 218.592 243.528 217.655 243.528 216.107V216.06C243.451 214.731 243.06 213.44 242.386 212.292C241.712 211.145 240.775 210.174 239.652 209.46H239.61C239.129 209.164 238.579 208.999 238.014 208.979C236.868 208.979 236.214 209.916 236.214 211.464V211.511C236.296 212.839 236.69 214.128 237.363 215.275C238.037 216.422 238.971 217.393 240.09 218.111H240.132C240.616 218.408 241.168 218.576 241.734 218.597L241.728 218.592Z" fill="#B1B1B1"/>
</svg>
