<svg width="593" height="600" viewBox="0 0 593 600" fill="none" xmlns="http://www.w3.org/2000/svg">
<path fill-rule="evenodd" clip-rule="evenodd" d="M508.253 88.2894C510.499 88.2894 510.503 84.8105 508.253 84.8105C506.006 84.8105 506.003 88.2894 508.253 88.2894Z" fill="#F2F8FD"/>
<path fill-rule="evenodd" clip-rule="evenodd" d="M523.376 132.356C525.622 132.356 525.626 128.877 523.376 128.877C521.129 128.877 521.126 132.356 523.376 132.356Z" fill="#F2F8FD"/>
<path fill-rule="evenodd" clip-rule="evenodd" d="M545.487 182.219C547.733 182.219 547.737 178.74 545.487 178.74C543.241 178.74 543.237 182.219 545.487 182.219Z" fill="#F2F8FD"/>
<path fill-rule="evenodd" clip-rule="evenodd" d="M490.795 155.548C493.042 155.548 493.045 152.069 490.795 152.069C488.549 152.069 488.545 155.548 490.795 155.548Z" fill="#F2F8FD"/>
<path fill-rule="evenodd" clip-rule="evenodd" d="M564.098 90.6117C566.344 90.6117 566.348 87.1328 564.098 87.1328C561.852 87.1328 561.848 90.6117 564.098 90.6117Z" fill="#F2F8FD"/>
<path fill-rule="evenodd" clip-rule="evenodd" d="M560.613 62.7797C562.86 62.7797 562.863 59.3008 560.613 59.3008C558.363 59.3008 558.363 62.7797 560.613 62.7797Z" fill="#F2F8FD"/>
<path fill-rule="evenodd" clip-rule="evenodd" d="M374.966 85.3129C377.213 85.3129 377.217 81.834 374.966 81.834C372.719 81.834 372.716 85.3129 374.966 85.3129Z" fill="#F2F8FD"/>
<path fill-rule="evenodd" clip-rule="evenodd" d="M422.542 79.6029C424.788 79.6029 424.792 76.124 422.542 76.124C420.295 76.124 420.292 79.6029 422.542 79.6029Z" fill="#F2F8FD"/>
<path fill-rule="evenodd" clip-rule="evenodd" d="M452.989 104.344C455.235 104.344 455.239 100.865 452.989 100.865C450.743 100.865 450.739 104.344 452.989 104.344Z" fill="#F2F8FD"/>
<path fill-rule="evenodd" clip-rule="evenodd" d="M479.635 35.8295C481.882 35.8295 481.885 32.3506 479.635 32.3506C477.389 32.3506 477.385 35.8295 479.635 35.8295Z" fill="#F2F8FD"/>
<path fill-rule="evenodd" clip-rule="evenodd" d="M532.684 293.547C534.93 293.547 534.934 290.068 532.684 290.068C530.438 290.068 530.434 293.547 532.684 293.547Z" fill="#F2F8FD"/>
<path fill-rule="evenodd" clip-rule="evenodd" d="M528.034 239.044C530.28 239.044 530.284 235.565 528.034 235.565C525.788 235.565 525.784 239.044 528.034 239.044Z" fill="#F2F8FD"/>
<path fill-rule="evenodd" clip-rule="evenodd" d="M465.206 278.47C467.452 278.47 467.456 274.991 465.206 274.991C462.959 274.991 462.956 278.47 465.206 278.47Z" fill="#F2F8FD"/>
<path fill-rule="evenodd" clip-rule="evenodd" d="M488.475 206.572C490.721 206.572 490.725 203.093 488.475 203.093C486.229 203.093 486.225 206.572 488.475 206.572Z" fill="#F2F8FD"/>
<path fill-rule="evenodd" clip-rule="evenodd" d="M560.613 249.481C562.86 249.481 562.863 246.002 560.613 246.002C558.363 246.002 558.363 249.481 560.613 249.481Z" fill="#F2F8FD"/>
<path fill-rule="evenodd" clip-rule="evenodd" d="M539.667 407.19C541.913 407.19 541.917 403.71 539.667 403.71C537.42 403.71 537.417 407.19 539.667 407.19Z" fill="#F2F8FD"/>
<path fill-rule="evenodd" clip-rule="evenodd" d="M450.083 429.221C452.329 429.221 452.333 425.741 450.083 425.741C447.836 425.741 447.833 429.221 450.083 429.221Z" fill="#F2F8FD"/>
<path fill-rule="evenodd" clip-rule="evenodd" d="M541.995 344.568C544.241 344.568 544.245 341.089 541.995 341.089C539.748 341.089 539.745 344.568 541.995 344.568Z" fill="#F2F8FD"/>
<path fill-rule="evenodd" clip-rule="evenodd" d="M514.073 377.04C516.323 377.04 516.323 373.561 514.073 373.561C511.827 373.561 511.823 377.04 514.073 377.04Z" fill="#F2F8FD"/>
<path fill-rule="evenodd" clip-rule="evenodd" d="M516.398 443.137C518.645 443.137 518.648 439.657 516.398 439.657C514.148 439.657 514.148 443.137 516.398 443.137Z" fill="#F2F8FD"/>
<path fill-rule="evenodd" clip-rule="evenodd" d="M490.795 415.305C493.042 415.305 493.045 411.825 490.795 411.825C488.549 411.825 488.545 415.305 490.795 415.305Z" fill="#F2F8FD"/>
<path fill-rule="evenodd" clip-rule="evenodd" d="M429.135 415.305C431.382 415.305 431.385 411.825 429.135 411.825C426.889 411.825 426.885 415.305 429.135 415.305Z" fill="#F2F8FD"/>
<path fill-rule="evenodd" clip-rule="evenodd" d="M480.331 250.638C482.577 250.638 482.581 247.159 480.331 247.159C478.084 247.159 478.081 250.638 480.331 250.638Z" fill="#F2F8FD"/>
<path fill-rule="evenodd" clip-rule="evenodd" d="M367.348 37.7348C369.595 37.7348 369.599 34.2559 367.348 34.2559C365.102 34.2559 365.098 37.7348 367.348 37.7348Z" fill="#F2F8FD"/>
<path fill-rule="evenodd" clip-rule="evenodd" d="M175.504 75.5345C177.75 75.5345 177.755 72.0557 175.504 72.0557C173.259 72.0557 173.254 75.5345 175.504 75.5345Z" fill="#F2F8FD"/>
<path fill-rule="evenodd" clip-rule="evenodd" d="M202.26 98.7269C204.506 98.7269 204.51 95.248 202.26 95.248C200.015 95.248 200.01 98.7269 202.26 98.7269Z" fill="#F2F8FD"/>
<path fill-rule="evenodd" clip-rule="evenodd" d="M239.497 59.3002C241.742 59.3002 241.747 55.8213 239.497 55.8213C237.251 55.8213 237.246 59.3002 239.497 59.3002Z" fill="#F2F8FD"/>
<path fill-rule="evenodd" clip-rule="evenodd" d="M256.942 83.0707C259.187 83.0707 259.192 79.5918 256.942 79.5918C254.696 79.5918 254.692 83.0707 256.942 83.0707Z" fill="#F2F8FD"/>
<path fill-rule="evenodd" clip-rule="evenodd" d="M75.4397 83.6537C77.6852 83.6537 77.6901 80.1748 75.4397 80.1748C73.1942 80.1748 73.1897 83.6537 75.4397 83.6537Z" fill="#F2F8FD"/>
<path fill-rule="evenodd" clip-rule="evenodd" d="M103.367 123.079C105.613 123.079 105.617 119.601 103.367 119.601C101.122 119.601 101.117 123.079 103.367 123.079Z" fill="#F2F8FD"/>
<path fill-rule="evenodd" clip-rule="evenodd" d="M124.307 102.206C126.553 102.206 126.557 98.7266 124.307 98.7266C122.062 98.7266 122.057 102.206 124.307 102.206Z" fill="#F2F8FD"/>
<path fill-rule="evenodd" clip-rule="evenodd" d="M138.979 33.9291C141.224 33.9291 141.229 30.4502 138.979 30.4502C136.733 30.4502 136.729 33.9291 138.979 33.9291Z" fill="#F2F8FD"/>
<path fill-rule="evenodd" clip-rule="evenodd" d="M161.545 116.121C163.791 116.121 163.795 112.643 161.545 112.643C159.3 112.643 159.295 116.121 161.545 116.121Z" fill="#F2F8FD"/>
<path fill-rule="evenodd" clip-rule="evenodd" d="M73.1194 194.978C75.3649 194.978 75.3694 191.499 73.1194 191.499C70.8739 191.499 70.8694 194.978 73.1194 194.978Z" fill="#F2F8FD"/>
<path fill-rule="evenodd" clip-rule="evenodd" d="M121.987 251.799C124.232 251.799 124.237 248.32 121.987 248.32C119.741 248.32 119.737 251.799 121.987 251.799Z" fill="#F2F8FD"/>
<path fill-rule="evenodd" clip-rule="evenodd" d="M126.637 182.219C128.883 182.219 128.887 178.74 126.637 178.74C124.392 178.74 124.387 182.219 126.637 182.219Z" fill="#F2F8FD"/>
<path fill-rule="evenodd" clip-rule="evenodd" d="M156.885 247.16C159.131 247.16 159.135 243.681 156.885 243.681C154.64 243.681 154.635 247.16 156.885 247.16Z" fill="#F2F8FD"/>
<path fill-rule="evenodd" clip-rule="evenodd" d="M59.1585 295.866C61.404 295.866 61.4088 292.387 59.1585 292.387C56.913 292.387 56.9085 295.866 59.1585 295.866Z" fill="#F2F8FD"/>
<path fill-rule="evenodd" clip-rule="evenodd" d="M19.6019 372.4C21.8473 372.4 21.852 368.921 19.6019 368.921C17.3564 368.921 17.3517 372.4 19.6019 372.4Z" fill="#F2F8FD"/>
<path fill-rule="evenodd" clip-rule="evenodd" d="M63.811 418.785C66.0565 418.785 66.061 415.305 63.811 415.305C61.5655 415.305 61.5606 418.785 63.811 418.785Z" fill="#F2F8FD"/>
<path fill-rule="evenodd" clip-rule="evenodd" d="M94.059 381.675C96.3045 381.675 96.309 378.199 94.059 378.199C91.8135 378.199 91.8086 381.675 94.059 381.675Z" fill="#F2F8FD"/>
<path fill-rule="evenodd" clip-rule="evenodd" d="M62.6448 366.603C64.8903 366.603 64.8952 363.124 62.6448 363.124C60.3993 363.124 60.3948 366.603 62.6448 366.603Z" fill="#F2F8FD"/>
<path fill-rule="evenodd" clip-rule="evenodd" d="M28.9027 422.265C31.1481 422.265 31.1528 418.789 28.9027 418.789C26.6572 418.789 26.6525 422.265 28.9027 422.265Z" fill="#F2F8FD"/>
<path fill-rule="evenodd" clip-rule="evenodd" d="M105.698 439.658C107.943 439.658 107.948 436.178 105.698 436.178C103.452 436.178 103.448 439.658 105.698 439.658Z" fill="#F2F8FD"/>
<path fill-rule="evenodd" clip-rule="evenodd" d="M120.823 401.392C123.068 401.392 123.073 397.912 120.823 397.912C118.577 397.912 118.573 401.392 120.823 401.392Z" fill="#F2F8FD"/>
<path fill-rule="evenodd" clip-rule="evenodd" d="M182.485 435.023C184.73 435.023 184.735 431.543 182.485 431.543C180.239 431.543 180.234 435.023 182.485 435.023Z" fill="#F2F8FD"/>
<path fill-rule="evenodd" clip-rule="evenodd" d="M19.6019 323.698C21.8473 323.698 21.852 320.219 19.6019 320.219C17.3564 320.219 17.3517 323.698 19.6019 323.698Z" fill="#F2F8FD"/>
<path fill-rule="evenodd" clip-rule="evenodd" d="M92.8948 279.631C95.1403 279.631 95.1452 276.152 92.8948 276.152C90.6493 276.152 90.6448 279.631 92.8948 279.631Z" fill="#F2F8FD"/>
<path fill-rule="evenodd" clip-rule="evenodd" d="M77.7698 240.202C80.0153 240.202 80.0202 236.723 77.7698 236.723C75.5243 236.723 75.5198 240.202 77.7698 240.202Z" fill="#F2F8FD"/>
<path fill-rule="evenodd" clip-rule="evenodd" d="M39.3752 250.638C41.6207 250.638 41.6256 247.159 39.3752 247.159C37.1299 247.159 37.1252 250.638 39.3752 250.638Z" fill="#F2F8FD"/>
<path fill-rule="evenodd" clip-rule="evenodd" d="M33.5608 190.338C35.8063 190.338 35.811 186.859 33.5608 186.859C31.3154 186.859 31.3107 190.338 33.5608 190.338Z" fill="#F2F8FD"/>
<path fill-rule="evenodd" clip-rule="evenodd" d="M67.2973 157.87C69.5428 157.87 69.5473 154.391 67.2973 154.391C65.0518 154.391 65.0469 157.87 67.2973 157.87Z" fill="#F2F8FD"/>
<path fill-rule="evenodd" clip-rule="evenodd" d="M49.8499 119.601C52.0954 119.601 52.1003 116.122 49.8499 116.122C47.6044 116.122 47.5999 119.601 49.8499 119.601Z" fill="#F2F8FD"/>
<path fill-rule="evenodd" clip-rule="evenodd" d="M18.4359 148.59C20.6814 148.59 20.686 145.111 18.4359 145.111C16.1904 145.111 16.1857 148.59 18.4359 148.59Z" fill="#F2F8FD"/>
<path fill-rule="evenodd" clip-rule="evenodd" d="M16.1077 73.2162C18.3532 73.2162 18.3579 69.7373 16.1077 69.7373C13.8622 69.7373 13.8576 73.2162 16.1077 73.2162Z" fill="#F2F8FD"/>
<path fill-rule="evenodd" clip-rule="evenodd" d="M72.3635 49.1527C74.609 49.1527 74.6139 45.6738 72.3635 45.6738C70.118 45.6738 70.1135 49.1527 72.3635 49.1527Z" fill="#F2F8FD"/>
<path fill-rule="evenodd" clip-rule="evenodd" d="M175.504 55.8216C177.75 55.8216 177.755 52.3428 175.504 52.3428C173.259 52.3428 173.254 55.8216 175.504 55.8216Z" fill="#F2F8FD"/>
<path fill-rule="evenodd" clip-rule="evenodd" d="M565.264 389.794C567.51 389.794 567.514 386.317 565.264 386.317C563.018 386.317 563.014 389.794 565.264 389.794Z" fill="#F2F8FD"/>
<path fill-rule="evenodd" clip-rule="evenodd" d="M215.063 237.883C217.308 237.883 217.313 234.404 215.063 234.404C212.817 234.404 212.813 237.883 215.063 237.883Z" fill="#F2F8FD"/>
<path fill-rule="evenodd" clip-rule="evenodd" d="M167.36 262.237C169.605 262.237 169.61 258.758 167.36 258.758C165.114 258.758 165.109 262.237 167.36 262.237Z" fill="#F2F8FD"/>
<path fill-rule="evenodd" clip-rule="evenodd" d="M386.088 191.499C388.338 191.499 388.342 188.021 386.088 188.021C383.842 188.021 383.838 191.499 386.088 191.499Z" fill="#F2F8FD"/>
<path fill-rule="evenodd" clip-rule="evenodd" d="M389.577 221.649C391.823 221.649 391.827 218.17 389.577 218.17C387.33 218.17 387.327 221.649 389.577 221.649Z" fill="#F2F8FD"/>
<path fill-rule="evenodd" clip-rule="evenodd" d="M427.969 261.076C430.219 261.076 430.219 257.597 427.969 257.597C425.723 257.597 425.719 261.076 427.969 261.076Z" fill="#F2F8FD"/>
<path fill-rule="evenodd" clip-rule="evenodd" d="M150.939 168.564L139.131 162.274L151.404 150.268L169.555 159.68L150.939 168.564Z" fill="#F52D56"/>
<path fill-rule="evenodd" clip-rule="evenodd" d="M244.738 229.735L236.386 230.31L235.496 225.282L241.389 221.411L244.738 229.735Z" fill="#F3A304"/>
<path fill-rule="evenodd" clip-rule="evenodd" d="M127.595 302.115L119.242 302.687L118.352 297.661L124.24 293.789L127.595 302.115Z" fill="#F3A304"/>
<path fill-rule="evenodd" clip-rule="evenodd" d="M249.718 188.142L241.364 188.715L240.482 183.685L246.365 179.813L249.718 188.142Z" fill="#F3A304"/>
<path fill-rule="evenodd" clip-rule="evenodd" d="M81.5654 186.035L73.2082 186.607L72.3262 181.581L78.2122 177.708L81.5654 186.035Z" fill="#F3A304"/>
<path fill-rule="evenodd" clip-rule="evenodd" d="M338.924 326.665L330.569 327.237L329.686 322.212L335.572 318.336L338.924 326.665Z" fill="#F3A304"/>
<path fill-rule="evenodd" clip-rule="evenodd" d="M210.336 141.103L201.98 141.673L201.094 136.649L206.987 132.773L210.336 141.103Z" fill="#F3A304"/>
<path fill-rule="evenodd" clip-rule="evenodd" d="M363.464 250.614L355.113 251.187L354.229 246.161L360.112 242.289L363.464 250.614Z" fill="#F3A304"/>
<path fill-rule="evenodd" clip-rule="evenodd" d="M397.943 172.736L389.588 173.308L388.703 168.283L394.587 164.41L397.943 172.736Z" fill="#F3A304"/>
<path fill-rule="evenodd" clip-rule="evenodd" d="M321.201 358.074L312.847 358.645L311.961 353.622L317.85 349.746L321.201 358.074Z" fill="#F3A304"/>
<path fill-rule="evenodd" clip-rule="evenodd" d="M292.949 225.586L293.377 230.759L287.113 227.869L286.707 220.968L292.949 225.586Z" fill="#EB008B"/>
<path fill-rule="evenodd" clip-rule="evenodd" d="M63.8977 263.811L59.0332 266.371L59.1855 259.889L65.7427 256.604L63.8977 263.811Z" fill="#EB008B"/>
<path fill-rule="evenodd" clip-rule="evenodd" d="M297.057 407.812L292.186 410.381L292.346 403.897L298.901 400.612L297.057 407.812Z" fill="#EB008B"/>
<path fill-rule="evenodd" clip-rule="evenodd" d="M162.859 215.426L157.691 217.426L158.698 211.007L165.633 208.483L162.859 215.426Z" fill="#EB008B"/>
<path fill-rule="evenodd" clip-rule="evenodd" d="M247.936 345.083L253.534 345.015L250.018 350.625L242.564 350.566L247.936 345.083Z" fill="#EB008B"/>
<path fill-rule="evenodd" clip-rule="evenodd" d="M210.145 356.65L201.807 359.377L199.424 350.938L209.497 347.746L210.145 356.65Z" fill="#FFD200"/>
<path fill-rule="evenodd" clip-rule="evenodd" d="M156.419 249.48L156.902 257.666L147.495 257.417L147.012 247.559L156.419 249.48Z" fill="#FFD200"/>
<path fill-rule="evenodd" clip-rule="evenodd" d="M108.788 137.747L100.445 140.475L98.0645 132.034L108.139 128.84L108.788 137.747Z" fill="#FFD200"/>
<path fill-rule="evenodd" clip-rule="evenodd" d="M269.569 131.912L261.231 134.636L258.846 126.196L268.921 123.007L269.569 131.912Z" fill="#FFD200"/>
<path fill-rule="evenodd" clip-rule="evenodd" d="M211.62 188.92L203.282 191.647L200.902 183.209L210.971 180.019L211.62 188.92Z" fill="#FFD200"/>
<path fill-rule="evenodd" clip-rule="evenodd" d="M382.488 303.785L374.15 306.513L371.77 298.075L381.839 294.877L382.488 303.785Z" fill="#FFD200"/>
<path fill-rule="evenodd" clip-rule="evenodd" d="M179.115 311.877L172.801 306.182L183.53 300.799L193.277 309.399L179.115 311.877Z" fill="#1B75BB"/>
<path fill-rule="evenodd" clip-rule="evenodd" d="M112.216 238.892L105.895 232.469L116.668 226.988L126.433 236.694L112.216 238.892Z" fill="#F52D56"/>
<path fill-rule="evenodd" clip-rule="evenodd" d="M67.625 329.584L68.6128 322.786L77.6424 326.054L76.2556 336.442L67.625 329.584Z" fill="#F52D56"/>
<path fill-rule="evenodd" clip-rule="evenodd" d="M360.74 132.962L366.305 128.448L370.79 136.416L362.369 143.393L360.74 132.962Z" fill="#F52D56"/>
<path fill-rule="evenodd" clip-rule="evenodd" d="M415.721 132.962L421.282 128.448L425.771 136.416L417.352 143.393L415.721 132.962Z" fill="#1B75BB"/>
<path fill-rule="evenodd" clip-rule="evenodd" d="M251.41 313.909L240.98 318.28L241.298 305.224L255.114 299.414L251.41 313.909Z" fill="#EB008B"/>
<path fill-rule="evenodd" clip-rule="evenodd" d="M455.13 232.05L444.697 236.421L445.016 223.365L458.831 217.555L455.13 232.05Z" fill="#F52D56"/>
<path fill-rule="evenodd" clip-rule="evenodd" d="M395.476 212.473L395.078 222.161L383.686 216.604L384.188 203.753L395.476 212.473Z" fill="#F52D56"/>
<path fill-rule="evenodd" clip-rule="evenodd" d="M166.47 348.711L149.688 354.198L144.895 337.211L165.166 330.787L166.47 348.711Z" fill="#FFD200"/>
<path fill-rule="evenodd" clip-rule="evenodd" d="M562.848 349.474L552.768 350.163L551.695 344.098L558.805 339.419L562.848 349.474Z" fill="#F3A304"/>
<path fill-rule="evenodd" clip-rule="evenodd" d="M471.93 370.212L461.85 370.906L467.887 360.165L471.93 370.212Z" fill="#F3A304"/>
<path fill-rule="evenodd" clip-rule="evenodd" d="M460.754 322.017L450.667 322.708L449.605 316.639L456.704 311.964L460.754 322.017Z" fill="#F3A304"/>
<path fill-rule="evenodd" clip-rule="evenodd" d="M413.217 265.241L403.133 265.927L402.064 259.863L409.174 255.187L413.217 265.241Z" fill="#F3A304"/>
<path fill-rule="evenodd" clip-rule="evenodd" d="M237.54 193.374L227.461 194.066L226.393 188L233.498 183.325L237.54 193.374Z" fill="#F3A304"/>
<path fill-rule="evenodd" clip-rule="evenodd" d="M279.153 99.3766L269.068 100.067L268 94.0017L275.103 89.3262L279.153 99.3766Z" fill="#F3A304"/>
<path fill-rule="evenodd" clip-rule="evenodd" d="M501.364 337.007L501.878 343.251L494.318 339.763L493.83 331.432L501.364 337.007Z" fill="#F52D56"/>
<path fill-rule="evenodd" clip-rule="evenodd" d="M499.347 305.674L493.471 308.769L493.658 300.942L501.578 296.979L499.347 305.674Z" fill="#F52D56"/>
<path fill-rule="evenodd" clip-rule="evenodd" d="M302.283 129.914L296.404 133.009L296.594 125.182L304.511 121.22L302.283 129.914Z" fill="#F52D56"/>
<path fill-rule="evenodd" clip-rule="evenodd" d="M484.711 254.147L474.65 257.435L471.77 247.249L483.931 243.398L484.711 254.147Z" fill="#FFD200"/>
<path fill-rule="evenodd" clip-rule="evenodd" d="M432.232 363.103L422.167 366.395L419.295 356.209L431.449 352.357L432.232 363.103Z" fill="#FFD200"/>
<path fill-rule="evenodd" clip-rule="evenodd" d="M300.607 51.3658L307.323 45.9189L312.738 55.5347L302.574 63.9572L300.607 51.3658Z" fill="#F52D56"/>
<path fill-rule="evenodd" clip-rule="evenodd" d="M435.682 396.791L415.391 398.179L413.238 385.976L427.533 376.567L435.682 396.791Z" fill="#007AFF"/>
<path fill-rule="evenodd" clip-rule="evenodd" d="M533.063 268.148L532.583 279.841L518.832 273.133L519.44 257.622L533.063 268.148Z" fill="#F52D56"/>
<path fill-rule="evenodd" clip-rule="evenodd" d="M210.336 388.001L201.98 388.568L201.094 383.546L206.987 379.669L210.336 388.001Z" fill="#F3A304"/>
<path fill-rule="evenodd" clip-rule="evenodd" d="M162.691 400.046L154.337 400.613L153.449 395.591L159.339 391.714L162.691 400.046Z" fill="#F3A304"/>
<path fill-rule="evenodd" clip-rule="evenodd" d="M108.788 384.645L100.445 387.372L98.0645 378.93L108.139 375.735L108.788 384.645Z" fill="#FFD200"/>
<path fill-rule="evenodd" clip-rule="evenodd" d="M269.569 378.806L261.231 381.533L258.846 373.092L268.921 369.902L269.569 378.806Z" fill="#FFD200"/>
<path fill-rule="evenodd" clip-rule="evenodd" d="M193.689 345.508C193.689 345.508 195.304 347.277 193.588 351.641C191.861 356.03 184.048 381.578 191.519 385.065C191.519 385.065 183.877 388.523 177.202 380.074C170.336 371.381 179.667 346.616 187.127 341.777L193.689 345.508Z" fill="#4252FF"/>
<path fill-rule="evenodd" clip-rule="evenodd" d="M154.616 327.95C152.665 332.621 143.875 359.955 152.551 364.051C152.551 364.051 143.743 367.479 135.924 358.031C127.861 348.292 135.464 327.674 143.306 315.894L154.616 327.95Z" fill="#4252FF"/>
<path fill-rule="evenodd" clip-rule="evenodd" d="M193.691 345.505L180.725 337.69C180.725 337.69 158.39 371.852 139.035 361.049C139.035 361.049 159.606 377.692 176.291 363.145C192.125 349.335 193.691 345.505 193.691 345.505Z" fill="#A1A9FF"/>
<path fill-rule="evenodd" clip-rule="evenodd" d="M174.953 375.394C174.953 375.394 178.751 386.347 196.66 381.049C216.4 375.461 225.764 402.371 225.764 402.371L217.21 416.321C217.21 416.321 218.675 389.081 201.473 389.209C182.973 389.344 179.325 387.094 174.953 375.394Z" fill="#A1A9FF"/>
<path fill-rule="evenodd" clip-rule="evenodd" d="M375.207 327.693C375.207 327.693 374.081 329.381 376.077 332.821C378.087 336.28 387.912 356.701 382.096 360.576C382.096 360.576 388.947 362.503 393.458 354.572C398.097 346.409 387.102 326.837 380.232 323.73L375.207 327.693Z" fill="#FFCC00"/>
<path fill-rule="evenodd" clip-rule="evenodd" d="M405.709 308C407.944 311.669 418.819 333.465 412.069 338.001C412.069 338.001 419.891 339.754 425.235 330.84C430.748 321.649 421.733 305.333 413.648 296.455L405.709 308Z" fill="#FFCC00"/>
<path fill-rule="evenodd" clip-rule="evenodd" d="M375.207 327.692L385.073 319.49C385.073 319.49 408.173 345.284 423.016 333.766C423.016 333.766 407.903 350.334 392.052 340.264C377.011 330.704 375.207 327.692 375.207 327.692Z" fill="#E89A24"/>
<path fill-rule="evenodd" clip-rule="evenodd" d="M394.739 350.361C394.739 350.361 392.958 360.028 377.268 357.863C360.004 355.692 355.598 379.44 355.598 379.44L364.558 390.049C364.558 390.049 359.841 367.399 374.275 365.316C389.804 363.073 392.572 360.723 394.739 350.361Z" fill="#E89A24"/>
<path fill-rule="evenodd" clip-rule="evenodd" d="M441.648 186.983L432.851 185.149L436.743 193.227L432.273 201.003L441.187 199.807L448.151 180.795L441.648 186.983Z" fill="#FF9500"/>
<path fill-rule="evenodd" clip-rule="evenodd" d="M137.145 34.6204L128.346 32.787L132.238 40.8649L127.771 48.6405L136.682 47.4446L143.647 28.4326L137.145 34.6204Z" fill="#FF9500"/>
<path fill-rule="evenodd" clip-rule="evenodd" d="M449.441 197.629L457.642 193.956L449.726 189.703L448.755 180.795L441.791 199.807L447.829 206.444L449.441 197.629Z" fill="#FFCC00"/>
<path fill-rule="evenodd" clip-rule="evenodd" d="M144.945 45.267L153.145 41.5931L145.23 37.3409L144.257 28.4326L137.293 47.4446L143.333 54.0814L144.945 45.267Z" fill="#FFCC00"/>
<path fill-rule="evenodd" clip-rule="evenodd" d="M420.022 80.1651L413.655 78.8571L416.471 84.6197L413.238 90.1664L419.685 89.3132L424.725 75.751L420.022 80.1651Z" fill="#FF9500"/>
<path fill-rule="evenodd" clip-rule="evenodd" d="M425.658 87.76L431.591 85.1391L425.864 82.1057L425.163 75.751L420.123 89.3132L424.492 94.0476L425.658 87.76Z" fill="#FFCC00"/>
<path fill-rule="evenodd" clip-rule="evenodd" d="M90.7835 272.382L84.4178 271.074L87.2333 276.837L84.002 282.383L90.4486 281.53L95.4871 267.968L90.7835 272.382Z" fill="#FF9500"/>
<path fill-rule="evenodd" clip-rule="evenodd" d="M96.4228 279.977L102.355 277.356L96.6291 274.323L95.9252 267.968L90.8867 281.53L95.2562 286.264L96.4228 279.977Z" fill="#FFCC00"/>
<g opacity="0.5" filter="url(#filter0_d_3785_1223)">
<path fill-rule="evenodd" clip-rule="evenodd" d="M321.719 567.135L162.033 529.275L278.979 491.01L439.889 521.272L321.719 567.135Z" fill="#FFE6B4"/>
</g>
<path fill-rule="evenodd" clip-rule="evenodd" d="M196.289 397.755L297.155 377.771L399.922 395.164L316.186 415.834L196.289 397.755Z" fill="#86172E"/>
<path fill-rule="evenodd" clip-rule="evenodd" d="M297.158 377.771L297.982 503.681L390.679 519.555L401.831 393.949L297.158 377.771Z" fill="#B6203F"/>
<path fill-rule="evenodd" clip-rule="evenodd" d="M316.186 546.195L210.347 521.816L196.289 397.751L316.186 415.166V546.195Z" fill="#F52D56"/>
<path fill-rule="evenodd" clip-rule="evenodd" d="M316.186 415.159L401.827 393.949L391.36 519.555L316.186 546.199V415.159Z" fill="#FF7491"/>
<path fill-rule="evenodd" clip-rule="evenodd" d="M343.785 536.681L362.778 529.86L377.09 399.656L358.491 404.419L343.785 536.681Z" fill="#EBB02A"/>
<path fill-rule="evenodd" clip-rule="evenodd" d="M244.111 530.43L230.545 403.463L253.463 406.827L262.898 534.777L244.111 530.43Z" fill="#EBB02A"/>
<path fill-rule="evenodd" clip-rule="evenodd" d="M399.925 241.699L319.994 272.149L321.897 298.793L399.925 270.246V241.699Z" fill="#FF7491"/>
<path fill-rule="evenodd" clip-rule="evenodd" d="M399.923 241.698L317.183 235.951L289.5 234.086L184.871 266.439L319.993 272.148L399.923 241.698Z" fill="#FF8DA5"/>
<path fill-rule="evenodd" clip-rule="evenodd" d="M190.58 291.181L321.896 298.794L319.993 272.15L184.871 266.44L190.58 291.181Z" fill="#F52D56"/>
<path fill-rule="evenodd" clip-rule="evenodd" d="M220.078 268.341L247.674 269.293L252.431 294.985L225.787 293.081L220.078 268.341Z" fill="#EBB02A"/>
<path fill-rule="evenodd" clip-rule="evenodd" d="M220.078 268.343L316.119 235.99L339.024 237.561L247.674 269.295L220.078 268.343Z" fill="#F2BB4E"/>
<path fill-rule="evenodd" clip-rule="evenodd" d="M358.059 257.873V285.469L377.088 278.808V250.261L358.059 257.873Z" fill="#EBB02A"/>
<path fill-rule="evenodd" clip-rule="evenodd" d="M377.089 250.261L255.288 244.552L234.354 251.213L358.057 257.874L377.089 250.261Z" fill="#F2BB4E"/>
<path fill-rule="evenodd" clip-rule="evenodd" d="M215.34 212.117C215.34 212.117 246.358 247.598 283.831 248.858C292.529 247.947 296.477 245.422 296.477 245.422L242.407 210.825C245.054 199.346 250.953 188.844 259.418 180.544C262.957 177.074 259.131 171.311 254.491 173.123L238.999 179.175L223.105 194.458L215.34 212.117Z" fill="#E89A24"/>
<path fill-rule="evenodd" clip-rule="evenodd" d="M292.529 247.945L262.083 193.975C261.456 192.861 260.341 192.106 259.062 191.922C255.204 191.367 246.365 190.825 235.787 194.969C221.526 200.554 215.34 212.115 215.34 212.115L223.105 194.456C225.311 189.439 228.524 184.916 232.55 181.158C240.022 174.183 249.404 169.522 259.535 167.753L268.651 166.161C272.438 165.5 276.14 167.698 277.322 171.309L300.686 242.728L292.529 247.945Z" fill="#F2BB4E"/>
<path fill-rule="evenodd" clip-rule="evenodd" d="M368.618 196.055C368.618 196.055 345.849 237.173 309.48 246.169C300.782 247.08 296.383 245.43 296.383 245.43L341.879 200.401C336.847 189.726 328.841 180.681 318.798 174.321C314.598 171.662 317.112 165.234 322.034 166.045L338.471 168.75L357.264 180.4L368.618 196.055Z" fill="#E89A24"/>
<path fill-rule="evenodd" clip-rule="evenodd" d="M300.782 247.081L319.053 188.005C319.429 186.787 320.36 185.819 321.569 185.374C325.223 184.031 333.749 181.669 344.975 183.529C360.108 186.035 368.618 196.056 368.618 196.056L357.264 180.399C354.039 175.951 349.935 172.195 345.197 169.355C336.407 164.083 326.241 161.472 315.959 161.841L306.708 162.175C302.863 162.313 299.712 165.228 299.327 169.003L291.695 243.671L300.782 247.081Z" fill="#F2BB4E"/>
<defs>
<filter id="filter0_d_3785_1223" x="158.033" y="491.01" width="285.855" height="84.125" filterUnits="userSpaceOnUse" color-interpolation-filters="sRGB">
<feFlood flood-opacity="0" result="BackgroundImageFix"/>
<feColorMatrix in="SourceAlpha" type="matrix" values="0 0 0 0 0 0 0 0 0 0 0 0 0 0 0 0 0 0 127 0" result="hardAlpha"/>
<feOffset dy="4"/>
<feGaussianBlur stdDeviation="2"/>
<feComposite in2="hardAlpha" operator="out"/>
<feColorMatrix type="matrix" values="0 0 0 0 0 0 0 0 0 0 0 0 0 0 0 0 0 0 0.2 0"/>
<feBlend mode="normal" in2="BackgroundImageFix" result="effect1_dropShadow_3785_1223"/>
<feBlend mode="normal" in="SourceGraphic" in2="effect1_dropShadow_3785_1223" result="shape"/>
</filter>
</defs>
</svg>
