<svg width="20" height="20" viewBox="0 0 20 20" fill="none" xmlns="http://www.w3.org/2000/svg">
<g clip-path="url(#clip0_1201_1266)">
<path d="M3.76664 13.0281L2.44485 17.9506C2.387 18.1661 2.45661 18.3959 2.62442 18.5431C2.79219 18.6902 3.02895 18.7293 3.23527 18.6438L5.77767 17.5893L7.45089 19.7707C7.56304 19.9169 7.73573 20 7.91577 20C7.95366 20 7.99186 19.9963 8.02991 19.9887C8.24873 19.9453 8.42385 19.7814 8.4817 19.566L9.50504 15.7547C7.24019 15.6236 5.21134 14.5987 3.76664 13.0281Z" fill="#4B4B4B"/>
<path d="M16.2335 13.0281C14.7888 14.5987 12.76 15.6236 10.4951 15.7548L11.5185 19.566C11.5763 19.7815 11.7515 19.9454 11.9703 19.9888C12.0083 19.9964 12.0465 20.0001 12.0844 20.0001C12.2644 20.0001 12.4371 19.9169 12.5493 19.7707L14.2225 17.5894L16.7649 18.6438C16.9712 18.7294 17.208 18.6903 17.3757 18.5431C17.5436 18.396 17.6132 18.1662 17.5553 17.9507L16.2335 13.0281Z" fill="#4B4B4B"/>
<path d="M10 0C5.97543 0 2.70117 3.27426 2.70117 7.2989C2.70117 11.3235 5.97543 14.5978 10.0001 14.5978C14.0247 14.5978 17.2989 11.3235 17.2989 7.2989C17.2989 3.27426 14.0246 0 10 0ZM14.4964 6.39867L12.4709 8.091L13.1148 10.6507C13.1732 10.8827 13.0846 11.127 12.891 11.2676C12.6974 11.4083 12.4377 11.4171 12.2351 11.2899L9.99968 9.88645L7.76428 11.2899C7.66881 11.3498 7.56069 11.3796 7.45276 11.3796C7.33159 11.3796 7.21073 11.3421 7.10835 11.2676C6.91472 11.127 6.82612 10.8827 6.88452 10.6507L7.52846 8.091L5.50297 6.39867C5.31934 6.24524 5.24743 5.99555 5.32141 5.76798C5.39536 5.5404 5.60028 5.38064 5.83903 5.36443L8.47239 5.18588L9.45598 2.73657C9.54515 2.5145 9.76043 2.369 9.99972 2.369C10.239 2.369 10.4543 2.51454 10.5435 2.73657L11.527 5.18588L14.1604 5.36443C14.3992 5.38064 14.6041 5.54036 14.678 5.76798C14.752 5.99555 14.6801 6.24524 14.4964 6.39867Z" fill="#4B4B4B"/>
<path d="M10.5766 5.96405L9.9997 4.52734L9.42275 5.96405C9.33896 6.17275 9.14303 6.31506 8.91865 6.33029L7.37402 6.43502L8.5621 7.42766C8.73471 7.57184 8.80951 7.80211 8.75467 8.02023L8.37694 9.52162L9.68814 8.69843C9.78337 8.63866 9.89153 8.60874 9.9997 8.60874C10.1079 8.60874 10.216 8.63862 10.3113 8.69843L11.6225 9.52162L11.2447 8.02023C11.1899 7.80211 11.2647 7.57184 11.4373 7.42766L12.6254 6.43502L11.0807 6.33029C10.8563 6.31506 10.6604 6.17272 10.5766 5.96405Z" fill="#4B4B4B"/>
</g>
<defs>
<clipPath id="clip0_1201_1266">
<rect width="20" height="20" fill="white"/>
</clipPath>
</defs>
</svg>
