<svg width="19" height="18" viewBox="0 0 19 18" fill="none" xmlns="http://www.w3.org/2000/svg">
<path d="M9.43994 -1.52588e-05C4.46184 -1.52588e-05 0.439941 4.01726 0.439941 8.99998C0.439941 13.9827 4.45721 18 9.43994 18C14.4227 18 18.4399 13.9827 18.4399 8.99998C18.4399 4.01726 14.4181 -1.52588e-05 9.43994 -1.52588e-05ZM9.43994 16.7966C5.12066 16.7966 1.6433 13.3192 1.6433 8.99993C1.6433 4.68065 5.12071 1.20329 9.43994 1.20329C13.7592 1.20329 17.2366 4.68065 17.2366 8.99993C17.2366 13.3192 13.7592 16.7966 9.43994 16.7966Z" fill="#0566CF"/>
<path d="M12.7388 8.63854L8.78105 4.68075C8.54314 4.44284 8.18165 4.44284 7.93917 4.68075C7.70127 4.91866 7.70127 5.28014 7.93917 5.52268L11.4165 9.00003L7.93917 12.4774C7.70127 12.7153 7.70127 13.0768 7.93917 13.3193C8.05812 13.4382 8.17708 13.4977 8.36014 13.4977C8.47909 13.4977 8.66215 13.4382 8.84052 13.3787L12.7388 9.48042C12.8578 9.36147 12.9173 9.24251 12.9173 9.05946C12.9173 8.88103 12.8578 8.7575 12.7388 8.63854Z" fill="#0566CF"/>
</svg>
