<svg width="20" height="20" viewBox="0 0 20 20" fill="none" xmlns="http://www.w3.org/2000/svg">
<path d="M1 15.25C1.00119 16.2442 1.39666 17.1973 2.09966 17.9003C2.80267 18.6033 3.7558 18.9988 4.75 19H15.25C16.2442 18.9988 17.1973 18.6033 17.9003 17.9003C18.6033 17.1973 18.9988 16.2442 19 15.25V8.5H1V15.25ZM13.75 11.875C13.9725 11.875 14.19 11.941 14.375 12.0646C14.56 12.1882 14.7042 12.3639 14.7894 12.5695C14.8745 12.775 14.8968 13.0012 14.8534 13.2195C14.81 13.4377 14.7028 13.6382 14.5455 13.7955C14.3882 13.9528 14.1877 14.06 13.9695 14.1034C13.7512 14.1468 13.525 14.1245 13.3195 14.0394C13.1139 13.9542 12.9382 13.81 12.8146 13.625C12.691 13.44 12.625 13.2225 12.625 13C12.625 12.7016 12.7435 12.4155 12.9545 12.2045C13.1655 11.9935 13.4516 11.875 13.75 11.875ZM10 11.875C10.2225 11.875 10.44 11.941 10.625 12.0646C10.81 12.1882 10.9542 12.3639 11.0394 12.5695C11.1245 12.775 11.1468 13.0012 11.1034 13.2195C11.06 13.4377 10.9528 13.6382 10.7955 13.7955C10.6382 13.9528 10.4377 14.06 10.2195 14.1034C10.0012 14.1468 9.77505 14.1245 9.56948 14.0394C9.36391 13.9542 9.18821 13.81 9.0646 13.625C8.94098 13.44 8.875 13.2225 8.875 13C8.875 12.7016 8.99353 12.4155 9.2045 12.2045C9.41548 11.9935 9.70163 11.875 10 11.875ZM6.25 11.875C6.4725 11.875 6.69001 11.941 6.87502 12.0646C7.06002 12.1882 7.20422 12.3639 7.28936 12.5695C7.37451 12.775 7.39679 13.0012 7.35338 13.2195C7.30998 13.4377 7.20283 13.6382 7.0455 13.7955C6.88816 13.9528 6.68771 14.06 6.46948 14.1034C6.25125 14.1468 6.02505 14.1245 5.81948 14.0394C5.61391 13.9542 5.43821 13.81 5.3146 13.625C5.19098 13.44 5.125 13.2225 5.125 13C5.125 12.7016 5.24353 12.4155 5.4545 12.2045C5.66548 11.9935 5.95163 11.875 6.25 11.875Z" fill="#787878"/>
<path d="M15.25 2.5H14.5V1.75C14.5 1.55109 14.421 1.36032 14.2803 1.21967C14.1397 1.07902 13.9489 1 13.75 1C13.5511 1 13.3603 1.07902 13.2197 1.21967C13.079 1.36032 13 1.55109 13 1.75V2.5H7V1.75C7 1.55109 6.92098 1.36032 6.78033 1.21967C6.63968 1.07902 6.44891 1 6.25 1C6.05109 1 5.86032 1.07902 5.71967 1.21967C5.57902 1.36032 5.5 1.55109 5.5 1.75V2.5H4.75C3.7558 2.50119 2.80267 2.89666 2.09966 3.59966C1.39666 4.30267 1.00119 5.2558 1 6.25L1 7H19V6.25C18.9988 5.2558 18.6033 4.30267 17.9003 3.59966C17.1973 2.89666 16.2442 2.50119 15.25 2.5Z" fill="#787878"/>
</svg>
