<svg width="364" height="428" viewBox="0 0 364 428" fill="none" xmlns="http://www.w3.org/2000/svg">
<path fill-rule="evenodd" clip-rule="evenodd" d="M220.464 71.7702C220.464 32.5169 252.464 0.66622 291.888 0.66622C301.248 0.643781 310.521 2.46515 319.177 6.02632C327.833 9.58749 335.702 14.8187 342.337 21.4213C348.971 28.024 354.24 35.8687 357.843 44.5075C361.445 53.1464 363.311 62.4103 363.333 71.7702C363.333 111.045 331.333 142.896 291.888 142.896C282.428 142.907 273.061 141.039 264.33 137.398C255.599 133.758 247.679 128.418 241.029 121.69L142.149 189.018C144.903 202.736 143.553 216.96 138.267 229.914L246.683 301.168C259.452 290.753 275.431 285.078 291.909 285.104C301.269 285.084 310.541 286.908 319.196 290.472C327.851 294.036 335.72 299.269 342.352 305.874C348.984 312.478 354.251 320.325 357.851 328.965C361.451 337.605 363.314 346.869 363.333 356.229C363.333 395.482 331.333 427.333 291.888 427.333C272.988 427.373 254.847 419.904 241.453 406.57C228.059 393.236 220.509 375.128 220.464 356.229C220.447 346.258 222.549 336.398 226.629 327.301L119.067 256.666C106.041 267.992 89.3519 274.215 72.0906 274.181C62.7299 274.203 53.4565 272.381 44.8003 268.818C36.1441 265.256 28.2747 260.022 21.6418 253.417C15.0089 246.812 9.7425 238.964 6.14349 230.323C2.54448 221.682 0.683415 212.416 0.666626 203.056C0.686214 193.697 2.54935 184.433 6.14961 175.794C9.74987 167.156 15.0167 159.311 21.6493 152.708C28.2819 146.105 36.1504 140.874 44.8052 137.312C53.46 133.751 62.7317 131.929 72.0906 131.952C94.7893 131.952 114.971 142.469 128.048 158.853L223.899 93.5942C221.618 86.5442 220.459 79.1798 220.464 71.7702Z" fill="#202020"/>
</svg>
