<svg width="20" height="20" viewBox="0 0 20 20" fill="none" xmlns="http://www.w3.org/2000/svg">
<g clip-path="url(#clip0_830_1526)">
<mask id="mask0_830_1526" style="mask-type:luminance" maskUnits="userSpaceOnUse" x="0" y="0" width="20" height="20">
<path d="M0 1.90735e-06H20V20H0V1.90735e-06Z" fill="white"/>
</mask>
<g mask="url(#mask0_830_1526)">
<path d="M10 0.585939C4.82234 0.585939 0.585938 4.82234 0.585938 10C0.585938 15.1777 4.82234 19.4141 10 19.4141C10.4711 19.4141 10.9341 19.3793 11.3866 19.3122L19.3122 11.3866C19.3793 10.9341 19.4141 10.4711 19.4141 10C19.4141 4.82234 15.1777 0.585939 10 0.585939Z" stroke="#E29200" stroke-width="1.5" stroke-miterlimit="10"/>
<path d="M11.3866 19.3122C11.2465 18.7838 11.1719 18.2287 11.1719 17.6562C11.1719 14.0966 14.0966 11.1719 17.6562 11.1719C18.2287 11.1719 18.7838 11.2465 19.3122 11.3866" stroke="#E29200" stroke-width="1.5" stroke-miterlimit="10"/>
<path d="M11.4701 15.6734C11.0004 15.7948 10.5077 15.8594 9.99997 15.8594C7.59724 15.8594 5.53231 14.4132 4.62817 12.3438" stroke="#E29200" stroke-width="1.5" stroke-miterlimit="10"/>
<path d="M7.65625 8.24219C7.65625 9.21301 7.13156 10 6.48438 10C5.83719 10 5.3125 9.21301 5.3125 8.24219C5.3125 7.27137 5.83719 6.48438 6.48438 6.48438C7.13156 6.48438 7.65625 7.27137 7.65625 8.24219Z" stroke="#E29200" stroke-width="1.5" stroke-miterlimit="10"/>
<path d="M14.6875 8.24219C14.6875 9.21301 14.1628 10 13.5156 10C12.8684 10 12.3438 9.21301 12.3438 8.24219C12.3438 7.27137 12.8684 6.48438 13.5156 6.48438C14.1628 6.48438 14.6875 7.27137 14.6875 8.24219Z" stroke="#E29200" stroke-width="1.5" stroke-miterlimit="10"/>
</g>
</g>
<defs>
<clipPath id="clip0_830_1526">
<rect width="20" height="20" fill="white"/>
</clipPath>
</defs>
</svg>
