<svg width="20" height="20" viewBox="0 0 20 20" fill="none" xmlns="http://www.w3.org/2000/svg">
<g clip-path="url(#clip0_417_1389)">
<path d="M12.5 5.41675C12.04 5.41675 11.6666 5.04341 11.6666 4.58341V3.33341H8.33329V4.58341C8.33329 5.04341 7.95996 5.41675 7.49996 5.41675C7.03996 5.41675 6.66663 5.04341 6.66663 4.58341V3.33341C6.66663 2.41425 7.41413 1.66675 8.33329 1.66675H11.6666C12.5858 1.66675 13.3333 2.41425 13.3333 3.33341V4.58341C13.3333 5.04341 12.96 5.41675 12.5 5.41675Z" fill="#313131"/>
<path d="M10.5917 12.8167C10.4417 12.875 10.225 12.9167 10 12.9167C9.775 12.9167 9.55833 12.875 9.35833 12.8L0 9.68335V16.0417C0 17.3083 1.025 18.3333 2.29167 18.3333H17.7083C18.975 18.3333 20 17.3083 20 16.0417V9.68335L10.5917 12.8167Z" fill="#313131"/>
<path d="M20 6.45841V8.36675L10.2 11.6334C10.1333 11.6584 10.0667 11.6667 10 11.6667C9.93333 11.6667 9.86667 11.6584 9.8 11.6334L0 8.36675V6.45841C0 5.19175 1.025 4.16675 2.29167 4.16675H17.7083C18.975 4.16675 20 5.19175 20 6.45841Z" fill="#313131"/>
</g>
<defs>
<clipPath id="clip0_417_1389">
<rect width="20" height="20" fill="white"/>
</clipPath>
</defs>
</svg>
