<svg width="20" height="20" viewBox="0 0 20 20" fill="none" xmlns="http://www.w3.org/2000/svg">
<g clip-path="url(#clip0_417_1384)">
<path d="M11.2188 0.34375L0.1875 11.375C-0.0625 11.625 -0.0625 12 0.1875 12.25L7.78125 19.8438C8.03125 20.0938 8.40625 20.0938 8.65625 19.8438L19.6875 8.8125C19.8125 8.6875 19.875 8.5625 19.875 8.40625L20 0.625C20 0.28125 19.7188 0 19.375 0L11.625 0.15625C11.4688 0.15625 11.3125 0.21875 11.2188 0.34375ZM16.6875 4.71875C16.2812 5.53125 15.1562 5.53125 14.75 4.71875C14.5938 4.4375 14.5938 4.0625 14.75 3.78125C15.1562 2.96875 16.2812 2.96875 16.6875 3.78125C16.8438 4.09375 16.8438 4.4375 16.6875 4.71875Z" fill="#313131"/>
</g>
<defs>
<clipPath id="clip0_417_1384">
<rect width="20" height="20" fill="white"/>
</clipPath>
</defs>
</svg>
