<svg width="20" height="20" viewBox="0 0 20 20" fill="none" xmlns="http://www.w3.org/2000/svg">
<g clip-path="url(#clip0_697_1503)">
<path fill-rule="evenodd" clip-rule="evenodd" d="M13.2587 11.9384C13.1578 12.1084 13.0422 12.2722 12.9122 12.4278C12.8568 12.4938 12.8656 12.5925 12.9318 12.6478C12.9981 12.7031 13.0965 12.6941 13.1518 12.6281C13.2928 12.4594 13.4178 12.2825 13.5275 12.0984C13.5715 12.0244 13.5472 11.9284 13.4731 11.8844C13.399 11.84 13.3031 11.8644 13.2587 11.9384ZM13.6997 10.8275C13.6562 11.0219 13.5975 11.2138 13.5234 11.4006C13.4915 11.4809 13.5309 11.5719 13.6112 11.6034C13.6912 11.6353 13.7822 11.5959 13.814 11.5159C13.8943 11.3134 13.9578 11.1059 14.0047 10.8953C14.0234 10.8113 13.9703 10.7278 13.8859 10.7091C13.8018 10.6903 13.7181 10.7434 13.6997 10.8275ZM13.7728 9.63407C13.7918 9.83344 13.7953 10.0338 13.7831 10.2338C13.7778 10.3197 13.8434 10.3941 13.9297 10.3991C14.0156 10.4044 14.0897 10.3388 14.095 10.2528C14.1084 10.0366 14.1047 9.81969 14.0837 9.60407C14.0756 9.51813 13.999 9.45532 13.9134 9.46344C13.8275 9.47157 13.7643 9.54813 13.7728 9.63407ZM13.4725 8.47688C13.5531 8.66126 13.6184 8.85063 13.6684 9.04344C13.69 9.12688 13.7753 9.17688 13.859 9.15532C13.9425 9.13376 13.9925 9.04844 13.9709 8.96501C13.9168 8.75626 13.8459 8.55094 13.7587 8.35157C13.724 8.27251 13.6318 8.23625 13.5528 8.27094C13.4737 8.30563 13.4378 8.39782 13.4725 8.47688ZM12.8253 7.47188C12.9606 7.62313 13.0818 7.78251 13.189 7.94876C13.2356 8.02126 13.3325 8.04219 13.405 7.99532C13.4775 7.94875 13.4984 7.85188 13.4515 7.77938C13.3359 7.59969 13.2047 7.42688 13.0578 7.26344C13.0003 7.19907 12.9015 7.19376 12.8372 7.25126C12.7731 7.30876 12.7678 7.40782 12.8253 7.47188Z" fill="#313131"/>
<path fill-rule="evenodd" clip-rule="evenodd" d="M10 4.6875C7.06781 4.6875 4.6875 7.06781 4.6875 10C4.6875 12.9322 7.06781 15.3125 10 15.3125C12.9322 15.3125 15.3125 12.9322 15.3125 10C15.3125 7.06781 12.9322 4.6875 10 4.6875ZM10.3125 5.32281C12.7541 5.48375 14.6875 7.51781 14.6875 10C14.6875 12.4822 12.7541 14.5162 10.3125 14.6772V5.32281Z" fill="#313131"/>
<path fill-rule="evenodd" clip-rule="evenodd" d="M9.11279 1.82469V3.26156C9.11279 3.75125 9.51029 4.14875 9.99998 4.14875C10.4897 4.14875 10.8872 3.75125 10.8872 3.26156V1.82469C10.8872 1.335 10.4897 0.9375 9.99998 0.9375C9.51029 0.9375 9.11279 1.335 9.11279 1.82469Z" fill="#313131"/>
<path fill-rule="evenodd" clip-rule="evenodd" d="M15.1536 3.59187L14.1376 4.60781C13.7914 4.95406 13.7914 5.51625 14.1376 5.8625C14.4839 6.20875 15.0461 6.20875 15.3923 5.8625L16.4082 4.84656C16.7545 4.50031 16.7545 3.93812 16.4082 3.59187C16.062 3.24562 15.4998 3.24562 15.1536 3.59187Z" fill="#313131"/>
<path fill-rule="evenodd" clip-rule="evenodd" d="M18.1754 9.11281H16.7385C16.2488 9.11281 15.8513 9.51031 15.8513 10C15.8513 10.4897 16.2488 10.8872 16.7385 10.8872H18.1754C18.6651 10.8872 19.0626 10.4897 19.0626 10C19.0626 9.51031 18.6651 9.11281 18.1754 9.11281Z" fill="#313131"/>
<path fill-rule="evenodd" clip-rule="evenodd" d="M16.4082 15.1534L15.3923 14.1375C15.0461 13.7912 14.4839 13.7912 14.1376 14.1375C13.7914 14.4837 13.7914 15.0459 14.1376 15.3922L15.1536 16.4081C15.4998 16.7544 16.062 16.7544 16.4082 16.4081C16.7545 16.0619 16.7545 15.4997 16.4082 15.1534Z" fill="#313131"/>
<path fill-rule="evenodd" clip-rule="evenodd" d="M10.8872 18.1753V16.7384C10.8872 16.2488 10.4897 15.8513 9.99998 15.8513C9.51029 15.8513 9.11279 16.2488 9.11279 16.7384V18.1753C9.11279 18.665 9.51029 19.0625 9.99998 19.0625C10.4897 19.0625 10.8872 18.665 10.8872 18.1753Z" fill="#313131"/>
<path fill-rule="evenodd" clip-rule="evenodd" d="M4.84665 16.4081L5.86259 15.3922C6.20884 15.0459 6.20884 14.4837 5.86259 14.1375C5.51634 13.7912 4.95415 13.7912 4.6079 14.1375L3.59196 15.1534C3.24571 15.4997 3.24571 16.0619 3.59196 16.4081C3.93821 16.7544 4.5004 16.7544 4.84665 16.4081Z" fill="#313131"/>
<path fill-rule="evenodd" clip-rule="evenodd" d="M1.82469 10.8872H3.26156C3.75125 10.8872 4.14875 10.4897 4.14875 10C4.14875 9.51031 3.75125 9.11281 3.26156 9.11281H1.82469C1.335 9.11281 0.9375 9.51031 0.9375 10C0.9375 10.4897 1.335 10.8872 1.82469 10.8872Z" fill="#313131"/>
<path fill-rule="evenodd" clip-rule="evenodd" d="M3.59196 4.84656L4.6079 5.8625C4.95415 6.20875 5.51634 6.20875 5.86259 5.8625C6.20884 5.51625 6.20884 4.95406 5.86259 4.60781L4.84665 3.59187C4.5004 3.24562 3.93821 3.24562 3.59196 3.59187C3.24571 3.93812 3.24571 4.50031 3.59196 4.84656Z" fill="#313131"/>
</g>
<defs>
<clipPath id="clip0_697_1503">
<rect width="20" height="20" fill="white"/>
</clipPath>
</defs>
</svg>
