<svg width="500" height="500" viewBox="0 0 500 500" fill="none" xmlns="http://www.w3.org/2000/svg">
<path d="M100 100C86.7392 100 74.0215 105.268 64.6447 114.645C55.2678 124.021 50 136.739 50 150V175H450V150C450 136.739 444.732 124.021 435.355 114.645C425.979 105.268 413.261 100 400 100H100Z" fill="#787878"/>
<path fill-rule="evenodd" clip-rule="evenodd" d="M450 225H50V350C50 363.261 55.2678 375.979 64.6447 385.355C74.0215 394.732 86.7392 400 100 400H400C413.261 400 425.979 394.732 435.355 385.355C444.732 375.979 450 363.261 450 350V225ZM100 325C100 318.37 102.634 312.011 107.322 307.322C112.011 302.634 118.37 300 125 300H150C156.63 300 162.989 302.634 167.678 307.322C172.366 312.011 175 318.37 175 325C175 331.63 172.366 337.989 167.678 342.678C162.989 347.366 156.63 350 150 350H125C118.37 350 112.011 347.366 107.322 342.678C102.634 337.989 100 331.63 100 325ZM225 300C218.37 300 212.011 302.634 207.322 307.322C202.634 312.011 200 318.37 200 325C200 331.63 202.634 337.989 207.322 342.678C212.011 347.366 218.37 350 225 350H250C256.63 350 262.989 347.366 267.678 342.678C272.366 337.989 275 331.63 275 325C275 318.37 272.366 312.011 267.678 307.322C262.989 302.634 256.63 300 250 300H225Z" fill="#787878"/>
</svg>
