<svg width="20" height="20" viewBox="0 0 20 20" fill="none" xmlns="http://www.w3.org/2000/svg">
<g clip-path="url(#clip0_613_2500)">
<path d="M15.0555 14.8296L14.2396 13.1977L13.4236 14.8296H15.0555Z" fill="#313131"/>
<path d="M18.2429 8.47911H17.4128V6.72274C17.4128 6.55704 17.3426 6.39911 17.2197 6.28801C17.0967 6.17692 16.9324 6.12313 16.7677 6.13981C16.6744 6.14926 14.5846 6.38559 13.5442 8.47911H12.6928V9.76383C12.6928 11.3789 11.3789 12.6928 9.76385 12.6928H8.47913V18.2429C8.47913 19.2118 9.26737 20 10.2362 20H18.2429C19.2117 20 20 19.2118 20 18.2429V10.2362C20 9.26735 19.2117 8.47911 18.2429 8.47911ZM11.3634 16.3296L13.7154 11.6255C13.8147 11.427 14.0176 11.3016 14.2395 11.3016C14.4615 11.3016 14.6643 11.427 14.7636 11.6255L17.1157 16.3296C17.2604 16.619 17.1431 16.9709 16.8537 17.1157C16.5642 17.2605 16.2123 17.1431 16.0675 16.8537L15.6415 16.0016H12.8376L12.4116 16.8537C12.3089 17.059 12.102 17.1777 11.8871 17.1777C11.799 17.1777 11.7096 17.1578 11.6255 17.1157C11.336 16.971 11.2187 16.619 11.3634 16.3296Z" fill="#313131"/>
<path d="M6.31563 4.93516H5.2052C5.2777 5.51567 5.46352 6.00375 5.76043 6.39703C6.05731 6.00375 6.24313 5.51567 6.31563 4.93516Z" fill="#313131"/>
<path d="M9.76383 11.5209C10.7327 11.5209 11.5209 10.7327 11.5209 9.76383V1.75711C11.5209 0.788242 10.7327 0 9.76383 0H1.75711C0.788242 0 0 0.788242 0 1.75711V9.76383C0 10.7327 0.788242 11.5209 1.75707 11.5209H2.58723V13.2773C2.58723 13.443 2.65738 13.6009 2.78031 13.712C2.88852 13.8098 3.02867 13.8632 3.17313 13.8632C3.19277 13.8632 3.21258 13.8622 3.2323 13.8602C3.32559 13.8507 5.41535 13.6144 6.45578 11.5209H9.76383ZM6.07273 8.1591C5.97023 8.10441 5.86555 8.04266 5.76047 7.97395C5.65535 8.04266 5.5507 8.10445 5.4482 8.1591C4.44844 8.6923 3.45043 8.69844 3.40844 8.69844C3.08484 8.69844 2.8225 8.43609 2.8225 8.1125C2.8225 7.78891 3.08484 7.52656 3.40844 7.52656C3.41359 7.52652 4.13652 7.51602 4.85586 7.14641C4.4443 6.61937 4.11992 5.90426 4.02621 4.93516H3.4084C3.0848 4.93516 2.82246 4.67281 2.82246 4.34922C2.82246 4.02562 3.0848 3.76328 3.4084 3.76328H5.17453V3.4084C5.17453 3.0848 5.43687 2.82246 5.76047 2.82246C6.08406 2.82246 6.34641 3.0848 6.34641 3.4084V3.76328H8.1125C8.43609 3.76328 8.69844 4.02562 8.69844 4.34922C8.69844 4.67281 8.43609 4.93516 8.1125 4.93516H7.49477C7.40102 5.90426 7.07668 6.61937 6.66512 7.14641C7.38441 7.51602 8.10746 7.52648 8.11492 7.52656C8.43852 7.52656 8.69965 7.78891 8.69965 8.1125C8.69965 8.43609 8.43609 8.69844 8.1125 8.69844C8.07051 8.69844 7.0725 8.69234 6.07273 8.1591Z" fill="#313131"/>
<path d="M14.2839 3.3523C14.3983 3.46672 14.5483 3.52394 14.6982 3.52394C14.8481 3.52394 14.9981 3.46675 15.1125 3.3523C15.3413 3.12347 15.3413 2.7525 15.1125 2.52367L14.9443 2.35547C17.1009 2.48324 18.8164 4.27793 18.8164 6.46605C18.8164 6.78965 19.0787 7.05199 19.4023 7.05199C19.7259 7.05199 19.9883 6.78965 19.9883 6.46605C19.9883 3.62726 17.7405 1.3039 14.9313 1.18144L15.1125 1.00023C15.3413 0.771403 15.3413 0.400427 15.1125 0.171599C14.8837 -0.0571902 14.5127 -0.0572293 14.2839 0.171599L13.1079 1.34765C12.8791 1.57648 12.8791 1.94746 13.1079 2.17629L14.2839 3.3523Z" fill="#313131"/>
<path d="M5.70437 16.636C5.47559 16.4071 5.10457 16.4071 4.87574 16.636C4.64691 16.8648 4.64691 17.2358 4.87574 17.4646L5.04395 17.6328C2.88734 17.5051 1.17188 15.7103 1.17188 13.5222C1.17188 13.1986 0.909531 12.9363 0.585938 12.9363C0.262344 12.9363 0 13.1986 0 13.5222C0 16.361 2.24777 18.6844 5.05695 18.8068L4.87574 18.988C4.64691 19.2169 4.64691 19.5878 4.87574 19.8167C4.99016 19.9311 5.14012 19.9883 5.29004 19.9883C5.43996 19.9883 5.58996 19.9311 5.70434 19.8166L6.88035 18.6406C7.10918 18.4118 7.10918 18.0408 6.88035 17.812L5.70437 16.636Z" fill="#313131"/>
</g>
<defs>
<clipPath id="clip0_613_2500">
<rect width="20" height="20" fill="white"/>
</clipPath>
</defs>
</svg>
