<svg width="500" height="500" viewBox="0 0 500 500" fill="none" xmlns="http://www.w3.org/2000/svg">
<path fill-rule="evenodd" clip-rule="evenodd" d="M150 50C143.37 50 137.011 52.6339 132.322 57.3223C127.634 62.0107 125 68.3696 125 75V100H100C86.7392 100 74.0215 105.268 64.6447 114.645C55.2678 124.021 50 136.739 50 150V400C50 413.261 55.2678 425.979 64.6447 435.355C74.0215 444.732 86.7392 450 100 450H400C413.261 450 425.979 444.732 435.355 435.355C444.732 425.979 450 413.261 450 400V150C450 136.739 444.732 124.021 435.355 114.645C425.979 105.268 413.261 100 400 100H375V75C375 68.3696 372.366 62.0107 367.678 57.3223C362.989 52.6339 356.63 50 350 50C343.37 50 337.011 52.6339 332.322 57.3223C327.634 62.0107 325 68.3696 325 75V100H175V75C175 68.3696 172.366 62.0107 167.678 57.3223C162.989 52.6339 156.63 50 150 50ZM150 175C143.37 175 137.011 177.634 132.322 182.322C127.634 187.011 125 193.37 125 200C125 206.63 127.634 212.989 132.322 217.678C137.011 222.366 143.37 225 150 225H350C356.63 225 362.989 222.366 367.678 217.678C372.366 212.989 375 206.63 375 200C375 193.37 372.366 187.011 367.678 182.322C362.989 177.634 356.63 175 350 175H150Z" fill="#787878"/>
</svg>
