<svg width="500" height="500" viewBox="0 0 500 500" fill="none" xmlns="http://www.w3.org/2000/svg">
<path fill-rule="evenodd" clip-rule="evenodd" d="M100 100C86.7392 100 74.0215 105.268 64.6447 114.645C55.2678 124.021 50 136.739 50 150V250C50 263.261 55.2678 275.979 64.6447 285.355C74.0215 294.732 86.7392 300 100 300V150H350C350 136.739 344.732 124.021 335.355 114.645C325.979 105.268 313.261 100 300 100H100ZM150 250C150 236.739 155.268 224.021 164.645 214.645C174.021 205.268 186.739 200 200 200H400C413.261 200 425.979 205.268 435.355 214.645C444.732 224.021 450 236.739 450 250V350C450 363.261 444.732 375.979 435.355 385.355C425.979 394.732 413.261 400 400 400H200C186.739 400 174.021 394.732 164.645 385.355C155.268 375.979 150 363.261 150 350V250ZM300 350C313.261 350 325.979 344.732 335.355 335.355C344.732 325.979 350 313.261 350 300C350 286.739 344.732 274.021 335.355 264.645C325.979 255.268 313.261 250 300 250C286.739 250 274.021 255.268 264.645 264.645C255.268 274.021 250 286.739 250 300C250 313.261 255.268 325.979 264.645 335.355C274.021 344.732 286.739 350 300 350Z" fill="#787878"/>
</svg>
