<svg width="512" height="512" viewBox="0 0 512 512" fill="none" xmlns="http://www.w3.org/2000/svg">
<path d="M256.001 506.003C394.073 506.003 506.003 394.073 506.003 256.001C506.003 117.929 394.073 6 256.001 6C117.929 6 6.00001 117.929 6.00001 256.001C6.00001 394.073 117.929 506.003 256.001 506.003Z" fill="#ED3727"/>
<path fill-rule="evenodd" clip-rule="evenodd" d="M362.655 200.656L343.207 396.582C342.099 407.753 333.593 416.715 322.366 416.715H189.635C178.407 416.715 169.902 407.759 168.793 396.582L149.345 200.656H362.655ZM209.801 239.35C209.489 233.616 213.911 228.684 219.645 228.372C225.38 228.059 230.312 232.48 230.624 238.215C232.863 279.292 235.103 320.37 237.342 361.447C237.584 365.886 235.16 369.81 231.083 371.58C227.005 373.349 222.483 372.441 219.406 369.232C217.74 367.495 216.661 365.178 216.52 362.595C214.28 321.514 212.041 280.432 209.801 239.35ZM292.356 228.372C298.066 228.683 302.511 233.64 302.2 239.35C299.961 280.427 297.721 321.505 295.482 362.583C295.24 367.019 292.405 370.655 288.163 371.973C283.92 373.29 279.525 371.899 276.813 368.381C275.341 366.471 274.518 364.047 274.659 361.46C276.897 320.378 279.137 279.296 281.378 238.215C281.69 232.48 286.622 228.059 292.356 228.372Z" fill="white"/>
<path d="M365.159 156.857H146.844C136.722 156.857 128.516 165.062 128.516 175.184V175.187C128.516 185.31 136.722 193.515 146.844 193.515H365.159C375.281 193.515 383.487 185.31 383.487 175.187V175.184C383.487 165.062 375.281 156.857 365.159 156.857Z" fill="white"/>
<path fill-rule="evenodd" clip-rule="evenodd" d="M319.344 158.641H301.098V135.194C301.098 123.28 291.35 113.533 279.436 113.533H232.564C220.65 113.533 210.903 123.28 210.903 135.194V158.641H192.656V135.194C192.656 113.209 210.579 95.2856 232.564 95.2856H279.436C301.421 95.2856 319.344 113.209 319.344 135.194V158.641Z" fill="white"/>
</svg>
