<svg width="493" height="400" viewBox="0 0 493 400" fill="none" xmlns="http://www.w3.org/2000/svg">
<path d="M441.872 99.579C442.172 103.919 442.172 108.258 442.172 112.638C442.172 246.09 340.578 400 154.81 400V399.92C99.9337 400 46.1971 384.281 0 354.643C7.9795 355.603 15.999 356.083 24.0385 356.103C69.5156 356.143 113.693 340.884 149.471 312.786C106.253 311.966 68.3557 283.787 55.1165 242.65C70.2556 245.57 85.8546 244.97 100.714 240.91C53.5966 231.391 19.6988 189.993 19.6988 141.916C19.6988 141.476 19.6988 141.056 19.6988 140.636C33.7379 148.456 49.4569 152.796 65.5359 153.276C21.1587 123.617 7.47953 64.5812 34.2778 18.4241C85.5546 81.5201 161.21 119.878 242.425 123.937C234.285 88.8596 245.404 52.102 271.643 27.4435C312.32 -10.7941 376.296 -8.83419 414.534 31.8232C437.152 27.3635 458.831 19.064 478.67 7.30479C471.13 30.6833 455.351 50.5421 434.273 63.1613C454.291 60.8014 473.85 55.4417 492.269 47.2623C478.71 67.581 461.631 85.2799 441.872 99.579Z" fill="#1D9BF0"/>
</svg>
