<svg width="500" height="500" viewBox="0 0 500 500" fill="none" xmlns="http://www.w3.org/2000/svg">
<g clip-path="url(#clip0_3737_2733)">
<path d="M43.9453 500H250C274.232 500 293.945 480.287 293.945 456.055V381.836H191.406C167.174 381.836 147.461 362.123 147.461 337.891V132.812C147.461 108.58 167.174 88.8672 191.406 88.8672H293.945V43.9453C293.945 19.7129 274.232 0 250 0H43.9453C19.7129 0 0 19.7129 0 43.9453V456.055C0 480.287 19.7129 500 43.9453 500ZM147.461 43.9453C155.551 43.9453 162.109 51.4785 162.109 59.5703C162.109 67.6602 155.551 74.2188 147.461 74.2188C139.371 74.2188 132.812 67.6602 132.812 59.5703C132.812 51.4785 139.371 43.9453 147.461 43.9453ZM132.812 411.133H162.109C170.206 411.133 176.758 417.685 176.758 425.781C176.758 433.878 170.206 440.43 162.109 440.43H132.812C124.716 440.43 118.164 433.878 118.164 425.781C118.164 417.685 124.716 411.133 132.812 411.133Z" fill="#878787"/>
<path d="M485.352 118.164H191.406C183.31 118.164 176.758 124.716 176.758 132.812V176.758H500V132.812C500 124.716 493.448 118.164 485.352 118.164Z" fill="#878787"/>
<path d="M176.758 337.891C176.758 345.987 183.31 352.539 191.406 352.539H485.352C493.448 352.539 500 345.987 500 337.891V206.055H176.758V337.891ZM396.484 235.352H425.781C433.878 235.352 440.43 241.903 440.43 250C440.43 258.097 433.878 264.648 425.781 264.648H396.484C388.388 264.648 381.836 258.097 381.836 250C381.836 241.903 388.388 235.352 396.484 235.352Z" fill="#878787"/>
</g>
<defs>
<clipPath id="clip0_3737_2733">
<rect width="500" height="500" fill="white"/>
</clipPath>
</defs>
</svg>
