<svg width="20" height="20" viewBox="0 0 20 20" fill="none" xmlns="http://www.w3.org/2000/svg">
<g clip-path="url(#clip0_830_1555)">
<path d="M11.6227 0.732372C11.3907 0.621705 11.1173 0.651038 10.9173 0.812372L4.432 6.00037H1.33333C0.598667 6.00037 0 6.59904 0 7.33371V12.667C0 13.4017 0.598667 14.0004 1.33333 14.0004H4.432L10.916 19.1884C11.0373 19.2844 11.1853 19.3337 11.3333 19.3337C11.432 19.3337 11.5307 19.3124 11.6227 19.2684C11.8533 19.1564 12 18.923 12 18.667V1.33371C12 1.07771 11.8533 0.844372 11.6227 0.732372ZM4 12.667H1.33333V7.33371H4V12.667ZM10.6667 17.279L5.33333 13.0124V6.98837L10.6667 2.72171V17.279Z" fill="#E29200"/>
<path d="M15.376 5.28571C15.1133 5.02571 14.692 5.02971 14.4333 5.29105C14.1747 5.55371 14.1773 5.97505 14.4387 6.23371C15.4453 7.22971 16 8.56705 16 10.0004C16 11.4337 15.4453 12.771 14.4387 13.767C14.176 14.0257 14.1733 14.447 14.4333 14.7097C14.564 14.8417 14.736 14.907 14.9067 14.907C15.076 14.907 15.2453 14.843 15.376 14.7137C16.6387 13.467 17.3333 11.7937 17.3333 10.0004C17.3333 8.20705 16.6387 6.53371 15.376 5.28571Z" fill="#E29200"/>
<path d="M17.256 3.40704C16.9946 3.14837 16.572 3.14971 16.3133 3.41104C16.0546 3.67237 16.056 4.09504 16.3173 4.35371C17.832 5.85637 18.6666 7.86171 18.6666 10.0004C18.6666 12.139 17.832 14.1444 16.3173 15.647C16.056 15.9057 16.0546 16.3284 16.3133 16.5897C16.444 16.7217 16.6146 16.787 16.7866 16.787C16.956 16.787 17.1253 16.723 17.256 16.5937C19.0253 14.839 20 12.4977 20 10.0004C20 7.50304 19.0253 5.16171 17.256 3.40704Z" fill="#E29200"/>
</g>
<defs>
<clipPath id="clip0_830_1555">
<rect width="20" height="20" fill="white"/>
</clipPath>
</defs>
</svg>
