<svg width="448" height="376" viewBox="0 0 448 376" fill="none" xmlns="http://www.w3.org/2000/svg">
<path fill-rule="evenodd" clip-rule="evenodd" d="M45.696 72.0469L308.224 1.71087C333.84 -5.15313 360.16 10.0469 367.008 35.6469L376.752 71.999H400C426.512 71.999 448 93.487 448 119.999V167.999H304C295.52 167.999 287.376 171.375 281.376 177.375C275.376 183.375 272 191.519 272 199.999V247.999C272 256.479 275.376 264.623 281.376 270.623C287.376 276.623 295.52 279.999 304 279.999H448V327.999C448 354.511 426.512 375.999 400 375.999C322.512 375.999 125.488 375.999 48 375.999C21.488 375.999 0 354.511 0 327.999C0 275.663 0 172.335 0 119.999C0 94.271 20.256 73.2629 45.696 72.0469ZM448 199.999V247.999H304V199.999H448ZM343.632 71.999L336.112 43.935C333.824 35.391 325.04 30.335 316.512 32.623L169.536 71.999H343.632Z" fill="#5C5C5C"/>
</svg>
