<svg width="20" height="20" viewBox="0 0 20 20" fill="none" xmlns="http://www.w3.org/2000/svg">
<g clip-path="url(#clip0_417_1411)">
<path d="M14.359 4.79736H10.2565V9.75634H15.2744C15.2648 8.06224 14.9548 6.38327 14.359 4.79736Z" fill="#313131"/>
<path d="M10.2565 0.769287V4.31031H14.1565C13.236 2.2539 11.8308 0.892364 10.2565 0.769287Z" fill="#313131"/>
<path d="M4.23593 10.2563H0.346191C0.391291 12.0127 0.916238 13.7232 1.86414 15.2025H5.12824C4.55235 13.6163 4.2506 11.9437 4.23593 10.2563Z" fill="#313131"/>
<path d="M5.84363 4.31031H9.75645V0.769287C8.16927 0.892364 6.76414 2.2539 5.84363 4.31031Z" fill="#313131"/>
<path d="M4.72559 9.75634H9.75636V4.79736H5.64097C5.04518 6.38327 4.73525 8.06224 4.72559 9.75634Z" fill="#313131"/>
<path d="M5.64097 15.2025H9.75636V10.2563H4.72559C4.73677 11.9461 5.04667 13.6206 5.64097 15.2025Z" fill="#313131"/>
<path d="M15.2744 10.2563H10.2565V15.2025H14.359C14.9533 13.6206 15.2632 11.9461 15.2744 10.2563Z" fill="#313131"/>
<path d="M5.12824 4.79736H1.86414C0.914001 6.28035 0.388961 7.9956 0.346191 9.75634H4.23593C4.24915 8.06463 4.55091 6.38757 5.12824 4.79736Z" fill="#313131"/>
<path d="M5.32559 15.6897H2.19739C3.003 16.7957 4.03462 17.7177 5.2238 18.3945C6.41298 19.0713 7.73252 19.4875 9.09482 19.6153C7.54867 19.2025 6.20508 17.7461 5.32559 15.6897Z" fill="#313131"/>
<path d="M14.6744 4.31016H17.8026C16.997 3.20417 15.9654 2.28217 14.7762 1.60535C13.587 0.928534 12.2675 0.512384 10.9052 0.384521C12.4513 0.797342 13.7949 2.25375 14.6744 4.31016Z" fill="#313131"/>
<path d="M9.09482 0.384521C7.73252 0.512384 6.41298 0.928534 5.2238 1.60535C4.03462 2.28217 3.003 3.20417 2.19739 4.31016H5.32559C6.20508 2.25375 7.54867 0.797342 9.09482 0.384521Z" fill="#313131"/>
<path d="M10.9052 19.6153C12.2675 19.4875 13.587 19.0713 14.7762 18.3945C15.9654 17.7177 16.997 16.7957 17.8026 15.6897H14.6744C13.7949 17.7461 12.4513 19.2025 10.9052 19.6153Z" fill="#313131"/>
<path d="M15.7641 9.75634H19.6539C19.6111 7.9956 19.0861 6.28035 18.1359 4.79736H14.8718C15.4492 6.38757 15.7509 8.06463 15.7641 9.75634Z" fill="#313131"/>
<path d="M14.1565 15.6897H10.2565V19.2307C11.8308 19.1076 13.236 17.7461 14.1565 15.6897Z" fill="#313131"/>
<path d="M9.75645 19.2307V15.6897H5.84363C6.76414 17.7461 8.16927 19.1076 9.75645 19.2307Z" fill="#313131"/>
<path d="M14.8718 15.2025H18.1359C19.0838 13.7232 19.6088 12.0127 19.6539 10.2563H15.7641C15.7495 11.9437 15.4477 13.6163 14.8718 15.2025Z" fill="#313131"/>
</g>
<defs>
<clipPath id="clip0_417_1411">
<rect width="20" height="20" fill="white"/>
</clipPath>
</defs>
</svg>
