<svg width="512" height="512" viewBox="0 0 512 512" fill="none" xmlns="http://www.w3.org/2000/svg">
<g clip-path="url(#clip0_3551_2455)">
<path fill-rule="evenodd" clip-rule="evenodd" d="M256 512C397.385 512 512 397.385 512 256C512 114.615 397.385 0 256 0C114.615 0 0 114.615 0 256C0 397.385 114.615 512 256 512Z" fill="#57BB63"/>
<path fill-rule="evenodd" clip-rule="evenodd" d="M256.608 394.42C232.199 394.42 209.268 388.181 189.317 377.232L112.246 401.723L137.37 327.611C124.698 306.794 117.398 282.381 117.398 256.287C117.398 179.997 179.723 118.154 256.611 118.154C333.49 118.154 395.815 179.997 395.815 256.287C395.815 332.576 333.493 394.42 256.608 394.42ZM256.608 140.152C192.068 140.152 139.57 192.25 139.57 256.287C139.57 281.698 147.853 305.231 161.861 324.378L147.242 367.506L192.216 353.211C210.698 365.344 232.835 372.421 256.608 372.421C321.139 372.421 373.647 320.326 373.647 256.29C373.647 192.254 321.139 140.152 256.608 140.152ZM326.902 288.1C326.045 286.692 323.77 285.841 320.364 284.149C316.948 282.457 300.167 274.262 297.045 273.137C293.913 272.009 291.635 271.439 289.363 274.829C287.092 278.219 280.551 285.841 278.556 288.1C276.565 290.362 274.577 290.646 271.165 288.951C267.755 287.259 256.759 283.683 243.721 272.148C233.579 263.174 226.729 252.096 224.741 248.703C222.75 245.316 224.53 243.485 226.238 241.799C227.772 240.281 229.65 237.845 231.358 235.87C233.065 233.891 233.633 232.483 234.767 230.22C235.907 227.961 235.337 225.986 234.483 224.287C233.629 222.596 226.802 205.934 223.96 199.154C221.118 192.38 218.279 193.508 216.285 193.508C214.293 193.508 212.018 193.224 209.743 193.224C207.469 193.224 203.77 194.072 200.641 197.459C197.515 200.849 188.703 209.041 188.703 225.699C188.703 242.36 200.924 258.458 202.635 260.714C204.34 262.969 226.235 298.271 260.921 311.828C295.621 325.383 295.621 320.862 301.878 320.298C308.126 319.734 322.059 312.109 324.91 304.204C327.749 296.292 327.749 289.512 326.902 288.1Z" fill="white"/>
</g>
<defs>
<clipPath id="clip0_3551_2455">
<rect width="512" height="512" fill="white"/>
</clipPath>
</defs>
</svg>
